%TF.GenerationSoftware,KiCad,Pcbnew,9.0.7*%
%TF.CreationDate,2026-02-20T12:59:28-06:00*%
%TF.ProjectId,Lab2_starter,4c616232-5f73-4746-9172-7465722e6b69,rev?*%
%TF.SameCoordinates,Original*%
%TF.FileFunction,Copper,L4,Bot*%
%TF.FilePolarity,Positive*%
%FSLAX46Y46*%
G04 Gerber Fmt 4.6, Leading zero omitted, Abs format (unit mm)*
G04 Created by KiCad (PCBNEW 9.0.7) date 2026-02-20 12:59:28*
%MOMM*%
%LPD*%
G01*
G04 APERTURE LIST*
G04 Aperture macros list*
%AMRoundRect*
0 Rectangle with rounded corners*
0 $1 Rounding radius*
0 $2 $3 $4 $5 $6 $7 $8 $9 X,Y pos of 4 corners*
0 Add a 4 corners polygon primitive as box body*
4,1,4,$2,$3,$4,$5,$6,$7,$8,$9,$2,$3,0*
0 Add four circle primitives for the rounded corners*
1,1,$1+$1,$2,$3*
1,1,$1+$1,$4,$5*
1,1,$1+$1,$6,$7*
1,1,$1+$1,$8,$9*
0 Add four rect primitives between the rounded corners*
20,1,$1+$1,$2,$3,$4,$5,0*
20,1,$1+$1,$4,$5,$6,$7,0*
20,1,$1+$1,$6,$7,$8,$9,0*
20,1,$1+$1,$8,$9,$2,$3,0*%
%AMRotRect*
0 Rectangle, with rotation*
0 The origin of the aperture is its center*
0 $1 length*
0 $2 width*
0 $3 Rotation angle, in degrees counterclockwise*
0 Add horizontal line*
21,1,$1,$2,0,0,$3*%
G04 Aperture macros list end*
%TA.AperFunction,ComponentPad*%
%ADD10R,1.700000X1.700000*%
%TD*%
%TA.AperFunction,ComponentPad*%
%ADD11O,1.700000X1.700000*%
%TD*%
%TA.AperFunction,ComponentPad*%
%ADD12C,2.300000*%
%TD*%
%TA.AperFunction,ComponentPad*%
%ADD13C,1.200000*%
%TD*%
%TA.AperFunction,ComponentPad*%
%ADD14C,3.600000*%
%TD*%
%TA.AperFunction,ComponentPad*%
%ADD15RotRect,1.625600X1.625600X25.000000*%
%TD*%
%TA.AperFunction,ComponentPad*%
%ADD16C,1.625600*%
%TD*%
%TA.AperFunction,ComponentPad*%
%ADD17R,1.828800X1.828800*%
%TD*%
%TA.AperFunction,ComponentPad*%
%ADD18C,1.828800*%
%TD*%
%TA.AperFunction,ComponentPad*%
%ADD19R,1.905000X2.000000*%
%TD*%
%TA.AperFunction,ComponentPad*%
%ADD20O,1.905000X2.000000*%
%TD*%
%TA.AperFunction,ComponentPad*%
%ADD21R,2.250000X2.250000*%
%TD*%
%TA.AperFunction,ComponentPad*%
%ADD22C,2.250000*%
%TD*%
%TA.AperFunction,ComponentPad*%
%ADD23C,2.000000*%
%TD*%
%TA.AperFunction,ComponentPad*%
%ADD24C,2.800000*%
%TD*%
%TA.AperFunction,ComponentPad*%
%ADD25C,2.600000*%
%TD*%
%TA.AperFunction,ComponentPad*%
%ADD26O,4.200000X2.600000*%
%TD*%
%TA.AperFunction,ComponentPad*%
%ADD27R,1.605000X1.605000*%
%TD*%
%TA.AperFunction,ComponentPad*%
%ADD28C,1.605000*%
%TD*%
%TA.AperFunction,ComponentPad*%
%ADD29R,1.300000X1.300000*%
%TD*%
%TA.AperFunction,ComponentPad*%
%ADD30C,1.300000*%
%TD*%
%TA.AperFunction,ComponentPad*%
%ADD31C,1.371600*%
%TD*%
%TA.AperFunction,SMDPad,CuDef*%
%ADD32RoundRect,0.250000X-0.450000X0.262500X-0.450000X-0.262500X0.450000X-0.262500X0.450000X0.262500X0*%
%TD*%
%TA.AperFunction,SMDPad,CuDef*%
%ADD33RoundRect,0.250000X0.250000X0.475000X-0.250000X0.475000X-0.250000X-0.475000X0.250000X-0.475000X0*%
%TD*%
%TA.AperFunction,SMDPad,CuDef*%
%ADD34RoundRect,0.250000X0.475000X-0.250000X0.475000X0.250000X-0.475000X0.250000X-0.475000X-0.250000X0*%
%TD*%
%TA.AperFunction,ComponentPad*%
%ADD35RoundRect,0.250000X0.550000X0.550000X-0.550000X0.550000X-0.550000X-0.550000X0.550000X-0.550000X0*%
%TD*%
%TA.AperFunction,ComponentPad*%
%ADD36C,1.600000*%
%TD*%
%TA.AperFunction,SMDPad,CuDef*%
%ADD37RoundRect,0.250000X-0.262500X-0.450000X0.262500X-0.450000X0.262500X0.450000X-0.262500X0.450000X0*%
%TD*%
%TA.AperFunction,ComponentPad*%
%ADD38RotRect,2.250000X2.250000X245.000000*%
%TD*%
%TA.AperFunction,SMDPad,CuDef*%
%ADD39RoundRect,0.250000X-0.250000X-0.475000X0.250000X-0.475000X0.250000X0.475000X-0.250000X0.475000X0*%
%TD*%
%TA.AperFunction,SMDPad,CuDef*%
%ADD40RoundRect,0.250000X0.262500X0.450000X-0.262500X0.450000X-0.262500X-0.450000X0.262500X-0.450000X0*%
%TD*%
%TA.AperFunction,SMDPad,CuDef*%
%ADD41RoundRect,0.250000X-0.475000X0.250000X-0.475000X-0.250000X0.475000X-0.250000X0.475000X0.250000X0*%
%TD*%
%TA.AperFunction,SMDPad,CuDef*%
%ADD42RoundRect,0.150000X-0.150000X0.825000X-0.150000X-0.825000X0.150000X-0.825000X0.150000X0.825000X0*%
%TD*%
%TA.AperFunction,ViaPad*%
%ADD43C,0.800000*%
%TD*%
%TA.AperFunction,ViaPad*%
%ADD44C,2.300000*%
%TD*%
%TA.AperFunction,Conductor*%
%ADD45C,1.000000*%
%TD*%
%TA.AperFunction,Conductor*%
%ADD46C,0.500000*%
%TD*%
%TA.AperFunction,Conductor*%
%ADD47C,2.000000*%
%TD*%
G04 APERTURE END LIST*
D10*
%TO.P,U3,80*%
%TO.N,C2000 D *%
X87524600Y-95351600D03*
D11*
%TO.P,U3,79*%
%TO.N,C2000 D'*%
X84984600Y-95351600D03*
%TO.P,U3,78*%
%TO.N,unconnected-(U3-Pad78)*%
X82444600Y-95351600D03*
%TO.P,U3,77*%
%TO.N,unconnected-(U3-Pad77)*%
X79904600Y-95351600D03*
%TO.P,U3,76*%
%TO.N,unconnected-(U3-Pad76)*%
X77364600Y-95351600D03*
%TO.P,U3,75*%
%TO.N,unconnected-(U3-Pad75)*%
X74824600Y-95351600D03*
%TO.P,U3,74*%
%TO.N,unconnected-(U3-Pad74)*%
X72284600Y-95351600D03*
%TO.P,U3,73*%
%TO.N,unconnected-(U3-Pad73)*%
X69744600Y-95351600D03*
%TO.P,U3,72*%
%TO.N,unconnected-(U3-Pad72)*%
X67204600Y-95351600D03*
%TO.P,U3,71*%
%TO.N,unconnected-(U3-Pad71)*%
X64664600Y-95351600D03*
%TO.P,U3,70*%
%TO.N,/ADCINA0*%
X64664600Y-135991600D03*
%TO.P,U3,69*%
%TO.N,/ADCINA12*%
X67204600Y-135991600D03*
%TO.P,U3,68*%
%TO.N,unconnected-(U3-Pad68)*%
X69744600Y-135991600D03*
%TO.P,U3,67*%
%TO.N,unconnected-(U3-Pad67)*%
X72284600Y-135991600D03*
%TO.P,U3,66*%
%TO.N,/ADCINA4*%
X74824600Y-135991600D03*
%TO.P,U3,65*%
%TO.N,unconnected-(U3-Pad65)*%
X77364600Y-135991600D03*
%TO.P,U3,64*%
%TO.N,unconnected-(U3-Pad64)*%
X79904600Y-135991600D03*
%TO.P,U3,63*%
%TO.N,unconnected-(U3-Pad63)*%
X82444600Y-135991600D03*
%TO.P,U3,62*%
%TO.N,GND*%
X84984600Y-135991600D03*
%TO.P,U3,61*%
%TO.N,unconnected-(U3-Pad61)*%
X87524600Y-135991600D03*
%TO.P,U3,60*%
%TO.N,GND*%
X87524600Y-92811600D03*
%TO.P,U3,59*%
%TO.N,unconnected-(U3-Pad59)*%
X84984600Y-92811600D03*
%TO.P,U3,58*%
%TO.N,unconnected-(U3-Pad58)*%
X82444600Y-92811600D03*
%TO.P,U3,57*%
%TO.N,unconnected-(U3-Pad57)*%
X79904600Y-92811600D03*
%TO.P,U3,56*%
%TO.N,unconnected-(U3-Pad56)*%
X77364600Y-92811600D03*
%TO.P,U3,55*%
%TO.N,unconnected-(U3-Pad55)*%
X74824600Y-92811600D03*
%TO.P,U3,54*%
%TO.N,unconnected-(U3-Pad54)*%
X72284600Y-92811600D03*
%TO.P,U3,53*%
%TO.N,unconnected-(U3-Pad53)*%
X69744600Y-92811600D03*
%TO.P,U3,52*%
%TO.N,unconnected-(U3-Pad52)*%
X67204600Y-92811600D03*
%TO.P,U3,51*%
%TO.N,unconnected-(U3-Pad51)*%
X64664600Y-92811600D03*
%TO.P,U3,50*%
%TO.N,unconnected-(U3-Pad50)*%
X64664600Y-138531600D03*
%TO.P,U3,49*%
%TO.N,unconnected-(U3-Pad49)*%
X67204600Y-138531600D03*
%TO.P,U3,48*%
%TO.N,unconnected-(U3-Pad48)*%
X69744600Y-138531600D03*
%TO.P,U3,47*%
%TO.N,unconnected-(U3-Pad47)*%
X72284600Y-138531600D03*
%TO.P,U3,46*%
%TO.N,unconnected-(U3-Pad46)*%
X74824600Y-138531600D03*
%TO.P,U3,45*%
%TO.N,unconnected-(U3-Pad45)*%
X77364600Y-138531600D03*
%TO.P,U3,44*%
%TO.N,unconnected-(U3-Pad44)*%
X79904600Y-138531600D03*
%TO.P,U3,43*%
%TO.N,unconnected-(U3-Pad43)*%
X82444600Y-138531600D03*
%TO.P,U3,42*%
%TO.N,unconnected-(U3-Pad42)*%
X84984600Y-138531600D03*
D10*
%TO.P,U3,41*%
%TO.N,+3.3V*%
X87524600Y-138531600D03*
%TD*%
D12*
%TO.P,Vout sens,1,Pin_1*%
%TO.N,GND*%
X36855400Y-93065600D03*
D13*
%TO.P,Vout sens,2,Pin_2*%
%TO.N,Vout_sens*%
X39395400Y-93065600D03*
%TD*%
D14*
%TO.P,J5,1,Pin_1*%
%TO.N,Vsw*%
X40208200Y-116865400D03*
%TD*%
D15*
%TO.P,RV1,1*%
%TO.N,Vout*%
X36525200Y-137668000D03*
D16*
%TO.P,RV1,2*%
%TO.N,GND*%
X44379054Y-136764133D03*
%TD*%
D12*
%TO.P,Vout,1,Pin_1*%
%TO.N,GND*%
X24104600Y-137947400D03*
D13*
%TO.P,Vout,2,Pin_2*%
%TO.N,Vout*%
X24104600Y-135407400D03*
%TD*%
D17*
%TO.P,D1,1,K*%
%TO.N,Vout*%
X47167800Y-120294400D03*
D18*
%TO.P,D1,2,A*%
%TO.N,GND*%
X47167800Y-138353800D03*
%TD*%
D19*
%TO.P,Q1,1,G*%
%TO.N,D*%
X34960000Y-107616105D03*
D20*
%TO.P,Q1,2,D*%
%TO.N,Vsw*%
X37500000Y-107616105D03*
%TO.P,Q1,3,S*%
%TO.N,GND*%
X40040000Y-107616105D03*
%TD*%
D21*
%TO.P,J1,1,Pin_1*%
%TO.N,Vin_Unfused*%
X106324400Y-120282000D03*
D22*
X106324400Y-137782000D03*
%TD*%
D19*
%TO.P,Q2,1,G*%
%TO.N,D'*%
X34960000Y-113616105D03*
D20*
%TO.P,Q2,2,D*%
%TO.N,Vout*%
X37500000Y-113616105D03*
%TO.P,Q2,3,S*%
%TO.N,Vsw*%
X40040000Y-113616105D03*
%TD*%
D23*
%TO.P,GND,1,1*%
%TO.N,GND*%
X111277400Y-94462600D03*
%TD*%
D14*
%TO.P,J6,1,Pin_1*%
%TO.N,/L_in*%
X91338400Y-93319600D03*
%TD*%
D12*
%TO.P,I_L,1,Pin_1*%
%TO.N,GND*%
X31165800Y-130048000D03*
D13*
%TO.P,I_L,2,Pin_2*%
%TO.N,I_L*%
X33705800Y-130048000D03*
%TD*%
D12*
%TO.P,Vin_sens,1,Pin_1*%
%TO.N,GND*%
X31165800Y-126974600D03*
D13*
%TO.P,Vin_sens,2,Pin_2*%
%TO.N,Vin_sens*%
X33705800Y-126974600D03*
%TD*%
D12*
%TO.P,Vsw,1,Pin_1*%
%TO.N,GND*%
X31165799Y-123850400D03*
D13*
%TO.P,Vsw,2,Pin_2*%
%TO.N,Vsw*%
X33705801Y-123850400D03*
%TD*%
D24*
%TO.P,LB1,*%
%TO.N,GND*%
X58293000Y-136601200D03*
X93853000Y-136601200D03*
%TO.N,I_L*%
X60833000Y-134061200D03*
%TO.N,+3.3V*%
X91313000Y-134061200D03*
%TO.N,GND*%
X58293000Y-131521200D03*
D25*
X63373000Y-131521200D03*
%TO.N,+3.3V*%
X88773000Y-131521200D03*
D24*
%TO.N,GND*%
X93853000Y-131521200D03*
%TO.N,Vin_sens*%
X60833000Y-128981200D03*
%TO.N,GND*%
X91313000Y-128981200D03*
X58293000Y-126441200D03*
D26*
X64135000Y-126441200D03*
X88011000Y-126441200D03*
D24*
X93853000Y-126441200D03*
X60833000Y-123901200D03*
X91313000Y-123901200D03*
X58293000Y-121361200D03*
D26*
X64135000Y-121361200D03*
X88011000Y-121361200D03*
D24*
X93853000Y-121361200D03*
X60833000Y-118821200D03*
X91313000Y-118821200D03*
X58293000Y-116281200D03*
D26*
X64135000Y-116281200D03*
X88011000Y-116281200D03*
D24*
X93853000Y-116281200D03*
%TO.N,Vout_sens*%
X60833000Y-113741200D03*
%TO.N,+3.3V*%
X91313000Y-113741200D03*
%TO.N,GND*%
X58293000Y-111201200D03*
D26*
X64135000Y-111201200D03*
X88011000Y-111201200D03*
D24*
X93853000Y-111201200D03*
X60833000Y-108661200D03*
%TO.N,Vin*%
X91313000Y-108661200D03*
%TO.N,GND*%
X58293000Y-106121200D03*
D26*
X64135000Y-106121200D03*
%TO.N,Vin*%
X88011000Y-106121200D03*
D24*
%TO.N,GND*%
X93853000Y-106121200D03*
%TO.N,+12V*%
X60833000Y-103581200D03*
%TO.N,Vin*%
X91313000Y-103581200D03*
%TO.N,GND*%
X58293000Y-101041200D03*
D25*
%TO.N,+12V*%
X63373000Y-101041200D03*
%TO.N,/L_in*%
X88773000Y-101041200D03*
D24*
%TO.N,GND*%
X93853000Y-101041200D03*
%TO.N,+3.3V*%
X60833000Y-98501200D03*
%TO.N,/L_in*%
X91313000Y-98501200D03*
%TO.N,GND*%
X58293000Y-95961200D03*
X93853000Y-95961200D03*
%TD*%
D23*
%TO.P,Vin,1,1*%
%TO.N,Vin*%
X104851200Y-94411800D03*
%TD*%
D27*
%TO.P,PS1,1,VIN*%
%TO.N,Vin*%
X107845400Y-104495600D03*
D28*
%TO.P,PS1,2,GND*%
%TO.N,GND*%
X107845400Y-101955600D03*
%TO.P,PS1,3,VOUT*%
%TO.N,+3.3V*%
X107845400Y-99415600D03*
%TD*%
D12*
%TO.P,D,1,Pin_1*%
%TO.N,GND*%
X31394398Y-93065600D03*
D13*
%TO.P,D,2,Pin_2*%
%TO.N,D*%
X33934400Y-93065600D03*
%TD*%
D23*
%TO.P,Vboot,1,1*%
%TO.N,Vboot*%
X22352000Y-124124105D03*
%TD*%
%TO.P,D',1,1*%
%TO.N,D'*%
X22910800Y-131013200D03*
%TD*%
%TO.P,GND,1,1*%
%TO.N,GND*%
X25958800Y-127787400D03*
%TD*%
D22*
%TO.P,SW1,*%
%TO.N,*%
X32150000Y-97352505D03*
X42850000Y-97352505D03*
D29*
%TO.P,SW1,1,A*%
%TO.N,+3.3V*%
X35000000Y-98552505D03*
D30*
%TO.P,SW1,2,B*%
%TO.N,SD*%
X37500000Y-98552505D03*
%TO.P,SW1,3,C*%
%TO.N,GND*%
X40000000Y-98552505D03*
%TO.P,SW1,4,C*%
%TO.N,Net-(D4-A)*%
X40000000Y-96152505D03*
%TO.P,SW1,5,B*%
%TO.N,+3.3V*%
X37500000Y-96152505D03*
%TO.P,SW1,6,A*%
%TO.N,Net-(D3-A)*%
X35000000Y-96152505D03*
%TD*%
D31*
%TO.P,C6,1*%
%TO.N,Vin*%
X107442000Y-111476150D03*
%TO.P,C6,2*%
%TO.N,GND*%
X107442000Y-116476150D03*
%TD*%
D23*
%TO.P,GND,1,1*%
%TO.N,GND*%
X92354400Y-138506200D03*
%TD*%
%TO.P,GND,1,1*%
%TO.N,N/C*%
X51816000Y-94310200D03*
%TD*%
D32*
%TO.P,R6,1*%
%TO.N,Vin_sens*%
X78308200Y-102987700D03*
%TO.P,R6,2*%
%TO.N,GND*%
X78308200Y-104812700D03*
%TD*%
D33*
%TO.P,C2,1*%
%TO.N,+3.3V*%
X79994800Y-106643400D03*
%TO.P,C2,2*%
%TO.N,GND*%
X78094800Y-106643400D03*
%TD*%
D34*
%TO.P,C9,1*%
%TO.N,Vout*%
X37900000Y-111516105D03*
%TO.P,C9,2*%
%TO.N,GND*%
X37900000Y-109616105D03*
%TD*%
D35*
%TO.P,U1,1,LO*%
%TO.N,Net-(U1-LO)*%
X30405000Y-105746105D03*
D36*
%TO.P,U1,2,COM*%
%TO.N,GND*%
X30405000Y-108286105D03*
%TO.P,U1,3,VCC*%
%TO.N,+12V*%
X30405000Y-110826105D03*
%TO.P,U1,4,NC*%
%TO.N,unconnected-(U1-NC-Pad4)*%
X30405000Y-113366105D03*
%TO.P,U1,5,VS*%
%TO.N,Vsw*%
X30405000Y-115906105D03*
%TO.P,U1,6,VB*%
%TO.N,Vboot*%
X30405000Y-118446105D03*
%TO.P,U1,7,HO*%
%TO.N,Net-(U1-HO)*%
X30405000Y-120986105D03*
%TO.P,U1,8,NC*%
%TO.N,unconnected-(U1-NC-Pad8)*%
X22785000Y-120986105D03*
%TO.P,U1,9,VDD*%
%TO.N,+3.3V*%
X22785000Y-118446105D03*
%TO.P,U1,10,HIN*%
%TO.N,C2000 D'*%
X22785000Y-115906105D03*
%TO.P,U1,11,SD*%
%TO.N,SD*%
X22785000Y-113366105D03*
%TO.P,U1,12,LIN*%
%TO.N,C2000 D *%
X22785000Y-110826105D03*
%TO.P,U1,13,VSS*%
%TO.N,GND*%
X22785000Y-108286105D03*
%TO.P,U1,14,NC*%
%TO.N,unconnected-(U1-NC-Pad14)*%
X22785000Y-105746105D03*
%TD*%
D23*
%TO.P,3V3,1,1*%
%TO.N,+3.3V*%
X43332400Y-93014800D03*
%TD*%
D22*
%TO.P,F1,1*%
%TO.N,Vin_Unfused*%
X101600000Y-117675200D03*
%TO.P,F1,2*%
%TO.N,Vin*%
X101600000Y-95075200D03*
%TD*%
D12*
%TO.P,C2D,1,Pin_1*%
%TO.N,GND*%
X22987000Y-99867105D03*
D13*
%TO.P,C2D,2,Pin_2*%
%TO.N,C2000 D *%
X22987000Y-102407105D03*
%TD*%
D37*
%TO.P,R8,1*%
%TO.N,/ADCINA0*%
X65424100Y-133480850D03*
%TO.P,R8,2*%
%TO.N,Vout_sens*%
X67249100Y-133480850D03*
%TD*%
D23*
%TO.P,Vsw,1,1*%
%TO.N,Vsw*%
X41706800Y-115087400D03*
%TD*%
D37*
%TO.P,R7,1*%
%TO.N,/ADCINA12*%
X69089900Y-133555200D03*
%TO.P,R7,2*%
%TO.N,I_L*%
X70914900Y-133555200D03*
%TD*%
D33*
%TO.P,C14,1*%
%TO.N,/ADCINA4*%
X74610000Y-131572000D03*
%TO.P,C14,2*%
%TO.N,GND*%
X72710000Y-131572000D03*
%TD*%
D21*
%TO.P,J3,1,Pin_1*%
%TO.N,Vout*%
X52400200Y-120269600D03*
D22*
X52400200Y-137769600D03*
%TD*%
D38*
%TO.P,J4,1,Pin_1*%
%TO.N,GND*%
X35676510Y-122194007D03*
D22*
X28280690Y-138054393D03*
%TD*%
D12*
%TO.P,C2D',1,Pin_1*%
%TO.N,GND*%
X23114000Y-93771105D03*
D13*
%TO.P,C2D',2,Pin_2*%
%TO.N,C2000 D'*%
X23114000Y-96311105D03*
%TD*%
D39*
%TO.P,C8,1*%
%TO.N,/ADCINA12*%
X69052400Y-131572000D03*
%TO.P,C8,2*%
%TO.N,GND*%
X70952400Y-131572000D03*
%TD*%
D40*
%TO.P,R5,1*%
%TO.N,Vin*%
X79931900Y-101055400D03*
%TO.P,R5,2*%
%TO.N,Vin_sens*%
X78106900Y-101055400D03*
%TD*%
D41*
%TO.P,C20,1*%
%TO.N,+3.3V*%
X81483200Y-108370600D03*
%TO.P,C20,2*%
%TO.N,GND*%
X81483200Y-110270600D03*
%TD*%
D39*
%TO.P,C11,1*%
%TO.N,/ADCINA0*%
X65445600Y-131521200D03*
%TO.P,C11,2*%
%TO.N,GND*%
X67345600Y-131521200D03*
%TD*%
%TO.P,C4,1*%
%TO.N,+3.3V*%
X26307945Y-123677035D03*
%TO.P,C4,2*%
%TO.N,GND*%
X28207943Y-123677035D03*
%TD*%
D34*
%TO.P,C12,1*%
%TO.N,Vout*%
X39935000Y-111516105D03*
%TO.P,C12,2*%
%TO.N,GND*%
X39935000Y-109616105D03*
%TD*%
D23*
%TO.P,GND,1,1*%
%TO.N,GND*%
X46939200Y-112598200D03*
%TD*%
D32*
%TO.P,R3,1*%
%TO.N,Net-(U1-LO)*%
X32700000Y-106053605D03*
%TO.P,R3,2*%
%TO.N,D*%
X32700000Y-107878605D03*
%TD*%
D23*
%TO.P,12V,1,1*%
%TO.N,+12V*%
X62077600Y-92811600D03*
%TD*%
D41*
%TO.P,C21,1*%
%TO.N,+3.3V*%
X79806800Y-108370600D03*
%TO.P,C21,2*%
%TO.N,GND*%
X79806800Y-110270600D03*
%TD*%
D42*
%TO.P,U2,1,IP+*%
%TO.N,Vin*%
X81381600Y-101171200D03*
%TO.P,U2,2,IP+*%
X82651600Y-101171200D03*
%TO.P,U2,3,IP-*%
%TO.N,/L_in*%
X83921600Y-101171200D03*
%TO.P,U2,4,IP-*%
X85191600Y-101171200D03*
%TO.P,U2,5,GND*%
%TO.N,GND*%
X85191600Y-106121200D03*
%TO.P,U2,6,FILTER*%
%TO.N,Net-(U2-FILTER)*%
X83921600Y-106121200D03*
%TO.P,U2,7,OUT*%
%TO.N,I_L*%
X82651600Y-106121200D03*
%TO.P,U2,8,VCC*%
%TO.N,+3.3V*%
X81381600Y-106121200D03*
%TD*%
D31*
%TO.P,C16,1*%
%TO.N,Vout*%
X42875200Y-127046350D03*
%TO.P,C16,2*%
%TO.N,GND*%
X42875200Y-132046350D03*
%TD*%
D40*
%TO.P,R9,1*%
%TO.N,/ADCINA4*%
X74572500Y-133563082D03*
%TO.P,R9,2*%
%TO.N,Vin_sens*%
X72747500Y-133563082D03*
%TD*%
%TO.P,R2,1*%
%TO.N,Vout_sens*%
X43615000Y-109330105D03*
%TO.P,R2,2*%
%TO.N,GND*%
X41790000Y-109330105D03*
%TD*%
D27*
%TO.P,PS2,1,VIN*%
%TO.N,Vin*%
X73846900Y-103095986D03*
D28*
%TO.P,PS2,2,GND*%
%TO.N,GND*%
X71306900Y-103095986D03*
%TO.P,PS2,3,VOUT*%
%TO.N,+12V*%
X68766900Y-103095986D03*
%TD*%
D34*
%TO.P,C19,1*%
%TO.N,+12V*%
X32512000Y-111516105D03*
%TO.P,C19,2*%
%TO.N,GND*%
X32512000Y-109616105D03*
%TD*%
D23*
%TO.P,Vin_Unfused,1,1*%
%TO.N,Vin_Unfused*%
X99872800Y-137795000D03*
%TD*%
D39*
%TO.P,C1,1*%
%TO.N,Net-(U2-FILTER)*%
X83784400Y-108396000D03*
%TO.P,C1,2*%
%TO.N,GND*%
X85684400Y-108396000D03*
%TD*%
D21*
%TO.P,J2,1,Pin_1*%
%TO.N,GND*%
X111556800Y-120282000D03*
D22*
X111556800Y-137782000D03*
%TD*%
D37*
%TO.P,R1,1*%
%TO.N,Vout*%
X41790000Y-111362105D03*
%TO.P,R1,2*%
%TO.N,Vout_sens*%
X43615000Y-111362105D03*
%TD*%
D34*
%TO.P,C15,1*%
%TO.N,Vout*%
X35835000Y-111516105D03*
%TO.P,C15,2*%
%TO.N,GND*%
X35835000Y-109616105D03*
%TD*%
D43*
%TO.N,+3.3V*%
X24980000Y-107766505D03*
X80848200Y-107467400D03*
D44*
%TO.N,GND*%
X68605600Y-129489200D03*
X72390000Y-129362200D03*
D43*
X78181200Y-109931200D03*
X78079600Y-108585000D03*
%TO.N,C2000 D *%
X32486600Y-103251000D03*
%TO.N,C2000 D'*%
X33680400Y-102401000D03*
%TO.N,Vin_sens*%
X73342614Y-132810450D03*
X75361800Y-113004600D03*
%TO.N,Vout_sens*%
X67919600Y-117678200D03*
X66649600Y-132740400D03*
%TO.N,I_L*%
X70916800Y-115646200D03*
X70205600Y-132943600D03*
%TD*%
D45*
%TO.N,+3.3V*%
X24866600Y-107766505D02*
X24638000Y-107995105D01*
X24638000Y-107995105D02*
X24638000Y-116593105D01*
X26307945Y-121969050D02*
X26307945Y-123677035D01*
X24980000Y-107766505D02*
X24866600Y-107766505D01*
X22785000Y-118446105D02*
X26307945Y-121969050D01*
X24638000Y-116593105D02*
X22785000Y-118446105D01*
%TO.N,GND*%
X88011000Y-111201200D02*
X88011000Y-110722600D01*
X31735000Y-109616105D02*
X32512000Y-109616105D01*
X41504000Y-109616105D02*
X32512000Y-109616105D01*
X85191600Y-106121200D02*
X85191600Y-107903200D01*
X30405000Y-108286105D02*
X31735000Y-109616105D01*
X30992434Y-123677035D02*
X31165799Y-123850400D01*
X85191600Y-107903200D02*
X85684400Y-108396000D01*
X41790000Y-109330105D02*
X41504000Y-109616105D01*
X88011000Y-110722600D02*
X85684400Y-108396000D01*
X28207943Y-123677035D02*
X30992434Y-123677035D01*
%TO.N,Net-(U1-LO)*%
X32700000Y-106053605D02*
X30712500Y-106053605D01*
X30712500Y-106053605D02*
X30405000Y-105746105D01*
D46*
%TO.N,/ADCINA12*%
X69089900Y-133856100D02*
X69089900Y-133555200D01*
X69052400Y-133517700D02*
X69089900Y-133555200D01*
X69052400Y-131572000D02*
X69052400Y-133517700D01*
X67204600Y-135741400D02*
X69089900Y-133856100D01*
X67204600Y-135991600D02*
X67204600Y-135741400D01*
%TO.N,/ADCINA0*%
X65328800Y-134315200D02*
X65328800Y-133576150D01*
X64664600Y-135991600D02*
X64664600Y-135233400D01*
X64664600Y-135233400D02*
X65074800Y-134823200D01*
X65074800Y-134569200D02*
X65328800Y-134315200D01*
X65424100Y-133480850D02*
X65424100Y-131542700D01*
X65328800Y-133576150D02*
X65424100Y-133480850D01*
X65074800Y-134823200D02*
X65074800Y-134569200D01*
X65424100Y-131542700D02*
X65445600Y-131521200D01*
%TO.N,/ADCINA4*%
X74610000Y-133525582D02*
X74572500Y-133563082D01*
X74610000Y-131572000D02*
X74610000Y-133525582D01*
X74625200Y-133615782D02*
X74572500Y-133563082D01*
X74625200Y-135792200D02*
X74625200Y-133615782D01*
X74824600Y-135991600D02*
X74625200Y-135792200D01*
D45*
%TO.N,+12V*%
X31095000Y-111516105D02*
X30405000Y-110826105D01*
D46*
X68766900Y-103095986D02*
X68766900Y-102980700D01*
X68766900Y-102980700D02*
X62077600Y-96291400D01*
D45*
X32512000Y-111516105D02*
X31095000Y-111516105D01*
D46*
X62077600Y-96291400D02*
X62077600Y-92811600D01*
D45*
%TO.N,Vout*%
X39935000Y-111516105D02*
X38735000Y-111516105D01*
X37500000Y-113616105D02*
X37500000Y-112751105D01*
X38735000Y-111516105D02*
X35835000Y-111516105D01*
X37500000Y-112751105D02*
X38735000Y-111516105D01*
D47*
%TO.N,Vsw*%
X40040000Y-113616105D02*
X40040000Y-116697200D01*
X40040000Y-116697200D02*
X40208200Y-116865400D01*
D45*
%TO.N,D*%
X34960000Y-107616105D02*
X34975800Y-107600305D01*
D46*
X34960000Y-101863600D02*
X33756600Y-100660200D01*
D45*
X32700000Y-107878605D02*
X34697500Y-107878605D01*
D46*
X33756600Y-93243400D02*
X33934400Y-93065600D01*
D45*
X34697500Y-107878605D02*
X34960000Y-107616105D01*
D46*
X34960000Y-107616105D02*
X34960000Y-101863600D01*
X33756600Y-100660200D02*
X33756600Y-93243400D01*
%TO.N,C2000 D'*%
X33135200Y-102401000D02*
X33680400Y-102401000D01*
X23114000Y-96311105D02*
X27045305Y-96311105D01*
X27045305Y-96311105D02*
X33135200Y-102401000D01*
D45*
%TO.N,Vin_sens*%
X78106900Y-102786400D02*
X78308200Y-102987700D01*
X78106900Y-101055400D02*
X78106900Y-102786400D01*
D46*
X73342614Y-132810450D02*
X73342614Y-132967968D01*
X73342614Y-132967968D02*
X72747500Y-133563082D01*
X75361800Y-113004600D02*
X75361800Y-105934100D01*
X75361800Y-105934100D02*
X78308200Y-102987700D01*
%TO.N,Vout_sens*%
X64871288Y-113741200D02*
X60833000Y-113741200D01*
X66649600Y-132740400D02*
X66649600Y-132881350D01*
X43484800Y-95529400D02*
X41859200Y-95529400D01*
X41859200Y-95529400D02*
X39395400Y-93065600D01*
X67208400Y-116967000D02*
X67208400Y-116078312D01*
X44754800Y-96799400D02*
X43484800Y-95529400D01*
X53323105Y-109330105D02*
X43615000Y-109330105D01*
X67208400Y-116967000D02*
X67919600Y-117678200D01*
X60833000Y-113741200D02*
X57734200Y-113741200D01*
X44754800Y-108190305D02*
X44754800Y-96799400D01*
X43615000Y-109330105D02*
X44754800Y-108190305D01*
X66649600Y-132881350D02*
X67249100Y-133480850D01*
X57734200Y-113741200D02*
X53323105Y-109330105D01*
X43615000Y-109330105D02*
X43615000Y-111362105D01*
X67208400Y-116078312D02*
X64871288Y-113741200D01*
%TO.N,I_L*%
X82804000Y-106273600D02*
X82804000Y-110673092D01*
X77830892Y-115646200D02*
X70916800Y-115646200D01*
X82651600Y-106121200D02*
X82804000Y-106273600D01*
X82804000Y-110673092D02*
X77830892Y-115646200D01*
X70303300Y-132943600D02*
X70914900Y-133555200D01*
X70205600Y-132943600D02*
X70303300Y-132943600D01*
%TO.N,Net-(U2-FILTER)*%
X83921600Y-106121200D02*
X83921600Y-108258800D01*
X83921600Y-108258800D02*
X83784400Y-108396000D01*
%TD*%
%TA.AperFunction,Conductor*%
%TO.N,Vin*%
G36*
X110758742Y-91446928D02*
G01*
X111010290Y-91509936D01*
X111018449Y-91512280D01*
X111048363Y-91522000D01*
X111064949Y-91527389D01*
X111068405Y-91528568D01*
X111341762Y-91626375D01*
X111350422Y-91629847D01*
X111376533Y-91641472D01*
X111379115Y-91642657D01*
X111658727Y-91774902D01*
X111669459Y-91780638D01*
X111953582Y-91950933D01*
X111963700Y-91957694D01*
X112086506Y-92048772D01*
X112229758Y-92155014D01*
X112239161Y-92162731D01*
X112484592Y-92385175D01*
X112493197Y-92393779D01*
X112715652Y-92639219D01*
X112723372Y-92648626D01*
X112920696Y-92914685D01*
X112927456Y-92924803D01*
X113097745Y-93208910D01*
X113103481Y-93219642D01*
X113195894Y-93415031D01*
X113207800Y-93468048D01*
X113207800Y-112296400D01*
X113188115Y-112363439D01*
X113135311Y-112409194D01*
X113083800Y-112420400D01*
X107372972Y-112420400D01*
X107358675Y-112419573D01*
X95540904Y-111047866D01*
X95476581Y-111020583D01*
X95437220Y-110962856D01*
X95432728Y-110944091D01*
X95414090Y-110826415D01*
X95336241Y-110586821D01*
X95336239Y-110586818D01*
X95336239Y-110586816D01*
X95294747Y-110505384D01*
X95221870Y-110362355D01*
X95202952Y-110336317D01*
X95073798Y-110158550D01*
X95073794Y-110158545D01*
X94895654Y-109980405D01*
X94895649Y-109980401D01*
X94691848Y-109832332D01*
X94691847Y-109832331D01*
X94691845Y-109832330D01*
X94621747Y-109796613D01*
X94467383Y-109717960D01*
X94227785Y-109640110D01*
X93978962Y-109600700D01*
X93727038Y-109600700D01*
X93602626Y-109620405D01*
X93478214Y-109640110D01*
X93238616Y-109717960D01*
X93014151Y-109832332D01*
X92810350Y-109980401D01*
X92810345Y-109980405D01*
X92632205Y-110158545D01*
X92632201Y-110158550D01*
X92484132Y-110362351D01*
X92369757Y-110586824D01*
X92368850Y-110589014D01*
X92368283Y-110589717D01*
X92367547Y-110591162D01*
X92367243Y-110591007D01*
X92325005Y-110643414D01*
X92258709Y-110665474D01*
X92239995Y-110664726D01*
X90313669Y-110441134D01*
X90281442Y-110432902D01*
X90067985Y-110346502D01*
X90014192Y-110304447D01*
X89955521Y-110223696D01*
X89955517Y-110223690D01*
X89788510Y-110056683D01*
X89597433Y-109917857D01*
X89386996Y-109810633D01*
X89162368Y-109737646D01*
X88929097Y-109700700D01*
X88929092Y-109700700D01*
X88496614Y-109700700D01*
X88488997Y-109699216D01*
X88484357Y-109700093D01*
X88450090Y-109691641D01*
X88219717Y-109598394D01*
X88192788Y-109583356D01*
X86967191Y-108682244D01*
X86963905Y-108680208D01*
X86941547Y-108662490D01*
X86421219Y-108142162D01*
X86387734Y-108080839D01*
X86384900Y-108054481D01*
X86384900Y-107866730D01*
X86382046Y-107836300D01*
X86382046Y-107836298D01*
X86348406Y-107740163D01*
X86337193Y-107708118D01*
X86256550Y-107598850D01*
X86147282Y-107518207D01*
X86147280Y-107518206D01*
X86019100Y-107473353D01*
X86004519Y-107471986D01*
X85939611Y-107446127D01*
X85898988Y-107389280D01*
X85892100Y-107348528D01*
X85892100Y-106052207D01*
X85884611Y-106014556D01*
X85884611Y-106014553D01*
X85880769Y-105995238D01*
X92252500Y-105995238D01*
X92252500Y-106247161D01*
X92291910Y-106495985D01*
X92369760Y-106735583D01*
X92436670Y-106866900D01*
X92483132Y-106958087D01*
X92484132Y-106960048D01*
X92632201Y-107163849D01*
X92632205Y-107163854D01*
X92810345Y-107341994D01*
X92810350Y-107341998D01*
X92987219Y-107470500D01*
X93014155Y-107490070D01*
X93124821Y-107546457D01*
X93238616Y-107604439D01*
X93238618Y-107604439D01*
X93238621Y-107604441D01*
X93478215Y-107682290D01*
X93727038Y-107721700D01*
X93727039Y-107721700D01*
X93978961Y-107721700D01*
X93978962Y-107721700D01*
X94227785Y-107682290D01*
X94467379Y-107604441D01*
X94691845Y-107490070D01*
X94895656Y-107341993D01*
X95073793Y-107163856D01*
X95221870Y-106960045D01*
X95336241Y-106735579D01*
X95414090Y-106495985D01*
X95453500Y-106247162D01*
X95453500Y-105995238D01*
X95414090Y-105746415D01*
X95336241Y-105506821D01*
X95336239Y-105506818D01*
X95336239Y-105506816D01*
X95294747Y-105425384D01*
X95221870Y-105282355D01*
X95081911Y-105089717D01*
X95073798Y-105078550D01*
X95073794Y-105078545D01*
X94895654Y-104900405D01*
X94895649Y-104900401D01*
X94691848Y-104752332D01*
X94691847Y-104752331D01*
X94691845Y-104752330D01*
X94621747Y-104716613D01*
X94467383Y-104637960D01*
X94227785Y-104560110D01*
X93978962Y-104520700D01*
X93727038Y-104520700D01*
X93602626Y-104540405D01*
X93478214Y-104560110D01*
X93238616Y-104637960D01*
X93014151Y-104752332D01*
X92810350Y-104900401D01*
X92810345Y-104900405D01*
X92632205Y-105078545D01*
X92632201Y-105078550D01*
X92484132Y-105282351D01*
X92369760Y-105506816D01*
X92291910Y-105746414D01*
X92252500Y-105995238D01*
X85880769Y-105995238D01*
X85865181Y-105916877D01*
X85865180Y-105916876D01*
X85865180Y-105916872D01*
X85835928Y-105846250D01*
X85812378Y-105789395D01*
X85812371Y-105789382D01*
X85735714Y-105674658D01*
X85735711Y-105674654D01*
X85728419Y-105667362D01*
X85694934Y-105606039D01*
X85692100Y-105579681D01*
X85692100Y-105262939D01*
X85682173Y-105194808D01*
X85682173Y-105194807D01*
X85630798Y-105089717D01*
X85630796Y-105089715D01*
X85630796Y-105089714D01*
X85548085Y-105007003D01*
X85442991Y-104955626D01*
X85374861Y-104945700D01*
X85374860Y-104945700D01*
X85008340Y-104945700D01*
X85008339Y-104945700D01*
X84940208Y-104955626D01*
X84835114Y-105007003D01*
X84752403Y-105089714D01*
X84701026Y-105194808D01*
X84691100Y-105262939D01*
X84691100Y-105579681D01*
X84683403Y-105605892D01*
X84679113Y-105632870D01*
X84672892Y-105641687D01*
X84671415Y-105646720D01*
X84659591Y-105662273D01*
X84657254Y-105664889D01*
X84647486Y-105674658D01*
X84644378Y-105679309D01*
X84638591Y-105685790D01*
X84615997Y-105699837D01*
X84595583Y-105716897D01*
X84586785Y-105718001D01*
X84579256Y-105722683D01*
X84552653Y-105722286D01*
X84526257Y-105725600D01*
X84518259Y-105721773D01*
X84509394Y-105721641D01*
X84487226Y-105706922D01*
X84463232Y-105695441D01*
X84458573Y-105687899D01*
X84451186Y-105682994D01*
X84440496Y-105658630D01*
X84426516Y-105635996D01*
X84424723Y-105622682D01*
X84423113Y-105619012D01*
X84423717Y-105615211D01*
X84422100Y-105603198D01*
X84422100Y-105262939D01*
X84412173Y-105194808D01*
X84412173Y-105194807D01*
X84360798Y-105089717D01*
X84360796Y-105089715D01*
X84360796Y-105089714D01*
X84278085Y-105007003D01*
X84172991Y-104955626D01*
X84104861Y-104945700D01*
X84104860Y-104945700D01*
X83738340Y-104945700D01*
X83738339Y-104945700D01*
X83670208Y-104955626D01*
X83565114Y-105007003D01*
X83482403Y-105089714D01*
X83431026Y-105194808D01*
X83421100Y-105262939D01*
X83421100Y-105978674D01*
X83420239Y-105981603D01*
X83420960Y-105984573D01*
X83410457Y-106014919D01*
X83401415Y-106045713D01*
X83399107Y-106047712D01*
X83398108Y-106050600D01*
X83372862Y-106070454D01*
X83348611Y-106091468D01*
X83345589Y-106091902D01*
X83343188Y-106093791D01*
X83311231Y-106096842D01*
X83279453Y-106101412D01*
X83276673Y-106100142D01*
X83273634Y-106100433D01*
X83245103Y-106085725D01*
X83215897Y-106072387D01*
X83213426Y-106069395D01*
X83211531Y-106068418D01*
X83189714Y-106040675D01*
X83168714Y-106004303D01*
X83152100Y-105942302D01*
X83152100Y-105262939D01*
X83142173Y-105194808D01*
X83142173Y-105194807D01*
X83090798Y-105089717D01*
X83090796Y-105089715D01*
X83090796Y-105089714D01*
X83008085Y-105007003D01*
X82902991Y-104955626D01*
X82834861Y-104945700D01*
X82834860Y-104945700D01*
X82468340Y-104945700D01*
X82468339Y-104945700D01*
X82400208Y-104955626D01*
X82295114Y-105007003D01*
X82212403Y-105089714D01*
X82161026Y-105194808D01*
X82151100Y-105262939D01*
X82151100Y-106958087D01*
X82141991Y-106989108D01*
X82134250Y-107020495D01*
X82132207Y-107022428D01*
X82131415Y-107025126D01*
X82106987Y-107046292D01*
X82083500Y-107068518D01*
X82080735Y-107069039D01*
X82078611Y-107070881D01*
X82046616Y-107075481D01*
X82014843Y-107081480D01*
X82011180Y-107080576D01*
X82009453Y-107080825D01*
X81980576Y-107073028D01*
X81959576Y-107064528D01*
X81904820Y-107021129D01*
X81882219Y-106955016D01*
X81882100Y-106949587D01*
X81882100Y-105262939D01*
X81872173Y-105194808D01*
X81872173Y-105194807D01*
X81820798Y-105089717D01*
X81820796Y-105089715D01*
X81820796Y-105089714D01*
X81738085Y-105007003D01*
X81632991Y-104955626D01*
X81564861Y-104945700D01*
X81564860Y-104945700D01*
X81198340Y-104945700D01*
X81198339Y-104945700D01*
X81130208Y-104955626D01*
X81025114Y-105007003D01*
X80942403Y-105089714D01*
X80891026Y-105194808D01*
X80881100Y-105262939D01*
X80881100Y-105455426D01*
X80861415Y-105522465D01*
X80808611Y-105568220D01*
X80739453Y-105578164D01*
X80675897Y-105549139D01*
X80658341Y-105530410D01*
X79705293Y-104275176D01*
X79680431Y-104209879D01*
X79680054Y-104199444D01*
X79680063Y-104197993D01*
X79726376Y-96525349D01*
X79746465Y-96458432D01*
X79799544Y-96412997D01*
X79850374Y-96402100D01*
X80008066Y-96402100D01*
X80008067Y-96402099D01*
X80211020Y-96361730D01*
X80402198Y-96282541D01*
X80574255Y-96167577D01*
X80720577Y-96021255D01*
X80835541Y-95849198D01*
X80914730Y-95658020D01*
X80955100Y-95455065D01*
X80955100Y-95248135D01*
X80914730Y-95045180D01*
X80835541Y-94854002D01*
X80720577Y-94681945D01*
X80720575Y-94681942D01*
X80574257Y-94535624D01*
X80469113Y-94465370D01*
X80402198Y-94420659D01*
X80211020Y-94341470D01*
X80211012Y-94341468D01*
X80008069Y-94301100D01*
X80008065Y-94301100D01*
X79864553Y-94301100D01*
X79855505Y-94298443D01*
X79846165Y-94299729D01*
X79822519Y-94288757D01*
X79797514Y-94281415D01*
X79791340Y-94274290D01*
X79782786Y-94270321D01*
X79768824Y-94248305D01*
X79751759Y-94228611D01*
X79749421Y-94217710D01*
X79745367Y-94211316D01*
X79740555Y-94176357D01*
X79741708Y-93985347D01*
X79761797Y-93918432D01*
X79814876Y-93872997D01*
X79865706Y-93862100D01*
X80008066Y-93862100D01*
X80008067Y-93862099D01*
X80211020Y-93821730D01*
X80402198Y-93742541D01*
X80574255Y-93627577D01*
X80720577Y-93481255D01*
X80835541Y-93309198D01*
X80914730Y-93118020D01*
X80955100Y-92915065D01*
X80955100Y-92708135D01*
X80914730Y-92505180D01*
X80835541Y-92314002D01*
X80720577Y-92141945D01*
X80720575Y-92141942D01*
X80574257Y-91995624D01*
X80402195Y-91880657D01*
X80339715Y-91854777D01*
X80285311Y-91810935D01*
X80263247Y-91744641D01*
X80280527Y-91676942D01*
X80331664Y-91629332D01*
X80386853Y-91616216D01*
X81971321Y-91612240D01*
X82038407Y-91631757D01*
X82084295Y-91684446D01*
X82094412Y-91753579D01*
X82065546Y-91817207D01*
X82019084Y-91850801D01*
X81947002Y-91880658D01*
X81774942Y-91995624D01*
X81628624Y-92141942D01*
X81513658Y-92314003D01*
X81434470Y-92505179D01*
X81434468Y-92505187D01*
X81394100Y-92708130D01*
X81394100Y-92915069D01*
X81434468Y-93118012D01*
X81434470Y-93118020D01*
X81513658Y-93309196D01*
X81628624Y-93481257D01*
X81774942Y-93627575D01*
X81774945Y-93627577D01*
X81947002Y-93742541D01*
X82138180Y-93821730D01*
X82269968Y-93847944D01*
X82341130Y-93862099D01*
X82341134Y-93862100D01*
X82341135Y-93862100D01*
X82548066Y-93862100D01*
X82548067Y-93862099D01*
X82751020Y-93821730D01*
X82942198Y-93742541D01*
X82994609Y-93707520D01*
X83061287Y-93686643D01*
X83128667Y-93705128D01*
X83175357Y-93757106D01*
X83187500Y-93810623D01*
X83187500Y-94352576D01*
X83167815Y-94419615D01*
X83115011Y-94465370D01*
X83045853Y-94475314D01*
X82994610Y-94455679D01*
X82968595Y-94438296D01*
X82942198Y-94420659D01*
X82751020Y-94341470D01*
X82751012Y-94341468D01*
X82548069Y-94301100D01*
X82548065Y-94301100D01*
X82341135Y-94301100D01*
X82341130Y-94301100D01*
X82138187Y-94341468D01*
X82138179Y-94341470D01*
X81947003Y-94420658D01*
X81774942Y-94535624D01*
X81628624Y-94681942D01*
X81513658Y-94854003D01*
X81434470Y-95045179D01*
X81434468Y-95045187D01*
X81394100Y-95248130D01*
X81394100Y-95455069D01*
X81434468Y-95658012D01*
X81434470Y-95658020D01*
X81513658Y-95849196D01*
X81628624Y-96021257D01*
X81774942Y-96167575D01*
X81774945Y-96167577D01*
X81947002Y-96282541D01*
X82138180Y-96361730D01*
X82341130Y-96402099D01*
X82341134Y-96402100D01*
X82341135Y-96402100D01*
X82548066Y-96402100D01*
X82548067Y-96402099D01*
X82751020Y-96361730D01*
X82942198Y-96282541D01*
X82994609Y-96247520D01*
X83061287Y-96226643D01*
X83128667Y-96245128D01*
X83175357Y-96297106D01*
X83187500Y-96350623D01*
X83187500Y-102151617D01*
X83198614Y-102257024D01*
X83198617Y-102257048D01*
X83209402Y-102307619D01*
X83209402Y-102307621D01*
X83231782Y-102376262D01*
X83242269Y-102408426D01*
X83315494Y-102524439D01*
X83319065Y-102530097D01*
X83364390Y-102583276D01*
X83472348Y-102678378D01*
X83472349Y-102678378D01*
X83472350Y-102678379D01*
X83602735Y-102739217D01*
X83669612Y-102759449D01*
X83811856Y-102781088D01*
X89825221Y-102830236D01*
X89881341Y-102827572D01*
X89881356Y-102827570D01*
X89881364Y-102827570D01*
X89900170Y-102825625D01*
X89908712Y-102824742D01*
X89964169Y-102815872D01*
X90058365Y-102780739D01*
X90098968Y-102765596D01*
X90098973Y-102765594D01*
X90098973Y-102765593D01*
X90098978Y-102765592D01*
X90153811Y-102735651D01*
X90154919Y-102735129D01*
X90160303Y-102732107D01*
X90160302Y-102732107D01*
X90160306Y-102732106D01*
X90275488Y-102645881D01*
X90385497Y-102535870D01*
X90397677Y-102525189D01*
X90529873Y-102423752D01*
X90543346Y-102414750D01*
X90687648Y-102331437D01*
X90702182Y-102324270D01*
X90856137Y-102260500D01*
X90871465Y-102255297D01*
X91032430Y-102212166D01*
X91048318Y-102209006D01*
X91179171Y-102191780D01*
X91213500Y-102187261D01*
X91229684Y-102186200D01*
X91396307Y-102186200D01*
X91412490Y-102187260D01*
X91577679Y-102209007D01*
X91593574Y-102212168D01*
X91756702Y-102255879D01*
X91851476Y-102271816D01*
X91851477Y-102271816D01*
X91851483Y-102271817D01*
X91876687Y-102273619D01*
X91898290Y-102275164D01*
X91994362Y-102272877D01*
X92133340Y-102235638D01*
X92197568Y-102208134D01*
X92320424Y-102133250D01*
X92411156Y-102033441D01*
X92470814Y-101997078D01*
X92540664Y-101998741D01*
X92598527Y-102037903D01*
X92603226Y-102043968D01*
X92632201Y-102083850D01*
X92810345Y-102261994D01*
X92810350Y-102261998D01*
X92988117Y-102391152D01*
X93014155Y-102410070D01*
X93157184Y-102482947D01*
X93238616Y-102524439D01*
X93238618Y-102524439D01*
X93238621Y-102524441D01*
X93478215Y-102602290D01*
X93727038Y-102641700D01*
X93727039Y-102641700D01*
X93978961Y-102641700D01*
X93978962Y-102641700D01*
X94227785Y-102602290D01*
X94467379Y-102524441D01*
X94691845Y-102410070D01*
X94895656Y-102261993D01*
X95073793Y-102083856D01*
X95095202Y-102054389D01*
X106842399Y-102054389D01*
X106880943Y-102248158D01*
X106880946Y-102248168D01*
X106956549Y-102430692D01*
X106956556Y-102430705D01*
X107066318Y-102594974D01*
X107066321Y-102594978D01*
X107206021Y-102734678D01*
X107206025Y-102734681D01*
X107370294Y-102844443D01*
X107370307Y-102844450D01*
X107552831Y-102920053D01*
X107552836Y-102920055D01*
X107552840Y-102920055D01*
X107552841Y-102920056D01*
X107746610Y-102958600D01*
X107746613Y-102958600D01*
X107944189Y-102958600D01*
X108074554Y-102932668D01*
X108137964Y-102920055D01*
X108320499Y-102844447D01*
X108484775Y-102734681D01*
X108624481Y-102594975D01*
X108734247Y-102430699D01*
X108737123Y-102423757D01*
X108778333Y-102324266D01*
X108809855Y-102248164D01*
X108832713Y-102133249D01*
X108848400Y-102054389D01*
X108848400Y-101856810D01*
X108809856Y-101663041D01*
X108809855Y-101663040D01*
X108809855Y-101663036D01*
X108806766Y-101655579D01*
X108734250Y-101480507D01*
X108734243Y-101480494D01*
X108624481Y-101316225D01*
X108624478Y-101316221D01*
X108484778Y-101176521D01*
X108484774Y-101176518D01*
X108320505Y-101066756D01*
X108320492Y-101066749D01*
X108137968Y-100991146D01*
X108137958Y-100991143D01*
X107944189Y-100952600D01*
X107944187Y-100952600D01*
X107746613Y-100952600D01*
X107746611Y-100952600D01*
X107552841Y-100991143D01*
X107552831Y-100991146D01*
X107370307Y-101066749D01*
X107370294Y-101066756D01*
X107206025Y-101176518D01*
X107206021Y-101176521D01*
X107066321Y-101316221D01*
X107066318Y-101316225D01*
X106956556Y-101480494D01*
X106956549Y-101480507D01*
X106880946Y-101663031D01*
X106880943Y-101663041D01*
X106842400Y-101856810D01*
X106842400Y-101856813D01*
X106842400Y-102054387D01*
X106842400Y-102054389D01*
X106842399Y-102054389D01*
X95095202Y-102054389D01*
X95221870Y-101880045D01*
X95332439Y-101663041D01*
X95336239Y-101655583D01*
X95336239Y-101655582D01*
X95336241Y-101655579D01*
X95414090Y-101415985D01*
X95453500Y-101167162D01*
X95453500Y-100915238D01*
X95414191Y-100667053D01*
X95423145Y-100597762D01*
X95468142Y-100544310D01*
X95525309Y-100524179D01*
X95638903Y-100513736D01*
X95706861Y-100497503D01*
X95706865Y-100497502D01*
X95840626Y-100444497D01*
X95954035Y-100355955D01*
X96002428Y-100305558D01*
X96086298Y-100188652D01*
X96436915Y-99514389D01*
X106842399Y-99514389D01*
X106880943Y-99708158D01*
X106880946Y-99708168D01*
X106956549Y-99890692D01*
X106956556Y-99890705D01*
X107066318Y-100054974D01*
X107066321Y-100054978D01*
X107206021Y-100194678D01*
X107206025Y-100194681D01*
X107370294Y-100304443D01*
X107370307Y-100304450D01*
X107552831Y-100380053D01*
X107552836Y-100380055D01*
X107552840Y-100380055D01*
X107552841Y-100380056D01*
X107746610Y-100418600D01*
X107746613Y-100418600D01*
X107944189Y-100418600D01*
X108074554Y-100392668D01*
X108137964Y-100380055D01*
X108320499Y-100304447D01*
X108484775Y-100194681D01*
X108624481Y-100054975D01*
X108734247Y-99890699D01*
X108809855Y-99708164D01*
X108848400Y-99514387D01*
X108848400Y-99316813D01*
X108848400Y-99316810D01*
X108809856Y-99123041D01*
X108809855Y-99123040D01*
X108809855Y-99123036D01*
X108809853Y-99123031D01*
X108734250Y-98940507D01*
X108734243Y-98940494D01*
X108624481Y-98776225D01*
X108624478Y-98776221D01*
X108484778Y-98636521D01*
X108484774Y-98636518D01*
X108320505Y-98526756D01*
X108320492Y-98526749D01*
X108137968Y-98451146D01*
X108137958Y-98451143D01*
X107944189Y-98412600D01*
X107944187Y-98412600D01*
X107746613Y-98412600D01*
X107746611Y-98412600D01*
X107552841Y-98451143D01*
X107552831Y-98451146D01*
X107370307Y-98526749D01*
X107370294Y-98526756D01*
X107206025Y-98636518D01*
X107206021Y-98636521D01*
X107066321Y-98776221D01*
X107066318Y-98776225D01*
X106956556Y-98940494D01*
X106956549Y-98940507D01*
X106880946Y-99123031D01*
X106880943Y-99123041D01*
X106842400Y-99316810D01*
X106842400Y-99316813D01*
X106842400Y-99514387D01*
X106842400Y-99514389D01*
X106842399Y-99514389D01*
X96436915Y-99514389D01*
X96436916Y-99514387D01*
X96572571Y-99253513D01*
X98749530Y-95067055D01*
X99112980Y-94368113D01*
X110076900Y-94368113D01*
X110076900Y-94557086D01*
X110106459Y-94743718D01*
X110164854Y-94923436D01*
X110242441Y-95075707D01*
X110250640Y-95091799D01*
X110361710Y-95244673D01*
X110495327Y-95378290D01*
X110648201Y-95489360D01*
X110727747Y-95529890D01*
X110816563Y-95575145D01*
X110816565Y-95575145D01*
X110816568Y-95575147D01*
X110904454Y-95603703D01*
X110996281Y-95633540D01*
X111182914Y-95663100D01*
X111182919Y-95663100D01*
X111371886Y-95663100D01*
X111558518Y-95633540D01*
X111573275Y-95628745D01*
X111738232Y-95575147D01*
X111906599Y-95489360D01*
X112059473Y-95378290D01*
X112193090Y-95244673D01*
X112304160Y-95091799D01*
X112389947Y-94923432D01*
X112448340Y-94743718D01*
X112458124Y-94681942D01*
X112477900Y-94557086D01*
X112477900Y-94368113D01*
X112448340Y-94181481D01*
X112389945Y-94001763D01*
X112311570Y-93847944D01*
X112304160Y-93833401D01*
X112193090Y-93680527D01*
X112059473Y-93546910D01*
X111906599Y-93435840D01*
X111865759Y-93415031D01*
X111738236Y-93350054D01*
X111558518Y-93291659D01*
X111371886Y-93262100D01*
X111371881Y-93262100D01*
X111182919Y-93262100D01*
X111182914Y-93262100D01*
X110996281Y-93291659D01*
X110816563Y-93350054D01*
X110648200Y-93435840D01*
X110585693Y-93481255D01*
X110495327Y-93546910D01*
X110495325Y-93546912D01*
X110495324Y-93546912D01*
X110361712Y-93680524D01*
X110361712Y-93680525D01*
X110361710Y-93680527D01*
X110342098Y-93707521D01*
X110250640Y-93833400D01*
X110164854Y-94001763D01*
X110106459Y-94181481D01*
X110076900Y-94368113D01*
X99112980Y-94368113D01*
X100353967Y-91981600D01*
X100386773Y-91902937D01*
X100399511Y-91863269D01*
X100400796Y-91857691D01*
X100408551Y-91824010D01*
X100418634Y-91780221D01*
X100418551Y-91684852D01*
X100438177Y-91617796D01*
X100490942Y-91571995D01*
X100541115Y-91560754D01*
X110727197Y-91443221D01*
X110758742Y-91446928D01*
G37*
%TD.AperFunction*%
%TD*%
%TA.AperFunction,Conductor*%
%TO.N,Vin*%
G36*
X79680063Y-104197992D02*
G01*
X79680062Y-104197993D01*
X79680061Y-104197993D01*
X79680062Y-104197992D01*
X79546999Y-104199285D01*
X79479772Y-104180253D01*
X79438902Y-104138139D01*
X79415719Y-104098709D01*
X79341037Y-104001151D01*
X79341036Y-104001150D01*
X79341031Y-104001144D01*
X79299177Y-103958426D01*
X79299175Y-103958424D01*
X79299168Y-103958417D01*
X79203173Y-103881766D01*
X79203171Y-103881765D01*
X79203170Y-103881764D01*
X79071177Y-103824521D01*
X79071174Y-103824520D01*
X79071172Y-103824519D01*
X79071168Y-103824518D01*
X79066984Y-103823048D01*
X79067666Y-103821104D01*
X79015384Y-103788467D01*
X78985527Y-103725298D01*
X78994561Y-103656015D01*
X79034388Y-103606271D01*
X79080350Y-103572350D01*
X79160993Y-103463082D01*
X79183419Y-103398990D01*
X79205846Y-103334901D01*
X79205846Y-103334899D01*
X79208700Y-103304469D01*
X79208700Y-102670930D01*
X79205846Y-102640500D01*
X79205846Y-102640498D01*
X79160993Y-102512319D01*
X79160992Y-102512317D01*
X79080350Y-102403050D01*
X78971082Y-102322407D01*
X78890444Y-102294190D01*
X78833668Y-102253468D01*
X78807922Y-102188515D01*
X78807400Y-102177149D01*
X78807400Y-101638733D01*
X78814359Y-101597777D01*
X78817046Y-101590099D01*
X78819900Y-101559666D01*
X78819900Y-100551134D01*
X78817046Y-100520701D01*
X78817046Y-100520700D01*
X78817046Y-100520698D01*
X78772193Y-100392519D01*
X78772192Y-100392517D01*
X78691550Y-100283250D01*
X78582282Y-100202607D01*
X78582280Y-100202606D01*
X78454100Y-100157753D01*
X78423670Y-100154900D01*
X78423666Y-100154900D01*
X77790134Y-100154900D01*
X77790130Y-100154900D01*
X77759700Y-100157753D01*
X77759698Y-100157753D01*
X77631519Y-100202606D01*
X77631517Y-100202607D01*
X77522250Y-100283250D01*
X77441607Y-100392517D01*
X77441606Y-100392519D01*
X77396753Y-100520698D01*
X77396753Y-100520700D01*
X77393900Y-100551130D01*
X77393900Y-101559669D01*
X77396752Y-101590093D01*
X77396754Y-101590098D01*
X77399441Y-101597777D01*
X77406400Y-101638733D01*
X77406400Y-102855398D01*
X77406997Y-102861461D01*
X77406454Y-102861514D01*
X77407700Y-102874144D01*
X77407700Y-102877630D01*
X77395533Y-102931197D01*
X77099401Y-103549431D01*
X77075249Y-103583545D01*
X76465018Y-104193775D01*
X76403695Y-104227260D01*
X76378542Y-104230088D01*
X74167993Y-104251579D01*
X74165597Y-104251579D01*
X73220367Y-104242500D01*
X73194528Y-104234643D01*
X73167874Y-104230283D01*
X73161599Y-104224629D01*
X73153520Y-104222173D01*
X73136031Y-104201593D01*
X73115965Y-104183515D01*
X73111069Y-104172220D01*
X73108274Y-104168932D01*
X73101927Y-104151132D01*
X73054769Y-103978218D01*
X73050400Y-103945592D01*
X73050400Y-96872288D01*
X73070085Y-96805249D01*
X73122889Y-96759494D01*
X73174085Y-96748288D01*
X79725130Y-96731786D01*
X79680063Y-104197992D01*
G37*
%TD.AperFunction*%
%TD*%
%TA.AperFunction,Conductor*%
%TO.N,Vin_Unfused*%
G36*
X106209736Y-116199285D02*
G01*
X106255491Y-116252089D01*
X106265435Y-116321247D01*
X106265182Y-116322919D01*
X106255700Y-116382786D01*
X106255700Y-116569514D01*
X106284911Y-116753943D01*
X106342613Y-116931531D01*
X106427385Y-117097907D01*
X106537141Y-117248972D01*
X106669178Y-117381009D01*
X106820243Y-117490765D01*
X106986619Y-117575537D01*
X107164207Y-117633239D01*
X107348636Y-117662450D01*
X107348637Y-117662450D01*
X107535359Y-117662450D01*
X107535364Y-117662450D01*
X107552603Y-117659719D01*
X107621892Y-117668672D01*
X107675346Y-117713667D01*
X107695987Y-117780418D01*
X107696000Y-117782192D01*
X107696000Y-139068000D01*
X107676315Y-139135039D01*
X107623511Y-139180794D01*
X107572000Y-139192000D01*
X98701400Y-139192000D01*
X98634361Y-139172315D01*
X98588606Y-139119511D01*
X98577400Y-139068000D01*
X98577400Y-116303600D01*
X98597085Y-116236561D01*
X98649889Y-116190806D01*
X98701400Y-116179600D01*
X106142697Y-116179600D01*
X106209736Y-116199285D01*
G37*
%TD.AperFunction*%
%TD*%
%TA.AperFunction,Conductor*%
%TO.N,GND*%
G36*
X73603039Y-128238885D02*
G01*
X73648794Y-128291689D01*
X73660000Y-128343200D01*
X73660000Y-130803484D01*
X73653706Y-130842488D01*
X73620001Y-130944203D01*
X73620000Y-130944204D01*
X73609500Y-131046983D01*
X73609500Y-131794300D01*
X73589815Y-131861339D01*
X73537011Y-131907094D01*
X73467853Y-131917038D01*
X73461310Y-131915918D01*
X73431305Y-131909950D01*
X73253923Y-131909950D01*
X73253920Y-131909950D01*
X73079955Y-131944553D01*
X73079946Y-131944556D01*
X72916073Y-132012433D01*
X72916060Y-132012440D01*
X72768579Y-132110985D01*
X72768575Y-132110988D01*
X72643158Y-132236405D01*
X72641965Y-132237860D01*
X72641146Y-132238417D01*
X72638842Y-132240722D01*
X72638405Y-132240285D01*
X72584221Y-132277197D01*
X72546107Y-132283200D01*
X70870062Y-132283200D01*
X70803023Y-132263515D01*
X70782381Y-132246881D01*
X70779638Y-132244138D01*
X70779634Y-132244135D01*
X70632153Y-132145590D01*
X70632140Y-132145583D01*
X70468267Y-132077706D01*
X70468258Y-132077703D01*
X70294294Y-132043100D01*
X70294291Y-132043100D01*
X70176899Y-132043100D01*
X70109860Y-132023415D01*
X70064105Y-131970611D01*
X70052899Y-131919100D01*
X70052899Y-131046998D01*
X70052898Y-131046981D01*
X70042399Y-130944203D01*
X70042398Y-130944200D01*
X69987214Y-130777666D01*
X69895112Y-130628344D01*
X69771056Y-130504288D01*
X69621734Y-130412186D01*
X69455197Y-130357001D01*
X69455195Y-130357000D01*
X69352410Y-130346500D01*
X68752398Y-130346500D01*
X68752380Y-130346501D01*
X68649603Y-130357000D01*
X68649600Y-130357001D01*
X68483068Y-130412185D01*
X68483063Y-130412187D01*
X68333742Y-130504289D01*
X68209689Y-130628342D01*
X68117587Y-130777663D01*
X68117586Y-130777666D01*
X68062401Y-130944203D01*
X68062401Y-130944204D01*
X68062400Y-130944204D01*
X68051900Y-131046983D01*
X68051900Y-132097001D01*
X68051901Y-132097017D01*
X68053329Y-132110988D01*
X68056863Y-132145587D01*
X68056967Y-132146598D01*
X68044198Y-132215291D01*
X67996317Y-132266175D01*
X67933609Y-132283200D01*
X67595824Y-132283200D01*
X67592398Y-132283153D01*
X67587802Y-132283025D01*
X67561609Y-132280350D01*
X67490999Y-132280350D01*
X67489299Y-132280303D01*
X67457618Y-132270041D01*
X67425686Y-132260665D01*
X67424177Y-132259209D01*
X67422829Y-132258773D01*
X67419455Y-132254655D01*
X67390895Y-132227107D01*
X67372830Y-132201109D01*
X67368622Y-132195636D01*
X67349064Y-132166365D01*
X67349062Y-132166363D01*
X67349060Y-132166360D01*
X67223638Y-132040938D01*
X67223634Y-132040935D01*
X67076153Y-131942390D01*
X67076140Y-131942383D01*
X66912267Y-131874506D01*
X66912258Y-131874503D01*
X66738294Y-131839900D01*
X66738291Y-131839900D01*
X66570099Y-131839900D01*
X66503060Y-131820215D01*
X66457305Y-131767411D01*
X66446099Y-131715900D01*
X66446099Y-130996198D01*
X66446098Y-130996181D01*
X66435599Y-130893403D01*
X66435598Y-130893400D01*
X66418727Y-130842488D01*
X66380414Y-130726866D01*
X66288312Y-130577544D01*
X66203319Y-130492551D01*
X66169834Y-130431228D01*
X66167000Y-130404870D01*
X66167000Y-128343200D01*
X66186685Y-128276161D01*
X66239489Y-128230406D01*
X66291000Y-128219200D01*
X73536000Y-128219200D01*
X73603039Y-128238885D01*
G37*
%TD.AperFunction*%
%TD*%
%TA.AperFunction,Conductor*%
%TO.N,GND*%
G36*
X42234039Y-106490790D02*
G01*
X42279794Y-106543594D01*
X42291000Y-106595105D01*
X42291000Y-109903105D01*
X42271315Y-109970144D01*
X42218511Y-110015899D01*
X42167000Y-110027105D01*
X38774000Y-110027105D01*
X38706961Y-110007420D01*
X38661206Y-109954616D01*
X38650000Y-109903105D01*
X38650000Y-108593046D01*
X38669685Y-108526007D01*
X38673672Y-108520173D01*
X38742717Y-108425143D01*
X38846548Y-108221363D01*
X38917222Y-108003850D01*
X38953000Y-107777959D01*
X38953000Y-107454251D01*
X38917222Y-107228360D01*
X38917221Y-107228356D01*
X38917221Y-107228355D01*
X38846549Y-107010849D01*
X38742716Y-106807066D01*
X38673682Y-106712049D01*
X38666529Y-106692002D01*
X38655023Y-106674098D01*
X38651568Y-106650071D01*
X38650202Y-106646242D01*
X38650000Y-106639163D01*
X38650000Y-106595105D01*
X38669685Y-106528066D01*
X38722489Y-106482311D01*
X38774000Y-106471105D01*
X42167000Y-106471105D01*
X42234039Y-106490790D01*
G37*
%TD.AperFunction*%
%TD*%
%TA.AperFunction,Conductor*%
%TO.N,GND*%
G36*
X78938090Y-104312186D02*
G01*
X78979959Y-104354920D01*
X79530229Y-105290812D01*
X79547238Y-105358580D01*
X79524910Y-105424786D01*
X79470333Y-105468410D01*
X79462341Y-105471366D01*
X79425474Y-105483582D01*
X79425463Y-105483587D01*
X79276142Y-105575689D01*
X79152089Y-105699742D01*
X79059987Y-105849063D01*
X79059986Y-105849066D01*
X79004801Y-106015603D01*
X79004801Y-106015604D01*
X79004800Y-106015604D01*
X78994300Y-106118383D01*
X78994300Y-107168401D01*
X78994301Y-107168419D01*
X79004800Y-107271196D01*
X79004802Y-107271203D01*
X79020544Y-107318710D01*
X79022945Y-107388539D01*
X78987213Y-107448580D01*
X78967935Y-107463251D01*
X78863147Y-107527885D01*
X78863143Y-107527888D01*
X78739089Y-107651942D01*
X78646987Y-107801263D01*
X78646986Y-107801266D01*
X78591801Y-107967803D01*
X78591801Y-107967804D01*
X78591800Y-107967804D01*
X78581300Y-108070583D01*
X78581300Y-108670601D01*
X78581301Y-108670619D01*
X78591800Y-108773396D01*
X78591801Y-108773399D01*
X78646985Y-108939931D01*
X78646986Y-108939934D01*
X78739088Y-109089256D01*
X78863144Y-109213312D01*
X79012466Y-109305414D01*
X79179003Y-109360599D01*
X79281791Y-109371100D01*
X80331808Y-109371099D01*
X80331816Y-109371098D01*
X80331819Y-109371098D01*
X80388102Y-109365348D01*
X80434597Y-109360599D01*
X80601134Y-109305414D01*
X80601138Y-109305411D01*
X80605995Y-109303802D01*
X80675824Y-109301400D01*
X80684004Y-109303802D01*
X80688862Y-109305412D01*
X80688866Y-109305414D01*
X80855403Y-109360599D01*
X80958191Y-109371100D01*
X81858348Y-109371099D01*
X81869397Y-109374343D01*
X81880849Y-109373158D01*
X81902309Y-109384006D01*
X81925387Y-109390783D01*
X81934528Y-109400295D01*
X81943203Y-109404680D01*
X81965240Y-109432249D01*
X82007515Y-109504148D01*
X82036392Y-109553262D01*
X82053500Y-109616111D01*
X82053500Y-110310862D01*
X82033815Y-110377901D01*
X82017181Y-110398543D01*
X81631843Y-110783881D01*
X81570520Y-110817366D01*
X81544162Y-110820200D01*
X77326958Y-110820200D01*
X77259919Y-110800515D01*
X77214164Y-110747711D01*
X77202959Y-110695753D01*
X77207631Y-109400295D01*
X77222833Y-105185344D01*
X77242758Y-105118381D01*
X77259140Y-105098127D01*
X77903880Y-104453386D01*
X77928738Y-104434161D01*
X78115913Y-104324190D01*
X78176335Y-104307128D01*
X78870687Y-104293792D01*
X78938090Y-104312186D01*
G37*
%TD.AperFunction*%
%TD*%
%TA.AperFunction,Conductor*%
%TO.N,+3.3V*%
G36*
X81590917Y-105163799D02*
G01*
X81598432Y-105167473D01*
X81601428Y-105169612D01*
X81603397Y-105170041D01*
X81631651Y-105191192D01*
X81636605Y-105196146D01*
X81660321Y-105229359D01*
X81663997Y-105236877D01*
X81667784Y-105253247D01*
X81670090Y-105257469D01*
X81669776Y-105261854D01*
X81676600Y-105291345D01*
X81676600Y-106949549D01*
X81676650Y-106954156D01*
X81676767Y-106959513D01*
X81676767Y-106959517D01*
X81687766Y-107021488D01*
X81710366Y-107087598D01*
X81719940Y-107110849D01*
X81777169Y-107182172D01*
X81777177Y-107182181D01*
X81831925Y-107225574D01*
X81831929Y-107225576D01*
X81831930Y-107225577D01*
X81882474Y-107255016D01*
X81891468Y-107258656D01*
X81903456Y-107263509D01*
X81903468Y-107263513D01*
X81903474Y-107263516D01*
X81927008Y-107271423D01*
X81955885Y-107279220D01*
X81955891Y-107279220D01*
X81958469Y-107279642D01*
X81964034Y-107280781D01*
X81972200Y-107281889D01*
X81972011Y-107283279D01*
X82031361Y-107302501D01*
X82075642Y-107356548D01*
X82084725Y-107391367D01*
X82231650Y-108726840D01*
X82219415Y-108795630D01*
X82171931Y-108846885D01*
X82108394Y-108864400D01*
X80985056Y-108864400D01*
X80982313Y-108863958D01*
X80980873Y-108864329D01*
X80946783Y-108858236D01*
X80946128Y-108858131D01*
X80847870Y-108825572D01*
X80847869Y-108825572D01*
X80843087Y-108823987D01*
X80826427Y-108818780D01*
X80826430Y-108818780D01*
X80826408Y-108818774D01*
X80818247Y-108816377D01*
X80801483Y-108811767D01*
X80728631Y-108803838D01*
X80658446Y-108796199D01*
X80658444Y-108796199D01*
X80588619Y-108798600D01*
X80537230Y-108807800D01*
X80447031Y-108823947D01*
X80442174Y-108825556D01*
X80442127Y-108825572D01*
X80442094Y-108825583D01*
X80343947Y-108858106D01*
X80304943Y-108864400D01*
X79308657Y-108864400D01*
X79305865Y-108863949D01*
X79304394Y-108864327D01*
X79269653Y-108858106D01*
X79241307Y-108848713D01*
X79215215Y-108836546D01*
X79191139Y-108821696D01*
X79168554Y-108803838D01*
X79156058Y-108791342D01*
X79122573Y-108730019D01*
X79120977Y-108686188D01*
X79226265Y-107946806D01*
X79255204Y-107883214D01*
X79273931Y-107865615D01*
X79274180Y-107865425D01*
X79293343Y-107850842D01*
X79331178Y-107819010D01*
X79421607Y-107707099D01*
X79457339Y-107647058D01*
X79512576Y-107514203D01*
X79528146Y-107371168D01*
X79525745Y-107301339D01*
X79503899Y-107179329D01*
X79502600Y-107170073D01*
X79500442Y-107148942D01*
X79499800Y-107136344D01*
X79499800Y-106150458D01*
X79500437Y-106137901D01*
X79500672Y-106135600D01*
X79506325Y-106109171D01*
X79516687Y-106077901D01*
X79528853Y-106051813D01*
X79543704Y-106027736D01*
X79561557Y-106005156D01*
X79581559Y-105985154D01*
X79604128Y-105967308D01*
X79632384Y-105949879D01*
X79652451Y-105939885D01*
X79661920Y-105936197D01*
X79785950Y-105863272D01*
X79840527Y-105819648D01*
X79840529Y-105819646D01*
X79840544Y-105819629D01*
X79841908Y-105818266D01*
X79841985Y-105818343D01*
X79843096Y-105817350D01*
X79843457Y-105817754D01*
X79879078Y-105792207D01*
X80324184Y-105589886D01*
X80393358Y-105580066D01*
X80456863Y-105609203D01*
X80474252Y-105627787D01*
X80494658Y-105654662D01*
X80494662Y-105654668D01*
X80508407Y-105670945D01*
X80508424Y-105670965D01*
X80525965Y-105689677D01*
X80525967Y-105689679D01*
X80590529Y-105736068D01*
X80654085Y-105765093D01*
X80677549Y-105774118D01*
X80677550Y-105774118D01*
X80677553Y-105774119D01*
X80768696Y-105781572D01*
X80768698Y-105781572D01*
X80768698Y-105781571D01*
X80768700Y-105781572D01*
X80837858Y-105771628D01*
X80862473Y-105766536D01*
X80943185Y-105723526D01*
X80995989Y-105677771D01*
X81013943Y-105660180D01*
X81058590Y-105580363D01*
X81078275Y-105513324D01*
X81086600Y-105455426D01*
X81086600Y-105323179D01*
X81106285Y-105256140D01*
X81159089Y-105210385D01*
X81159127Y-105210367D01*
X81264845Y-105162314D01*
X81316156Y-105151200D01*
X81536457Y-105151200D01*
X81590917Y-105163799D01*
G37*
%TD.AperFunction*%
%TD*%
%TA.AperFunction,Conductor*%
%TO.N,Vout*%
G36*
X53027914Y-110100290D02*
G01*
X53048556Y-110116924D01*
X53684682Y-110753049D01*
X53718166Y-110814371D01*
X53721000Y-110840729D01*
X53721000Y-139068000D01*
X53701315Y-139135039D01*
X53648511Y-139180794D01*
X53597000Y-139192000D01*
X48531045Y-139192000D01*
X48464006Y-139172315D01*
X48418251Y-139119511D01*
X48408307Y-139050353D01*
X48420560Y-139011705D01*
X48433066Y-138987160D01*
X48479039Y-138896933D01*
X48547860Y-138685123D01*
X48582700Y-138465155D01*
X48582700Y-138242445D01*
X48547860Y-138022477D01*
X48547859Y-138022473D01*
X48547859Y-138022472D01*
X48479040Y-137810669D01*
X48377930Y-137612230D01*
X48247025Y-137432055D01*
X48089545Y-137274575D01*
X47909369Y-137143669D01*
X47768061Y-137071669D01*
X47710930Y-137042559D01*
X47499126Y-136973740D01*
X47334147Y-136947610D01*
X47279155Y-136938900D01*
X47056445Y-136938900D01*
X46983122Y-136950513D01*
X46836475Y-136973740D01*
X46836472Y-136973740D01*
X46624669Y-137042559D01*
X46426230Y-137143669D01*
X46323433Y-137218356D01*
X46246055Y-137274575D01*
X46246053Y-137274577D01*
X46246052Y-137274577D01*
X46088577Y-137432052D01*
X46088577Y-137432053D01*
X46088575Y-137432055D01*
X46073756Y-137452452D01*
X45957669Y-137612230D01*
X45856559Y-137810669D01*
X45787740Y-138022472D01*
X45787740Y-138022475D01*
X45752900Y-138242445D01*
X45752900Y-138465154D01*
X45787740Y-138685124D01*
X45787740Y-138685127D01*
X45856559Y-138896930D01*
X45915040Y-139011705D01*
X45927936Y-139080374D01*
X45901660Y-139145115D01*
X45844553Y-139185372D01*
X45804555Y-139192000D01*
X35509200Y-139192000D01*
X35252706Y-139192000D01*
X35185667Y-139172315D01*
X35139912Y-139119511D01*
X35128707Y-139067495D01*
X35138504Y-136660774D01*
X43065754Y-136660774D01*
X43065754Y-136867491D01*
X43098092Y-137071666D01*
X43098092Y-137071669D01*
X43161969Y-137268262D01*
X43161971Y-137268265D01*
X43255819Y-137452452D01*
X43377325Y-137619691D01*
X43523496Y-137765862D01*
X43690735Y-137887368D01*
X43874922Y-137981216D01*
X43874924Y-137981217D01*
X44071518Y-138045094D01*
X44071519Y-138045094D01*
X44071522Y-138045095D01*
X44275695Y-138077433D01*
X44275696Y-138077433D01*
X44482412Y-138077433D01*
X44482413Y-138077433D01*
X44686586Y-138045095D01*
X44686589Y-138045094D01*
X44686590Y-138045094D01*
X44883183Y-137981217D01*
X44883183Y-137981216D01*
X44883186Y-137981216D01*
X45067373Y-137887368D01*
X45234612Y-137765862D01*
X45380783Y-137619691D01*
X45502289Y-137452452D01*
X45596137Y-137268265D01*
X45660016Y-137071665D01*
X45692354Y-136867492D01*
X45692354Y-136660774D01*
X45660016Y-136456601D01*
X45660015Y-136456597D01*
X45660015Y-136456596D01*
X45596138Y-136260003D01*
X45502288Y-136075813D01*
X45380783Y-135908575D01*
X45234612Y-135762404D01*
X45067373Y-135640898D01*
X44883183Y-135547048D01*
X44686589Y-135483171D01*
X44533456Y-135458917D01*
X44482413Y-135450833D01*
X44275695Y-135450833D01*
X44207637Y-135461612D01*
X44071520Y-135483171D01*
X44071517Y-135483171D01*
X43874924Y-135547048D01*
X43690734Y-135640898D01*
X43523493Y-135762406D01*
X43377327Y-135908572D01*
X43255819Y-136075813D01*
X43161969Y-136260003D01*
X43098092Y-136456596D01*
X43098092Y-136456599D01*
X43065754Y-136660774D01*
X35138504Y-136660774D01*
X35138526Y-136655397D01*
X35157667Y-131952986D01*
X41688900Y-131952986D01*
X41688900Y-132139714D01*
X41718111Y-132324143D01*
X41775813Y-132501731D01*
X41860585Y-132668107D01*
X41970341Y-132819172D01*
X42102378Y-132951209D01*
X42253443Y-133060965D01*
X42419819Y-133145737D01*
X42597407Y-133203439D01*
X42781836Y-133232650D01*
X42781837Y-133232650D01*
X42968563Y-133232650D01*
X42968564Y-133232650D01*
X43152993Y-133203439D01*
X43330581Y-133145737D01*
X43496957Y-133060965D01*
X43648022Y-132951209D01*
X43780059Y-132819172D01*
X43889815Y-132668107D01*
X43974587Y-132501731D01*
X44032289Y-132324143D01*
X44061500Y-132139714D01*
X44061500Y-131952986D01*
X44032289Y-131768557D01*
X43974587Y-131590969D01*
X43889815Y-131424593D01*
X43780059Y-131273528D01*
X43648022Y-131141491D01*
X43496957Y-131031735D01*
X43330581Y-130946963D01*
X43152993Y-130889261D01*
X43152991Y-130889260D01*
X43152989Y-130889260D01*
X43024218Y-130868864D01*
X42968564Y-130860050D01*
X42781836Y-130860050D01*
X42739083Y-130866821D01*
X42597410Y-130889260D01*
X42419816Y-130946964D01*
X42253442Y-131031735D01*
X42102376Y-131141492D01*
X41970342Y-131273526D01*
X41860585Y-131424592D01*
X41775814Y-131590966D01*
X41718110Y-131768560D01*
X41689752Y-131947609D01*
X41688900Y-131952986D01*
X35157667Y-131952986D01*
X35157689Y-131947609D01*
X35172003Y-128430827D01*
X35190223Y-123954921D01*
X35210180Y-123887964D01*
X35263170Y-123842425D01*
X35332368Y-123832763D01*
X35366622Y-123843044D01*
X36052527Y-124162887D01*
X36109259Y-124182271D01*
X36109262Y-124182272D01*
X36252731Y-124193678D01*
X36252731Y-124193677D01*
X36252732Y-124193678D01*
X36393597Y-124164202D01*
X36393596Y-124164202D01*
X36393602Y-124164201D01*
X36520463Y-124096232D01*
X36623035Y-123995273D01*
X36654036Y-123943957D01*
X37645390Y-121817990D01*
X37664775Y-121761255D01*
X37676181Y-121617786D01*
X37646704Y-121476915D01*
X37578735Y-121350054D01*
X37477776Y-121247482D01*
X37477775Y-121247481D01*
X37426462Y-121216482D01*
X37426450Y-121216475D01*
X35300496Y-120225128D01*
X35284638Y-120219709D01*
X35227565Y-120179404D01*
X35201344Y-120114641D01*
X35200741Y-120103602D01*
X35191434Y-119165898D01*
X35152485Y-115241832D01*
X35171503Y-115174603D01*
X35223851Y-115128326D01*
X35276479Y-115116604D01*
X35960371Y-115116604D01*
X35960372Y-115116604D01*
X36019983Y-115110196D01*
X36154831Y-115059901D01*
X36270046Y-114973651D01*
X36356296Y-114858436D01*
X36406591Y-114723588D01*
X36413000Y-114663978D01*
X36412999Y-112568233D01*
X36406591Y-112508622D01*
X36402225Y-112496917D01*
X36356297Y-112373776D01*
X36356293Y-112373769D01*
X36270047Y-112258560D01*
X36270044Y-112258557D01*
X36154835Y-112172311D01*
X36154828Y-112172307D01*
X36036756Y-112128269D01*
X35980822Y-112086398D01*
X35956405Y-112020933D01*
X35956093Y-112013103D01*
X35953701Y-111721225D01*
X35972836Y-111654027D01*
X36025263Y-111607841D01*
X36077697Y-111596209D01*
X36830000Y-111596209D01*
X36842371Y-111583838D01*
X36903694Y-111550353D01*
X36973386Y-111555337D01*
X37017733Y-111583838D01*
X38552679Y-113118784D01*
X38586164Y-113180107D01*
X38582931Y-113244778D01*
X38576446Y-113264736D01*
X38539500Y-113498007D01*
X38539500Y-115229338D01*
X38519815Y-115296377D01*
X38503181Y-115317019D01*
X38474885Y-115345314D01*
X38474879Y-115345321D01*
X38291299Y-115584568D01*
X38140518Y-115845728D01*
X38140514Y-115845738D01*
X38025113Y-116124339D01*
X37947061Y-116415633D01*
X37907701Y-116714606D01*
X37907700Y-116714623D01*
X37907700Y-117016176D01*
X37907701Y-117016193D01*
X37947061Y-117315166D01*
X38025113Y-117606460D01*
X38140514Y-117885061D01*
X38140518Y-117885071D01*
X38291299Y-118146231D01*
X38474879Y-118385478D01*
X38474885Y-118385485D01*
X38688114Y-118598714D01*
X38688121Y-118598720D01*
X38927368Y-118782300D01*
X39188528Y-118933081D01*
X39188529Y-118933081D01*
X39188532Y-118933083D01*
X39374272Y-119010019D01*
X39467139Y-119048486D01*
X39467140Y-119048486D01*
X39467142Y-119048487D01*
X39758432Y-119126538D01*
X40057417Y-119165900D01*
X40057424Y-119165900D01*
X40358976Y-119165900D01*
X40358983Y-119165900D01*
X40657968Y-119126538D01*
X40949258Y-119048487D01*
X41227868Y-118933083D01*
X41489032Y-118782300D01*
X41728280Y-118598719D01*
X41941519Y-118385480D01*
X42125100Y-118146232D01*
X42275883Y-117885068D01*
X42391287Y-117606458D01*
X42469338Y-117315168D01*
X42508700Y-117016183D01*
X42508700Y-116714617D01*
X42475659Y-116463646D01*
X42486425Y-116394612D01*
X42525711Y-116347146D01*
X42684310Y-116231917D01*
X42851317Y-116064910D01*
X42990143Y-115873833D01*
X43097368Y-115663392D01*
X43170353Y-115438768D01*
X43207300Y-115205497D01*
X43207300Y-114969302D01*
X43170353Y-114736031D01*
X43097366Y-114511403D01*
X43040802Y-114400391D01*
X42990143Y-114300967D01*
X42851317Y-114109890D01*
X42684310Y-113942883D01*
X42493233Y-113804057D01*
X42282796Y-113696833D01*
X42058168Y-113623846D01*
X41824897Y-113586900D01*
X41824892Y-113586900D01*
X41660485Y-113586900D01*
X41593446Y-113567215D01*
X41547691Y-113514411D01*
X41538012Y-113482298D01*
X41503553Y-113264736D01*
X41430566Y-113040108D01*
X41323342Y-112829671D01*
X41240971Y-112716297D01*
X41223681Y-112692499D01*
X41200202Y-112626694D01*
X41200000Y-112619615D01*
X41200000Y-112566105D01*
X41199999Y-112566104D01*
X39278164Y-110832684D01*
X39241566Y-110773166D01*
X39242957Y-110703310D01*
X39281893Y-110645295D01*
X39346014Y-110617540D01*
X39361215Y-110616605D01*
X41602542Y-110616605D01*
X41617181Y-110613692D01*
X41699188Y-110597380D01*
X41795836Y-110578156D01*
X41861591Y-110550919D01*
X41883026Y-110542040D01*
X41930470Y-110532605D01*
X42166990Y-110532605D01*
X42167000Y-110532605D01*
X42274456Y-110521052D01*
X42325967Y-110509846D01*
X42376208Y-110493124D01*
X42428497Y-110475721D01*
X42428499Y-110475719D01*
X42428504Y-110475718D01*
X42483579Y-110440322D01*
X42509996Y-110432565D01*
X42535253Y-110421593D01*
X42543043Y-110422861D01*
X42550617Y-110420637D01*
X42577039Y-110428394D01*
X42604215Y-110432818D01*
X42610082Y-110438096D01*
X42617657Y-110440320D01*
X42635690Y-110461130D01*
X42656161Y-110479545D01*
X42658243Y-110487158D01*
X42663413Y-110493124D01*
X42667331Y-110520377D01*
X42674598Y-110546938D01*
X42672651Y-110557376D01*
X42673357Y-110562282D01*
X42668927Y-110581774D01*
X42668069Y-110584506D01*
X42649106Y-110636444D01*
X42628565Y-110709172D01*
X42627882Y-110712532D01*
X42626065Y-110718322D01*
X42625948Y-110718496D01*
X42625464Y-110720187D01*
X42612500Y-110759308D01*
X42602000Y-110862088D01*
X42602000Y-111862106D01*
X42602001Y-111862124D01*
X42612500Y-111964901D01*
X42612501Y-111964904D01*
X42631490Y-112022208D01*
X42667686Y-112131439D01*
X42759788Y-112280761D01*
X42883844Y-112404817D01*
X43033166Y-112496919D01*
X43199703Y-112552104D01*
X43302491Y-112562605D01*
X43927508Y-112562604D01*
X43927516Y-112562603D01*
X43927519Y-112562603D01*
X43983802Y-112556853D01*
X44030297Y-112552104D01*
X44196834Y-112496919D01*
X44224099Y-112480102D01*
X45438700Y-112480102D01*
X45438700Y-112716297D01*
X45475646Y-112949568D01*
X45548633Y-113174196D01*
X45655857Y-113384633D01*
X45794683Y-113575710D01*
X45961690Y-113742717D01*
X46152767Y-113881543D01*
X46252191Y-113932202D01*
X46363203Y-113988766D01*
X46363205Y-113988766D01*
X46363208Y-113988768D01*
X46483612Y-114027889D01*
X46587831Y-114061753D01*
X46821103Y-114098700D01*
X46821108Y-114098700D01*
X47057297Y-114098700D01*
X47290568Y-114061753D01*
X47515192Y-113988768D01*
X47725633Y-113881543D01*
X47916710Y-113742717D01*
X48083717Y-113575710D01*
X48222543Y-113384633D01*
X48329768Y-113174192D01*
X48402753Y-112949568D01*
X48421743Y-112829671D01*
X48439700Y-112716297D01*
X48439700Y-112480102D01*
X48402753Y-112246831D01*
X48360115Y-112115605D01*
X48329768Y-112022208D01*
X48329766Y-112022205D01*
X48329766Y-112022203D01*
X48248201Y-111862124D01*
X48222543Y-111811767D01*
X48083717Y-111620690D01*
X47916710Y-111453683D01*
X47725633Y-111314857D01*
X47515196Y-111207633D01*
X47290568Y-111134646D01*
X47057297Y-111097700D01*
X47057292Y-111097700D01*
X46821108Y-111097700D01*
X46821103Y-111097700D01*
X46587831Y-111134646D01*
X46363203Y-111207633D01*
X46152766Y-111314857D01*
X46043750Y-111394062D01*
X45961690Y-111453683D01*
X45961688Y-111453685D01*
X45961687Y-111453685D01*
X45794685Y-111620687D01*
X45794685Y-111620688D01*
X45794683Y-111620690D01*
X45735062Y-111702750D01*
X45655857Y-111811766D01*
X45548633Y-112022203D01*
X45475646Y-112246831D01*
X45438700Y-112480102D01*
X44224099Y-112480102D01*
X44346156Y-112404817D01*
X44470212Y-112280761D01*
X44562314Y-112131439D01*
X44617499Y-111964902D01*
X44628000Y-111862114D01*
X44627999Y-110862097D01*
X44624994Y-110832684D01*
X44617499Y-110759307D01*
X44590226Y-110677004D01*
X44586587Y-110663520D01*
X44582754Y-110645295D01*
X44580892Y-110636441D01*
X44490411Y-110388629D01*
X44488762Y-110363086D01*
X44483149Y-110338113D01*
X44486210Y-110323557D01*
X44485910Y-110318908D01*
X44490410Y-110303581D01*
X44510793Y-110247757D01*
X44552276Y-110191537D01*
X44571800Y-110179388D01*
X44735126Y-110097715D01*
X44788638Y-110084639D01*
X45045834Y-110080619D01*
X45047771Y-110080605D01*
X52960875Y-110080605D01*
X53027914Y-110100290D01*
G37*
%TD.AperFunction*%
%TD*%
%TA.AperFunction,Conductor*%
%TO.N,/L_in*%
G36*
X99862413Y-91586804D02*
G01*
X99908213Y-91639568D01*
X99918217Y-91708718D01*
X99905479Y-91748386D01*
X95637810Y-99955438D01*
X95589417Y-100005835D01*
X95521459Y-100022068D01*
X95455513Y-99998984D01*
X95429419Y-99973716D01*
X95284939Y-99785425D01*
X95284933Y-99785418D01*
X95108781Y-99609266D01*
X95108774Y-99609260D01*
X94911126Y-99457600D01*
X94695376Y-99333037D01*
X94695361Y-99333030D01*
X94465207Y-99237698D01*
X94224561Y-99173217D01*
X93977575Y-99140701D01*
X93977570Y-99140700D01*
X93977565Y-99140700D01*
X93728435Y-99140700D01*
X93728429Y-99140700D01*
X93728424Y-99140701D01*
X93481438Y-99173217D01*
X93240792Y-99237698D01*
X93010638Y-99333030D01*
X93010623Y-99333037D01*
X92794873Y-99457600D01*
X92597225Y-99609260D01*
X92597218Y-99609266D01*
X92421066Y-99785418D01*
X92421060Y-99785425D01*
X92269400Y-99983073D01*
X92144837Y-100198823D01*
X92144830Y-100198838D01*
X92049498Y-100428992D01*
X91985017Y-100669638D01*
X91952501Y-100916624D01*
X91952500Y-100916641D01*
X91952500Y-101165758D01*
X91952501Y-101165775D01*
X91985017Y-101412763D01*
X92039404Y-101615736D01*
X92037741Y-101685585D01*
X91998578Y-101743448D01*
X91934350Y-101770952D01*
X91887536Y-101767604D01*
X91684563Y-101713217D01*
X91437575Y-101680701D01*
X91437570Y-101680700D01*
X91437565Y-101680700D01*
X91188435Y-101680700D01*
X91188429Y-101680700D01*
X91188424Y-101680701D01*
X90941438Y-101713217D01*
X90700792Y-101777698D01*
X90470638Y-101873030D01*
X90470623Y-101873037D01*
X90254873Y-101997600D01*
X90057226Y-102149259D01*
X89918046Y-102288439D01*
X89856723Y-102321923D01*
X89829352Y-102324753D01*
X83815987Y-102275605D01*
X83749110Y-102255373D01*
X83703788Y-102202197D01*
X83693000Y-102151609D01*
X83693000Y-96253106D01*
X83712685Y-96186067D01*
X83765489Y-96140312D01*
X83834647Y-96130368D01*
X83898203Y-96159393D01*
X83917319Y-96180222D01*
X83954492Y-96231388D01*
X84104813Y-96381709D01*
X84276779Y-96506648D01*
X84276781Y-96506649D01*
X84276784Y-96506651D01*
X84466188Y-96603157D01*
X84668357Y-96668846D01*
X84878313Y-96702100D01*
X84878314Y-96702100D01*
X85090886Y-96702100D01*
X85090887Y-96702100D01*
X85300843Y-96668846D01*
X85503012Y-96603157D01*
X85692416Y-96506651D01*
X85864392Y-96381704D01*
X85977929Y-96268166D01*
X86039248Y-96234684D01*
X86108940Y-96239668D01*
X86164874Y-96281539D01*
X86181789Y-96312517D01*
X86230802Y-96443928D01*
X86230806Y-96443935D01*
X86317052Y-96559144D01*
X86317055Y-96559147D01*
X86432264Y-96645393D01*
X86432271Y-96645397D01*
X86567117Y-96695691D01*
X86567116Y-96695691D01*
X86574044Y-96696435D01*
X86626727Y-96702100D01*
X88422472Y-96702099D01*
X88482083Y-96695691D01*
X88616931Y-96645396D01*
X88732146Y-96559146D01*
X88818396Y-96443931D01*
X88868691Y-96309083D01*
X88875100Y-96249473D01*
X88875100Y-95836641D01*
X91952500Y-95836641D01*
X91952500Y-96085758D01*
X91952501Y-96085775D01*
X91976513Y-96268169D01*
X91985018Y-96332765D01*
X92031610Y-96506648D01*
X92049498Y-96573407D01*
X92144830Y-96803561D01*
X92144837Y-96803576D01*
X92269400Y-97019326D01*
X92421060Y-97216974D01*
X92421066Y-97216981D01*
X92597218Y-97393133D01*
X92597225Y-97393139D01*
X92794873Y-97544799D01*
X93010623Y-97669362D01*
X93010638Y-97669369D01*
X93109825Y-97710453D01*
X93240793Y-97764702D01*
X93481435Y-97829182D01*
X93728435Y-97861700D01*
X93728442Y-97861700D01*
X93977558Y-97861700D01*
X93977565Y-97861700D01*
X94224565Y-97829182D01*
X94465207Y-97764702D01*
X94695373Y-97669364D01*
X94911127Y-97544799D01*
X95108776Y-97393138D01*
X95284938Y-97216976D01*
X95436599Y-97019327D01*
X95561164Y-96803573D01*
X95656502Y-96573407D01*
X95720982Y-96332765D01*
X95753500Y-96085765D01*
X95753500Y-95836635D01*
X95720982Y-95589635D01*
X95656502Y-95348993D01*
X95602253Y-95218025D01*
X95561169Y-95118838D01*
X95561162Y-95118823D01*
X95436599Y-94903073D01*
X95284939Y-94705425D01*
X95284933Y-94705418D01*
X95108781Y-94529266D01*
X95108774Y-94529260D01*
X94911126Y-94377600D01*
X94695376Y-94253037D01*
X94695361Y-94253030D01*
X94465207Y-94157698D01*
X94224561Y-94093217D01*
X93977575Y-94060701D01*
X93977570Y-94060700D01*
X93977565Y-94060700D01*
X93728435Y-94060700D01*
X93728429Y-94060700D01*
X93728424Y-94060701D01*
X93481438Y-94093217D01*
X93240792Y-94157698D01*
X93010638Y-94253030D01*
X93010623Y-94253037D01*
X92794873Y-94377600D01*
X92597225Y-94529260D01*
X92597218Y-94529266D01*
X92421066Y-94705418D01*
X92421060Y-94705425D01*
X92269400Y-94903073D01*
X92144837Y-95118823D01*
X92144830Y-95118838D01*
X92049498Y-95348992D01*
X91985017Y-95589638D01*
X91952501Y-95836624D01*
X91952500Y-95836641D01*
X88875100Y-95836641D01*
X88875099Y-95348993D01*
X88875099Y-94453729D01*
X88875098Y-94453723D01*
X88874829Y-94451225D01*
X88868691Y-94394117D01*
X88867410Y-94390683D01*
X88818397Y-94259271D01*
X88818393Y-94259264D01*
X88732147Y-94144055D01*
X88732144Y-94144052D01*
X88616935Y-94057806D01*
X88616928Y-94057802D01*
X88485517Y-94008789D01*
X88429583Y-93966918D01*
X88405166Y-93901453D01*
X88420018Y-93833180D01*
X88441163Y-93804932D01*
X88554704Y-93691392D01*
X88679651Y-93519416D01*
X88776157Y-93330012D01*
X88841846Y-93127843D01*
X88875100Y-92917887D01*
X88875100Y-92705313D01*
X88841846Y-92495357D01*
X88776157Y-92293188D01*
X88679651Y-92103784D01*
X88679649Y-92103781D01*
X88679648Y-92103779D01*
X88554709Y-91931813D01*
X88411591Y-91788695D01*
X88378106Y-91727372D01*
X88383090Y-91657680D01*
X88424962Y-91601747D01*
X88490426Y-91577330D01*
X88499141Y-91577014D01*
X99795356Y-91567178D01*
X99862413Y-91586804D01*
G37*
%TD.AperFunction*%
%TD*%
%TA.AperFunction,Conductor*%
%TO.N,+3.3V*%
G36*
X23456666Y-118011370D02*
G01*
X24253723Y-119205070D01*
X24255467Y-119213853D01*
X24252266Y-119219840D01*
X23558735Y-119913371D01*
X23550462Y-119916798D01*
X23543965Y-119914828D01*
X22350265Y-119117771D01*
X22345288Y-119110327D01*
X22347025Y-119101554D01*
X22782994Y-118447346D01*
X22786242Y-118444099D01*
X23440449Y-118008130D01*
X23449233Y-118006395D01*
X23456666Y-118011370D01*
G37*
%TD.AperFunction*%
%TD*%
%TA.AperFunction,Conductor*%
%TO.N,+3.3V*%
G36*
X23558735Y-116978838D02*
G01*
X24252266Y-117672369D01*
X24255693Y-117680642D01*
X24253723Y-117687139D01*
X23456666Y-118880839D01*
X23449222Y-118885816D01*
X23440448Y-118884078D01*
X22786242Y-118448110D01*
X22782994Y-118444862D01*
X22347026Y-117790656D01*
X22345290Y-117781871D01*
X22350265Y-117774438D01*
X22503127Y-117672369D01*
X23543965Y-116977380D01*
X23552748Y-116975637D01*
X23558735Y-116978838D01*
G37*
%TD.AperFunction*%
%TD*%
%TA.AperFunction,Conductor*%
%TO.N,GND*%
G36*
X31076666Y-107851370D02*
G01*
X31873723Y-109045070D01*
X31875467Y-109053853D01*
X31872266Y-109059840D01*
X31178735Y-109753371D01*
X31170462Y-109756798D01*
X31163965Y-109754828D01*
X29970265Y-108957771D01*
X29965288Y-108950327D01*
X29967025Y-108941554D01*
X30402994Y-108287346D01*
X30406242Y-108284099D01*
X31060449Y-107848130D01*
X31069233Y-107846395D01*
X31076666Y-107851370D01*
G37*
%TD.AperFunction*%
%TD*%
%TA.AperFunction,Conductor*%
%TO.N,GND*%
G36*
X86845460Y-108847809D02*
G01*
X88272135Y-109896763D01*
X88276770Y-109904424D01*
X88276666Y-109908537D01*
X88014561Y-111187973D01*
X88009543Y-111195390D01*
X88000751Y-111197087D01*
X87998585Y-111196419D01*
X86174420Y-110433604D01*
X86168110Y-110427251D01*
X86167244Y-110423308D01*
X86130473Y-109554095D01*
X86133548Y-109545685D01*
X86133867Y-109545351D01*
X86830257Y-108848961D01*
X86838529Y-108845535D01*
X86845460Y-108847809D01*
G37*
%TD.AperFunction*%
%TD*%
%TA.AperFunction,Conductor*%
%TO.N,GND*%
G36*
X30689832Y-122812015D02*
G01*
X30694191Y-122817020D01*
X31164091Y-123844480D01*
X31164416Y-123853429D01*
X31163196Y-123855821D01*
X30539598Y-124794293D01*
X30532165Y-124799287D01*
X30525357Y-124798620D01*
X29039074Y-124180033D01*
X29032753Y-124173690D01*
X29031870Y-124169231D01*
X29031870Y-123186419D01*
X29035297Y-123178146D01*
X29041028Y-123174999D01*
X30681012Y-122810465D01*
X30689832Y-122812015D01*
G37*
%TD.AperFunction*%
%TD*%
%TA.AperFunction,Conductor*%
%TO.N,Net-(U1-LO)*%
G36*
X31178794Y-105083015D02*
G01*
X31453687Y-105239588D01*
X31999091Y-105550239D01*
X32004583Y-105557312D01*
X32005000Y-105560406D01*
X32005000Y-106541852D01*
X32001573Y-106550125D01*
X31993300Y-106553552D01*
X31993248Y-106553552D01*
X30340677Y-106546162D01*
X30332419Y-106542698D01*
X30329029Y-106534410D01*
X30329082Y-106533354D01*
X30403557Y-105750759D01*
X30407528Y-105743038D01*
X31165330Y-105084351D01*
X31173820Y-105081511D01*
X31178794Y-105083015D01*
G37*
%TD.AperFunction*%
%TD*%
%TA.AperFunction,Conductor*%
%TO.N,/ADCINA12*%
G36*
X69302907Y-132346127D02*
G01*
X69305416Y-132349857D01*
X69580480Y-133002670D01*
X69580534Y-133011625D01*
X69578383Y-133015053D01*
X69098585Y-133546578D01*
X69090498Y-133550423D01*
X69082060Y-133547423D01*
X69081215Y-133546578D01*
X68600887Y-133014466D01*
X68597887Y-133006028D01*
X68598393Y-133003173D01*
X68598549Y-133002670D01*
X68799853Y-132350947D01*
X68805569Y-132344054D01*
X68811032Y-132342700D01*
X69294634Y-132342700D01*
X69302907Y-132346127D01*
G37*
%TD.AperFunction*%
%TD*%
%TA.AperFunction,Conductor*%
%TO.N,/ADCINA12*%
G36*
X69059932Y-131580220D02*
G01*
X69061353Y-131581641D01*
X69529063Y-132137552D01*
X69531767Y-132146088D01*
X69531143Y-132148978D01*
X69305155Y-132789194D01*
X69299170Y-132795855D01*
X69294122Y-132797000D01*
X68810678Y-132797000D01*
X68802405Y-132793573D01*
X68799645Y-132789194D01*
X68573656Y-132148978D01*
X68574134Y-132140036D01*
X68575733Y-132137556D01*
X69043447Y-131581640D01*
X69051396Y-131577516D01*
X69059932Y-131580220D01*
G37*
%TD.AperFunction*%
%TD*%
%TA.AperFunction,Conductor*%
%TO.N,/ADCINA12*%
G36*
X68096350Y-134508783D02*
G01*
X68438559Y-134850992D01*
X68441986Y-134859265D01*
X68441457Y-134862744D01*
X68041393Y-136147387D01*
X68035661Y-136154267D01*
X68027951Y-136155385D01*
X67208662Y-135993250D01*
X67201211Y-135988283D01*
X67201197Y-135988262D01*
X66739290Y-135295241D01*
X66737553Y-135286456D01*
X66742537Y-135279016D01*
X66743161Y-135278629D01*
X68082235Y-134506918D01*
X68091114Y-134505757D01*
X68096350Y-134508783D01*
G37*
%TD.AperFunction*%
%TD*%
%TA.AperFunction,Conductor*%
%TO.N,/ADCINA12*%
G36*
X69083926Y-133552379D02*
G01*
X69090780Y-133558141D01*
X69091897Y-133561379D01*
X69220555Y-134248010D01*
X69218710Y-134256773D01*
X69216028Y-134259560D01*
X68541092Y-134760549D01*
X68532407Y-134762728D01*
X68525846Y-134759427D01*
X68184836Y-134418417D01*
X68181409Y-134410144D01*
X68182207Y-134405897D01*
X68573420Y-133402382D01*
X68579617Y-133395921D01*
X68587846Y-133395479D01*
X69083926Y-133552379D01*
G37*
%TD.AperFunction*%
%TD*%
%TA.AperFunction,Conductor*%
%TO.N,/ADCINA0*%
G36*
X64924875Y-133404032D02*
G01*
X65418567Y-133479193D01*
X65426230Y-133483826D01*
X65427439Y-133485879D01*
X65738321Y-134163163D01*
X65738658Y-134172112D01*
X65736601Y-134175624D01*
X65259793Y-134736313D01*
X65251823Y-134740395D01*
X65243300Y-134737646D01*
X65242607Y-134737006D01*
X64901517Y-134395916D01*
X64898090Y-134387643D01*
X64898090Y-134387578D01*
X64911415Y-133415436D01*
X64914955Y-133407213D01*
X64923274Y-133403900D01*
X64924875Y-133404032D01*
G37*
%TD.AperFunction*%
%TD*%
%TA.AperFunction,Conductor*%
%TO.N,/ADCINA0*%
G36*
X65322877Y-134572627D02*
G01*
X65326194Y-134579300D01*
X65496760Y-135814861D01*
X65494497Y-135823525D01*
X65487466Y-135827934D01*
X64669366Y-135991646D01*
X64660581Y-135989909D01*
X64660560Y-135989895D01*
X64418681Y-135827934D01*
X63969146Y-135526928D01*
X63964180Y-135519478D01*
X63965935Y-135510697D01*
X63967005Y-135509331D01*
X64821320Y-134573013D01*
X64829428Y-134569212D01*
X64829963Y-134569200D01*
X65314604Y-134569200D01*
X65322877Y-134572627D01*
G37*
%TD.AperFunction*%
%TD*%
%TA.AperFunction,Conductor*%
%TO.N,/ADCINA0*%
G36*
X65674190Y-132271777D02*
G01*
X65676907Y-132276037D01*
X65915152Y-132928557D01*
X65914771Y-132937504D01*
X65912847Y-132940410D01*
X65432785Y-133472228D01*
X65424698Y-133476073D01*
X65416260Y-133473073D01*
X65415415Y-133472228D01*
X64935352Y-132940410D01*
X64932352Y-132931972D01*
X64933045Y-132928561D01*
X65171293Y-132276036D01*
X65177349Y-132269441D01*
X65182283Y-132268350D01*
X65665917Y-132268350D01*
X65674190Y-132271777D01*
G37*
%TD.AperFunction*%
%TD*%
%TA.AperFunction,Conductor*%
%TO.N,/ADCINA0*%
G36*
X65453132Y-131529420D02*
G01*
X65454553Y-131530841D01*
X65922117Y-132086578D01*
X65924821Y-132095114D01*
X65924080Y-132098322D01*
X65676989Y-132738712D01*
X65670813Y-132745197D01*
X65666073Y-132746200D01*
X65182639Y-132746200D01*
X65174366Y-132742773D01*
X65171496Y-132738067D01*
X64966600Y-132098025D01*
X64967341Y-132089101D01*
X64968790Y-132086926D01*
X65436647Y-131530841D01*
X65444596Y-131526716D01*
X65453132Y-131529420D01*
G37*
%TD.AperFunction*%
%TD*%
%TA.AperFunction,Conductor*%
%TO.N,/ADCINA4*%
G36*
X74617532Y-131580220D02*
G01*
X74618953Y-131581641D01*
X75086663Y-132137552D01*
X75089367Y-132146088D01*
X75088743Y-132148978D01*
X74862755Y-132789194D01*
X74856770Y-132795855D01*
X74851722Y-132797000D01*
X74368278Y-132797000D01*
X74360005Y-132793573D01*
X74357245Y-132789194D01*
X74131256Y-132148978D01*
X74131734Y-132140036D01*
X74133333Y-132137556D01*
X74601047Y-131581640D01*
X74608996Y-131577516D01*
X74617532Y-131580220D01*
G37*
%TD.AperFunction*%
%TD*%
%TA.AperFunction,Conductor*%
%TO.N,/ADCINA4*%
G36*
X74859641Y-132354009D02*
G01*
X74862547Y-132358829D01*
X75064006Y-133011055D01*
X75063173Y-133019971D01*
X75061512Y-133022348D01*
X74581185Y-133554460D01*
X74573098Y-133558305D01*
X74564660Y-133555305D01*
X74563815Y-133554460D01*
X74084016Y-133022935D01*
X74081016Y-133014497D01*
X74081917Y-133010557D01*
X74356984Y-132357738D01*
X74363354Y-132351446D01*
X74367766Y-132350582D01*
X74851368Y-132350582D01*
X74859641Y-132354009D01*
G37*
%TD.AperFunction*%
%TD*%
%TA.AperFunction,Conductor*%
%TO.N,/ADCINA4*%
G36*
X74876542Y-134325266D02*
G01*
X74878530Y-134327917D01*
X75526205Y-135509976D01*
X75527175Y-135518878D01*
X75522454Y-135525320D01*
X74828639Y-135989895D01*
X74819858Y-135991650D01*
X74819833Y-135991646D01*
X74003026Y-135828192D01*
X73995586Y-135823208D01*
X73993849Y-135814423D01*
X73993986Y-135813823D01*
X74071622Y-135509976D01*
X74372951Y-134330643D01*
X74378319Y-134323475D01*
X74384287Y-134321839D01*
X74868269Y-134321839D01*
X74876542Y-134325266D01*
G37*
%TD.AperFunction*%
%TD*%
%TA.AperFunction,Conductor*%
%TO.N,/ADCINA4*%
G36*
X74580339Y-133570878D02*
G01*
X74581278Y-133571806D01*
X75061620Y-134103934D01*
X75064620Y-134112372D01*
X75064184Y-134114992D01*
X74877627Y-134767100D01*
X74872057Y-134774112D01*
X74866378Y-134775582D01*
X74382822Y-134775582D01*
X74374549Y-134772155D01*
X74372120Y-134768611D01*
X74086581Y-134122376D01*
X74086372Y-134113423D01*
X74088512Y-134109905D01*
X74563826Y-133571899D01*
X74571871Y-133567968D01*
X74580339Y-133570878D01*
G37*
%TD.AperFunction*%
%TD*%
%TA.AperFunction,Conductor*%
%TO.N,+12V*%
G36*
X31076960Y-110388442D02*
G01*
X31700399Y-111012679D01*
X31703821Y-111020946D01*
X31703821Y-112000699D01*
X31700394Y-112008972D01*
X31692121Y-112012399D01*
X31688981Y-112011970D01*
X30259366Y-111613641D01*
X30252316Y-111608119D01*
X30251028Y-111600105D01*
X30403058Y-110830870D01*
X30408021Y-110823421D01*
X31062190Y-110386976D01*
X31070973Y-110385236D01*
X31076960Y-110388442D01*
G37*
%TD.AperFunction*%
%TD*%
%TA.AperFunction,Conductor*%
%TO.N,+12V*%
G36*
X67884916Y-101741497D02*
G01*
X69201140Y-102422726D01*
X69206912Y-102429572D01*
X69206153Y-102438495D01*
X69205498Y-102439605D01*
X68770303Y-103092646D01*
X68762864Y-103097630D01*
X68762838Y-103097636D01*
X67989408Y-103250649D01*
X67980627Y-103248892D01*
X67976247Y-103243447D01*
X67918989Y-103097630D01*
X67526564Y-102098247D01*
X67526729Y-102089295D01*
X67529178Y-102085702D01*
X67871266Y-101743614D01*
X67879538Y-101740188D01*
X67884916Y-101741497D01*
G37*
%TD.AperFunction*%
%TD*%
%TA.AperFunction,Conductor*%
%TO.N,+12V*%
G36*
X63044482Y-93003910D02*
G01*
X63051921Y-93008891D01*
X63053659Y-93017676D01*
X63053014Y-93019813D01*
X62330575Y-94785116D01*
X62324270Y-94791475D01*
X62319747Y-94792385D01*
X61835453Y-94792385D01*
X61827180Y-94788958D01*
X61824625Y-94785116D01*
X61102185Y-93019811D01*
X61102223Y-93010859D01*
X61108582Y-93004554D01*
X61110707Y-93003912D01*
X62075309Y-92811058D01*
X62079891Y-92811058D01*
X63044482Y-93003910D01*
G37*
%TD.AperFunction*%
%TD*%
%TA.AperFunction,Conductor*%
%TO.N,D*%
G36*
X34014021Y-106791611D02*
G01*
X34951767Y-107608066D01*
X34955756Y-107616083D01*
X34952908Y-107624573D01*
X34952552Y-107624964D01*
X34012195Y-108611180D01*
X34004005Y-108614803D01*
X34000896Y-108614458D01*
X33063869Y-108380816D01*
X33056671Y-108375490D01*
X33055000Y-108369464D01*
X33055000Y-107385104D01*
X33058427Y-107376831D01*
X33060513Y-107375174D01*
X34000159Y-106790500D01*
X34008992Y-106789040D01*
X34014021Y-106791611D01*
G37*
%TD.AperFunction*%
%TD*%
%TA.AperFunction,Conductor*%
%TO.N,D*%
G36*
X35212364Y-105667032D02*
G01*
X35213507Y-105668360D01*
X35906673Y-106608205D01*
X35908826Y-106616898D01*
X35905733Y-106623215D01*
X34968476Y-107608197D01*
X34960290Y-107611828D01*
X34951935Y-107608608D01*
X34951524Y-107608197D01*
X34014266Y-106623215D01*
X34011046Y-106614860D01*
X34013325Y-106608206D01*
X34706493Y-105668359D01*
X34714161Y-105663736D01*
X34715909Y-105663605D01*
X35204091Y-105663605D01*
X35212364Y-105667032D01*
G37*
%TD.AperFunction*%
%TD*%
%TA.AperFunction,Conductor*%
%TO.N,D*%
G36*
X33938412Y-93067289D02*
G01*
X33938442Y-93067309D01*
X34424626Y-93393141D01*
X34429590Y-93400593D01*
X34428517Y-93408209D01*
X34009865Y-94222558D01*
X34003035Y-94228349D01*
X33999460Y-94228909D01*
X33516640Y-94228909D01*
X33508367Y-94225482D01*
X33505076Y-94218985D01*
X33503532Y-94208932D01*
X33347625Y-93193700D01*
X33349756Y-93185004D01*
X33356886Y-93180455D01*
X33929628Y-93065557D01*
X33938412Y-93067289D01*
G37*
%TD.AperFunction*%
%TD*%
%TA.AperFunction,Conductor*%
%TO.N,C2000 D'*%
G36*
X33600469Y-102012292D02*
G01*
X33604422Y-102018958D01*
X33680149Y-102396929D01*
X33678414Y-102405714D01*
X33678389Y-102405751D01*
X33463864Y-102725112D01*
X33456406Y-102730069D01*
X33449003Y-102729094D01*
X32798387Y-102410243D01*
X32792466Y-102403525D01*
X32793030Y-102394588D01*
X32795260Y-102391467D01*
X33134231Y-102052496D01*
X33141478Y-102049116D01*
X33591929Y-102009601D01*
X33600469Y-102012292D01*
G37*
%TD.AperFunction*%
%TD*%
%TA.AperFunction,Conductor*%
%TO.N,C2000 D'*%
G36*
X23243471Y-95726556D02*
G01*
X24294295Y-96058522D01*
X24301152Y-96064282D01*
X24302471Y-96069679D01*
X24302471Y-96552530D01*
X24299044Y-96560803D01*
X24294295Y-96563687D01*
X23243484Y-96895649D01*
X23234563Y-96894873D01*
X23228803Y-96888016D01*
X23228491Y-96886803D01*
X23113461Y-96313402D01*
X23113461Y-96308807D01*
X23228490Y-95735414D01*
X23233476Y-95727978D01*
X23242261Y-95726246D01*
X23243471Y-95726556D01*
G37*
%TD.AperFunction*%
%TD*%
%TA.AperFunction,Conductor*%
%TO.N,Vin_sens*%
G36*
X73584286Y-132813877D02*
G01*
X73587713Y-132822150D01*
X73587032Y-132826084D01*
X73263900Y-133731112D01*
X73257891Y-133737751D01*
X73249043Y-133738231D01*
X72754243Y-133566423D01*
X72747552Y-133560472D01*
X72746497Y-133557014D01*
X72649711Y-132874937D01*
X72651942Y-132866264D01*
X72659651Y-132861709D01*
X72659895Y-132861677D01*
X73091930Y-132810531D01*
X73093305Y-132810450D01*
X73576013Y-132810450D01*
X73584286Y-132813877D01*
G37*
%TD.AperFunction*%
%TD*%
%TA.AperFunction,Conductor*%
%TO.N,Vin_sens*%
G36*
X73019823Y-132594888D02*
G01*
X73021334Y-132595737D01*
X73028534Y-132600523D01*
X73341357Y-132808438D01*
X73344625Y-132811706D01*
X73559297Y-133134695D01*
X73561023Y-133143482D01*
X73557453Y-133149801D01*
X73055923Y-133608910D01*
X73047507Y-133611969D01*
X73039750Y-133608553D01*
X72699915Y-133268718D01*
X72696488Y-133260445D01*
X72697591Y-133255487D01*
X73004266Y-132600522D01*
X73010878Y-132594483D01*
X73019823Y-132594888D01*
G37*
%TD.AperFunction*%
%TD*%
%TA.AperFunction,Conductor*%
%TO.N,Vin_sens*%
G36*
X75610475Y-112215713D02*
G01*
X75613676Y-112221700D01*
X75751832Y-112915113D01*
X75750088Y-112923896D01*
X75742669Y-112928869D01*
X75364111Y-113005134D01*
X75359489Y-113005134D01*
X74980930Y-112928869D01*
X74973497Y-112923875D01*
X74971767Y-112915114D01*
X75109924Y-112221699D01*
X75114901Y-112214256D01*
X75121398Y-112212286D01*
X75602202Y-112212286D01*
X75610475Y-112215713D01*
G37*
%TD.AperFunction*%
%TD*%
%TA.AperFunction,Conductor*%
%TO.N,Vin_sens*%
G36*
X78301369Y-102986733D02*
G01*
X78309517Y-102990442D01*
X78311782Y-102993967D01*
X78516609Y-103490802D01*
X78516594Y-103499756D01*
X78511719Y-103505349D01*
X77628255Y-104024415D01*
X77619386Y-104025651D01*
X77614055Y-104022600D01*
X77272758Y-103681303D01*
X77269331Y-103673030D01*
X77270479Y-103667976D01*
X77604894Y-102969815D01*
X77611559Y-102963835D01*
X77615843Y-102963177D01*
X78301369Y-102986733D01*
G37*
%TD.AperFunction*%
%TD*%
%TA.AperFunction,Conductor*%
%TO.N,Vout_sens*%
G36*
X61803732Y-112745290D02*
G01*
X63214772Y-113487910D01*
X63220497Y-113494796D01*
X63221023Y-113498264D01*
X63221023Y-113984135D01*
X63217596Y-113992408D01*
X63214772Y-113994489D01*
X61803736Y-114737108D01*
X61794819Y-114737928D01*
X61789863Y-114734874D01*
X61746715Y-114690113D01*
X60839826Y-113749319D01*
X60836553Y-113740985D01*
X60839827Y-113733080D01*
X61789864Y-112747524D01*
X61798072Y-112743947D01*
X61803732Y-112745290D01*
G37*
%TD.AperFunction*%
%TD*%
%TA.AperFunction,Conductor*%
%TO.N,Vout_sens*%
G36*
X39899653Y-92742738D02*
G01*
X39900295Y-92743825D01*
X40408597Y-93721591D01*
X40409373Y-93730512D01*
X40406489Y-93735261D01*
X40065061Y-94076689D01*
X40056788Y-94080116D01*
X40051391Y-94078797D01*
X39073625Y-93570495D01*
X39067865Y-93563638D01*
X39068641Y-93554717D01*
X39069283Y-93553630D01*
X39393395Y-93066841D01*
X39396641Y-93063595D01*
X39883430Y-92739482D01*
X39892215Y-92737751D01*
X39899653Y-92742738D01*
G37*
%TD.AperFunction*%
%TD*%
%TA.AperFunction,Conductor*%
%TO.N,Vout_sens*%
G36*
X44122698Y-108821420D02*
G01*
X44633533Y-109076871D01*
X44639400Y-109083637D01*
X44640000Y-109087336D01*
X44640000Y-109572873D01*
X44636573Y-109581146D01*
X44633533Y-109583338D01*
X44122700Y-109838788D01*
X44113768Y-109839423D01*
X44109101Y-109836502D01*
X43858423Y-109580105D01*
X43621995Y-109338283D01*
X43618663Y-109329973D01*
X43621995Y-109321926D01*
X44109102Y-108823706D01*
X44117335Y-108820187D01*
X44122698Y-108821420D01*
G37*
%TD.AperFunction*%
%TD*%
%TA.AperFunction,Conductor*%
%TO.N,Vout_sens*%
G36*
X67544108Y-116946503D02*
G01*
X68132118Y-117339128D01*
X68137095Y-117346572D01*
X68135365Y-117355334D01*
X67921611Y-117676943D01*
X67918343Y-117680211D01*
X67596734Y-117893965D01*
X67587947Y-117895691D01*
X67580528Y-117890718D01*
X67187903Y-117302708D01*
X67186159Y-117293925D01*
X67189358Y-117287940D01*
X67529339Y-116947959D01*
X67537611Y-116944533D01*
X67544108Y-116946503D01*
G37*
%TD.AperFunction*%
%TD*%
%TA.AperFunction,Conductor*%
%TO.N,Vout_sens*%
G36*
X59876136Y-112747525D02*
G01*
X60826172Y-113733080D01*
X60829446Y-113741415D01*
X60826172Y-113749320D01*
X59876136Y-114734874D01*
X59867927Y-114738452D01*
X59862264Y-114737108D01*
X59373906Y-114480088D01*
X58451228Y-113994489D01*
X58445503Y-113987603D01*
X58444977Y-113984135D01*
X58444977Y-113498264D01*
X58448404Y-113489991D01*
X58451228Y-113487910D01*
X59862266Y-112745290D01*
X59871180Y-112744471D01*
X59876136Y-112747525D01*
G37*
%TD.AperFunction*%
%TD*%
%TA.AperFunction,Conductor*%
%TO.N,Vout_sens*%
G36*
X44308603Y-108294663D02*
G01*
X44649900Y-108635960D01*
X44653327Y-108644233D01*
X44651715Y-108650160D01*
X44132649Y-109533624D01*
X44125503Y-109539021D01*
X44118102Y-109538514D01*
X43621267Y-109333687D01*
X43614924Y-109327365D01*
X43614034Y-109323277D01*
X43590478Y-108637751D01*
X43593619Y-108629367D01*
X43597115Y-108626800D01*
X44295276Y-108292383D01*
X44304217Y-108291901D01*
X44308603Y-108294663D01*
G37*
%TD.AperFunction*%
%TD*%
%TA.AperFunction,Conductor*%
%TO.N,Vout_sens*%
G36*
X66900135Y-132740449D02*
G01*
X67329251Y-132779740D01*
X67337177Y-132783907D01*
X67339835Y-132792458D01*
X67339784Y-132792918D01*
X67250036Y-133474739D01*
X67245559Y-133482494D01*
X67242337Y-133484242D01*
X66747518Y-133659258D01*
X66738576Y-133658786D01*
X66732627Y-133652242D01*
X66405339Y-132756114D01*
X66405720Y-132747167D01*
X66412315Y-132741110D01*
X66416329Y-132740400D01*
X66899068Y-132740400D01*
X66900135Y-132740449D01*
G37*
%TD.AperFunction*%
%TD*%
%TA.AperFunction,Conductor*%
%TO.N,Vout_sens*%
G36*
X66987288Y-132528830D02*
G01*
X66988054Y-132530165D01*
X67306145Y-133180508D01*
X67306702Y-133189446D01*
X67303908Y-133193922D01*
X66964051Y-133533779D01*
X66955778Y-133537206D01*
X66948020Y-133534263D01*
X66434992Y-133079739D01*
X66431073Y-133071689D01*
X66433007Y-133064509D01*
X66647588Y-132741655D01*
X66650856Y-132738388D01*
X66971069Y-132525561D01*
X66979855Y-132523836D01*
X66987288Y-132528830D01*
G37*
%TD.AperFunction*%
%TD*%
%TA.AperFunction,Conductor*%
%TO.N,Vout_sens*%
G36*
X43622840Y-109337881D02*
G01*
X43623685Y-109338726D01*
X44103747Y-109870544D01*
X44106747Y-109878982D01*
X44106052Y-109882397D01*
X43867807Y-110534918D01*
X43861751Y-110541514D01*
X43856817Y-110542605D01*
X43373183Y-110542605D01*
X43364910Y-110539178D01*
X43362193Y-110534918D01*
X43123947Y-109882397D01*
X43124328Y-109873450D01*
X43126249Y-109870547D01*
X43606315Y-109338725D01*
X43614402Y-109334881D01*
X43622840Y-109337881D01*
G37*
%TD.AperFunction*%
%TD*%
%TA.AperFunction,Conductor*%
%TO.N,Vout_sens*%
G36*
X43865090Y-110153032D02*
G01*
X43867807Y-110157292D01*
X44106052Y-110809812D01*
X44105671Y-110818759D01*
X44103747Y-110821665D01*
X43623685Y-111353483D01*
X43615598Y-111357328D01*
X43607160Y-111354328D01*
X43606315Y-111353483D01*
X43126252Y-110821665D01*
X43123252Y-110813227D01*
X43123945Y-110809816D01*
X43362193Y-110157291D01*
X43368249Y-110150696D01*
X43373183Y-110149605D01*
X43856817Y-110149605D01*
X43865090Y-110153032D01*
G37*
%TD.AperFunction*%
%TD*%
%TA.AperFunction,Conductor*%
%TO.N,I_L*%
G36*
X82948608Y-106105954D02*
G01*
X82952505Y-106113781D01*
X83053001Y-107383100D01*
X83050237Y-107391617D01*
X83042260Y-107395687D01*
X83041337Y-107395723D01*
X82562794Y-107395723D01*
X82554521Y-107392296D01*
X82551555Y-107387276D01*
X82465994Y-107091660D01*
X82465745Y-107086201D01*
X82649882Y-106129127D01*
X82654810Y-106121651D01*
X82660673Y-106119659D01*
X82940147Y-106103025D01*
X82948608Y-106105954D01*
G37*
%TD.AperFunction*%
%TD*%
%TA.AperFunction,Conductor*%
%TO.N,I_L*%
G36*
X71699700Y-115394324D02*
G01*
X71707144Y-115399301D01*
X71709114Y-115405798D01*
X71709114Y-115886601D01*
X71705687Y-115894874D01*
X71699700Y-115898075D01*
X71006286Y-116036232D01*
X70997503Y-116034488D01*
X70992530Y-116027069D01*
X70964231Y-115886601D01*
X70916265Y-115648508D01*
X70916265Y-115643891D01*
X70992530Y-115265328D01*
X70997524Y-115257897D01*
X71006285Y-115256167D01*
X71699700Y-115394324D01*
G37*
%TD.AperFunction*%
%TD*%
%TA.AperFunction,Conductor*%
%TO.N,I_L*%
G36*
X70219986Y-132697005D02*
G01*
X70879734Y-132853153D01*
X70886995Y-132858393D01*
X70888730Y-132864078D01*
X70915591Y-133547353D01*
X70912492Y-133555755D01*
X70908754Y-133558458D01*
X70414271Y-133783945D01*
X70405322Y-133784260D01*
X70398772Y-133778154D01*
X70398307Y-133776970D01*
X70206190Y-133195386D01*
X70205600Y-133191716D01*
X70205600Y-132708391D01*
X70209027Y-132700118D01*
X70217300Y-132696691D01*
X70219986Y-132697005D01*
G37*
%TD.AperFunction*%
%TD*%
%TA.AperFunction,Conductor*%
%TO.N,I_L*%
G36*
X70544892Y-132729608D02*
G01*
X70984809Y-133270033D01*
X70987374Y-133278612D01*
X70984008Y-133285692D01*
X70644103Y-133625597D01*
X70635830Y-133629024D01*
X70630245Y-133627605D01*
X69994610Y-133282293D01*
X69988976Y-133275332D01*
X69989914Y-133266427D01*
X69990443Y-133265547D01*
X70203588Y-132944855D01*
X70206856Y-132941588D01*
X70529344Y-132727249D01*
X70538129Y-132725524D01*
X70544892Y-132729608D01*
G37*
%TD.AperFunction*%
%TD*%
%TA.AperFunction,Conductor*%
%TO.N,Net-(U2-FILTER)*%
G36*
X84169801Y-107174427D02*
G01*
X84173098Y-107180960D01*
X84283494Y-107914982D01*
X84281336Y-107923673D01*
X84279991Y-107925196D01*
X83794487Y-108387397D01*
X83786132Y-108390619D01*
X83777946Y-108386990D01*
X83776681Y-108385408D01*
X83357595Y-107756039D01*
X83355863Y-107747255D01*
X83357077Y-107743930D01*
X83668268Y-107177070D01*
X83675253Y-107171467D01*
X83678524Y-107171000D01*
X84161528Y-107171000D01*
X84169801Y-107174427D01*
G37*
%TD.AperFunction*%
%TD*%
%TA.AperFunction,Conductor*%
%TO.N,Net-(U2-FILTER)*%
G36*
X83932200Y-106149520D02*
G01*
X83932597Y-106150478D01*
X84220667Y-106943631D01*
X84221298Y-106948917D01*
X84172756Y-107385792D01*
X84168437Y-107393636D01*
X84161128Y-107396200D01*
X83682072Y-107396200D01*
X83673799Y-107392773D01*
X83670444Y-107385792D01*
X83654263Y-107240167D01*
X83621901Y-106948913D01*
X83622531Y-106943635D01*
X83910603Y-106150477D01*
X83916648Y-106143872D01*
X83925594Y-106143475D01*
X83932200Y-106149520D01*
G37*
%TD.AperFunction*%
%TD*%
M02*
