%TF.GenerationSoftware,KiCad,Pcbnew,9.0.7*%
%TF.CreationDate,2026-02-20T12:59:29-06:00*%
%TF.ProjectId,Lab2_starter,4c616232-5f73-4746-9172-7465722e6b69,rev?*%
%TF.SameCoordinates,Original*%
%TF.FileFunction,Soldermask,Bot*%
%TF.FilePolarity,Negative*%
%FSLAX46Y46*%
G04 Gerber Fmt 4.6, Leading zero omitted, Abs format (unit mm)*
G04 Created by KiCad (PCBNEW 9.0.7) date 2026-02-20 12:59:29*
%MOMM*%
%LPD*%
G01*
G04 APERTURE LIST*
G04 Aperture macros list*
%AMRoundRect*
0 Rectangle with rounded corners*
0 $1 Rounding radius*
0 $2 $3 $4 $5 $6 $7 $8 $9 X,Y pos of 4 corners*
0 Add a 4 corners polygon primitive as box body*
4,1,4,$2,$3,$4,$5,$6,$7,$8,$9,$2,$3,0*
0 Add four circle primitives for the rounded corners*
1,1,$1+$1,$2,$3*
1,1,$1+$1,$4,$5*
1,1,$1+$1,$6,$7*
1,1,$1+$1,$8,$9*
0 Add four rect primitives between the rounded corners*
20,1,$1+$1,$2,$3,$4,$5,0*
20,1,$1+$1,$4,$5,$6,$7,0*
20,1,$1+$1,$6,$7,$8,$9,0*
20,1,$1+$1,$8,$9,$2,$3,0*%
%AMRotRect*
0 Rectangle, with rotation*
0 The origin of the aperture is its center*
0 $1 length*
0 $2 width*
0 $3 Rotation angle, in degrees counterclockwise*
0 Add horizontal line*
21,1,$1,$2,0,0,$3*%
G04 Aperture macros list end*
%ADD10R,1.700000X1.700000*%
%ADD11O,1.700000X1.700000*%
%ADD12C,2.300000*%
%ADD13C,1.200000*%
%ADD14C,3.600000*%
%ADD15RotRect,1.625600X1.625600X25.000000*%
%ADD16C,1.625600*%
%ADD17R,1.828800X1.828800*%
%ADD18C,1.828800*%
%ADD19R,1.905000X2.000000*%
%ADD20O,1.905000X2.000000*%
%ADD21R,2.250000X2.250000*%
%ADD22C,2.250000*%
%ADD23C,2.000000*%
%ADD24C,2.800000*%
%ADD25C,0.800000*%
%ADD26C,2.600000*%
%ADD27C,0.600000*%
%ADD28O,4.200000X2.600000*%
%ADD29O,2.200000X0.600000*%
%ADD30RoundRect,0.102000X0.802500X-0.802500X0.802500X0.802500X-0.802500X0.802500X-0.802500X-0.802500X0*%
%ADD31C,1.809000*%
%ADD32R,1.300000X1.300000*%
%ADD33C,1.300000*%
%ADD34C,1.371600*%
%ADD35RoundRect,0.250000X-0.450000X0.262500X-0.450000X-0.262500X0.450000X-0.262500X0.450000X0.262500X0*%
%ADD36RoundRect,0.250000X0.250000X0.475000X-0.250000X0.475000X-0.250000X-0.475000X0.250000X-0.475000X0*%
%ADD37RoundRect,0.250000X0.475000X-0.250000X0.475000X0.250000X-0.475000X0.250000X-0.475000X-0.250000X0*%
%ADD38RoundRect,0.250000X0.550000X0.550000X-0.550000X0.550000X-0.550000X-0.550000X0.550000X-0.550000X0*%
%ADD39C,1.600000*%
%ADD40RoundRect,0.250000X-0.262500X-0.450000X0.262500X-0.450000X0.262500X0.450000X-0.262500X0.450000X0*%
%ADD41RotRect,2.250000X2.250000X245.000000*%
%ADD42RoundRect,0.250000X-0.250000X-0.475000X0.250000X-0.475000X0.250000X0.475000X-0.250000X0.475000X0*%
%ADD43RoundRect,0.250000X0.262500X0.450000X-0.262500X0.450000X-0.262500X-0.450000X0.262500X-0.450000X0*%
%ADD44RoundRect,0.250000X-0.475000X0.250000X-0.475000X-0.250000X0.475000X-0.250000X0.475000X0.250000X0*%
%ADD45RoundRect,0.150000X-0.150000X0.825000X-0.150000X-0.825000X0.150000X-0.825000X0.150000X0.825000X0*%
%ADD46RoundRect,0.102000X0.802500X0.802500X-0.802500X0.802500X-0.802500X-0.802500X0.802500X-0.802500X0*%
G04 APERTURE END LIST*
D10*
%TO.C,U3*%
X87524600Y-95351600D03*
D11*
X84984600Y-95351600D03*
X82444600Y-95351600D03*
X79904600Y-95351600D03*
X77364600Y-95351600D03*
X74824600Y-95351600D03*
X72284600Y-95351600D03*
X69744600Y-95351600D03*
X67204600Y-95351600D03*
X64664600Y-95351600D03*
X64664600Y-135991600D03*
X67204600Y-135991600D03*
X69744600Y-135991600D03*
X72284600Y-135991600D03*
X74824600Y-135991600D03*
X77364600Y-135991600D03*
X79904600Y-135991600D03*
X82444600Y-135991600D03*
X84984600Y-135991600D03*
X87524600Y-135991600D03*
X87524600Y-92811600D03*
X84984600Y-92811600D03*
X82444600Y-92811600D03*
X79904600Y-92811600D03*
X77364600Y-92811600D03*
X74824600Y-92811600D03*
X72284600Y-92811600D03*
X69744600Y-92811600D03*
X67204600Y-92811600D03*
X64664600Y-92811600D03*
X64664600Y-138531600D03*
X67204600Y-138531600D03*
X69744600Y-138531600D03*
X72284600Y-138531600D03*
X74824600Y-138531600D03*
X77364600Y-138531600D03*
X79904600Y-138531600D03*
X82444600Y-138531600D03*
X84984600Y-138531600D03*
D10*
X87524600Y-138531600D03*
%TD*%
D12*
%TO.C,Vout sens*%
X36855400Y-93065600D03*
D13*
X39395400Y-93065600D03*
%TD*%
D14*
%TO.C,J5*%
X40208200Y-116865400D03*
%TD*%
D15*
%TO.C,RV1*%
X36525200Y-137668000D03*
D16*
X44379054Y-136764133D03*
%TD*%
D12*
%TO.C,Vout*%
X24104600Y-137947400D03*
D13*
X24104600Y-135407400D03*
%TD*%
D17*
%TO.C,D1*%
X47167800Y-120294400D03*
D18*
X47167800Y-138353800D03*
%TD*%
D19*
%TO.C,Q1*%
X34960000Y-107616105D03*
D20*
X37500000Y-107616105D03*
X40040000Y-107616105D03*
%TD*%
D21*
%TO.C,J1*%
X106324400Y-120282000D03*
D22*
X106324400Y-137782000D03*
%TD*%
D19*
%TO.C,Q2*%
X34960000Y-113616105D03*
D20*
X37500000Y-113616105D03*
X40040000Y-113616105D03*
%TD*%
D23*
%TO.C,GND*%
X111277400Y-94462600D03*
%TD*%
D14*
%TO.C,J6*%
X91338400Y-93319600D03*
%TD*%
D12*
%TO.C,I_L*%
X31165800Y-130048000D03*
D13*
X33705800Y-130048000D03*
%TD*%
D12*
%TO.C,Vin_sens*%
X31165800Y-126974600D03*
D13*
X33705800Y-126974600D03*
%TD*%
D12*
%TO.C,Vsw*%
X31165799Y-123850400D03*
D13*
X33705801Y-123850400D03*
%TD*%
D24*
%TO.C,LB1*%
X58293000Y-136601200D03*
X93853000Y-136601200D03*
D25*
X60833000Y-134061200D03*
X91313000Y-134061200D03*
D24*
X58293000Y-131521200D03*
D26*
X63373000Y-131521200D03*
D27*
X88773000Y-131521200D03*
D24*
X93853000Y-131521200D03*
D25*
X60833000Y-128981200D03*
D24*
X91313000Y-128981200D03*
X58293000Y-126441200D03*
D28*
X64135000Y-126441200D03*
X88011000Y-126441200D03*
D24*
X93853000Y-126441200D03*
X60833000Y-123901200D03*
X91313000Y-123901200D03*
X58293000Y-121361200D03*
D28*
X64135000Y-121361200D03*
X88011000Y-121361200D03*
D24*
X93853000Y-121361200D03*
X60833000Y-118821200D03*
X91313000Y-118821200D03*
X58293000Y-116281200D03*
D28*
X64135000Y-116281200D03*
X88011000Y-116281200D03*
D24*
X93853000Y-116281200D03*
D25*
X60833000Y-113741200D03*
X91313000Y-113741200D03*
D24*
X58293000Y-111201200D03*
D28*
X64135000Y-111201200D03*
X88011000Y-111201200D03*
D24*
X93853000Y-111201200D03*
X60833000Y-108661200D03*
D25*
X91313000Y-108661200D03*
D24*
X58293000Y-106121200D03*
D28*
X64135000Y-106121200D03*
D29*
X88011000Y-106121200D03*
D24*
X93853000Y-106121200D03*
D25*
X60833000Y-103581200D03*
X91313000Y-103581200D03*
D24*
X58293000Y-101041200D03*
D27*
X63373000Y-101041200D03*
X88773000Y-101041200D03*
D24*
X93853000Y-101041200D03*
D25*
X60833000Y-98501200D03*
X91313000Y-98501200D03*
D24*
X58293000Y-95961200D03*
X93853000Y-95961200D03*
%TD*%
D23*
%TO.C,Vin*%
X104851200Y-94411800D03*
%TD*%
D30*
%TO.C,PS1*%
X107845400Y-104495600D03*
D31*
X107845400Y-101955600D03*
X107845400Y-99415600D03*
%TD*%
D12*
%TO.C,D*%
X31394398Y-93065600D03*
D13*
X33934400Y-93065600D03*
%TD*%
D23*
%TO.C,Vboot*%
X22352000Y-124124105D03*
%TD*%
%TO.C,D'*%
X22910800Y-131013200D03*
%TD*%
%TO.C,GND*%
X25958800Y-127787400D03*
%TD*%
D22*
%TO.C,SW1*%
X32150000Y-97352505D03*
X42850000Y-97352505D03*
D32*
X35000000Y-98552505D03*
D33*
X37500000Y-98552505D03*
X40000000Y-98552505D03*
X40000000Y-96152505D03*
X37500000Y-96152505D03*
X35000000Y-96152505D03*
%TD*%
D34*
%TO.C,C6*%
X107442000Y-111476150D03*
X107442000Y-116476150D03*
%TD*%
D23*
%TO.C,GND*%
X92354400Y-138506200D03*
%TD*%
%TO.C,GND*%
X51816000Y-94310200D03*
%TD*%
D35*
%TO.C,R6*%
X78308200Y-102987700D03*
X78308200Y-104812700D03*
%TD*%
D36*
%TO.C,C2*%
X79994800Y-106643400D03*
X78094800Y-106643400D03*
%TD*%
D37*
%TO.C,C9*%
X37900000Y-111516105D03*
X37900000Y-109616105D03*
%TD*%
D38*
%TO.C,U1*%
X30405000Y-105746105D03*
D39*
X30405000Y-108286105D03*
X30405000Y-110826105D03*
X30405000Y-113366105D03*
X30405000Y-115906105D03*
X30405000Y-118446105D03*
X30405000Y-120986105D03*
X22785000Y-120986105D03*
X22785000Y-118446105D03*
X22785000Y-115906105D03*
X22785000Y-113366105D03*
X22785000Y-110826105D03*
X22785000Y-108286105D03*
X22785000Y-105746105D03*
%TD*%
D23*
%TO.C,3V3*%
X43332400Y-93014800D03*
%TD*%
D22*
%TO.C,F1*%
X101600000Y-117675200D03*
X101600000Y-95075200D03*
%TD*%
D12*
%TO.C,C2D*%
X22987000Y-99867105D03*
D13*
X22987000Y-102407105D03*
%TD*%
D40*
%TO.C,R8*%
X65424100Y-133480850D03*
X67249100Y-133480850D03*
%TD*%
D23*
%TO.C,Vsw*%
X41706800Y-115087400D03*
%TD*%
D40*
%TO.C,R7*%
X69089900Y-133555200D03*
X70914900Y-133555200D03*
%TD*%
D36*
%TO.C,C14*%
X74610000Y-131572000D03*
X72710000Y-131572000D03*
%TD*%
D21*
%TO.C,J3*%
X52400200Y-120269600D03*
D22*
X52400200Y-137769600D03*
%TD*%
D41*
%TO.C,J4*%
X35676510Y-122194007D03*
D22*
X28280690Y-138054393D03*
%TD*%
D12*
%TO.C,C2D'*%
X23114000Y-93771105D03*
D13*
X23114000Y-96311105D03*
%TD*%
D42*
%TO.C,C8*%
X69052400Y-131572000D03*
X70952400Y-131572000D03*
%TD*%
D43*
%TO.C,R5*%
X79931900Y-101055400D03*
X78106900Y-101055400D03*
%TD*%
D44*
%TO.C,C20*%
X81483200Y-108370600D03*
X81483200Y-110270600D03*
%TD*%
D42*
%TO.C,C11*%
X65445600Y-131521200D03*
X67345600Y-131521200D03*
%TD*%
%TO.C,C4*%
X26307945Y-123677035D03*
X28207943Y-123677035D03*
%TD*%
D37*
%TO.C,C12*%
X39935000Y-111516105D03*
X39935000Y-109616105D03*
%TD*%
D23*
%TO.C,GND*%
X46939200Y-112598200D03*
%TD*%
D35*
%TO.C,R3*%
X32700000Y-106053605D03*
X32700000Y-107878605D03*
%TD*%
D23*
%TO.C,12V*%
X62077600Y-92811600D03*
%TD*%
D44*
%TO.C,C21*%
X79806800Y-108370600D03*
X79806800Y-110270600D03*
%TD*%
D45*
%TO.C,U2*%
X81381600Y-101171200D03*
X82651600Y-101171200D03*
X83921600Y-101171200D03*
X85191600Y-101171200D03*
X85191600Y-106121200D03*
X83921600Y-106121200D03*
X82651600Y-106121200D03*
X81381600Y-106121200D03*
%TD*%
D34*
%TO.C,C16*%
X42875200Y-127046350D03*
X42875200Y-132046350D03*
%TD*%
D43*
%TO.C,R9*%
X74572500Y-133563082D03*
X72747500Y-133563082D03*
%TD*%
%TO.C,R2*%
X43615000Y-109330105D03*
X41790000Y-109330105D03*
%TD*%
D46*
%TO.C,PS2*%
X73846900Y-103095986D03*
D31*
X71306900Y-103095986D03*
X68766900Y-103095986D03*
%TD*%
D37*
%TO.C,C19*%
X32512000Y-111516105D03*
X32512000Y-109616105D03*
%TD*%
D23*
%TO.C,Vin_Unfused*%
X99872800Y-137795000D03*
%TD*%
D42*
%TO.C,C1*%
X83784400Y-108396000D03*
X85684400Y-108396000D03*
%TD*%
D21*
%TO.C,J2*%
X111556800Y-120282000D03*
D22*
X111556800Y-137782000D03*
%TD*%
D40*
%TO.C,R1*%
X41790000Y-111362105D03*
X43615000Y-111362105D03*
%TD*%
D37*
%TO.C,C15*%
X35835000Y-111516105D03*
X35835000Y-109616105D03*
%TD*%
M02*
