%TF.GenerationSoftware,KiCad,Pcbnew,9.0.7*%
%TF.CreationDate,2026-02-20T12:59:29-06:00*%
%TF.ProjectId,Lab2_starter,4c616232-5f73-4746-9172-7465722e6b69,rev?*%
%TF.SameCoordinates,Original*%
%TF.FileFunction,Paste,Bot*%
%TF.FilePolarity,Positive*%
%FSLAX46Y46*%
G04 Gerber Fmt 4.6, Leading zero omitted, Abs format (unit mm)*
G04 Created by KiCad (PCBNEW 9.0.7) date 2026-02-20 12:59:29*
%MOMM*%
%LPD*%
G01*
G04 APERTURE LIST*
G04 Aperture macros list*
%AMRoundRect*
0 Rectangle with rounded corners*
0 $1 Rounding radius*
0 $2 $3 $4 $5 $6 $7 $8 $9 X,Y pos of 4 corners*
0 Add a 4 corners polygon primitive as box body*
4,1,4,$2,$3,$4,$5,$6,$7,$8,$9,$2,$3,0*
0 Add four circle primitives for the rounded corners*
1,1,$1+$1,$2,$3*
1,1,$1+$1,$4,$5*
1,1,$1+$1,$6,$7*
1,1,$1+$1,$8,$9*
0 Add four rect primitives between the rounded corners*
20,1,$1+$1,$2,$3,$4,$5,0*
20,1,$1+$1,$4,$5,$6,$7,0*
20,1,$1+$1,$6,$7,$8,$9,0*
20,1,$1+$1,$8,$9,$2,$3,0*%
G04 Aperture macros list end*
%ADD10RoundRect,0.250000X-0.450000X0.262500X-0.450000X-0.262500X0.450000X-0.262500X0.450000X0.262500X0*%
%ADD11RoundRect,0.250000X0.250000X0.475000X-0.250000X0.475000X-0.250000X-0.475000X0.250000X-0.475000X0*%
%ADD12RoundRect,0.250000X0.475000X-0.250000X0.475000X0.250000X-0.475000X0.250000X-0.475000X-0.250000X0*%
%ADD13RoundRect,0.250000X-0.262500X-0.450000X0.262500X-0.450000X0.262500X0.450000X-0.262500X0.450000X0*%
%ADD14RoundRect,0.250000X-0.250000X-0.475000X0.250000X-0.475000X0.250000X0.475000X-0.250000X0.475000X0*%
%ADD15RoundRect,0.250000X0.262500X0.450000X-0.262500X0.450000X-0.262500X-0.450000X0.262500X-0.450000X0*%
%ADD16RoundRect,0.250000X-0.475000X0.250000X-0.475000X-0.250000X0.475000X-0.250000X0.475000X0.250000X0*%
%ADD17RoundRect,0.150000X-0.150000X0.825000X-0.150000X-0.825000X0.150000X-0.825000X0.150000X0.825000X0*%
G04 APERTURE END LIST*
D10*
%TO.C,R6*%
X78308200Y-102987700D03*
X78308200Y-104812700D03*
%TD*%
D11*
%TO.C,C2*%
X79994800Y-106643400D03*
X78094800Y-106643400D03*
%TD*%
D12*
%TO.C,C9*%
X37900000Y-111516105D03*
X37900000Y-109616105D03*
%TD*%
D13*
%TO.C,R8*%
X65424100Y-133480850D03*
X67249100Y-133480850D03*
%TD*%
%TO.C,R7*%
X69089900Y-133555200D03*
X70914900Y-133555200D03*
%TD*%
D11*
%TO.C,C14*%
X74610000Y-131572000D03*
X72710000Y-131572000D03*
%TD*%
D14*
%TO.C,C8*%
X69052400Y-131572000D03*
X70952400Y-131572000D03*
%TD*%
D15*
%TO.C,R5*%
X79931900Y-101055400D03*
X78106900Y-101055400D03*
%TD*%
D16*
%TO.C,C20*%
X81483200Y-108370600D03*
X81483200Y-110270600D03*
%TD*%
D14*
%TO.C,C11*%
X65445600Y-131521200D03*
X67345600Y-131521200D03*
%TD*%
%TO.C,C4*%
X26307945Y-123677035D03*
X28207943Y-123677035D03*
%TD*%
D12*
%TO.C,C12*%
X39935000Y-111516105D03*
X39935000Y-109616105D03*
%TD*%
D10*
%TO.C,R3*%
X32700000Y-106053605D03*
X32700000Y-107878605D03*
%TD*%
D16*
%TO.C,C21*%
X79806800Y-108370600D03*
X79806800Y-110270600D03*
%TD*%
D17*
%TO.C,U2*%
X81381600Y-101171200D03*
X82651600Y-101171200D03*
X83921600Y-101171200D03*
X85191600Y-101171200D03*
X85191600Y-106121200D03*
X83921600Y-106121200D03*
X82651600Y-106121200D03*
X81381600Y-106121200D03*
%TD*%
D15*
%TO.C,R9*%
X74572500Y-133563082D03*
X72747500Y-133563082D03*
%TD*%
%TO.C,R2*%
X43615000Y-109330105D03*
X41790000Y-109330105D03*
%TD*%
D12*
%TO.C,C19*%
X32512000Y-111516105D03*
X32512000Y-109616105D03*
%TD*%
D14*
%TO.C,C1*%
X83784400Y-108396000D03*
X85684400Y-108396000D03*
%TD*%
D13*
%TO.C,R1*%
X41790000Y-111362105D03*
X43615000Y-111362105D03*
%TD*%
D12*
%TO.C,C15*%
X35835000Y-111516105D03*
X35835000Y-109616105D03*
%TD*%
M02*
