M48
; DRILL file {KiCad 9.0.7} date 2026-02-20T13:00:08-0600
; FORMAT={-:-/ absolute / metric / decimal}
; #@! TF.CreationDate,2026-02-20T13:00:08-06:00
; #@! TF.GenerationSoftware,Kicad,Pcbnew,9.0.7
; #@! TF.FileFunction,Plated,1,4,PTH
FMAT,2
METRIC
; #@! TA.AperFunction,Plated,PTH,ViaDrill
T1C0.400
; #@! TA.AperFunction,Plated,PTH,ComponentDrill
T2C0.600
; #@! TA.AperFunction,Plated,PTH,ComponentDrill
T3C0.800
; #@! TA.AperFunction,Plated,PTH,ComponentDrill
T4C0.864
; #@! TA.AperFunction,Plated,PTH,ComponentDrill
T5C1.000
; #@! TA.AperFunction,Plated,PTH,ComponentDrill
T6C1.070
; #@! TA.AperFunction,Plated,PTH,ComponentDrill
T7C1.100
; #@! TA.AperFunction,Plated,PTH,ComponentDrill
T8C1.118
; #@! TA.AperFunction,Plated,PTH,ViaDrill
T9C1.200
; #@! TA.AperFunction,Plated,PTH,ComponentDrill
T10C1.200
; #@! TA.AperFunction,Plated,PTH,ComponentDrill
T11C1.321
; #@! TA.AperFunction,Plated,PTH,ComponentDrill
T12C1.500
; #@! TA.AperFunction,Plated,PTH,ComponentDrill
T13C1.750
; #@! TA.AperFunction,Plated,PTH,ComponentDrill
T14C1.800
%
G90
G05
T1
X24.98Y-107.767
X32.487Y-103.251
X33.68Y-102.401
X66.65Y-132.74
X67.92Y-117.678
X70.206Y-132.944
X70.917Y-115.646
X73.343Y-132.81
X75.362Y-113.005
X78.08Y-108.585
X78.181Y-109.931
X80.848Y-107.467
T2
X22.987Y-102.407
X23.114Y-96.311
X24.105Y-135.407
X33.706Y-126.975
X33.706Y-130.048
X33.706Y-123.85
X33.934Y-93.066
X39.395Y-93.066
T3
X22.785Y-105.746
X22.785Y-108.286
X22.785Y-110.826
X22.785Y-113.366
X22.785Y-115.906
X22.785Y-118.446
X22.785Y-120.986
X30.405Y-105.746
X30.405Y-108.286
X30.405Y-110.826
X30.405Y-113.366
X30.405Y-115.906
X30.405Y-118.446
X30.405Y-120.986
X35.0Y-96.153
X35.0Y-98.553
X37.5Y-96.153
X37.5Y-98.553
X40.0Y-96.153
X40.0Y-98.553
T4
X42.875Y-127.046
X42.875Y-132.046
X107.442Y-111.476
X107.442Y-116.476
T5
X22.352Y-124.124
X22.911Y-131.013
X25.959Y-127.787
X41.707Y-115.087
X43.332Y-93.015
X46.939Y-112.598
X51.816Y-94.31
X62.078Y-92.812
X64.665Y-92.812
X64.665Y-95.352
X64.665Y-135.992
X64.665Y-138.532
X67.205Y-92.812
X67.205Y-95.352
X67.205Y-135.992
X67.205Y-138.532
X69.745Y-92.812
X69.745Y-95.352
X69.745Y-135.992
X69.745Y-138.532
X72.285Y-92.812
X72.285Y-95.352
X72.285Y-135.992
X72.285Y-138.532
X74.825Y-92.812
X74.825Y-95.352
X74.825Y-135.992
X74.825Y-138.532
X77.365Y-92.812
X77.365Y-95.352
X77.365Y-135.992
X77.365Y-138.532
X79.905Y-92.812
X79.905Y-95.352
X79.905Y-135.992
X79.905Y-138.532
X82.445Y-92.812
X82.445Y-95.352
X82.445Y-135.992
X82.445Y-138.532
X84.985Y-92.812
X84.985Y-95.352
X84.985Y-135.992
X84.985Y-138.532
X87.525Y-92.812
X87.525Y-95.352
X87.525Y-135.992
X87.525Y-138.532
X92.354Y-138.506
X99.873Y-137.795
X104.851Y-94.412
X111.277Y-94.463
T6
X68.767Y-103.096
X71.307Y-103.096
X73.847Y-103.096
X107.845Y-99.416
X107.845Y-101.956
X107.845Y-104.496
T7
X34.96Y-107.616
X34.96Y-113.616
X37.5Y-107.616
X37.5Y-113.616
X40.04Y-107.616
X40.04Y-113.616
T8
X36.525Y-137.668
X44.379Y-136.764
T9
X68.606Y-129.489
X72.39Y-129.362
T10
X22.987Y-99.867
X23.114Y-93.771
X24.105Y-137.947
X31.166Y-123.85
X31.166Y-126.975
X31.166Y-130.048
X31.394Y-93.066
X36.855Y-93.066
T11
X47.168Y-120.294
X47.168Y-138.354
T12
X28.281Y-138.054
X32.15Y-97.353
X35.677Y-122.194
X42.85Y-97.353
X52.4Y-120.27
X52.4Y-137.77
X101.6Y-95.075
X101.6Y-117.675
X106.324Y-120.282
X106.324Y-137.782
X111.557Y-120.282
X111.557Y-137.782
T13
X58.293Y-95.961
X58.293Y-101.041
X58.293Y-106.121
X58.293Y-111.201
X58.293Y-116.281
X58.293Y-121.361
X58.293Y-126.441
X58.293Y-131.521
X58.293Y-136.601
X60.833Y-98.501
X60.833Y-103.581
X60.833Y-108.661
X60.833Y-113.741
X60.833Y-118.821
X60.833Y-123.901
X60.833Y-128.981
X60.833Y-134.061
X63.373Y-101.041
X63.373Y-131.521
X88.773Y-101.041
X88.773Y-131.521
X91.313Y-98.501
X91.313Y-103.581
X91.313Y-108.661
X91.313Y-113.741
X91.313Y-118.821
X91.313Y-123.901
X91.313Y-128.981
X91.313Y-134.061
X93.853Y-95.961
X93.853Y-101.041
X93.853Y-106.121
X93.853Y-111.201
X93.853Y-116.281
X93.853Y-121.361
X93.853Y-126.441
X93.853Y-131.521
X93.853Y-136.601
T14
X40.208Y-116.865
X91.338Y-93.32
T13
X63.37Y-106.121G85X64.9Y-106.121
G05
X63.37Y-111.201G85X64.9Y-111.201
G05
X63.37Y-116.281G85X64.9Y-116.281
G05
X63.37Y-121.361G85X64.9Y-121.361
G05
X63.37Y-126.441G85X64.9Y-126.441
G05
X87.246Y-106.121G85X88.776Y-106.121
G05
X87.246Y-111.201G85X88.776Y-111.201
G05
X87.246Y-116.281G85X88.776Y-116.281
G05
X87.246Y-121.361G85X88.776Y-121.361
G05
X87.246Y-126.441G85X88.776Y-126.441
G05
M30
