%TF.GenerationSoftware,KiCad,Pcbnew,9.0.7*%
%TF.CreationDate,2026-02-20T12:59:29-06:00*%
%TF.ProjectId,Lab2_starter,4c616232-5f73-4746-9172-7465722e6b69,rev?*%
%TF.SameCoordinates,Original*%
%TF.FileFunction,Soldermask,Top*%
%TF.FilePolarity,Negative*%
%FSLAX46Y46*%
G04 Gerber Fmt 4.6, Leading zero omitted, Abs format (unit mm)*
G04 Created by KiCad (PCBNEW 9.0.7) date 2026-02-20 12:59:29*
%MOMM*%
%LPD*%
G01*
G04 APERTURE LIST*
G04 Aperture macros list*
%AMRoundRect*
0 Rectangle with rounded corners*
0 $1 Rounding radius*
0 $2 $3 $4 $5 $6 $7 $8 $9 X,Y pos of 4 corners*
0 Add a 4 corners polygon primitive as box body*
4,1,4,$2,$3,$4,$5,$6,$7,$8,$9,$2,$3,0*
0 Add four circle primitives for the rounded corners*
1,1,$1+$1,$2,$3*
1,1,$1+$1,$4,$5*
1,1,$1+$1,$6,$7*
1,1,$1+$1,$8,$9*
0 Add four rect primitives between the rounded corners*
20,1,$1+$1,$2,$3,$4,$5,0*
20,1,$1+$1,$4,$5,$6,$7,0*
20,1,$1+$1,$6,$7,$8,$9,0*
20,1,$1+$1,$8,$9,$2,$3,0*%
%AMRotRect*
0 Rectangle, with rotation*
0 The origin of the aperture is its center*
0 $1 length*
0 $2 width*
0 $3 Rotation angle, in degrees counterclockwise*
0 Add horizontal line*
21,1,$1,$2,0,0,$3*%
G04 Aperture macros list end*
%ADD10R,1.700000X1.700000*%
%ADD11O,1.700000X1.700000*%
%ADD12C,2.300000*%
%ADD13C,1.200000*%
%ADD14RoundRect,0.250000X0.450000X-0.262500X0.450000X0.262500X-0.450000X0.262500X-0.450000X-0.262500X0*%
%ADD15C,3.600000*%
%ADD16RotRect,1.625600X1.625600X25.000000*%
%ADD17C,1.625600*%
%ADD18RoundRect,0.250000X0.132583X-0.503814X0.503814X-0.132583X-0.132583X0.503814X-0.503814X0.132583X0*%
%ADD19R,1.600000X1.500000*%
%ADD20RoundRect,0.250000X-0.475000X0.250000X-0.475000X-0.250000X0.475000X-0.250000X0.475000X0.250000X0*%
%ADD21R,1.828800X1.828800*%
%ADD22C,1.828800*%
%ADD23R,1.200000X1.200000*%
%ADD24R,1.905000X2.000000*%
%ADD25O,1.905000X2.000000*%
%ADD26RoundRect,0.250000X0.475000X-0.250000X0.475000X0.250000X-0.475000X0.250000X-0.475000X-0.250000X0*%
%ADD27R,2.250000X2.250000*%
%ADD28C,2.250000*%
%ADD29RoundRect,0.250000X-0.450000X0.262500X-0.450000X-0.262500X0.450000X-0.262500X0.450000X0.262500X0*%
%ADD30RoundRect,0.250000X0.250000X0.475000X-0.250000X0.475000X-0.250000X-0.475000X0.250000X-0.475000X0*%
%ADD31C,2.000000*%
%ADD32RoundRect,0.250000X0.262500X0.450000X-0.262500X0.450000X-0.262500X-0.450000X0.262500X-0.450000X0*%
%ADD33C,2.800000*%
%ADD34C,0.800000*%
%ADD35C,2.600000*%
%ADD36C,0.600000*%
%ADD37O,4.200000X2.600000*%
%ADD38O,2.200000X0.600000*%
%ADD39RoundRect,0.102000X0.802500X-0.802500X0.802500X0.802500X-0.802500X0.802500X-0.802500X-0.802500X0*%
%ADD40C,1.809000*%
%ADD41RoundRect,0.250000X-0.250000X-0.475000X0.250000X-0.475000X0.250000X0.475000X-0.250000X0.475000X0*%
%ADD42R,1.300000X1.300000*%
%ADD43C,1.300000*%
%ADD44C,1.371600*%
%ADD45RoundRect,0.250000X0.550000X0.550000X-0.550000X0.550000X-0.550000X-0.550000X0.550000X-0.550000X0*%
%ADD46C,1.600000*%
%ADD47RotRect,2.250000X2.250000X245.000000*%
%ADD48RoundRect,0.102000X0.802500X0.802500X-0.802500X0.802500X-0.802500X-0.802500X0.802500X-0.802500X0*%
G04 APERTURE END LIST*
D10*
%TO.C,U3*%
X87524600Y-95351600D03*
D11*
X84984600Y-95351600D03*
X82444600Y-95351600D03*
X79904600Y-95351600D03*
X77364600Y-95351600D03*
X74824600Y-95351600D03*
X72284600Y-95351600D03*
X69744600Y-95351600D03*
X67204600Y-95351600D03*
X64664600Y-95351600D03*
X64664600Y-135991600D03*
X67204600Y-135991600D03*
X69744600Y-135991600D03*
X72284600Y-135991600D03*
X74824600Y-135991600D03*
X77364600Y-135991600D03*
X79904600Y-135991600D03*
X82444600Y-135991600D03*
X84984600Y-135991600D03*
X87524600Y-135991600D03*
X87524600Y-92811600D03*
X84984600Y-92811600D03*
X82444600Y-92811600D03*
X79904600Y-92811600D03*
X77364600Y-92811600D03*
X74824600Y-92811600D03*
X72284600Y-92811600D03*
X69744600Y-92811600D03*
X67204600Y-92811600D03*
X64664600Y-92811600D03*
X64664600Y-138531600D03*
X67204600Y-138531600D03*
X69744600Y-138531600D03*
X72284600Y-138531600D03*
X74824600Y-138531600D03*
X77364600Y-138531600D03*
X79904600Y-138531600D03*
X82444600Y-138531600D03*
X84984600Y-138531600D03*
D10*
X87524600Y-138531600D03*
%TD*%
D12*
%TO.C,Vout sens*%
X36855400Y-93065600D03*
D13*
X39395400Y-93065600D03*
%TD*%
D14*
%TO.C,R13*%
X28194000Y-112946205D03*
X28194000Y-111121205D03*
%TD*%
D15*
%TO.C,J5*%
X40208200Y-116865400D03*
%TD*%
D16*
%TO.C,RV1*%
X36525200Y-137668000D03*
D17*
X44379054Y-136764133D03*
%TD*%
D18*
%TO.C,R4*%
X31866765Y-119689340D03*
X33157235Y-118398870D03*
%TD*%
D19*
%TO.C,D3*%
X28594000Y-97362505D03*
X28594000Y-93862505D03*
%TD*%
D12*
%TO.C,Vout*%
X24104600Y-137947400D03*
D13*
X24104600Y-135407400D03*
%TD*%
D20*
%TO.C,C10*%
X106070400Y-99420600D03*
X106070400Y-101320600D03*
%TD*%
D21*
%TO.C,D1*%
X47167800Y-120294400D03*
D22*
X47167800Y-138353800D03*
%TD*%
D23*
%TO.C,D2*%
X28200000Y-117366105D03*
X28200000Y-114566105D03*
%TD*%
D24*
%TO.C,Q1*%
X34960000Y-107616105D03*
D25*
X37500000Y-107616105D03*
X40040000Y-107616105D03*
%TD*%
D26*
%TO.C,C7*%
X106070400Y-104810600D03*
X106070400Y-102910600D03*
%TD*%
D27*
%TO.C,J1*%
X106324400Y-120282000D03*
D28*
X106324400Y-137782000D03*
%TD*%
D24*
%TO.C,Q2*%
X34960000Y-113616105D03*
D25*
X37500000Y-113616105D03*
X40040000Y-113616105D03*
%TD*%
D29*
%TO.C,R10*%
X28594000Y-99272005D03*
X28594000Y-101097005D03*
%TD*%
D30*
%TO.C,C13*%
X74168000Y-101231354D03*
X72268000Y-101231354D03*
%TD*%
D31*
%TO.C,GND*%
X111277400Y-94462600D03*
%TD*%
D19*
%TO.C,D4*%
X46374000Y-97690505D03*
X46374000Y-94190505D03*
%TD*%
D15*
%TO.C,J6*%
X91338400Y-93319600D03*
%TD*%
D12*
%TO.C,I_L*%
X31165800Y-130048000D03*
D13*
X33705800Y-130048000D03*
%TD*%
D12*
%TO.C,Vin_sens*%
X31165800Y-126974600D03*
D13*
X33705800Y-126974600D03*
%TD*%
D12*
%TO.C,Vsw*%
X31165799Y-123850400D03*
D13*
X33705801Y-123850400D03*
%TD*%
D32*
%TO.C,R12*%
X27201500Y-107741105D03*
X25376500Y-107741105D03*
%TD*%
D29*
%TO.C,R11*%
X46374000Y-99600005D03*
X46374000Y-101425005D03*
%TD*%
D33*
%TO.C,LB1*%
X58293000Y-136601200D03*
X93853000Y-136601200D03*
D34*
X60833000Y-134061200D03*
X91313000Y-134061200D03*
D33*
X58293000Y-131521200D03*
D35*
X63373000Y-131521200D03*
D36*
X88773000Y-131521200D03*
D33*
X93853000Y-131521200D03*
D34*
X60833000Y-128981200D03*
D33*
X91313000Y-128981200D03*
X58293000Y-126441200D03*
D37*
X64135000Y-126441200D03*
X88011000Y-126441200D03*
D33*
X93853000Y-126441200D03*
X60833000Y-123901200D03*
X91313000Y-123901200D03*
X58293000Y-121361200D03*
D37*
X64135000Y-121361200D03*
X88011000Y-121361200D03*
D33*
X93853000Y-121361200D03*
X60833000Y-118821200D03*
X91313000Y-118821200D03*
X58293000Y-116281200D03*
D37*
X64135000Y-116281200D03*
X88011000Y-116281200D03*
D33*
X93853000Y-116281200D03*
D34*
X60833000Y-113741200D03*
X91313000Y-113741200D03*
D33*
X58293000Y-111201200D03*
D37*
X64135000Y-111201200D03*
X88011000Y-111201200D03*
D33*
X93853000Y-111201200D03*
X60833000Y-108661200D03*
D34*
X91313000Y-108661200D03*
D33*
X58293000Y-106121200D03*
D37*
X64135000Y-106121200D03*
D38*
X88011000Y-106121200D03*
D33*
X93853000Y-106121200D03*
D34*
X60833000Y-103581200D03*
X91313000Y-103581200D03*
D33*
X58293000Y-101041200D03*
D36*
X63373000Y-101041200D03*
X88773000Y-101041200D03*
D33*
X93853000Y-101041200D03*
D34*
X60833000Y-98501200D03*
X91313000Y-98501200D03*
D33*
X58293000Y-95961200D03*
X93853000Y-95961200D03*
%TD*%
D31*
%TO.C,Vin*%
X104851200Y-94411800D03*
%TD*%
D26*
%TO.C,C3*%
X32700000Y-116819105D03*
X32700000Y-114919105D03*
%TD*%
D39*
%TO.C,PS1*%
X107845400Y-104495600D03*
D40*
X107845400Y-101955600D03*
X107845400Y-99415600D03*
%TD*%
D41*
%TO.C,C17*%
X68712000Y-101231354D03*
X70612000Y-101231354D03*
%TD*%
D12*
%TO.C,D*%
X31394398Y-93065600D03*
D13*
X33934400Y-93065600D03*
%TD*%
D31*
%TO.C,Vboot*%
X22352000Y-124124105D03*
%TD*%
%TO.C,D'*%
X22910800Y-131013200D03*
%TD*%
%TO.C,GND*%
X25958800Y-127787400D03*
%TD*%
D28*
%TO.C,SW1*%
X32150000Y-97352505D03*
X42850000Y-97352505D03*
D42*
X35000000Y-98552505D03*
D43*
X37500000Y-98552505D03*
X40000000Y-98552505D03*
X40000000Y-96152505D03*
X37500000Y-96152505D03*
X35000000Y-96152505D03*
%TD*%
D44*
%TO.C,C6*%
X107442000Y-111476150D03*
X107442000Y-116476150D03*
%TD*%
D31*
%TO.C,GND*%
X92354400Y-138506200D03*
%TD*%
%TO.C,GND*%
X51816000Y-94310200D03*
%TD*%
D45*
%TO.C,U1*%
X30405000Y-105746105D03*
D46*
X30405000Y-108286105D03*
X30405000Y-110826105D03*
X30405000Y-113366105D03*
X30405000Y-115906105D03*
X30405000Y-118446105D03*
X30405000Y-120986105D03*
X22785000Y-120986105D03*
X22785000Y-118446105D03*
X22785000Y-115906105D03*
X22785000Y-113366105D03*
X22785000Y-110826105D03*
X22785000Y-108286105D03*
X22785000Y-105746105D03*
%TD*%
D31*
%TO.C,3V3*%
X43332400Y-93014800D03*
%TD*%
D28*
%TO.C,F1*%
X101600000Y-117675200D03*
X101600000Y-95075200D03*
%TD*%
D12*
%TO.C,C2D*%
X22987000Y-99867105D03*
D13*
X22987000Y-102407105D03*
%TD*%
D31*
%TO.C,Vsw*%
X41706800Y-115087400D03*
%TD*%
D27*
%TO.C,J3*%
X52400200Y-120269600D03*
D28*
X52400200Y-137769600D03*
%TD*%
D47*
%TO.C,J4*%
X35676510Y-122194007D03*
D28*
X28280690Y-138054393D03*
%TD*%
D12*
%TO.C,C2D'*%
X23114000Y-93771105D03*
D13*
X23114000Y-96311105D03*
%TD*%
D31*
%TO.C,GND*%
X46939200Y-112598200D03*
%TD*%
%TO.C,12V*%
X62077600Y-92811600D03*
%TD*%
D44*
%TO.C,C16*%
X42875200Y-127046350D03*
X42875200Y-132046350D03*
%TD*%
D48*
%TO.C,PS2*%
X73846900Y-103095986D03*
D40*
X71306900Y-103095986D03*
X68766900Y-103095986D03*
%TD*%
D31*
%TO.C,Vin_Unfused*%
X99872800Y-137795000D03*
%TD*%
D27*
%TO.C,J2*%
X111556800Y-120282000D03*
D28*
X111556800Y-137782000D03*
%TD*%
M02*
