%TF.GenerationSoftware,KiCad,Pcbnew,9.0.7*%
%TF.CreationDate,2026-02-20T12:59:28-06:00*%
%TF.ProjectId,Lab2_starter,4c616232-5f73-4746-9172-7465722e6b69,rev?*%
%TF.SameCoordinates,Original*%
%TF.FileFunction,Copper,L1,Top*%
%TF.FilePolarity,Positive*%
%FSLAX46Y46*%
G04 Gerber Fmt 4.6, Leading zero omitted, Abs format (unit mm)*
G04 Created by KiCad (PCBNEW 9.0.7) date 2026-02-20 12:59:28*
%MOMM*%
%LPD*%
G01*
G04 APERTURE LIST*
G04 Aperture macros list*
%AMRoundRect*
0 Rectangle with rounded corners*
0 $1 Rounding radius*
0 $2 $3 $4 $5 $6 $7 $8 $9 X,Y pos of 4 corners*
0 Add a 4 corners polygon primitive as box body*
4,1,4,$2,$3,$4,$5,$6,$7,$8,$9,$2,$3,0*
0 Add four circle primitives for the rounded corners*
1,1,$1+$1,$2,$3*
1,1,$1+$1,$4,$5*
1,1,$1+$1,$6,$7*
1,1,$1+$1,$8,$9*
0 Add four rect primitives between the rounded corners*
20,1,$1+$1,$2,$3,$4,$5,0*
20,1,$1+$1,$4,$5,$6,$7,0*
20,1,$1+$1,$6,$7,$8,$9,0*
20,1,$1+$1,$8,$9,$2,$3,0*%
%AMRotRect*
0 Rectangle, with rotation*
0 The origin of the aperture is its center*
0 $1 length*
0 $2 width*
0 $3 Rotation angle, in degrees counterclockwise*
0 Add horizontal line*
21,1,$1,$2,0,0,$3*%
G04 Aperture macros list end*
%TA.AperFunction,ComponentPad*%
%ADD10R,1.700000X1.700000*%
%TD*%
%TA.AperFunction,ComponentPad*%
%ADD11O,1.700000X1.700000*%
%TD*%
%TA.AperFunction,ComponentPad*%
%ADD12C,2.300000*%
%TD*%
%TA.AperFunction,ComponentPad*%
%ADD13C,1.200000*%
%TD*%
%TA.AperFunction,SMDPad,CuDef*%
%ADD14RoundRect,0.250000X0.450000X-0.262500X0.450000X0.262500X-0.450000X0.262500X-0.450000X-0.262500X0*%
%TD*%
%TA.AperFunction,ComponentPad*%
%ADD15C,3.600000*%
%TD*%
%TA.AperFunction,ComponentPad*%
%ADD16RotRect,1.625600X1.625600X25.000000*%
%TD*%
%TA.AperFunction,ComponentPad*%
%ADD17C,1.625600*%
%TD*%
%TA.AperFunction,SMDPad,CuDef*%
%ADD18RoundRect,0.250000X0.132583X-0.503814X0.503814X-0.132583X-0.132583X0.503814X-0.503814X0.132583X0*%
%TD*%
%TA.AperFunction,SMDPad,CuDef*%
%ADD19R,1.600000X1.500000*%
%TD*%
%TA.AperFunction,SMDPad,CuDef*%
%ADD20RoundRect,0.250000X-0.475000X0.250000X-0.475000X-0.250000X0.475000X-0.250000X0.475000X0.250000X0*%
%TD*%
%TA.AperFunction,ComponentPad*%
%ADD21R,1.828800X1.828800*%
%TD*%
%TA.AperFunction,ComponentPad*%
%ADD22C,1.828800*%
%TD*%
%TA.AperFunction,SMDPad,CuDef*%
%ADD23R,1.200000X1.200000*%
%TD*%
%TA.AperFunction,ComponentPad*%
%ADD24R,1.905000X2.000000*%
%TD*%
%TA.AperFunction,ComponentPad*%
%ADD25O,1.905000X2.000000*%
%TD*%
%TA.AperFunction,SMDPad,CuDef*%
%ADD26RoundRect,0.250000X0.475000X-0.250000X0.475000X0.250000X-0.475000X0.250000X-0.475000X-0.250000X0*%
%TD*%
%TA.AperFunction,ComponentPad*%
%ADD27R,2.250000X2.250000*%
%TD*%
%TA.AperFunction,ComponentPad*%
%ADD28C,2.250000*%
%TD*%
%TA.AperFunction,SMDPad,CuDef*%
%ADD29RoundRect,0.250000X-0.450000X0.262500X-0.450000X-0.262500X0.450000X-0.262500X0.450000X0.262500X0*%
%TD*%
%TA.AperFunction,SMDPad,CuDef*%
%ADD30RoundRect,0.250000X0.250000X0.475000X-0.250000X0.475000X-0.250000X-0.475000X0.250000X-0.475000X0*%
%TD*%
%TA.AperFunction,ComponentPad*%
%ADD31C,2.000000*%
%TD*%
%TA.AperFunction,SMDPad,CuDef*%
%ADD32RoundRect,0.250000X0.262500X0.450000X-0.262500X0.450000X-0.262500X-0.450000X0.262500X-0.450000X0*%
%TD*%
%TA.AperFunction,ComponentPad*%
%ADD33C,2.800000*%
%TD*%
%TA.AperFunction,ComponentPad*%
%ADD34C,2.600000*%
%TD*%
%TA.AperFunction,ComponentPad*%
%ADD35O,4.200000X2.600000*%
%TD*%
%TA.AperFunction,ComponentPad*%
%ADD36R,1.605000X1.605000*%
%TD*%
%TA.AperFunction,ComponentPad*%
%ADD37C,1.605000*%
%TD*%
%TA.AperFunction,SMDPad,CuDef*%
%ADD38RoundRect,0.250000X-0.250000X-0.475000X0.250000X-0.475000X0.250000X0.475000X-0.250000X0.475000X0*%
%TD*%
%TA.AperFunction,ComponentPad*%
%ADD39R,1.300000X1.300000*%
%TD*%
%TA.AperFunction,ComponentPad*%
%ADD40C,1.300000*%
%TD*%
%TA.AperFunction,ComponentPad*%
%ADD41C,1.371600*%
%TD*%
%TA.AperFunction,ComponentPad*%
%ADD42RoundRect,0.250000X0.550000X0.550000X-0.550000X0.550000X-0.550000X-0.550000X0.550000X-0.550000X0*%
%TD*%
%TA.AperFunction,ComponentPad*%
%ADD43C,1.600000*%
%TD*%
%TA.AperFunction,ComponentPad*%
%ADD44RotRect,2.250000X2.250000X245.000000*%
%TD*%
%TA.AperFunction,ViaPad*%
%ADD45C,0.800000*%
%TD*%
%TA.AperFunction,ViaPad*%
%ADD46C,2.300000*%
%TD*%
%TA.AperFunction,Conductor*%
%ADD47C,1.000000*%
%TD*%
%TA.AperFunction,Conductor*%
%ADD48C,2.000000*%
%TD*%
%TA.AperFunction,Conductor*%
%ADD49C,0.250000*%
%TD*%
%TA.AperFunction,Conductor*%
%ADD50C,0.500000*%
%TD*%
G04 APERTURE END LIST*
D10*
%TO.P,U3,80*%
%TO.N,C2000 D *%
X87524600Y-95351600D03*
D11*
%TO.P,U3,79*%
%TO.N,C2000 D'*%
X84984600Y-95351600D03*
%TO.P,U3,78*%
%TO.N,unconnected-(U3-Pad78)*%
X82444600Y-95351600D03*
%TO.P,U3,77*%
%TO.N,unconnected-(U3-Pad77)*%
X79904600Y-95351600D03*
%TO.P,U3,76*%
%TO.N,unconnected-(U3-Pad76)*%
X77364600Y-95351600D03*
%TO.P,U3,75*%
%TO.N,unconnected-(U3-Pad75)*%
X74824600Y-95351600D03*
%TO.P,U3,74*%
%TO.N,unconnected-(U3-Pad74)*%
X72284600Y-95351600D03*
%TO.P,U3,73*%
%TO.N,unconnected-(U3-Pad73)*%
X69744600Y-95351600D03*
%TO.P,U3,72*%
%TO.N,unconnected-(U3-Pad72)*%
X67204600Y-95351600D03*
%TO.P,U3,71*%
%TO.N,unconnected-(U3-Pad71)*%
X64664600Y-95351600D03*
%TO.P,U3,70*%
%TO.N,/ADCINA0*%
X64664600Y-135991600D03*
%TO.P,U3,69*%
%TO.N,/ADCINA12*%
X67204600Y-135991600D03*
%TO.P,U3,68*%
%TO.N,unconnected-(U3-Pad68)*%
X69744600Y-135991600D03*
%TO.P,U3,67*%
%TO.N,unconnected-(U3-Pad67)*%
X72284600Y-135991600D03*
%TO.P,U3,66*%
%TO.N,/ADCINA4*%
X74824600Y-135991600D03*
%TO.P,U3,65*%
%TO.N,unconnected-(U3-Pad65)*%
X77364600Y-135991600D03*
%TO.P,U3,64*%
%TO.N,unconnected-(U3-Pad64)*%
X79904600Y-135991600D03*
%TO.P,U3,63*%
%TO.N,unconnected-(U3-Pad63)*%
X82444600Y-135991600D03*
%TO.P,U3,62*%
%TO.N,GND*%
X84984600Y-135991600D03*
%TO.P,U3,61*%
%TO.N,unconnected-(U3-Pad61)*%
X87524600Y-135991600D03*
%TO.P,U3,60*%
%TO.N,GND*%
X87524600Y-92811600D03*
%TO.P,U3,59*%
%TO.N,unconnected-(U3-Pad59)*%
X84984600Y-92811600D03*
%TO.P,U3,58*%
%TO.N,unconnected-(U3-Pad58)*%
X82444600Y-92811600D03*
%TO.P,U3,57*%
%TO.N,unconnected-(U3-Pad57)*%
X79904600Y-92811600D03*
%TO.P,U3,56*%
%TO.N,unconnected-(U3-Pad56)*%
X77364600Y-92811600D03*
%TO.P,U3,55*%
%TO.N,unconnected-(U3-Pad55)*%
X74824600Y-92811600D03*
%TO.P,U3,54*%
%TO.N,unconnected-(U3-Pad54)*%
X72284600Y-92811600D03*
%TO.P,U3,53*%
%TO.N,unconnected-(U3-Pad53)*%
X69744600Y-92811600D03*
%TO.P,U3,52*%
%TO.N,unconnected-(U3-Pad52)*%
X67204600Y-92811600D03*
%TO.P,U3,51*%
%TO.N,unconnected-(U3-Pad51)*%
X64664600Y-92811600D03*
%TO.P,U3,50*%
%TO.N,unconnected-(U3-Pad50)*%
X64664600Y-138531600D03*
%TO.P,U3,49*%
%TO.N,unconnected-(U3-Pad49)*%
X67204600Y-138531600D03*
%TO.P,U3,48*%
%TO.N,unconnected-(U3-Pad48)*%
X69744600Y-138531600D03*
%TO.P,U3,47*%
%TO.N,unconnected-(U3-Pad47)*%
X72284600Y-138531600D03*
%TO.P,U3,46*%
%TO.N,unconnected-(U3-Pad46)*%
X74824600Y-138531600D03*
%TO.P,U3,45*%
%TO.N,unconnected-(U3-Pad45)*%
X77364600Y-138531600D03*
%TO.P,U3,44*%
%TO.N,unconnected-(U3-Pad44)*%
X79904600Y-138531600D03*
%TO.P,U3,43*%
%TO.N,unconnected-(U3-Pad43)*%
X82444600Y-138531600D03*
%TO.P,U3,42*%
%TO.N,unconnected-(U3-Pad42)*%
X84984600Y-138531600D03*
D10*
%TO.P,U3,41*%
%TO.N,+3.3V*%
X87524600Y-138531600D03*
%TD*%
D12*
%TO.P,Vout sens,1,Pin_1*%
%TO.N,GND*%
X36855400Y-93065600D03*
D13*
%TO.P,Vout sens,2,Pin_2*%
%TO.N,Vout_sens*%
X39395400Y-93065600D03*
%TD*%
D14*
%TO.P,R13,1*%
%TO.N,Net-(D2-A)*%
X28194000Y-112946205D03*
%TO.P,R13,2*%
%TO.N,+12V*%
X28194000Y-111121205D03*
%TD*%
D15*
%TO.P,J5,1,Pin_1*%
%TO.N,Vsw*%
X40208200Y-116865400D03*
%TD*%
D16*
%TO.P,RV1,1*%
%TO.N,Vout*%
X36525200Y-137668000D03*
D17*
%TO.P,RV1,2*%
%TO.N,GND*%
X44379054Y-136764133D03*
%TD*%
D18*
%TO.P,R4,1*%
%TO.N,Net-(U1-HO)*%
X31866765Y-119689340D03*
%TO.P,R4,2*%
%TO.N,D'*%
X33157235Y-118398870D03*
%TD*%
D19*
%TO.P,D3,1,K*%
%TO.N,Net-(D3-K)*%
X28594000Y-97362505D03*
%TO.P,D3,2,A*%
%TO.N,Net-(D3-A)*%
X28594000Y-93862505D03*
%TD*%
D12*
%TO.P,Vout,1,Pin_1*%
%TO.N,GND*%
X24104600Y-137947400D03*
D13*
%TO.P,Vout,2,Pin_2*%
%TO.N,Vout*%
X24104600Y-135407400D03*
%TD*%
D20*
%TO.P,C10,1*%
%TO.N,+3.3V*%
X106070400Y-99420600D03*
%TO.P,C10,2*%
%TO.N,GND*%
X106070400Y-101320600D03*
%TD*%
D21*
%TO.P,D1,1,K*%
%TO.N,Vout*%
X47167800Y-120294400D03*
D22*
%TO.P,D1,2,A*%
%TO.N,GND*%
X47167800Y-138353800D03*
%TD*%
D23*
%TO.P,D2,1,K*%
%TO.N,Vboot*%
X28200000Y-117366105D03*
%TO.P,D2,2,A*%
%TO.N,Net-(D2-A)*%
X28200000Y-114566105D03*
%TD*%
D24*
%TO.P,Q1,1,G*%
%TO.N,D*%
X34960000Y-107616105D03*
D25*
%TO.P,Q1,2,D*%
%TO.N,Vsw*%
X37500000Y-107616105D03*
%TO.P,Q1,3,S*%
%TO.N,GND*%
X40040000Y-107616105D03*
%TD*%
D26*
%TO.P,C7,1*%
%TO.N,Vin*%
X106070400Y-104810600D03*
%TO.P,C7,2*%
%TO.N,GND*%
X106070400Y-102910600D03*
%TD*%
D27*
%TO.P,J1,1,Pin_1*%
%TO.N,Vin_Unfused*%
X106324400Y-120282000D03*
D28*
X106324400Y-137782000D03*
%TD*%
D24*
%TO.P,Q2,1,G*%
%TO.N,D'*%
X34960000Y-113616105D03*
D25*
%TO.P,Q2,2,D*%
%TO.N,Vout*%
X37500000Y-113616105D03*
%TO.P,Q2,3,S*%
%TO.N,Vsw*%
X40040000Y-113616105D03*
%TD*%
D29*
%TO.P,R10,1*%
%TO.N,Net-(D3-K)*%
X28594000Y-99272005D03*
%TO.P,R10,2*%
%TO.N,GND*%
X28594000Y-101097005D03*
%TD*%
D30*
%TO.P,C13,1*%
%TO.N,Vin*%
X74168000Y-101231354D03*
%TO.P,C13,2*%
%TO.N,GND*%
X72268000Y-101231354D03*
%TD*%
D31*
%TO.P,GND,1,1*%
%TO.N,GND*%
X111277400Y-94462600D03*
%TD*%
D19*
%TO.P,D4,1,K*%
%TO.N,Net-(D4-K)*%
X46374000Y-97690505D03*
%TO.P,D4,2,A*%
%TO.N,Net-(D4-A)*%
X46374000Y-94190505D03*
%TD*%
D15*
%TO.P,J6,1,Pin_1*%
%TO.N,/L_in*%
X91338400Y-93319600D03*
%TD*%
D12*
%TO.P,I_L,1,Pin_1*%
%TO.N,GND*%
X31165800Y-130048000D03*
D13*
%TO.P,I_L,2,Pin_2*%
%TO.N,I_L*%
X33705800Y-130048000D03*
%TD*%
D12*
%TO.P,Vin_sens,1,Pin_1*%
%TO.N,GND*%
X31165800Y-126974600D03*
D13*
%TO.P,Vin_sens,2,Pin_2*%
%TO.N,Vin_sens*%
X33705800Y-126974600D03*
%TD*%
D12*
%TO.P,Vsw,1,Pin_1*%
%TO.N,GND*%
X31165799Y-123850400D03*
D13*
%TO.P,Vsw,2,Pin_2*%
%TO.N,Vsw*%
X33705801Y-123850400D03*
%TD*%
D32*
%TO.P,R12,1*%
%TO.N,SD*%
X27201500Y-107741105D03*
%TO.P,R12,2*%
%TO.N,+3.3V*%
X25376500Y-107741105D03*
%TD*%
D29*
%TO.P,R11,1*%
%TO.N,Net-(D4-K)*%
X46374000Y-99600005D03*
%TO.P,R11,2*%
%TO.N,GND*%
X46374000Y-101425005D03*
%TD*%
D33*
%TO.P,LB1,*%
%TO.N,GND*%
X58293000Y-136601200D03*
X93853000Y-136601200D03*
%TO.N,I_L*%
X60833000Y-134061200D03*
%TO.N,+3.3V*%
X91313000Y-134061200D03*
%TO.N,GND*%
X58293000Y-131521200D03*
D34*
X63373000Y-131521200D03*
%TO.N,+3.3V*%
X88773000Y-131521200D03*
D33*
%TO.N,GND*%
X93853000Y-131521200D03*
%TO.N,Vin_sens*%
X60833000Y-128981200D03*
%TO.N,GND*%
X91313000Y-128981200D03*
X58293000Y-126441200D03*
D35*
X64135000Y-126441200D03*
X88011000Y-126441200D03*
D33*
X93853000Y-126441200D03*
X60833000Y-123901200D03*
X91313000Y-123901200D03*
X58293000Y-121361200D03*
D35*
X64135000Y-121361200D03*
X88011000Y-121361200D03*
D33*
X93853000Y-121361200D03*
X60833000Y-118821200D03*
X91313000Y-118821200D03*
X58293000Y-116281200D03*
D35*
X64135000Y-116281200D03*
X88011000Y-116281200D03*
D33*
X93853000Y-116281200D03*
%TO.N,Vout_sens*%
X60833000Y-113741200D03*
%TO.N,+3.3V*%
X91313000Y-113741200D03*
%TO.N,GND*%
X58293000Y-111201200D03*
D35*
X64135000Y-111201200D03*
X88011000Y-111201200D03*
D33*
X93853000Y-111201200D03*
X60833000Y-108661200D03*
%TO.N,Vin*%
X91313000Y-108661200D03*
%TO.N,GND*%
X58293000Y-106121200D03*
D35*
X64135000Y-106121200D03*
%TO.N,Vin*%
X88011000Y-106121200D03*
D33*
%TO.N,GND*%
X93853000Y-106121200D03*
%TO.N,+12V*%
X60833000Y-103581200D03*
%TO.N,Vin*%
X91313000Y-103581200D03*
%TO.N,GND*%
X58293000Y-101041200D03*
D34*
%TO.N,+12V*%
X63373000Y-101041200D03*
%TO.N,/L_in*%
X88773000Y-101041200D03*
D33*
%TO.N,GND*%
X93853000Y-101041200D03*
%TO.N,+3.3V*%
X60833000Y-98501200D03*
%TO.N,/L_in*%
X91313000Y-98501200D03*
%TO.N,GND*%
X58293000Y-95961200D03*
X93853000Y-95961200D03*
%TD*%
D31*
%TO.P,Vin,1,1*%
%TO.N,Vin*%
X104851200Y-94411800D03*
%TD*%
D26*
%TO.P,C3,1*%
%TO.N,Vboot*%
X32700000Y-116819105D03*
%TO.P,C3,2*%
%TO.N,Vsw*%
X32700000Y-114919105D03*
%TD*%
D36*
%TO.P,PS1,1,VIN*%
%TO.N,Vin*%
X107845400Y-104495600D03*
D37*
%TO.P,PS1,2,GND*%
%TO.N,GND*%
X107845400Y-101955600D03*
%TO.P,PS1,3,VOUT*%
%TO.N,+3.3V*%
X107845400Y-99415600D03*
%TD*%
D38*
%TO.P,C17,1*%
%TO.N,+12V*%
X68712000Y-101231354D03*
%TO.P,C17,2*%
%TO.N,GND*%
X70612000Y-101231354D03*
%TD*%
D12*
%TO.P,D,1,Pin_1*%
%TO.N,GND*%
X31394398Y-93065600D03*
D13*
%TO.P,D,2,Pin_2*%
%TO.N,D*%
X33934400Y-93065600D03*
%TD*%
D31*
%TO.P,Vboot,1,1*%
%TO.N,Vboot*%
X22352000Y-124124105D03*
%TD*%
%TO.P,D',1,1*%
%TO.N,D'*%
X22910800Y-131013200D03*
%TD*%
%TO.P,GND,1,1*%
%TO.N,GND*%
X25958800Y-127787400D03*
%TD*%
D28*
%TO.P,SW1,*%
%TO.N,*%
X32150000Y-97352505D03*
X42850000Y-97352505D03*
D39*
%TO.P,SW1,1,A*%
%TO.N,+3.3V*%
X35000000Y-98552505D03*
D40*
%TO.P,SW1,2,B*%
%TO.N,SD*%
X37500000Y-98552505D03*
%TO.P,SW1,3,C*%
%TO.N,GND*%
X40000000Y-98552505D03*
%TO.P,SW1,4,C*%
%TO.N,Net-(D4-A)*%
X40000000Y-96152505D03*
%TO.P,SW1,5,B*%
%TO.N,+3.3V*%
X37500000Y-96152505D03*
%TO.P,SW1,6,A*%
%TO.N,Net-(D3-A)*%
X35000000Y-96152505D03*
%TD*%
D41*
%TO.P,C6,1*%
%TO.N,Vin*%
X107442000Y-111476150D03*
%TO.P,C6,2*%
%TO.N,GND*%
X107442000Y-116476150D03*
%TD*%
D31*
%TO.P,GND,1,1*%
%TO.N,GND*%
X92354400Y-138506200D03*
%TD*%
%TO.P,GND,1,1*%
%TO.N,N/C*%
X51816000Y-94310200D03*
%TD*%
D42*
%TO.P,U1,1,LO*%
%TO.N,Net-(U1-LO)*%
X30405000Y-105746105D03*
D43*
%TO.P,U1,2,COM*%
%TO.N,GND*%
X30405000Y-108286105D03*
%TO.P,U1,3,VCC*%
%TO.N,+12V*%
X30405000Y-110826105D03*
%TO.P,U1,4,NC*%
%TO.N,unconnected-(U1-NC-Pad4)*%
X30405000Y-113366105D03*
%TO.P,U1,5,VS*%
%TO.N,Vsw*%
X30405000Y-115906105D03*
%TO.P,U1,6,VB*%
%TO.N,Vboot*%
X30405000Y-118446105D03*
%TO.P,U1,7,HO*%
%TO.N,Net-(U1-HO)*%
X30405000Y-120986105D03*
%TO.P,U1,8,NC*%
%TO.N,unconnected-(U1-NC-Pad8)*%
X22785000Y-120986105D03*
%TO.P,U1,9,VDD*%
%TO.N,+3.3V*%
X22785000Y-118446105D03*
%TO.P,U1,10,HIN*%
%TO.N,C2000 D'*%
X22785000Y-115906105D03*
%TO.P,U1,11,SD*%
%TO.N,SD*%
X22785000Y-113366105D03*
%TO.P,U1,12,LIN*%
%TO.N,C2000 D *%
X22785000Y-110826105D03*
%TO.P,U1,13,VSS*%
%TO.N,GND*%
X22785000Y-108286105D03*
%TO.P,U1,14,NC*%
%TO.N,unconnected-(U1-NC-Pad14)*%
X22785000Y-105746105D03*
%TD*%
D31*
%TO.P,3V3,1,1*%
%TO.N,+3.3V*%
X43332400Y-93014800D03*
%TD*%
D28*
%TO.P,F1,1*%
%TO.N,Vin_Unfused*%
X101600000Y-117675200D03*
%TO.P,F1,2*%
%TO.N,Vin*%
X101600000Y-95075200D03*
%TD*%
D12*
%TO.P,C2D,1,Pin_1*%
%TO.N,GND*%
X22987000Y-99867105D03*
D13*
%TO.P,C2D,2,Pin_2*%
%TO.N,C2000 D *%
X22987000Y-102407105D03*
%TD*%
D31*
%TO.P,Vsw,1,1*%
%TO.N,Vsw*%
X41706800Y-115087400D03*
%TD*%
D27*
%TO.P,J3,1,Pin_1*%
%TO.N,Vout*%
X52400200Y-120269600D03*
D28*
X52400200Y-137769600D03*
%TD*%
D44*
%TO.P,J4,1,Pin_1*%
%TO.N,GND*%
X35676510Y-122194007D03*
D28*
X28280690Y-138054393D03*
%TD*%
D12*
%TO.P,C2D',1,Pin_1*%
%TO.N,GND*%
X23114000Y-93771105D03*
D13*
%TO.P,C2D',2,Pin_2*%
%TO.N,C2000 D'*%
X23114000Y-96311105D03*
%TD*%
D31*
%TO.P,GND,1,1*%
%TO.N,GND*%
X46939200Y-112598200D03*
%TD*%
%TO.P,12V,1,1*%
%TO.N,+12V*%
X62077600Y-92811600D03*
%TD*%
D41*
%TO.P,C16,1*%
%TO.N,Vout*%
X42875200Y-127046350D03*
%TO.P,C16,2*%
%TO.N,GND*%
X42875200Y-132046350D03*
%TD*%
D36*
%TO.P,PS2,1,VIN*%
%TO.N,Vin*%
X73846900Y-103095986D03*
D37*
%TO.P,PS2,2,GND*%
%TO.N,GND*%
X71306900Y-103095986D03*
%TO.P,PS2,3,VOUT*%
%TO.N,+12V*%
X68766900Y-103095986D03*
%TD*%
D31*
%TO.P,Vin_Unfused,1,1*%
%TO.N,Vin_Unfused*%
X99872800Y-137795000D03*
%TD*%
D27*
%TO.P,J2,1,Pin_1*%
%TO.N,GND*%
X111556800Y-120282000D03*
D28*
X111556800Y-137782000D03*
%TD*%
D45*
%TO.N,+3.3V*%
X24980000Y-107766505D03*
X80848200Y-107467400D03*
D46*
%TO.N,GND*%
X68605600Y-129489200D03*
X72390000Y-129362200D03*
D45*
X78181200Y-109931200D03*
X78079600Y-108585000D03*
%TO.N,C2000 D *%
X32486600Y-103251000D03*
%TO.N,C2000 D'*%
X33680400Y-102401000D03*
%TO.N,Vin_sens*%
X73342614Y-132810450D03*
X75361800Y-113004600D03*
%TO.N,Vout_sens*%
X67919600Y-117678200D03*
X66649600Y-132740400D03*
%TO.N,I_L*%
X70916800Y-115646200D03*
X70205600Y-132943600D03*
%TD*%
D47*
%TO.N,+3.3V*%
X29998095Y-102310505D02*
X29413168Y-102310505D01*
X35000000Y-98552505D02*
X33756095Y-98552505D01*
X29413168Y-102310505D02*
X25376500Y-106347173D01*
X107840400Y-99420600D02*
X107845400Y-99415600D01*
X25376500Y-106347173D02*
X25376500Y-107741105D01*
X33756095Y-98552505D02*
X29998095Y-102310505D01*
X37500000Y-96152505D02*
X37400000Y-96152505D01*
X37400000Y-96152505D02*
X35000000Y-98552505D01*
X106070400Y-99420600D02*
X107840400Y-99420600D01*
%TO.N,GND*%
X42872500Y-101425005D02*
X46374000Y-101425005D01*
X24216900Y-101097005D02*
X28594000Y-101097005D01*
X40000000Y-98552505D02*
X42872500Y-101425005D01*
X22987000Y-99867105D02*
X24216900Y-101097005D01*
%TO.N,Net-(D2-A)*%
X28200000Y-114566105D02*
X28200000Y-112952205D01*
X28200000Y-112952205D02*
X28194000Y-112946205D01*
%TO.N,Net-(U1-HO)*%
X30405000Y-120986105D02*
X30570000Y-120986105D01*
X30570000Y-120986105D02*
X31866765Y-119689340D01*
%TO.N,+12V*%
X30109900Y-111121205D02*
X30405000Y-110826105D01*
X28194000Y-111121205D02*
X30109900Y-111121205D01*
X68766900Y-101286254D02*
X68712000Y-101231354D01*
X68766900Y-103095986D02*
X68766900Y-101286254D01*
D48*
%TO.N,Vout*%
X24180800Y-135382000D02*
X34213800Y-135382000D01*
X36499800Y-137668000D02*
X36525200Y-137668000D01*
X34213800Y-135382000D02*
X36499800Y-137668000D01*
X24104600Y-135407400D02*
X24104600Y-135305800D01*
X24104600Y-135305800D02*
X24180800Y-135382000D01*
D47*
%TO.N,Net-(D3-A)*%
X28594000Y-93862505D02*
X29092505Y-93862505D01*
X29092505Y-93862505D02*
X30581600Y-95351600D01*
X34199095Y-95351600D02*
X35000000Y-96152505D01*
X30581600Y-95351600D02*
X34199095Y-95351600D01*
%TO.N,Net-(D3-K)*%
X28594000Y-97362505D02*
X28594000Y-99272005D01*
%TO.N,Net-(D4-A)*%
X46374000Y-94190505D02*
X45687295Y-94190505D01*
X44653200Y-95224600D02*
X40927905Y-95224600D01*
X45687295Y-94190505D02*
X44653200Y-95224600D01*
X40927905Y-95224600D02*
X40000000Y-96152505D01*
%TO.N,Net-(D4-K)*%
X46374000Y-97690505D02*
X46374000Y-99600005D01*
D48*
%TO.N,Vsw*%
X37500000Y-110523096D02*
X40040000Y-113063096D01*
D49*
X40208200Y-116865400D02*
X36906200Y-120167400D01*
X33705801Y-121411999D02*
X33705801Y-123850400D01*
D47*
X30691700Y-115403405D02*
X33274000Y-112821105D01*
X33672000Y-111915105D02*
X38892010Y-111915105D01*
D48*
X40040000Y-116697200D02*
X40208200Y-116865400D01*
D47*
X37786700Y-108308405D02*
X37786700Y-107321905D01*
X40040000Y-113063095D02*
X40040000Y-113616105D01*
X38892010Y-111915105D02*
X40040000Y-113063095D01*
D49*
X36906200Y-120167400D02*
X34950400Y-120167400D01*
D47*
X33274000Y-112313105D02*
X33672000Y-111915105D01*
X33274000Y-112821105D02*
X33274000Y-112313105D01*
D48*
X40040000Y-113616105D02*
X40040000Y-116697200D01*
X40040000Y-113063096D02*
X40040000Y-113616105D01*
D49*
X34950400Y-120167400D02*
X33705801Y-121411999D01*
D47*
X30691700Y-115611905D02*
X30691700Y-115403405D01*
D48*
X37500000Y-107616105D02*
X37500000Y-110523096D01*
D50*
%TO.N,C2000 D *%
X62890400Y-97790000D02*
X85086200Y-97790000D01*
X32486600Y-103251000D02*
X32588200Y-103352600D01*
X58902600Y-93802200D02*
X62890400Y-97790000D01*
X85086200Y-97790000D02*
X87524600Y-95351600D01*
X32588200Y-103352600D02*
X47523400Y-103352600D01*
X57073800Y-93802200D02*
X58902600Y-93802200D01*
X47523400Y-103352600D02*
X57073800Y-93802200D01*
%TO.N,D'*%
X31051895Y-122237105D02*
X29457071Y-122237105D01*
D47*
X34493200Y-114082905D02*
X34960000Y-113616105D01*
D50*
X33157235Y-120131765D02*
X31051895Y-122237105D01*
D47*
X34493200Y-117189905D02*
X34493200Y-114082905D01*
D50*
X29457071Y-122237105D02*
X22910800Y-128783376D01*
X33157235Y-118398870D02*
X33157235Y-120131765D01*
D47*
X33157235Y-118398870D02*
X33284235Y-118398870D01*
X33284235Y-118398870D02*
X34493200Y-117189905D01*
D50*
X22910800Y-128783376D02*
X22910800Y-131013200D01*
%TO.N,C2000 D'*%
X63322200Y-96875600D02*
X83460600Y-96875600D01*
X47108797Y-102401000D02*
X56596597Y-92913200D01*
X59359800Y-92913200D02*
X63322200Y-96875600D01*
X56596597Y-92913200D02*
X59359800Y-92913200D01*
X83460600Y-96875600D02*
X84984600Y-95351600D01*
X33680400Y-102401000D02*
X47108797Y-102401000D01*
D47*
%TO.N,Vboot*%
X30405000Y-118446105D02*
X29458095Y-118446105D01*
X23780095Y-124124105D02*
X22733000Y-124124105D01*
X30405000Y-118446105D02*
X29280000Y-118446105D01*
X29458095Y-118446105D02*
X23780095Y-124124105D01*
X29280000Y-118446105D02*
X28200000Y-117366105D01*
X30405000Y-118446105D02*
X32032000Y-116819105D01*
X32032000Y-116819105D02*
X32700000Y-116819105D01*
D50*
%TO.N,Vin_sens*%
X72231164Y-131699000D02*
X67894200Y-131699000D01*
X35179000Y-128447800D02*
X33705800Y-126974600D01*
X60299600Y-128447800D02*
X35179000Y-128447800D01*
X60833000Y-128981200D02*
X60299600Y-128447800D01*
X73342614Y-132810450D02*
X72231164Y-131699000D01*
X65176400Y-128981200D02*
X60833000Y-128981200D01*
X67894200Y-131699000D02*
X65176400Y-128981200D01*
%TO.N,I_L*%
X69088000Y-134061200D02*
X60833000Y-134061200D01*
X60833000Y-134061200D02*
X37719000Y-134061200D01*
X70205600Y-132943600D02*
X69088000Y-134061200D01*
X37719000Y-134061200D02*
X33705800Y-130048000D01*
D47*
%TO.N,SD*%
X34000327Y-99903505D02*
X30465327Y-103438505D01*
X36149000Y-99903505D02*
X37500000Y-98552505D01*
X27201500Y-108949605D02*
X27201500Y-107741105D01*
X22785000Y-113366105D02*
X27201500Y-108949605D01*
X27201500Y-106117405D02*
X27201500Y-107741105D01*
X34000327Y-99903505D02*
X36149000Y-99903505D01*
X29880400Y-103438505D02*
X27201500Y-106117405D01*
X30465327Y-103438505D02*
X29880400Y-103438505D01*
%TO.N,Vin*%
X74168000Y-101231354D02*
X74168000Y-102774886D01*
X74168000Y-102774886D02*
X73846900Y-103095986D01*
%TD*%
%TA.AperFunction,Conductor*%
%TO.N,GND*%
G36*
X88964706Y-91364425D02*
G01*
X89712881Y-91398050D01*
X89778967Y-91420725D01*
X89822305Y-91475530D01*
X89829134Y-91545065D01*
X89797285Y-91607253D01*
X89794993Y-91609606D01*
X89605085Y-91799514D01*
X89605079Y-91799521D01*
X89421499Y-92038768D01*
X89270718Y-92299928D01*
X89270714Y-92299938D01*
X89155313Y-92578539D01*
X89077261Y-92869833D01*
X89037901Y-93168806D01*
X89037900Y-93168823D01*
X89037900Y-93470376D01*
X89037901Y-93470393D01*
X89077261Y-93769366D01*
X89155313Y-94060660D01*
X89270714Y-94339261D01*
X89270718Y-94339271D01*
X89421499Y-94600431D01*
X89605079Y-94839678D01*
X89605085Y-94839685D01*
X89818314Y-95052914D01*
X89818321Y-95052920D01*
X90057568Y-95236500D01*
X90318728Y-95387281D01*
X90318729Y-95387281D01*
X90318732Y-95387283D01*
X90489185Y-95457887D01*
X90597339Y-95502686D01*
X90597340Y-95502686D01*
X90597342Y-95502687D01*
X90888632Y-95580738D01*
X91187617Y-95620100D01*
X91187624Y-95620100D01*
X91489176Y-95620100D01*
X91489183Y-95620100D01*
X91788168Y-95580738D01*
X92079458Y-95502687D01*
X92358068Y-95387283D01*
X92619232Y-95236500D01*
X92858480Y-95052919D01*
X93037390Y-94874009D01*
X93098713Y-94840524D01*
X93168404Y-94845508D01*
X93224338Y-94887379D01*
X93231939Y-94898799D01*
X94477457Y-97015241D01*
X94494493Y-97083002D01*
X94472191Y-97149216D01*
X94417631Y-97192862D01*
X94368523Y-97202115D01*
X93075951Y-97180572D01*
X93055413Y-97178511D01*
X92629815Y-97099608D01*
X92572092Y-97071608D01*
X92571997Y-97071733D01*
X92571389Y-97071266D01*
X92570658Y-97070912D01*
X92568776Y-97069261D01*
X92371126Y-96917600D01*
X92155376Y-96793037D01*
X92155361Y-96793030D01*
X91925207Y-96697698D01*
X91684561Y-96633217D01*
X91437575Y-96600701D01*
X91437570Y-96600700D01*
X91437565Y-96600700D01*
X91188435Y-96600700D01*
X91188429Y-96600700D01*
X91188424Y-96600701D01*
X90941438Y-96633217D01*
X90895986Y-96645396D01*
X90700793Y-96697698D01*
X90700791Y-96697698D01*
X90700790Y-96697699D01*
X90660873Y-96714232D01*
X90591403Y-96721698D01*
X90590820Y-96721591D01*
X88971829Y-96421442D01*
X88909501Y-96389867D01*
X88874139Y-96329608D01*
X88871144Y-96286265D01*
X88875100Y-96249473D01*
X88875099Y-94453728D01*
X88868691Y-94394117D01*
X88818396Y-94259269D01*
X88818395Y-94259268D01*
X88818393Y-94259264D01*
X88732147Y-94144055D01*
X88732144Y-94144052D01*
X88616935Y-94057806D01*
X88616928Y-94057802D01*
X88482082Y-94007508D01*
X88482083Y-94007508D01*
X88422483Y-94001101D01*
X88422481Y-94001100D01*
X88422473Y-94001100D01*
X88422465Y-94001100D01*
X86853781Y-94001100D01*
X86787209Y-93981714D01*
X86216004Y-93618221D01*
X86208892Y-93610088D01*
X86199174Y-93605368D01*
X86186296Y-93584245D01*
X86170013Y-93565622D01*
X86167469Y-93553362D01*
X86162804Y-93545710D01*
X86158611Y-93510671D01*
X86158651Y-93509016D01*
X86172129Y-93455673D01*
X86236157Y-93330012D01*
X86301846Y-93127843D01*
X86335100Y-92917887D01*
X86335100Y-92705313D01*
X86301846Y-92495357D01*
X86236157Y-92293188D01*
X86204357Y-92230778D01*
X86190880Y-92171502D01*
X86205646Y-91558698D01*
X86226939Y-91492156D01*
X86280830Y-91447686D01*
X86326116Y-91437738D01*
X88928614Y-91364425D01*
X88931312Y-91364349D01*
X88934804Y-91364300D01*
X88959139Y-91364300D01*
X88964706Y-91364425D01*
G37*
%TD.AperFunction*%
%TD*%
%TA.AperFunction,Conductor*%
%TO.N,Vsw*%
G36*
X36643817Y-110569801D02*
G01*
X36655938Y-110575074D01*
X37777454Y-111135832D01*
X37828613Y-111183419D01*
X37846000Y-111246741D01*
X37846000Y-112101928D01*
X37826315Y-112168967D01*
X37773511Y-112214722D01*
X37722000Y-112225928D01*
X34647849Y-112225928D01*
X34580810Y-112206243D01*
X34535055Y-112153439D01*
X34525111Y-112084281D01*
X34554136Y-112020725D01*
X34596537Y-111989043D01*
X35560000Y-111551105D01*
X36512803Y-110598302D01*
X36574126Y-110564817D01*
X36643817Y-110569801D01*
G37*
%TD.AperFunction*%
%TD*%
%TA.AperFunction,Conductor*%
%TO.N,GND*%
G36*
X72587039Y-100489039D02*
G01*
X72632794Y-100541843D01*
X72644000Y-100593354D01*
X72644000Y-101951913D01*
X72624315Y-102018952D01*
X72619267Y-102026223D01*
X72600606Y-102051150D01*
X72600602Y-102051157D01*
X72550308Y-102186003D01*
X72543901Y-102245602D01*
X72543900Y-102245621D01*
X72543901Y-103901354D01*
X72524216Y-103968393D01*
X72471413Y-104014148D01*
X72419901Y-104025354D01*
X70228000Y-104025354D01*
X70160961Y-104005669D01*
X70115206Y-103952865D01*
X70104000Y-103901354D01*
X70104000Y-100593354D01*
X70123685Y-100526315D01*
X70176489Y-100480560D01*
X70228000Y-100469354D01*
X72520000Y-100469354D01*
X72587039Y-100489039D01*
G37*
%TD.AperFunction*%
%TD*%
%TA.AperFunction,Conductor*%
%TO.N,GND*%
G36*
X107525666Y-100686857D02*
G01*
X107530369Y-100686856D01*
X107533558Y-100687313D01*
X107579766Y-100696409D01*
X107632558Y-100703934D01*
X107644834Y-100703270D01*
X107656930Y-100705005D01*
X107658727Y-100705276D01*
X107742848Y-100718600D01*
X107742852Y-100718600D01*
X107947953Y-100718600D01*
X108146663Y-100687127D01*
X108166061Y-100685600D01*
X108616400Y-100685600D01*
X108683439Y-100705285D01*
X108729194Y-100758089D01*
X108740400Y-100809600D01*
X108740400Y-103068600D01*
X108720715Y-103135639D01*
X108667911Y-103181394D01*
X108616400Y-103192600D01*
X106995029Y-103192600D01*
X106995023Y-103192601D01*
X106935416Y-103199008D01*
X106800571Y-103249302D01*
X106800564Y-103249306D01*
X106685356Y-103335552D01*
X106685355Y-103335553D01*
X106685354Y-103335554D01*
X106614717Y-103429912D01*
X106558785Y-103471782D01*
X106515452Y-103479600D01*
X105435400Y-103479600D01*
X105368361Y-103459915D01*
X105322606Y-103407111D01*
X105311400Y-103355600D01*
X105311400Y-100809600D01*
X105331085Y-100742561D01*
X105383889Y-100696806D01*
X105435400Y-100685600D01*
X107512767Y-100685600D01*
X107525666Y-100686857D01*
G37*
%TD.AperFunction*%
%TD*%
%TA.AperFunction,Conductor*%
%TO.N,Vsw*%
G36*
X33437820Y-112820994D02*
G01*
X33489250Y-112868288D01*
X33507000Y-112932218D01*
X33507000Y-113469477D01*
X33505613Y-113487970D01*
X33501922Y-113512442D01*
X33501921Y-113512451D01*
X33498950Y-113941568D01*
X33496571Y-113964895D01*
X33492700Y-113984357D01*
X33492700Y-114844200D01*
X33492697Y-114845058D01*
X33487794Y-115553417D01*
X33490679Y-115610951D01*
X33491307Y-115615103D01*
X33492700Y-115633635D01*
X33492700Y-115712028D01*
X33473015Y-115779067D01*
X33420211Y-115824822D01*
X33351053Y-115834766D01*
X33329708Y-115829738D01*
X33327800Y-115829106D01*
X33327803Y-115829106D01*
X33225016Y-115818605D01*
X33225009Y-115818605D01*
X32798543Y-115818605D01*
X32798541Y-115818605D01*
X32130540Y-115818605D01*
X31933459Y-115818605D01*
X31933456Y-115818605D01*
X31740171Y-115857051D01*
X31740167Y-115857053D01*
X31740165Y-115857053D01*
X31740164Y-115857054D01*
X31664745Y-115888293D01*
X31664743Y-115888294D01*
X31558089Y-115932471D01*
X31558079Y-115932476D01*
X31394218Y-116041965D01*
X31394214Y-116041968D01*
X30879701Y-116556481D01*
X30860878Y-116571924D01*
X30672858Y-116697468D01*
X30606174Y-116718325D01*
X30538799Y-116699819D01*
X30492126Y-116647825D01*
X30480000Y-116594344D01*
X30480000Y-115285467D01*
X30499685Y-115218428D01*
X30516319Y-115197786D01*
X30980603Y-114733501D01*
X30989863Y-114725131D01*
X33304602Y-112836147D01*
X33368985Y-112809013D01*
X33437820Y-112820994D01*
G37*
%TD.AperFunction*%
%TD*%
%TA.AperFunction,Conductor*%
%TO.N,Vin*%
G36*
X108613400Y-105384600D02*
G01*
X105311400Y-105384600D01*
X105311400Y-103967271D01*
X105435400Y-103985100D01*
X105435403Y-103985100D01*
X106515456Y-103985100D01*
X106605194Y-103977069D01*
X106605195Y-103977068D01*
X106605204Y-103977068D01*
X106629660Y-103972655D01*
X106648529Y-103969252D01*
X106648534Y-103969250D01*
X106648537Y-103969250D01*
X106735438Y-103945410D01*
X106861719Y-103876456D01*
X106917651Y-103834586D01*
X106964327Y-103787909D01*
X106975769Y-103777798D01*
X106981123Y-103773624D01*
X107014056Y-103753312D01*
X107038357Y-103729010D01*
X107044398Y-103724302D01*
X107070057Y-103714156D01*
X107094273Y-103700934D01*
X107106946Y-103699571D01*
X107109373Y-103698612D01*
X107111665Y-103699063D01*
X107120631Y-103698100D01*
X108613400Y-103698100D01*
X108613400Y-105384600D01*
G37*
%TD.AperFunction*%
%TD*%
%TA.AperFunction,Conductor*%
%TO.N,Vin*%
G36*
X110758742Y-91446928D02*
G01*
X111010290Y-91509936D01*
X111018449Y-91512280D01*
X111048363Y-91522000D01*
X111064949Y-91527389D01*
X111068405Y-91528568D01*
X111341762Y-91626375D01*
X111350422Y-91629847D01*
X111376533Y-91641472D01*
X111379115Y-91642657D01*
X111658727Y-91774902D01*
X111669459Y-91780638D01*
X111953582Y-91950933D01*
X111963700Y-91957694D01*
X112061208Y-92030010D01*
X112229758Y-92155014D01*
X112239161Y-92162731D01*
X112484592Y-92385175D01*
X112493197Y-92393779D01*
X112715652Y-92639219D01*
X112723372Y-92648626D01*
X112920696Y-92914685D01*
X112927456Y-92924803D01*
X113097745Y-93208910D01*
X113103481Y-93219642D01*
X113195894Y-93415031D01*
X113207800Y-93468048D01*
X113207800Y-112296400D01*
X113188115Y-112363439D01*
X113135311Y-112409194D01*
X113083800Y-112420400D01*
X107372972Y-112420400D01*
X107358675Y-112419573D01*
X95540904Y-111047866D01*
X95476581Y-111020583D01*
X95437220Y-110962856D01*
X95432728Y-110944091D01*
X95414090Y-110826415D01*
X95336241Y-110586821D01*
X95336239Y-110586818D01*
X95336239Y-110586816D01*
X95294747Y-110505384D01*
X95221870Y-110362355D01*
X95202952Y-110336317D01*
X95073798Y-110158550D01*
X95073794Y-110158545D01*
X94895654Y-109980405D01*
X94895649Y-109980401D01*
X94691848Y-109832332D01*
X94691847Y-109832331D01*
X94691845Y-109832330D01*
X94621747Y-109796613D01*
X94467383Y-109717960D01*
X94227785Y-109640110D01*
X93978962Y-109600700D01*
X93727038Y-109600700D01*
X93602626Y-109620405D01*
X93478214Y-109640110D01*
X93238616Y-109717960D01*
X93014151Y-109832332D01*
X92810350Y-109980401D01*
X92810345Y-109980405D01*
X92632205Y-110158545D01*
X92632201Y-110158550D01*
X92484132Y-110362351D01*
X92369757Y-110586824D01*
X92368850Y-110589014D01*
X92368283Y-110589717D01*
X92367547Y-110591162D01*
X92367243Y-110591007D01*
X92325005Y-110643414D01*
X92258709Y-110665474D01*
X92239995Y-110664726D01*
X90313669Y-110441134D01*
X90281442Y-110432902D01*
X90067985Y-110346502D01*
X90014192Y-110304447D01*
X89955521Y-110223696D01*
X89955517Y-110223690D01*
X89788510Y-110056683D01*
X89597433Y-109917857D01*
X89386996Y-109810633D01*
X89162368Y-109737646D01*
X88929097Y-109700700D01*
X88929092Y-109700700D01*
X88496614Y-109700700D01*
X88450090Y-109691641D01*
X81794212Y-106997595D01*
X81741977Y-106957638D01*
X81064499Y-106065350D01*
X81011266Y-105995238D01*
X92252500Y-105995238D01*
X92252500Y-106247161D01*
X92291910Y-106495985D01*
X92369760Y-106735583D01*
X92484132Y-106960048D01*
X92632201Y-107163849D01*
X92632205Y-107163854D01*
X92810345Y-107341994D01*
X92810350Y-107341998D01*
X92874139Y-107388343D01*
X93014155Y-107490070D01*
X93124821Y-107546457D01*
X93238616Y-107604439D01*
X93238618Y-107604439D01*
X93238621Y-107604441D01*
X93478215Y-107682290D01*
X93727038Y-107721700D01*
X93727039Y-107721700D01*
X93978961Y-107721700D01*
X93978962Y-107721700D01*
X94227785Y-107682290D01*
X94467379Y-107604441D01*
X94691845Y-107490070D01*
X94895656Y-107341993D01*
X95073793Y-107163856D01*
X95221870Y-106960045D01*
X95336241Y-106735579D01*
X95414090Y-106495985D01*
X95453500Y-106247162D01*
X95453500Y-105995238D01*
X95414090Y-105746415D01*
X95336241Y-105506821D01*
X95336239Y-105506818D01*
X95336239Y-105506816D01*
X95294747Y-105425384D01*
X95221870Y-105282355D01*
X95202952Y-105256317D01*
X95073798Y-105078550D01*
X95073794Y-105078545D01*
X94895654Y-104900405D01*
X94895649Y-104900401D01*
X94691848Y-104752332D01*
X94691847Y-104752331D01*
X94691845Y-104752330D01*
X94621747Y-104716613D01*
X94467383Y-104637960D01*
X94227785Y-104560110D01*
X93978962Y-104520700D01*
X93727038Y-104520700D01*
X93602626Y-104540405D01*
X93478214Y-104560110D01*
X93238616Y-104637960D01*
X93014151Y-104752332D01*
X92810350Y-104900401D01*
X92810345Y-104900405D01*
X92632205Y-105078545D01*
X92632201Y-105078550D01*
X92484132Y-105282351D01*
X92369760Y-105506816D01*
X92291910Y-105746414D01*
X92252500Y-105995238D01*
X81011266Y-105995238D01*
X79705293Y-104275176D01*
X79680431Y-104209879D01*
X79680054Y-104199444D01*
X79680063Y-104197993D01*
X79699831Y-100923102D01*
X87272500Y-100923102D01*
X87272500Y-101159297D01*
X87309446Y-101392568D01*
X87382433Y-101617196D01*
X87489657Y-101827633D01*
X87628483Y-102018710D01*
X87795490Y-102185717D01*
X87986567Y-102324543D01*
X88085991Y-102375202D01*
X88197003Y-102431766D01*
X88197005Y-102431766D01*
X88197008Y-102431768D01*
X88317412Y-102470889D01*
X88421631Y-102504753D01*
X88654903Y-102541700D01*
X88654908Y-102541700D01*
X88891097Y-102541700D01*
X89124368Y-102504753D01*
X89348992Y-102431768D01*
X89559433Y-102324543D01*
X89750510Y-102185717D01*
X89917517Y-102018710D01*
X90056343Y-101827633D01*
X90163568Y-101617192D01*
X90236553Y-101392568D01*
X90272254Y-101167161D01*
X90273500Y-101159297D01*
X90273500Y-100923102D01*
X90272254Y-100915238D01*
X92252500Y-100915238D01*
X92252500Y-101167161D01*
X92291910Y-101415985D01*
X92369760Y-101655583D01*
X92484132Y-101880048D01*
X92632201Y-102083849D01*
X92632205Y-102083854D01*
X92810345Y-102261994D01*
X92810350Y-102261998D01*
X92988117Y-102391152D01*
X93014155Y-102410070D01*
X93157184Y-102482947D01*
X93238616Y-102524439D01*
X93238618Y-102524439D01*
X93238621Y-102524441D01*
X93478215Y-102602290D01*
X93727038Y-102641700D01*
X93727039Y-102641700D01*
X93978961Y-102641700D01*
X93978962Y-102641700D01*
X94227785Y-102602290D01*
X94467379Y-102524441D01*
X94691845Y-102410070D01*
X94895656Y-102261993D01*
X95073793Y-102083856D01*
X95221870Y-101880045D01*
X95336241Y-101655579D01*
X95414090Y-101415985D01*
X95453500Y-101167162D01*
X95453500Y-100915238D01*
X95436768Y-100809600D01*
X104805900Y-100809600D01*
X104805900Y-103355600D01*
X104805901Y-103355609D01*
X104817452Y-103463050D01*
X104817454Y-103463062D01*
X104828660Y-103514572D01*
X104862783Y-103617097D01*
X104862786Y-103617103D01*
X104940571Y-103738137D01*
X104940579Y-103738148D01*
X104986323Y-103790940D01*
X104986326Y-103790943D01*
X104986330Y-103790947D01*
X105095064Y-103885167D01*
X105225941Y-103944938D01*
X105292980Y-103964623D01*
X105292984Y-103964624D01*
X105311400Y-103967271D01*
X105311400Y-105384600D01*
X108613400Y-105384600D01*
X108613400Y-103698100D01*
X108616390Y-103698100D01*
X108616400Y-103698100D01*
X108723856Y-103686547D01*
X108775367Y-103675341D01*
X108809597Y-103663947D01*
X108877897Y-103641216D01*
X108877901Y-103641213D01*
X108877904Y-103641213D01*
X108998943Y-103563425D01*
X109051747Y-103517670D01*
X109145967Y-103408936D01*
X109205738Y-103278059D01*
X109225423Y-103211020D01*
X109225424Y-103211016D01*
X109245900Y-103068600D01*
X109245900Y-100809600D01*
X109234347Y-100702144D01*
X109223141Y-100650633D01*
X109223037Y-100650322D01*
X109189016Y-100548102D01*
X109189013Y-100548096D01*
X109111228Y-100427062D01*
X109111225Y-100427057D01*
X109111016Y-100426816D01*
X109065476Y-100374259D01*
X109065472Y-100374256D01*
X109065470Y-100374253D01*
X108956736Y-100280033D01*
X108956733Y-100280031D01*
X108956731Y-100280030D01*
X108825865Y-100220264D01*
X108825860Y-100220262D01*
X108825859Y-100220262D01*
X108766592Y-100202859D01*
X108758814Y-100200575D01*
X108758811Y-100200574D01*
X108742276Y-100198197D01*
X108678721Y-100169171D01*
X108640948Y-100110392D01*
X108640950Y-100040522D01*
X108656820Y-100006576D01*
X108734247Y-99890699D01*
X108809855Y-99708164D01*
X108839733Y-99557959D01*
X108848400Y-99514389D01*
X108848400Y-99316810D01*
X108809856Y-99123041D01*
X108809855Y-99123040D01*
X108809855Y-99123036D01*
X108741379Y-98957719D01*
X108734250Y-98940507D01*
X108734243Y-98940494D01*
X108624481Y-98776225D01*
X108624478Y-98776221D01*
X108484778Y-98636521D01*
X108484774Y-98636518D01*
X108320505Y-98526756D01*
X108320492Y-98526749D01*
X108137968Y-98451146D01*
X108137958Y-98451143D01*
X107944189Y-98412600D01*
X107944187Y-98412600D01*
X107746613Y-98412600D01*
X107673935Y-98427056D01*
X107650338Y-98429437D01*
X107636298Y-98429503D01*
X106222814Y-98717602D01*
X106198049Y-98720100D01*
X105541130Y-98720100D01*
X105510700Y-98722953D01*
X105510698Y-98722953D01*
X105382519Y-98767806D01*
X105382517Y-98767807D01*
X105273250Y-98848450D01*
X105192607Y-98957717D01*
X105192606Y-98957719D01*
X105147753Y-99085898D01*
X105147753Y-99085900D01*
X105144900Y-99116330D01*
X105144900Y-99724869D01*
X105147753Y-99755299D01*
X105147753Y-99755301D01*
X105187914Y-99870070D01*
X105192607Y-99883482D01*
X105273250Y-99992750D01*
X105278123Y-99996346D01*
X105320373Y-100051994D01*
X105325832Y-100121650D01*
X105292764Y-100183199D01*
X105243649Y-100213770D01*
X105173900Y-100236984D01*
X105173896Y-100236986D01*
X105052862Y-100314771D01*
X105052851Y-100314779D01*
X105000059Y-100360523D01*
X104905833Y-100469264D01*
X104905830Y-100469268D01*
X104846064Y-100600134D01*
X104826376Y-100667182D01*
X104821349Y-100702149D01*
X104805900Y-100809600D01*
X95436768Y-100809600D01*
X95414090Y-100666415D01*
X95336241Y-100426821D01*
X95336239Y-100426818D01*
X95336239Y-100426816D01*
X95279149Y-100314771D01*
X95221870Y-100202355D01*
X95162835Y-100121100D01*
X95073798Y-99998550D01*
X95073794Y-99998545D01*
X94895654Y-99820405D01*
X94895649Y-99820401D01*
X94691848Y-99672332D01*
X94691847Y-99672331D01*
X94691845Y-99672330D01*
X94621747Y-99636613D01*
X94467383Y-99557960D01*
X94227785Y-99480110D01*
X93978962Y-99440700D01*
X93727038Y-99440700D01*
X93602626Y-99460405D01*
X93478214Y-99480110D01*
X93238616Y-99557960D01*
X93014151Y-99672332D01*
X92810350Y-99820401D01*
X92810345Y-99820405D01*
X92632205Y-99998545D01*
X92632201Y-99998550D01*
X92484132Y-100202351D01*
X92369760Y-100426816D01*
X92291910Y-100666414D01*
X92252500Y-100915238D01*
X90272254Y-100915238D01*
X90236553Y-100689831D01*
X90163566Y-100465203D01*
X90107002Y-100354191D01*
X90056343Y-100254767D01*
X89917517Y-100063690D01*
X89750510Y-99896683D01*
X89559433Y-99757857D01*
X89554413Y-99755299D01*
X89348996Y-99650633D01*
X89124368Y-99577646D01*
X88891097Y-99540700D01*
X88891092Y-99540700D01*
X88654908Y-99540700D01*
X88654903Y-99540700D01*
X88421631Y-99577646D01*
X88197003Y-99650633D01*
X87986566Y-99757857D01*
X87877550Y-99837062D01*
X87795490Y-99896683D01*
X87795488Y-99896685D01*
X87795487Y-99896685D01*
X87628485Y-100063687D01*
X87628485Y-100063688D01*
X87628483Y-100063690D01*
X87568862Y-100145750D01*
X87489657Y-100254766D01*
X87382433Y-100465203D01*
X87309446Y-100689831D01*
X87272500Y-100923102D01*
X79699831Y-100923102D01*
X79716024Y-98240500D01*
X85145508Y-98240500D01*
X85145509Y-98240500D01*
X85235873Y-98216286D01*
X85260087Y-98209799D01*
X85362814Y-98150489D01*
X86342186Y-97171115D01*
X86376361Y-97146935D01*
X87657919Y-96534018D01*
X87908375Y-96414235D01*
X87961875Y-96402100D01*
X88279963Y-96402100D01*
X88347002Y-96421785D01*
X88392757Y-96474589D01*
X88394751Y-96479199D01*
X88438164Y-96585452D01*
X88473526Y-96645711D01*
X88473528Y-96645714D01*
X88563269Y-96758179D01*
X88681059Y-96840804D01*
X88681061Y-96840805D01*
X88743382Y-96872377D01*
X88743385Y-96872378D01*
X88743387Y-96872379D01*
X88879683Y-96918473D01*
X90126457Y-97149615D01*
X90188783Y-97181189D01*
X90224146Y-97241448D01*
X90221317Y-97311261D01*
X90191534Y-97359217D01*
X90092200Y-97458551D01*
X89944132Y-97662351D01*
X89829760Y-97886816D01*
X89751910Y-98126414D01*
X89712500Y-98375238D01*
X89712500Y-98627162D01*
X89747549Y-98848450D01*
X89751910Y-98875985D01*
X89829760Y-99115583D01*
X89908413Y-99269947D01*
X89932291Y-99316810D01*
X89944132Y-99340048D01*
X90092201Y-99543849D01*
X90092205Y-99543854D01*
X90270345Y-99721994D01*
X90270350Y-99721998D01*
X90448117Y-99851152D01*
X90474155Y-99870070D01*
X90617184Y-99942947D01*
X90698616Y-99984439D01*
X90698618Y-99984439D01*
X90698621Y-99984441D01*
X90938215Y-100062290D01*
X91187038Y-100101700D01*
X91187039Y-100101700D01*
X91438961Y-100101700D01*
X91438962Y-100101700D01*
X91687785Y-100062290D01*
X91927379Y-99984441D01*
X92151845Y-99870070D01*
X92355656Y-99721993D01*
X92533793Y-99543856D01*
X92681870Y-99340045D01*
X92796241Y-99115579D01*
X92874090Y-98875985D01*
X92913500Y-98627162D01*
X92913500Y-98375238D01*
X92874090Y-98126415D01*
X92796241Y-97886821D01*
X92796238Y-97886817D01*
X92796238Y-97886814D01*
X92774098Y-97843363D01*
X92761201Y-97774694D01*
X92787477Y-97709953D01*
X92844582Y-97669696D01*
X92907186Y-97665145D01*
X92921654Y-97667827D01*
X92963267Y-97675542D01*
X93004939Y-97681485D01*
X93025477Y-97683546D01*
X93057908Y-97685440D01*
X93067524Y-97686002D01*
X93129075Y-97687027D01*
X94360099Y-97707545D01*
X94462123Y-97698874D01*
X94511231Y-97689621D01*
X94609404Y-97660573D01*
X94733406Y-97587598D01*
X94787966Y-97543952D01*
X94886383Y-97439000D01*
X94951247Y-97310570D01*
X94973549Y-97244356D01*
X94998216Y-97110389D01*
X95029715Y-97048024D01*
X95032486Y-97045163D01*
X95073788Y-97003861D01*
X95073788Y-97003860D01*
X95073793Y-97003856D01*
X95221870Y-96800045D01*
X95336241Y-96575579D01*
X95414090Y-96335985D01*
X95453500Y-96087162D01*
X95453500Y-95835238D01*
X95414090Y-95586415D01*
X95336241Y-95346821D01*
X95336239Y-95346818D01*
X95336239Y-95346816D01*
X95285958Y-95248135D01*
X95221870Y-95122355D01*
X95179945Y-95064650D01*
X95073798Y-94918550D01*
X95073794Y-94918545D01*
X94895654Y-94740405D01*
X94895649Y-94740401D01*
X94691848Y-94592332D01*
X94691847Y-94592331D01*
X94691845Y-94592330D01*
X94621747Y-94556613D01*
X94467383Y-94477960D01*
X94227785Y-94400110D01*
X94222551Y-94399281D01*
X94025765Y-94368113D01*
X110076900Y-94368113D01*
X110076900Y-94557086D01*
X110106459Y-94743718D01*
X110164854Y-94923436D01*
X110226887Y-95045181D01*
X110250640Y-95091799D01*
X110361710Y-95244673D01*
X110495327Y-95378290D01*
X110648201Y-95489360D01*
X110727747Y-95529890D01*
X110816563Y-95575145D01*
X110816565Y-95575145D01*
X110816568Y-95575147D01*
X110871492Y-95592993D01*
X110996281Y-95633540D01*
X111182914Y-95663100D01*
X111182919Y-95663100D01*
X111371886Y-95663100D01*
X111558518Y-95633540D01*
X111738232Y-95575147D01*
X111906599Y-95489360D01*
X112059473Y-95378290D01*
X112193090Y-95244673D01*
X112304160Y-95091799D01*
X112389947Y-94923432D01*
X112448340Y-94743718D01*
X112458124Y-94681942D01*
X112477900Y-94557086D01*
X112477900Y-94368113D01*
X112448340Y-94181481D01*
X112403894Y-94044692D01*
X112389947Y-94001768D01*
X112389945Y-94001765D01*
X112389945Y-94001763D01*
X112337256Y-93898356D01*
X112304160Y-93833401D01*
X112193090Y-93680527D01*
X112059473Y-93546910D01*
X111906599Y-93435840D01*
X111865759Y-93415031D01*
X111738236Y-93350054D01*
X111558518Y-93291659D01*
X111371886Y-93262100D01*
X111371881Y-93262100D01*
X111182919Y-93262100D01*
X111182914Y-93262100D01*
X110996281Y-93291659D01*
X110816563Y-93350054D01*
X110648200Y-93435840D01*
X110585693Y-93481255D01*
X110495327Y-93546910D01*
X110495325Y-93546912D01*
X110495324Y-93546912D01*
X110361712Y-93680524D01*
X110361712Y-93680525D01*
X110361710Y-93680527D01*
X110337299Y-93714126D01*
X110250640Y-93833400D01*
X110164854Y-94001763D01*
X110106459Y-94181481D01*
X110076900Y-94368113D01*
X94025765Y-94368113D01*
X93978962Y-94360700D01*
X93727038Y-94360700D01*
X93680235Y-94368113D01*
X93478211Y-94400110D01*
X93478210Y-94400110D01*
X93477963Y-94400191D01*
X93477863Y-94400193D01*
X93473472Y-94401248D01*
X93473250Y-94400325D01*
X93408122Y-94402177D01*
X93402774Y-94400642D01*
X93391031Y-94396983D01*
X93345055Y-94371879D01*
X93230425Y-94346943D01*
X93225224Y-94345323D01*
X93200503Y-94328855D01*
X93174429Y-94314618D01*
X93171741Y-94309695D01*
X93167075Y-94306587D01*
X93155181Y-94279368D01*
X93140944Y-94253294D01*
X93141344Y-94247700D01*
X93139099Y-94242563D01*
X93143808Y-94213237D01*
X93145928Y-94183603D01*
X93147534Y-94179518D01*
X93236798Y-93964019D01*
X93304670Y-93710716D01*
X93338900Y-93450720D01*
X93338900Y-93188480D01*
X93304670Y-92928484D01*
X93236798Y-92675181D01*
X93225799Y-92648626D01*
X93136446Y-92432909D01*
X93136441Y-92432899D01*
X93005324Y-92205796D01*
X92845681Y-91997748D01*
X92845674Y-91997740D01*
X92660260Y-91812326D01*
X92660255Y-91812322D01*
X92660251Y-91812318D01*
X92654123Y-91807615D01*
X92612923Y-91751188D01*
X92608770Y-91681442D01*
X92642983Y-91620523D01*
X92704701Y-91587771D01*
X92729285Y-91585244D01*
X99999800Y-91567000D01*
X110727197Y-91443221D01*
X110758742Y-91446928D01*
G37*
%TD.AperFunction*%
%TD*%
%TA.AperFunction,Conductor*%
%TO.N,Vin*%
G36*
X79680063Y-104197992D02*
G01*
X79680062Y-104197993D01*
X79680060Y-104197993D01*
X79680061Y-104197992D01*
X74167993Y-104251579D01*
X74165597Y-104251579D01*
X73220367Y-104242500D01*
X73194528Y-104234643D01*
X73167874Y-104230283D01*
X73161599Y-104224629D01*
X73153520Y-104222173D01*
X73136031Y-104201593D01*
X73115965Y-104183515D01*
X73111069Y-104172220D01*
X73108274Y-104168932D01*
X73101927Y-104151132D01*
X73054769Y-103978218D01*
X73050400Y-103945592D01*
X73050400Y-102317399D01*
X73061606Y-102265886D01*
X73109338Y-102161372D01*
X73129023Y-102094333D01*
X73129024Y-102094329D01*
X73149500Y-101951913D01*
X73149500Y-100593354D01*
X73137947Y-100485898D01*
X73126741Y-100434387D01*
X73126637Y-100434076D01*
X73092616Y-100331856D01*
X73092613Y-100331850D01*
X73070085Y-100296796D01*
X73050400Y-100229756D01*
X73050400Y-98364500D01*
X73070085Y-98297461D01*
X73122889Y-98251706D01*
X73174400Y-98240500D01*
X79716024Y-98240500D01*
X79680063Y-104197992D01*
G37*
%TD.AperFunction*%
%TD*%
%TA.AperFunction,Conductor*%
%TO.N,Vin_Unfused*%
G36*
X106209736Y-116199285D02*
G01*
X106255491Y-116252089D01*
X106265435Y-116321247D01*
X106265182Y-116322919D01*
X106255700Y-116382786D01*
X106255700Y-116569514D01*
X106284911Y-116753943D01*
X106342613Y-116931531D01*
X106427385Y-117097907D01*
X106537141Y-117248972D01*
X106669178Y-117381009D01*
X106820243Y-117490765D01*
X106986619Y-117575537D01*
X107164207Y-117633239D01*
X107348636Y-117662450D01*
X107348637Y-117662450D01*
X107535359Y-117662450D01*
X107535364Y-117662450D01*
X107552603Y-117659719D01*
X107621892Y-117668672D01*
X107675346Y-117713667D01*
X107695987Y-117780418D01*
X107696000Y-117782192D01*
X107696000Y-139068000D01*
X107676315Y-139135039D01*
X107623511Y-139180794D01*
X107572000Y-139192000D01*
X98701400Y-139192000D01*
X98634361Y-139172315D01*
X98588606Y-139119511D01*
X98577400Y-139068000D01*
X98577400Y-116303600D01*
X98597085Y-116236561D01*
X98649889Y-116190806D01*
X98701400Y-116179600D01*
X106142697Y-116179600D01*
X106209736Y-116199285D01*
G37*
%TD.AperFunction*%
%TD*%
%TA.AperFunction,Conductor*%
%TO.N,+3.3V*%
G36*
X34352249Y-97924809D02*
G01*
X34355037Y-97926807D01*
X34992162Y-98543527D01*
X34995723Y-98551743D01*
X34992432Y-98560070D01*
X34992298Y-98560206D01*
X34357922Y-99194582D01*
X34349649Y-99198009D01*
X34341742Y-99194932D01*
X34070163Y-98945888D01*
X34069798Y-98945538D01*
X33376434Y-98252174D01*
X33373007Y-98243901D01*
X33376434Y-98235628D01*
X33381132Y-98232760D01*
X34343326Y-97924073D01*
X34352249Y-97924809D01*
G37*
%TD.AperFunction*%
%TD*%
%TA.AperFunction,Conductor*%
%TO.N,+3.3V*%
G36*
X36968003Y-95797017D02*
G01*
X37498754Y-96150497D01*
X37502007Y-96153750D01*
X37854766Y-96683418D01*
X37856500Y-96692203D01*
X37851710Y-96699507D01*
X36901180Y-97360875D01*
X36892432Y-97362787D01*
X36886225Y-97359544D01*
X36193850Y-96667169D01*
X36190423Y-96658896D01*
X36193386Y-96651114D01*
X36952784Y-95798970D01*
X36960846Y-95795074D01*
X36968003Y-95797017D01*
G37*
%TD.AperFunction*%
%TD*%
%TA.AperFunction,Conductor*%
%TO.N,+3.3V*%
G36*
X35763439Y-97096706D02*
G01*
X36455798Y-97789065D01*
X36459225Y-97797338D01*
X36456692Y-97804608D01*
X35655479Y-98814834D01*
X35647653Y-98819187D01*
X35641849Y-98818379D01*
X35003789Y-98555067D01*
X34997449Y-98548745D01*
X34734125Y-97910654D01*
X34734136Y-97901700D01*
X34737667Y-97897028D01*
X35747897Y-97095811D01*
X35756507Y-97093356D01*
X35763439Y-97096706D01*
G37*
%TD.AperFunction*%
%TD*%
%TA.AperFunction,Conductor*%
%TO.N,+3.3V*%
G36*
X107686126Y-98632569D02*
G01*
X107691136Y-98639991D01*
X107691144Y-98640031D01*
X107845940Y-99413303D01*
X107845940Y-99417897D01*
X107691129Y-100191244D01*
X107686145Y-100198683D01*
X107677397Y-100200427D01*
X106265260Y-99922458D01*
X106257805Y-99917498D01*
X106255820Y-99910978D01*
X106255820Y-98930155D01*
X106259247Y-98921882D01*
X106265181Y-98918692D01*
X107677337Y-98630864D01*
X107686126Y-98632569D01*
G37*
%TD.AperFunction*%
%TD*%
%TA.AperFunction,Conductor*%
%TO.N,GND*%
G36*
X40547140Y-98199866D02*
G01*
X41243950Y-99083971D01*
X41257525Y-99101194D01*
X41259955Y-99109812D01*
X41256609Y-99116709D01*
X40564204Y-99809114D01*
X40555931Y-99812541D01*
X40548689Y-99810030D01*
X39647361Y-99099645D01*
X39642984Y-99091832D01*
X39644864Y-99083972D01*
X39997994Y-98553747D01*
X40001242Y-98550499D01*
X40531467Y-98197369D01*
X40540251Y-98195636D01*
X40547140Y-98199866D01*
G37*
%TD.AperFunction*%
%TD*%
%TA.AperFunction,Conductor*%
%TO.N,GND*%
G36*
X24048232Y-99431236D02*
G01*
X24054275Y-99436932D01*
X24616544Y-100594583D01*
X24617720Y-100599695D01*
X24617720Y-101580803D01*
X24614293Y-101589076D01*
X24606020Y-101592503D01*
X24602341Y-101591910D01*
X22846464Y-101010305D01*
X22839688Y-101004450D01*
X22838541Y-100997687D01*
X22985125Y-99873813D01*
X22989592Y-99866054D01*
X22992247Y-99864519D01*
X24039277Y-99431233D01*
X24048232Y-99431236D01*
G37*
%TD.AperFunction*%
%TD*%
%TA.AperFunction,Conductor*%
%TO.N,Net-(D2-A)*%
G36*
X28698362Y-113369532D02*
G01*
X28701630Y-113375882D01*
X28799011Y-113960172D01*
X28796991Y-113968895D01*
X28795750Y-113970361D01*
X28208280Y-114558811D01*
X28200010Y-114562245D01*
X28191734Y-114558825D01*
X28191720Y-114558811D01*
X27604249Y-113970361D01*
X27600829Y-113962085D01*
X27600987Y-113960181D01*
X27698370Y-113375880D01*
X27703111Y-113368284D01*
X27709911Y-113366105D01*
X28690089Y-113366105D01*
X28698362Y-113369532D01*
G37*
%TD.AperFunction*%
%TD*%
%TA.AperFunction,Conductor*%
%TO.N,Net-(U1-HO)*%
G36*
X31260717Y-119600820D02*
G01*
X31954196Y-120294299D01*
X31957623Y-120302572D01*
X31955106Y-120309823D01*
X31076864Y-121422090D01*
X31069047Y-121426459D01*
X31061193Y-121424575D01*
X31057464Y-121422090D01*
X30873238Y-121299320D01*
X30406242Y-120988110D01*
X30402994Y-120984862D01*
X30207092Y-120690895D01*
X29967545Y-120331435D01*
X29965810Y-120322652D01*
X29970794Y-120315213D01*
X29971543Y-120314754D01*
X31246717Y-119598890D01*
X31255608Y-119597829D01*
X31260717Y-119600820D01*
G37*
%TD.AperFunction*%
%TD*%
%TA.AperFunction,Conductor*%
%TO.N,+12V*%
G36*
X29965932Y-110168974D02*
G01*
X30404696Y-110824158D01*
X30406453Y-110828400D01*
X30558328Y-111596853D01*
X30556570Y-111605633D01*
X30549118Y-111610599D01*
X30546923Y-111610821D01*
X28889732Y-111621131D01*
X28881437Y-111617755D01*
X28877959Y-111609504D01*
X28877959Y-110628943D01*
X28881386Y-110620670D01*
X28885077Y-110618178D01*
X29951634Y-110164716D01*
X29960588Y-110164633D01*
X29965932Y-110168974D01*
G37*
%TD.AperFunction*%
%TD*%
%TA.AperFunction,Conductor*%
%TO.N,+12V*%
G36*
X69265585Y-101509833D02*
G01*
X69268784Y-101515808D01*
X69551681Y-102927952D01*
X69549946Y-102936737D01*
X69542507Y-102941722D01*
X69542506Y-102941722D01*
X68769197Y-103096526D01*
X68764603Y-103096526D01*
X67991293Y-102941722D01*
X67983854Y-102936738D01*
X67982118Y-102927953D01*
X68265016Y-101515806D01*
X68270001Y-101508369D01*
X68276488Y-101506406D01*
X69257312Y-101506406D01*
X69265585Y-101509833D01*
G37*
%TD.AperFunction*%
%TD*%
%TA.AperFunction,Conductor*%
%TO.N,Net-(D3-A)*%
G36*
X29399853Y-93483709D02*
G01*
X29792378Y-93866863D01*
X30269409Y-94332504D01*
X30272935Y-94340735D01*
X30269608Y-94349049D01*
X30269509Y-94349149D01*
X29576053Y-95042605D01*
X29567780Y-95046032D01*
X29563765Y-95045321D01*
X28389406Y-94616239D01*
X28382811Y-94610181D01*
X28382170Y-94602041D01*
X28454297Y-94349149D01*
X28591848Y-93866862D01*
X28597412Y-93859847D01*
X28598024Y-93859530D01*
X29386625Y-93481530D01*
X29395565Y-93481046D01*
X29399853Y-93483709D01*
G37*
%TD.AperFunction*%
%TD*%
%TA.AperFunction,Conductor*%
%TO.N,Net-(D3-A)*%
G36*
X34061786Y-94861735D02*
G01*
X35350317Y-95605811D01*
X35355768Y-95612916D01*
X35354598Y-95621794D01*
X35354203Y-95622431D01*
X35002297Y-96150557D01*
X34999052Y-96153803D01*
X34469554Y-96506950D01*
X34460770Y-96508689D01*
X34453328Y-96503708D01*
X34453151Y-96503434D01*
X34046024Y-95854451D01*
X34044235Y-95848233D01*
X34044235Y-94871867D01*
X34047662Y-94863594D01*
X34055935Y-94860167D01*
X34061786Y-94861735D01*
G37*
%TD.AperFunction*%
%TD*%
%TA.AperFunction,Conductor*%
%TO.N,Net-(D3-K)*%
G36*
X28602268Y-97369784D02*
G01*
X28602279Y-97369795D01*
X29338893Y-98107392D01*
X29342314Y-98115668D01*
X29341714Y-98119360D01*
X29096667Y-98854505D01*
X29090799Y-98861270D01*
X29085567Y-98862505D01*
X28102433Y-98862505D01*
X28094160Y-98859078D01*
X28091333Y-98854505D01*
X27846285Y-98119360D01*
X27846920Y-98110428D01*
X27849106Y-98107392D01*
X28585721Y-97369795D01*
X28593992Y-97366363D01*
X28602268Y-97369784D01*
G37*
%TD.AperFunction*%
%TD*%
%TA.AperFunction,Conductor*%
%TO.N,Net-(D4-A)*%
G36*
X45581012Y-93748053D02*
G01*
X46370144Y-94187258D01*
X46375706Y-94194275D01*
X46375863Y-94194889D01*
X46542610Y-94928965D01*
X46541101Y-94937792D01*
X46533793Y-94942966D01*
X46533664Y-94942995D01*
X45403453Y-95186341D01*
X45394644Y-95184732D01*
X45392717Y-95183176D01*
X44699177Y-94489636D01*
X44695750Y-94481363D01*
X44699177Y-94473090D01*
X44699961Y-94472374D01*
X45567834Y-93749287D01*
X45576383Y-93746625D01*
X45581012Y-93748053D01*
G37*
%TD.AperFunction*%
%TD*%
%TA.AperFunction,Conductor*%
%TO.N,Net-(D4-A)*%
G36*
X40564204Y-94895895D02*
G01*
X41256609Y-95588300D01*
X41260036Y-95596573D01*
X41257525Y-95603815D01*
X40547140Y-96505143D01*
X40539327Y-96509520D01*
X40531466Y-96507639D01*
X40001245Y-96154512D01*
X39997992Y-96151259D01*
X39644865Y-95621038D01*
X39643131Y-95612253D01*
X39647359Y-95605365D01*
X40548691Y-94894978D01*
X40557307Y-94892549D01*
X40564204Y-94895895D01*
G37*
%TD.AperFunction*%
%TD*%
%TA.AperFunction,Conductor*%
%TO.N,Net-(D4-K)*%
G36*
X46382268Y-97697784D02*
G01*
X46382279Y-97697795D01*
X47118893Y-98435392D01*
X47122314Y-98443668D01*
X47121714Y-98447360D01*
X46876667Y-99182505D01*
X46870799Y-99189270D01*
X46865567Y-99190505D01*
X45882433Y-99190505D01*
X45874160Y-99187078D01*
X45871333Y-99182505D01*
X45626285Y-98447360D01*
X45626920Y-98438428D01*
X45629106Y-98435392D01*
X46365721Y-97697795D01*
X46373992Y-97694363D01*
X46382268Y-97697784D01*
G37*
%TD.AperFunction*%
%TD*%
%TA.AperFunction,Conductor*%
%TO.N,Vsw*%
G36*
X40200636Y-116869797D02*
G01*
X40205583Y-116877261D01*
X40205583Y-116881739D01*
X39867941Y-118613649D01*
X39862994Y-118621113D01*
X39858706Y-118622892D01*
X38333693Y-118921601D01*
X38324915Y-118919828D01*
X38323171Y-118918392D01*
X38155207Y-118750428D01*
X38151780Y-118742155D01*
X38151997Y-118739915D01*
X38450707Y-117214892D01*
X38455660Y-117207433D01*
X38459949Y-117205658D01*
X40191860Y-116868016D01*
X40200636Y-116869797D01*
G37*
%TD.AperFunction*%
%TD*%
%TA.AperFunction,Conductor*%
%TO.N,Vsw*%
G36*
X33831420Y-122665356D02*
G01*
X33833867Y-122668942D01*
X34200764Y-123508096D01*
X34200939Y-123517049D01*
X34196558Y-123522502D01*
X33712315Y-123847034D01*
X33703534Y-123848793D01*
X33699287Y-123847034D01*
X33215043Y-123522502D01*
X33210079Y-123515050D01*
X33210837Y-123508096D01*
X33577735Y-122668942D01*
X33584189Y-122662734D01*
X33588455Y-122661929D01*
X33823147Y-122661929D01*
X33831420Y-122665356D01*
G37*
%TD.AperFunction*%
%TD*%
%TA.AperFunction,Conductor*%
%TO.N,Vsw*%
G36*
X31071492Y-114331595D02*
G01*
X31251507Y-114511610D01*
X31771054Y-115031157D01*
X31070176Y-116350561D01*
X30480000Y-115957263D01*
X30479999Y-115957262D01*
X30406242Y-115908110D01*
X30402994Y-115904862D01*
X29966381Y-115249688D01*
X29964645Y-115240903D01*
X29968637Y-115234203D01*
X31055744Y-114330868D01*
X31064295Y-114328218D01*
X31071492Y-114331595D01*
G37*
%TD.AperFunction*%
%TD*%
%TA.AperFunction,Conductor*%
%TO.N,Vsw*%
G36*
X39370734Y-111685979D02*
G01*
X40007880Y-112265816D01*
X40561937Y-112770038D01*
X40565749Y-112778141D01*
X40563966Y-112784920D01*
X40043215Y-113612824D01*
X40036136Y-113617949D01*
X39116552Y-113846754D01*
X39107696Y-113845426D01*
X39102544Y-113838841D01*
X39034575Y-113617949D01*
X38657444Y-112392305D01*
X38658287Y-112383392D01*
X38660351Y-112380596D01*
X39354588Y-111686359D01*
X39362860Y-111682933D01*
X39370734Y-111685979D01*
G37*
%TD.AperFunction*%
%TD*%
%TA.AperFunction,Conductor*%
%TO.N,C2000 D *%
G36*
X86684841Y-95003748D02*
G01*
X87520816Y-95349038D01*
X87527153Y-95355363D01*
X87527162Y-95355384D01*
X87872451Y-96191358D01*
X87872442Y-96200313D01*
X87866685Y-96206380D01*
X86257803Y-96975845D01*
X86248861Y-96976323D01*
X86244482Y-96973563D01*
X85902636Y-96631717D01*
X85899209Y-96623444D01*
X85900353Y-96618398D01*
X86669819Y-95009513D01*
X86676480Y-95003529D01*
X86684841Y-95003748D01*
G37*
%TD.AperFunction*%
%TD*%
%TA.AperFunction,Conductor*%
%TO.N,C2000 D *%
G36*
X32577280Y-102863063D02*
G01*
X33261283Y-103099874D01*
X33267979Y-103105819D01*
X33269154Y-103110930D01*
X33269154Y-103591556D01*
X33265727Y-103599829D01*
X33258129Y-103603237D01*
X32574775Y-103642728D01*
X32566318Y-103639784D01*
X32562630Y-103633358D01*
X32556562Y-103603237D01*
X32486065Y-103253308D01*
X32486065Y-103248691D01*
X32561992Y-102871809D01*
X32566985Y-102864378D01*
X32575772Y-102862652D01*
X32577280Y-102863063D01*
G37*
%TD.AperFunction*%
%TD*%
%TA.AperFunction,Conductor*%
%TO.N,D'*%
G36*
X34020476Y-113504409D02*
G01*
X34954972Y-113614512D01*
X34962786Y-113618884D01*
X34963010Y-113619176D01*
X35694969Y-114609136D01*
X35697132Y-114617826D01*
X35694956Y-114623065D01*
X34996708Y-115563878D01*
X34989026Y-115568479D01*
X34987313Y-115568605D01*
X34004982Y-115568605D01*
X33996709Y-115565178D01*
X33993282Y-115556905D01*
X33993282Y-115556824D01*
X33999842Y-114609136D01*
X34007409Y-113515947D01*
X34010893Y-113507700D01*
X34019190Y-113504330D01*
X34020476Y-113504409D01*
G37*
%TD.AperFunction*%
%TD*%
%TA.AperFunction,Conductor*%
%TO.N,D'*%
G36*
X33162749Y-118403018D02*
G01*
X33664141Y-118871097D01*
X33667850Y-118879247D01*
X33667192Y-118883536D01*
X33409987Y-119613677D01*
X33404006Y-119620342D01*
X33398952Y-119621490D01*
X32916284Y-119621490D01*
X32908011Y-119618063D01*
X32904960Y-119612732D01*
X32647291Y-118620992D01*
X32648527Y-118612123D01*
X32654119Y-118607248D01*
X33150271Y-118400767D01*
X33159224Y-118400753D01*
X33162749Y-118403018D01*
G37*
%TD.AperFunction*%
%TD*%
%TA.AperFunction,Conductor*%
%TO.N,D'*%
G36*
X23161220Y-129035842D02*
G01*
X23163775Y-129039684D01*
X23886214Y-130804986D01*
X23886176Y-130813940D01*
X23879817Y-130820245D01*
X23877680Y-130820890D01*
X22913094Y-131013741D01*
X22908506Y-131013741D01*
X22229220Y-130877930D01*
X21943918Y-130820889D01*
X21936478Y-130815908D01*
X21934740Y-130807123D01*
X21935382Y-130804994D01*
X22657825Y-129039683D01*
X22664130Y-129033325D01*
X22668653Y-129032415D01*
X23152947Y-129032415D01*
X23161220Y-129035842D01*
G37*
%TD.AperFunction*%
%TD*%
%TA.AperFunction,Conductor*%
%TO.N,C2000 D'*%
G36*
X84287659Y-94886104D02*
G01*
X84289395Y-94887059D01*
X84983358Y-95349594D01*
X84986605Y-95352841D01*
X85449140Y-96046804D01*
X85450877Y-96055589D01*
X85445893Y-96063029D01*
X85444157Y-96063984D01*
X83978187Y-96715644D01*
X83969235Y-96715873D01*
X83965161Y-96713226D01*
X83622973Y-96371038D01*
X83619546Y-96362765D01*
X83620554Y-96358014D01*
X84272216Y-94892040D01*
X84278707Y-94885875D01*
X84287659Y-94886104D01*
G37*
%TD.AperFunction*%
%TD*%
%TA.AperFunction,Conductor*%
%TO.N,C2000 D'*%
G36*
X34463300Y-102149124D02*
G01*
X34470744Y-102154101D01*
X34472714Y-102160598D01*
X34472714Y-102641401D01*
X34469287Y-102649674D01*
X34463300Y-102652875D01*
X33769886Y-102791032D01*
X33761103Y-102789288D01*
X33756130Y-102781869D01*
X33727831Y-102641401D01*
X33679865Y-102403308D01*
X33679865Y-102398691D01*
X33756130Y-102020128D01*
X33761124Y-102012697D01*
X33769885Y-102010967D01*
X34463300Y-102149124D01*
G37*
%TD.AperFunction*%
%TD*%
%TA.AperFunction,Conductor*%
%TO.N,Vboot*%
G36*
X29966663Y-117790063D02*
G01*
X30404402Y-118443451D01*
X30406160Y-118447692D01*
X30558354Y-119216995D01*
X30556597Y-119225776D01*
X30549147Y-119230744D01*
X30547070Y-119230964D01*
X29365670Y-119250513D01*
X29357341Y-119247224D01*
X29357203Y-119247088D01*
X28664334Y-118554219D01*
X28660907Y-118545946D01*
X28664334Y-118537673D01*
X28666703Y-118535846D01*
X29951049Y-117786468D01*
X29959919Y-117785260D01*
X29966663Y-117790063D01*
G37*
%TD.AperFunction*%
%TD*%
%TA.AperFunction,Conductor*%
%TO.N,Vboot*%
G36*
X23813785Y-123379077D02*
G01*
X23819917Y-123382306D01*
X24513328Y-124075717D01*
X24516755Y-124083990D01*
X24513328Y-124092263D01*
X24510593Y-124094297D01*
X22916922Y-124950549D01*
X22908012Y-124951445D01*
X22901662Y-124946752D01*
X22353995Y-124128847D01*
X22352240Y-124120066D01*
X22352243Y-124120048D01*
X22358866Y-124086848D01*
X22544830Y-123154644D01*
X22549809Y-123147203D01*
X22558443Y-123145433D01*
X23813785Y-123379077D01*
G37*
%TD.AperFunction*%
%TD*%
%TA.AperFunction,Conductor*%
%TO.N,Vboot*%
G36*
X30246852Y-117665159D02*
G01*
X30251032Y-117672016D01*
X30404755Y-118442046D01*
X30403014Y-118450830D01*
X30403001Y-118450849D01*
X29966133Y-119102938D01*
X29958682Y-119107904D01*
X29951450Y-119107021D01*
X28616544Y-118481726D01*
X28610506Y-118475114D01*
X28610912Y-118466168D01*
X28613231Y-118462861D01*
X29305653Y-117770439D01*
X29312613Y-117767087D01*
X30238248Y-117662681D01*
X30246852Y-117665159D01*
G37*
%TD.AperFunction*%
%TD*%
%TA.AperFunction,Conductor*%
%TO.N,Vboot*%
G36*
X28801070Y-117120842D02*
G01*
X28805507Y-117124085D01*
X29570863Y-118028597D01*
X29573591Y-118037126D01*
X29570204Y-118044427D01*
X28878322Y-118736309D01*
X28870049Y-118739736D01*
X28862492Y-118736968D01*
X27957981Y-117971613D01*
X27953880Y-117963654D01*
X27954723Y-117958223D01*
X28197437Y-117369895D01*
X28203760Y-117363555D01*
X28792117Y-117120829D01*
X28801070Y-117120842D01*
G37*
%TD.AperFunction*%
%TD*%
%TA.AperFunction,Conductor*%
%TO.N,Vboot*%
G36*
X31178735Y-116978838D02*
G01*
X31872266Y-117672369D01*
X31875693Y-117680642D01*
X31873723Y-117687139D01*
X31076666Y-118880839D01*
X31069222Y-118885816D01*
X31060448Y-118884078D01*
X30406242Y-118448110D01*
X30402994Y-118444862D01*
X29967026Y-117790656D01*
X29965290Y-117781871D01*
X29970265Y-117774438D01*
X30123127Y-117672369D01*
X31163965Y-116977380D01*
X31172748Y-116975637D01*
X31178735Y-116978838D01*
G37*
%TD.AperFunction*%
%TD*%
%TA.AperFunction,Conductor*%
%TO.N,Vin_sens*%
G36*
X34210053Y-126651738D02*
G01*
X34210695Y-126652825D01*
X34718997Y-127630591D01*
X34719773Y-127639512D01*
X34716889Y-127644261D01*
X34375461Y-127985689D01*
X34367188Y-127989116D01*
X34361791Y-127987797D01*
X33384025Y-127479495D01*
X33378265Y-127472638D01*
X33379041Y-127463717D01*
X33379683Y-127462630D01*
X33703795Y-126975841D01*
X33707041Y-126972595D01*
X34193830Y-126648482D01*
X34202615Y-126646751D01*
X34210053Y-126651738D01*
G37*
%TD.AperFunction*%
%TD*%
%TA.AperFunction,Conductor*%
%TO.N,Vin_sens*%
G36*
X60122233Y-127792472D02*
G01*
X60126335Y-127796551D01*
X60828210Y-128971507D01*
X60829511Y-128980367D01*
X60824520Y-128987331D01*
X59673914Y-129731539D01*
X59665106Y-129733155D01*
X59659632Y-129730320D01*
X58542709Y-128701275D01*
X58538947Y-128693149D01*
X58538937Y-128692670D01*
X58538937Y-128206861D01*
X58542364Y-128198588D01*
X58547708Y-128195534D01*
X60113367Y-127791223D01*
X60122233Y-127792472D01*
G37*
%TD.AperFunction*%
%TD*%
%TA.AperFunction,Conductor*%
%TO.N,Vin_sens*%
G36*
X72967122Y-132078753D02*
G01*
X73555132Y-132471378D01*
X73560109Y-132478822D01*
X73558379Y-132487584D01*
X73344625Y-132809193D01*
X73341357Y-132812461D01*
X73019748Y-133026215D01*
X73010961Y-133027941D01*
X73003542Y-133022968D01*
X72610917Y-132434958D01*
X72609173Y-132426175D01*
X72612372Y-132420190D01*
X72952353Y-132080209D01*
X72960625Y-132076783D01*
X72967122Y-132078753D01*
G37*
%TD.AperFunction*%
%TD*%
%TA.AperFunction,Conductor*%
%TO.N,Vin_sens*%
G36*
X61803732Y-127985290D02*
G01*
X63214772Y-128727910D01*
X63220497Y-128734796D01*
X63221023Y-128738264D01*
X63221023Y-129224135D01*
X63217596Y-129232408D01*
X63214772Y-129234489D01*
X61803736Y-129977108D01*
X61794819Y-129977928D01*
X61789863Y-129974874D01*
X61746715Y-129930113D01*
X60839826Y-128989319D01*
X60836553Y-128980985D01*
X60839827Y-128973080D01*
X61789864Y-127987524D01*
X61798072Y-127983947D01*
X61803732Y-127985290D01*
G37*
%TD.AperFunction*%
%TD*%
%TA.AperFunction,Conductor*%
%TO.N,I_L*%
G36*
X61803732Y-133065290D02*
G01*
X63214772Y-133807910D01*
X63220497Y-133814796D01*
X63221023Y-133818264D01*
X63221023Y-134304135D01*
X63217596Y-134312408D01*
X63214772Y-134314489D01*
X61803736Y-135057108D01*
X61794819Y-135057928D01*
X61789863Y-135054874D01*
X61746715Y-135010113D01*
X60839826Y-134069319D01*
X60836553Y-134060985D01*
X60839827Y-134053080D01*
X61789864Y-133067524D01*
X61798072Y-133063947D01*
X61803732Y-133065290D01*
G37*
%TD.AperFunction*%
%TD*%
%TA.AperFunction,Conductor*%
%TO.N,I_L*%
G36*
X59876136Y-133067525D02*
G01*
X60826172Y-134053080D01*
X60829446Y-134061415D01*
X60826172Y-134069320D01*
X59876136Y-135054874D01*
X59867927Y-135058452D01*
X59862264Y-135057108D01*
X59373906Y-134800088D01*
X58451228Y-134314489D01*
X58445503Y-134307603D01*
X58444977Y-134304135D01*
X58444977Y-133818264D01*
X58448404Y-133809991D01*
X58451228Y-133807910D01*
X59862266Y-133065290D01*
X59871180Y-133064471D01*
X59876136Y-133067525D01*
G37*
%TD.AperFunction*%
%TD*%
%TA.AperFunction,Conductor*%
%TO.N,I_L*%
G36*
X69882734Y-132727834D02*
G01*
X70204343Y-132941588D01*
X70207611Y-132944856D01*
X70421365Y-133266465D01*
X70423091Y-133275252D01*
X70418118Y-133282671D01*
X69830108Y-133675296D01*
X69821325Y-133677040D01*
X69815338Y-133673839D01*
X69475360Y-133333861D01*
X69471933Y-133325588D01*
X69473903Y-133319091D01*
X69866530Y-132731079D01*
X69873972Y-132726104D01*
X69882734Y-132727834D01*
G37*
%TD.AperFunction*%
%TD*%
%TA.AperFunction,Conductor*%
%TO.N,I_L*%
G36*
X34210053Y-129725138D02*
G01*
X34210695Y-129726225D01*
X34718997Y-130703991D01*
X34719773Y-130712912D01*
X34716889Y-130717661D01*
X34375461Y-131059089D01*
X34367188Y-131062516D01*
X34361791Y-131061197D01*
X33384025Y-130552895D01*
X33378265Y-130546038D01*
X33379041Y-130537117D01*
X33379683Y-130536030D01*
X33703795Y-130049241D01*
X33707041Y-130045995D01*
X34193830Y-129721882D01*
X34202615Y-129720151D01*
X34210053Y-129725138D01*
G37*
%TD.AperFunction*%
%TD*%
%TA.AperFunction,Conductor*%
%TO.N,SD*%
G36*
X36968533Y-98197370D02*
G01*
X37498754Y-98550497D01*
X37502007Y-98553750D01*
X37855134Y-99083971D01*
X37856868Y-99092756D01*
X37852638Y-99099645D01*
X36951310Y-99810030D01*
X36942692Y-99812460D01*
X36935795Y-99809114D01*
X36243390Y-99116709D01*
X36239963Y-99108436D01*
X36242473Y-99101196D01*
X36952860Y-98199865D01*
X36960672Y-98195489D01*
X36968533Y-98197370D01*
G37*
%TD.AperFunction*%
%TD*%
%TA.AperFunction,Conductor*%
%TO.N,SD*%
G36*
X23558735Y-111898838D02*
G01*
X24252266Y-112592369D01*
X24255693Y-112600642D01*
X24253723Y-112607139D01*
X23456666Y-113800839D01*
X23449222Y-113805816D01*
X23440448Y-113804078D01*
X22786242Y-113368110D01*
X22782994Y-113364862D01*
X22347026Y-112710656D01*
X22345290Y-112701871D01*
X22350265Y-112694438D01*
X22503127Y-112592369D01*
X23543965Y-111897380D01*
X23552748Y-111895637D01*
X23558735Y-111898838D01*
G37*
%TD.AperFunction*%
%TD*%
M02*
