%TF.GenerationSoftware,KiCad,Pcbnew,9.0.7*%
%TF.CreationDate,2026-02-20T12:59:28-06:00*%
%TF.ProjectId,Lab2_starter,4c616232-5f73-4746-9172-7465722e6b69,rev?*%
%TF.SameCoordinates,Original*%
%TF.FileFunction,Copper,L2,Inr*%
%TF.FilePolarity,Positive*%
%FSLAX46Y46*%
G04 Gerber Fmt 4.6, Leading zero omitted, Abs format (unit mm)*
G04 Created by KiCad (PCBNEW 9.0.7) date 2026-02-20 12:59:28*
%MOMM*%
%LPD*%
G01*
G04 APERTURE LIST*
G04 Aperture macros list*
%AMRoundRect*
0 Rectangle with rounded corners*
0 $1 Rounding radius*
0 $2 $3 $4 $5 $6 $7 $8 $9 X,Y pos of 4 corners*
0 Add a 4 corners polygon primitive as box body*
4,1,4,$2,$3,$4,$5,$6,$7,$8,$9,$2,$3,0*
0 Add four circle primitives for the rounded corners*
1,1,$1+$1,$2,$3*
1,1,$1+$1,$4,$5*
1,1,$1+$1,$6,$7*
1,1,$1+$1,$8,$9*
0 Add four rect primitives between the rounded corners*
20,1,$1+$1,$2,$3,$4,$5,0*
20,1,$1+$1,$4,$5,$6,$7,0*
20,1,$1+$1,$6,$7,$8,$9,0*
20,1,$1+$1,$8,$9,$2,$3,0*%
%AMRotRect*
0 Rectangle, with rotation*
0 The origin of the aperture is its center*
0 $1 length*
0 $2 width*
0 $3 Rotation angle, in degrees counterclockwise*
0 Add horizontal line*
21,1,$1,$2,0,0,$3*%
G04 Aperture macros list end*
%TA.AperFunction,ComponentPad*%
%ADD10R,1.700000X1.700000*%
%TD*%
%TA.AperFunction,ComponentPad*%
%ADD11O,1.700000X1.700000*%
%TD*%
%TA.AperFunction,ComponentPad*%
%ADD12C,2.300000*%
%TD*%
%TA.AperFunction,ComponentPad*%
%ADD13C,1.200000*%
%TD*%
%TA.AperFunction,ComponentPad*%
%ADD14C,3.600000*%
%TD*%
%TA.AperFunction,ComponentPad*%
%ADD15RotRect,1.625600X1.625600X25.000000*%
%TD*%
%TA.AperFunction,ComponentPad*%
%ADD16C,1.625600*%
%TD*%
%TA.AperFunction,ComponentPad*%
%ADD17R,1.828800X1.828800*%
%TD*%
%TA.AperFunction,ComponentPad*%
%ADD18C,1.828800*%
%TD*%
%TA.AperFunction,ComponentPad*%
%ADD19R,1.905000X2.000000*%
%TD*%
%TA.AperFunction,ComponentPad*%
%ADD20O,1.905000X2.000000*%
%TD*%
%TA.AperFunction,ComponentPad*%
%ADD21R,2.250000X2.250000*%
%TD*%
%TA.AperFunction,ComponentPad*%
%ADD22C,2.250000*%
%TD*%
%TA.AperFunction,ComponentPad*%
%ADD23C,2.000000*%
%TD*%
%TA.AperFunction,ComponentPad*%
%ADD24C,2.800000*%
%TD*%
%TA.AperFunction,ComponentPad*%
%ADD25C,2.600000*%
%TD*%
%TA.AperFunction,ComponentPad*%
%ADD26O,4.200000X2.600000*%
%TD*%
%TA.AperFunction,ComponentPad*%
%ADD27R,1.605000X1.605000*%
%TD*%
%TA.AperFunction,ComponentPad*%
%ADD28C,1.605000*%
%TD*%
%TA.AperFunction,ComponentPad*%
%ADD29R,1.300000X1.300000*%
%TD*%
%TA.AperFunction,ComponentPad*%
%ADD30C,1.300000*%
%TD*%
%TA.AperFunction,ComponentPad*%
%ADD31C,1.371600*%
%TD*%
%TA.AperFunction,ComponentPad*%
%ADD32RoundRect,0.250000X0.550000X0.550000X-0.550000X0.550000X-0.550000X-0.550000X0.550000X-0.550000X0*%
%TD*%
%TA.AperFunction,ComponentPad*%
%ADD33C,1.600000*%
%TD*%
%TA.AperFunction,ComponentPad*%
%ADD34RotRect,2.250000X2.250000X245.000000*%
%TD*%
%TA.AperFunction,ViaPad*%
%ADD35C,0.800000*%
%TD*%
%TA.AperFunction,ViaPad*%
%ADD36C,2.300000*%
%TD*%
%TA.AperFunction,Conductor*%
%ADD37C,2.000000*%
%TD*%
G04 APERTURE END LIST*
D10*
%TO.N,C2000 D *%
%TO.C,U3*%
X87524600Y-95351600D03*
D11*
%TO.N,C2000 D'*%
X84984600Y-95351600D03*
%TO.N,unconnected-(U3-Pad78)*%
X82444600Y-95351600D03*
%TO.N,unconnected-(U3-Pad77)*%
X79904600Y-95351600D03*
%TO.N,unconnected-(U3-Pad76)*%
X77364600Y-95351600D03*
%TO.N,unconnected-(U3-Pad75)*%
X74824600Y-95351600D03*
%TO.N,unconnected-(U3-Pad74)*%
X72284600Y-95351600D03*
%TO.N,unconnected-(U3-Pad73)*%
X69744600Y-95351600D03*
%TO.N,unconnected-(U3-Pad72)*%
X67204600Y-95351600D03*
%TO.N,unconnected-(U3-Pad71)*%
X64664600Y-95351600D03*
%TO.N,/ADCINA0*%
X64664600Y-135991600D03*
%TO.N,/ADCINA12*%
X67204600Y-135991600D03*
%TO.N,unconnected-(U3-Pad68)*%
X69744600Y-135991600D03*
%TO.N,unconnected-(U3-Pad67)*%
X72284600Y-135991600D03*
%TO.N,/ADCINA4*%
X74824600Y-135991600D03*
%TO.N,unconnected-(U3-Pad65)*%
X77364600Y-135991600D03*
%TO.N,unconnected-(U3-Pad64)*%
X79904600Y-135991600D03*
%TO.N,unconnected-(U3-Pad63)*%
X82444600Y-135991600D03*
%TO.N,GND*%
X84984600Y-135991600D03*
%TO.N,unconnected-(U3-Pad61)*%
X87524600Y-135991600D03*
%TO.N,GND*%
X87524600Y-92811600D03*
%TO.N,unconnected-(U3-Pad59)*%
X84984600Y-92811600D03*
%TO.N,unconnected-(U3-Pad58)*%
X82444600Y-92811600D03*
%TO.N,unconnected-(U3-Pad57)*%
X79904600Y-92811600D03*
%TO.N,unconnected-(U3-Pad56)*%
X77364600Y-92811600D03*
%TO.N,unconnected-(U3-Pad55)*%
X74824600Y-92811600D03*
%TO.N,unconnected-(U3-Pad54)*%
X72284600Y-92811600D03*
%TO.N,unconnected-(U3-Pad53)*%
X69744600Y-92811600D03*
%TO.N,unconnected-(U3-Pad52)*%
X67204600Y-92811600D03*
%TO.N,unconnected-(U3-Pad51)*%
X64664600Y-92811600D03*
%TO.N,unconnected-(U3-Pad50)*%
X64664600Y-138531600D03*
%TO.N,unconnected-(U3-Pad49)*%
X67204600Y-138531600D03*
%TO.N,unconnected-(U3-Pad48)*%
X69744600Y-138531600D03*
%TO.N,unconnected-(U3-Pad47)*%
X72284600Y-138531600D03*
%TO.N,unconnected-(U3-Pad46)*%
X74824600Y-138531600D03*
%TO.N,unconnected-(U3-Pad45)*%
X77364600Y-138531600D03*
%TO.N,unconnected-(U3-Pad44)*%
X79904600Y-138531600D03*
%TO.N,unconnected-(U3-Pad43)*%
X82444600Y-138531600D03*
%TO.N,unconnected-(U3-Pad42)*%
X84984600Y-138531600D03*
D10*
%TO.N,+3.3V*%
X87524600Y-138531600D03*
%TD*%
D12*
%TO.N,GND*%
%TO.C,Vout sens*%
X36855400Y-93065600D03*
D13*
%TO.N,Vout_sens*%
X39395400Y-93065600D03*
%TD*%
D14*
%TO.N,Vsw*%
%TO.C,J5*%
X40208200Y-116865400D03*
%TD*%
D15*
%TO.N,Vout*%
%TO.C,RV1*%
X36525200Y-137668000D03*
D16*
%TO.N,GND*%
X44379054Y-136764133D03*
%TD*%
D12*
%TO.N,GND*%
%TO.C,Vout*%
X24104600Y-137947400D03*
D13*
%TO.N,Vout*%
X24104600Y-135407400D03*
%TD*%
D17*
%TO.N,Vout*%
%TO.C,D1*%
X47167800Y-120294400D03*
D18*
%TO.N,GND*%
X47167800Y-138353800D03*
%TD*%
D19*
%TO.N,D*%
%TO.C,Q1*%
X34960000Y-107616105D03*
D20*
%TO.N,Vsw*%
X37500000Y-107616105D03*
%TO.N,GND*%
X40040000Y-107616105D03*
%TD*%
D21*
%TO.N,Vin_Unfused*%
%TO.C,J1*%
X106324400Y-120282000D03*
D22*
X106324400Y-137782000D03*
%TD*%
D19*
%TO.N,D'*%
%TO.C,Q2*%
X34960000Y-113616105D03*
D20*
%TO.N,Vout*%
X37500000Y-113616105D03*
%TO.N,Vsw*%
X40040000Y-113616105D03*
%TD*%
D23*
%TO.N,GND*%
%TO.C,GND*%
X111277400Y-94462600D03*
%TD*%
D14*
%TO.N,/L_in*%
%TO.C,J6*%
X91338400Y-93319600D03*
%TD*%
D12*
%TO.N,GND*%
%TO.C,I_L*%
X31165800Y-130048000D03*
D13*
%TO.N,I_L*%
X33705800Y-130048000D03*
%TD*%
D12*
%TO.N,GND*%
%TO.C,Vin_sens*%
X31165800Y-126974600D03*
D13*
%TO.N,Vin_sens*%
X33705800Y-126974600D03*
%TD*%
D12*
%TO.N,GND*%
%TO.C,Vsw*%
X31165799Y-123850400D03*
D13*
%TO.N,Vsw*%
X33705801Y-123850400D03*
%TD*%
D24*
%TO.N,GND*%
%TO.C,LB1*%
X58293000Y-136601200D03*
X93853000Y-136601200D03*
%TO.N,I_L*%
X60833000Y-134061200D03*
%TO.N,+3.3V*%
X91313000Y-134061200D03*
%TO.N,GND*%
X58293000Y-131521200D03*
D25*
X63373000Y-131521200D03*
%TO.N,+3.3V*%
X88773000Y-131521200D03*
D24*
%TO.N,GND*%
X93853000Y-131521200D03*
%TO.N,Vin_sens*%
X60833000Y-128981200D03*
%TO.N,GND*%
X91313000Y-128981200D03*
X58293000Y-126441200D03*
D26*
X64135000Y-126441200D03*
X88011000Y-126441200D03*
D24*
X93853000Y-126441200D03*
X60833000Y-123901200D03*
X91313000Y-123901200D03*
X58293000Y-121361200D03*
D26*
X64135000Y-121361200D03*
X88011000Y-121361200D03*
D24*
X93853000Y-121361200D03*
X60833000Y-118821200D03*
X91313000Y-118821200D03*
X58293000Y-116281200D03*
D26*
X64135000Y-116281200D03*
X88011000Y-116281200D03*
D24*
X93853000Y-116281200D03*
%TO.N,Vout_sens*%
X60833000Y-113741200D03*
%TO.N,+3.3V*%
X91313000Y-113741200D03*
%TO.N,GND*%
X58293000Y-111201200D03*
D26*
X64135000Y-111201200D03*
X88011000Y-111201200D03*
D24*
X93853000Y-111201200D03*
X60833000Y-108661200D03*
%TO.N,Vin*%
X91313000Y-108661200D03*
%TO.N,GND*%
X58293000Y-106121200D03*
D26*
X64135000Y-106121200D03*
%TO.N,Vin*%
X88011000Y-106121200D03*
D24*
%TO.N,GND*%
X93853000Y-106121200D03*
%TO.N,+12V*%
X60833000Y-103581200D03*
%TO.N,Vin*%
X91313000Y-103581200D03*
%TO.N,GND*%
X58293000Y-101041200D03*
D25*
%TO.N,+12V*%
X63373000Y-101041200D03*
%TO.N,/L_in*%
X88773000Y-101041200D03*
D24*
%TO.N,GND*%
X93853000Y-101041200D03*
%TO.N,+3.3V*%
X60833000Y-98501200D03*
%TO.N,/L_in*%
X91313000Y-98501200D03*
%TO.N,GND*%
X58293000Y-95961200D03*
X93853000Y-95961200D03*
%TD*%
D23*
%TO.N,Vin*%
%TO.C,Vin*%
X104851200Y-94411800D03*
%TD*%
D27*
%TO.N,Vin*%
%TO.C,PS1*%
X107845400Y-104495600D03*
D28*
%TO.N,GND*%
X107845400Y-101955600D03*
%TO.N,+3.3V*%
X107845400Y-99415600D03*
%TD*%
D12*
%TO.N,GND*%
%TO.C,D*%
X31394398Y-93065600D03*
D13*
%TO.N,D*%
X33934400Y-93065600D03*
%TD*%
D23*
%TO.N,Vboot*%
%TO.C,Vboot*%
X22352000Y-124124105D03*
%TD*%
%TO.N,D'*%
%TO.C,D'*%
X22910800Y-131013200D03*
%TD*%
%TO.N,GND*%
%TO.C,GND*%
X25958800Y-127787400D03*
%TD*%
D22*
%TO.N,*%
%TO.C,SW1*%
X32150000Y-97352505D03*
X42850000Y-97352505D03*
D29*
%TO.N,+3.3V*%
X35000000Y-98552505D03*
D30*
%TO.N,SD*%
X37500000Y-98552505D03*
%TO.N,GND*%
X40000000Y-98552505D03*
%TO.N,Net-(D4-A)*%
X40000000Y-96152505D03*
%TO.N,+3.3V*%
X37500000Y-96152505D03*
%TO.N,Net-(D3-A)*%
X35000000Y-96152505D03*
%TD*%
D31*
%TO.N,Vin*%
%TO.C,C6*%
X107442000Y-111476150D03*
%TO.N,GND*%
X107442000Y-116476150D03*
%TD*%
D23*
%TO.N,GND*%
%TO.C,GND*%
X92354400Y-138506200D03*
%TD*%
%TO.N,N/C*%
%TO.C,GND*%
X51816000Y-94310200D03*
%TD*%
D32*
%TO.N,Net-(U1-LO)*%
%TO.C,U1*%
X30405000Y-105746105D03*
D33*
%TO.N,GND*%
X30405000Y-108286105D03*
%TO.N,+12V*%
X30405000Y-110826105D03*
%TO.N,unconnected-(U1-NC-Pad4)*%
X30405000Y-113366105D03*
%TO.N,Vsw*%
X30405000Y-115906105D03*
%TO.N,Vboot*%
X30405000Y-118446105D03*
%TO.N,Net-(U1-HO)*%
X30405000Y-120986105D03*
%TO.N,unconnected-(U1-NC-Pad8)*%
X22785000Y-120986105D03*
%TO.N,+3.3V*%
X22785000Y-118446105D03*
%TO.N,C2000 D'*%
X22785000Y-115906105D03*
%TO.N,SD*%
X22785000Y-113366105D03*
%TO.N,C2000 D *%
X22785000Y-110826105D03*
%TO.N,GND*%
X22785000Y-108286105D03*
%TO.N,unconnected-(U1-NC-Pad14)*%
X22785000Y-105746105D03*
%TD*%
D23*
%TO.N,+3.3V*%
%TO.C,3V3*%
X43332400Y-93014800D03*
%TD*%
D22*
%TO.N,Vin_Unfused*%
%TO.C,F1*%
X101600000Y-117675200D03*
%TO.N,Vin*%
X101600000Y-95075200D03*
%TD*%
D12*
%TO.N,GND*%
%TO.C,C2D*%
X22987000Y-99867105D03*
D13*
%TO.N,C2000 D *%
X22987000Y-102407105D03*
%TD*%
D23*
%TO.N,Vsw*%
%TO.C,Vsw*%
X41706800Y-115087400D03*
%TD*%
D21*
%TO.N,Vout*%
%TO.C,J3*%
X52400200Y-120269600D03*
D22*
X52400200Y-137769600D03*
%TD*%
D34*
%TO.N,GND*%
%TO.C,J4*%
X35676510Y-122194007D03*
D22*
X28280690Y-138054393D03*
%TD*%
D12*
%TO.N,GND*%
%TO.C,C2D'*%
X23114000Y-93771105D03*
D13*
%TO.N,C2000 D'*%
X23114000Y-96311105D03*
%TD*%
D23*
%TO.N,GND*%
%TO.C,GND*%
X46939200Y-112598200D03*
%TD*%
%TO.N,+12V*%
%TO.C,12V*%
X62077600Y-92811600D03*
%TD*%
D31*
%TO.N,Vout*%
%TO.C,C16*%
X42875200Y-127046350D03*
%TO.N,GND*%
X42875200Y-132046350D03*
%TD*%
D27*
%TO.N,Vin*%
%TO.C,PS2*%
X73846900Y-103095986D03*
D28*
%TO.N,GND*%
X71306900Y-103095986D03*
%TO.N,+12V*%
X68766900Y-103095986D03*
%TD*%
D23*
%TO.N,Vin_Unfused*%
%TO.C,Vin_Unfused*%
X99872800Y-137795000D03*
%TD*%
D21*
%TO.N,GND*%
%TO.C,J2*%
X111556800Y-120282000D03*
D22*
X111556800Y-137782000D03*
%TD*%
D35*
%TO.N,+3.3V*%
X24980000Y-107766505D03*
X80848200Y-107467400D03*
D36*
%TO.N,GND*%
X68605600Y-129489200D03*
X72390000Y-129362200D03*
D35*
X78181200Y-109931200D03*
X78079600Y-108585000D03*
%TO.N,C2000 D *%
X32486600Y-103251000D03*
%TO.N,C2000 D'*%
X33680400Y-102401000D03*
%TO.N,Vin_sens*%
X73342614Y-132810450D03*
X75361800Y-113004600D03*
%TO.N,Vout_sens*%
X67919600Y-117678200D03*
X66649600Y-132740400D03*
%TO.N,I_L*%
X70916800Y-115646200D03*
X70205600Y-132943600D03*
%TD*%
D37*
%TO.N,Vsw*%
X37500000Y-107616105D02*
X37500000Y-110423400D01*
X40040000Y-116610696D02*
X39800000Y-116850696D01*
X40040000Y-112963400D02*
X40040000Y-116610696D01*
X37500000Y-110423400D02*
X40040000Y-112963400D01*
%TD*%
%TA.AperFunction,Conductor*%
%TO.N,GND*%
G36*
X42840530Y-91383985D02*
G01*
X42886285Y-91436789D01*
X42896229Y-91505947D01*
X42867204Y-91569503D01*
X42811810Y-91606230D01*
X42795536Y-91611518D01*
X42756403Y-91624233D01*
X42545966Y-91731457D01*
X42452285Y-91799521D01*
X42354890Y-91870283D01*
X42354888Y-91870285D01*
X42354887Y-91870285D01*
X42187885Y-92037287D01*
X42187885Y-92037288D01*
X42187883Y-92037290D01*
X42139576Y-92103779D01*
X42049057Y-92228366D01*
X41941833Y-92438803D01*
X41868846Y-92663431D01*
X41831900Y-92896702D01*
X41831900Y-93132897D01*
X41868846Y-93366168D01*
X41941833Y-93590796D01*
X42042881Y-93789112D01*
X42049057Y-93801233D01*
X42187883Y-93992310D01*
X42354890Y-94159317D01*
X42545967Y-94298143D01*
X42626685Y-94339271D01*
X42756403Y-94405366D01*
X42756405Y-94405366D01*
X42756408Y-94405368D01*
X42826961Y-94428292D01*
X42981031Y-94478353D01*
X43214303Y-94515300D01*
X43214308Y-94515300D01*
X43450497Y-94515300D01*
X43683768Y-94478353D01*
X43703911Y-94471808D01*
X43908392Y-94405368D01*
X44118833Y-94298143D01*
X44264785Y-94192102D01*
X50315500Y-94192102D01*
X50315500Y-94428297D01*
X50352446Y-94661568D01*
X50425433Y-94886196D01*
X50527389Y-95086294D01*
X50532657Y-95096633D01*
X50671483Y-95287710D01*
X50838490Y-95454717D01*
X51029567Y-95593543D01*
X51128991Y-95644202D01*
X51240003Y-95700766D01*
X51240005Y-95700766D01*
X51240008Y-95700768D01*
X51271093Y-95710868D01*
X51464631Y-95773753D01*
X51697903Y-95810700D01*
X51697908Y-95810700D01*
X51934097Y-95810700D01*
X52167368Y-95773753D01*
X52188056Y-95767031D01*
X52391992Y-95700768D01*
X52602433Y-95593543D01*
X52793510Y-95454717D01*
X52960517Y-95287710D01*
X53099343Y-95096633D01*
X53206568Y-94886192D01*
X53279553Y-94661568D01*
X53282370Y-94643782D01*
X53316500Y-94428297D01*
X53316500Y-94192102D01*
X53279553Y-93958831D01*
X53217992Y-93769368D01*
X53206568Y-93734208D01*
X53206566Y-93734205D01*
X53206566Y-93734203D01*
X53137183Y-93598033D01*
X53099343Y-93523767D01*
X52960517Y-93332690D01*
X52793510Y-93165683D01*
X52602433Y-93026857D01*
X52591393Y-93021232D01*
X52391996Y-92919633D01*
X52167368Y-92846646D01*
X51934097Y-92809700D01*
X51934092Y-92809700D01*
X51697908Y-92809700D01*
X51697903Y-92809700D01*
X51464631Y-92846646D01*
X51240003Y-92919633D01*
X51029566Y-93026857D01*
X50981190Y-93062005D01*
X50838490Y-93165683D01*
X50838488Y-93165685D01*
X50838487Y-93165685D01*
X50671485Y-93332687D01*
X50671485Y-93332688D01*
X50671483Y-93332690D01*
X50613210Y-93412896D01*
X50532657Y-93523766D01*
X50425433Y-93734203D01*
X50352446Y-93958831D01*
X50315500Y-94192102D01*
X44264785Y-94192102D01*
X44309910Y-94159317D01*
X44476917Y-93992310D01*
X44615743Y-93801233D01*
X44722968Y-93590792D01*
X44795953Y-93366168D01*
X44801680Y-93330012D01*
X44832900Y-93132897D01*
X44832900Y-92896702D01*
X44795953Y-92663431D01*
X44729929Y-92460232D01*
X44722968Y-92438808D01*
X44722966Y-92438805D01*
X44722966Y-92438803D01*
X44635413Y-92266972D01*
X44615743Y-92228367D01*
X44476917Y-92037290D01*
X44309910Y-91870283D01*
X44118833Y-91731457D01*
X44048399Y-91695569D01*
X43908396Y-91624233D01*
X43878715Y-91614589D01*
X43852989Y-91606230D01*
X43795315Y-91566793D01*
X43768117Y-91502434D01*
X43780032Y-91433588D01*
X43827276Y-91382112D01*
X43891309Y-91364300D01*
X61135202Y-91364300D01*
X61202241Y-91383985D01*
X61247996Y-91436789D01*
X61257940Y-91505947D01*
X61228915Y-91569503D01*
X61208090Y-91588616D01*
X61100090Y-91667083D01*
X61100088Y-91667085D01*
X61100087Y-91667085D01*
X60933085Y-91834087D01*
X60933085Y-91834088D01*
X60933083Y-91834090D01*
X60906787Y-91870283D01*
X60794257Y-92025166D01*
X60687033Y-92235603D01*
X60614046Y-92460231D01*
X60577100Y-92693502D01*
X60577100Y-92929697D01*
X60614046Y-93162968D01*
X60687033Y-93387596D01*
X60790570Y-93590796D01*
X60794257Y-93598033D01*
X60933083Y-93789110D01*
X61100090Y-93956117D01*
X61291167Y-94094943D01*
X61323421Y-94111377D01*
X61501603Y-94202166D01*
X61501605Y-94202166D01*
X61501608Y-94202168D01*
X61566501Y-94223253D01*
X61726231Y-94275153D01*
X61959503Y-94312100D01*
X61959508Y-94312100D01*
X62195697Y-94312100D01*
X62428968Y-94275153D01*
X62653592Y-94202168D01*
X62864033Y-94094943D01*
X63055110Y-93956117D01*
X63222117Y-93789110D01*
X63360943Y-93598033D01*
X63360943Y-93598031D01*
X63363487Y-93594531D01*
X63418817Y-93551866D01*
X63488431Y-93545887D01*
X63550225Y-93578493D01*
X63564121Y-93594529D01*
X63598893Y-93642388D01*
X63634496Y-93691392D01*
X63784813Y-93841709D01*
X63956782Y-93966650D01*
X63965546Y-93971116D01*
X64016342Y-94019091D01*
X64033136Y-94086912D01*
X64010598Y-94153047D01*
X63965546Y-94192084D01*
X63956782Y-94196549D01*
X63784813Y-94321490D01*
X63634490Y-94471813D01*
X63509551Y-94643779D01*
X63413044Y-94833185D01*
X63347353Y-95035360D01*
X63314100Y-95245313D01*
X63314100Y-95457881D01*
X63314099Y-95457884D01*
X63339792Y-95620100D01*
X63347354Y-95667843D01*
X63405271Y-95846093D01*
X63413044Y-95870014D01*
X63509551Y-96059420D01*
X63634490Y-96231386D01*
X63784813Y-96381709D01*
X63956779Y-96506648D01*
X63956781Y-96506649D01*
X63956784Y-96506651D01*
X64146188Y-96603157D01*
X64348357Y-96668846D01*
X64558313Y-96702100D01*
X64558314Y-96702100D01*
X64770886Y-96702100D01*
X64770887Y-96702100D01*
X64980843Y-96668846D01*
X65183012Y-96603157D01*
X65372416Y-96506651D01*
X65458738Y-96443935D01*
X65544386Y-96381709D01*
X65544388Y-96381706D01*
X65544392Y-96381704D01*
X65694704Y-96231392D01*
X65694706Y-96231388D01*
X65694709Y-96231386D01*
X65819648Y-96059420D01*
X65819647Y-96059420D01*
X65819651Y-96059416D01*
X65824114Y-96050654D01*
X65872088Y-95999859D01*
X65939908Y-95983063D01*
X66006044Y-96005599D01*
X66045084Y-96050654D01*
X66049191Y-96058715D01*
X66049551Y-96059420D01*
X66174490Y-96231386D01*
X66324813Y-96381709D01*
X66496779Y-96506648D01*
X66496781Y-96506649D01*
X66496784Y-96506651D01*
X66686188Y-96603157D01*
X66888357Y-96668846D01*
X67098313Y-96702100D01*
X67098314Y-96702100D01*
X67310886Y-96702100D01*
X67310887Y-96702100D01*
X67520843Y-96668846D01*
X67723012Y-96603157D01*
X67912416Y-96506651D01*
X67998738Y-96443935D01*
X68084386Y-96381709D01*
X68084388Y-96381706D01*
X68084392Y-96381704D01*
X68234704Y-96231392D01*
X68234706Y-96231388D01*
X68234709Y-96231386D01*
X68359648Y-96059420D01*
X68359647Y-96059420D01*
X68359651Y-96059416D01*
X68364114Y-96050654D01*
X68412088Y-95999859D01*
X68479908Y-95983063D01*
X68546044Y-96005599D01*
X68585084Y-96050654D01*
X68589191Y-96058715D01*
X68589551Y-96059420D01*
X68714490Y-96231386D01*
X68864813Y-96381709D01*
X69036779Y-96506648D01*
X69036781Y-96506649D01*
X69036784Y-96506651D01*
X69226188Y-96603157D01*
X69428357Y-96668846D01*
X69638313Y-96702100D01*
X69638314Y-96702100D01*
X69850886Y-96702100D01*
X69850887Y-96702100D01*
X70060843Y-96668846D01*
X70263012Y-96603157D01*
X70452416Y-96506651D01*
X70538738Y-96443935D01*
X70624386Y-96381709D01*
X70624388Y-96381706D01*
X70624392Y-96381704D01*
X70774704Y-96231392D01*
X70774706Y-96231388D01*
X70774709Y-96231386D01*
X70899648Y-96059420D01*
X70899647Y-96059420D01*
X70899651Y-96059416D01*
X70904114Y-96050654D01*
X70952088Y-95999859D01*
X71019908Y-95983063D01*
X71086044Y-96005599D01*
X71125084Y-96050654D01*
X71129191Y-96058715D01*
X71129551Y-96059420D01*
X71254490Y-96231386D01*
X71404813Y-96381709D01*
X71576779Y-96506648D01*
X71576781Y-96506649D01*
X71576784Y-96506651D01*
X71766188Y-96603157D01*
X71968357Y-96668846D01*
X72178313Y-96702100D01*
X72178314Y-96702100D01*
X72390886Y-96702100D01*
X72390887Y-96702100D01*
X72600843Y-96668846D01*
X72803012Y-96603157D01*
X72992416Y-96506651D01*
X73078738Y-96443935D01*
X73164386Y-96381709D01*
X73164388Y-96381706D01*
X73164392Y-96381704D01*
X73314704Y-96231392D01*
X73314706Y-96231388D01*
X73314709Y-96231386D01*
X73439648Y-96059420D01*
X73439647Y-96059420D01*
X73439651Y-96059416D01*
X73444114Y-96050654D01*
X73492088Y-95999859D01*
X73559908Y-95983063D01*
X73626044Y-96005599D01*
X73665084Y-96050654D01*
X73669191Y-96058715D01*
X73669551Y-96059420D01*
X73794490Y-96231386D01*
X73944813Y-96381709D01*
X74116779Y-96506648D01*
X74116781Y-96506649D01*
X74116784Y-96506651D01*
X74306188Y-96603157D01*
X74508357Y-96668846D01*
X74718313Y-96702100D01*
X74718314Y-96702100D01*
X74930886Y-96702100D01*
X74930887Y-96702100D01*
X75140843Y-96668846D01*
X75343012Y-96603157D01*
X75532416Y-96506651D01*
X75618738Y-96443935D01*
X75704386Y-96381709D01*
X75704388Y-96381706D01*
X75704392Y-96381704D01*
X75854704Y-96231392D01*
X75854706Y-96231388D01*
X75854709Y-96231386D01*
X75979648Y-96059420D01*
X75979647Y-96059420D01*
X75979651Y-96059416D01*
X75984114Y-96050654D01*
X76032088Y-95999859D01*
X76099908Y-95983063D01*
X76166044Y-96005599D01*
X76205084Y-96050654D01*
X76209191Y-96058715D01*
X76209551Y-96059420D01*
X76334490Y-96231386D01*
X76484813Y-96381709D01*
X76656779Y-96506648D01*
X76656781Y-96506649D01*
X76656784Y-96506651D01*
X76846188Y-96603157D01*
X77048357Y-96668846D01*
X77258313Y-96702100D01*
X77258314Y-96702100D01*
X77470886Y-96702100D01*
X77470887Y-96702100D01*
X77680843Y-96668846D01*
X77883012Y-96603157D01*
X78072416Y-96506651D01*
X78158738Y-96443935D01*
X78244386Y-96381709D01*
X78244388Y-96381706D01*
X78244392Y-96381704D01*
X78394704Y-96231392D01*
X78394706Y-96231388D01*
X78394709Y-96231386D01*
X78519648Y-96059420D01*
X78519647Y-96059420D01*
X78519651Y-96059416D01*
X78524114Y-96050654D01*
X78572088Y-95999859D01*
X78639908Y-95983063D01*
X78706044Y-96005599D01*
X78745084Y-96050654D01*
X78749191Y-96058715D01*
X78749551Y-96059420D01*
X78874490Y-96231386D01*
X79024813Y-96381709D01*
X79196779Y-96506648D01*
X79196781Y-96506649D01*
X79196784Y-96506651D01*
X79386188Y-96603157D01*
X79588357Y-96668846D01*
X79798313Y-96702100D01*
X79798314Y-96702100D01*
X80010886Y-96702100D01*
X80010887Y-96702100D01*
X80220843Y-96668846D01*
X80423012Y-96603157D01*
X80612416Y-96506651D01*
X80698738Y-96443935D01*
X80784386Y-96381709D01*
X80784388Y-96381706D01*
X80784392Y-96381704D01*
X80934704Y-96231392D01*
X80934706Y-96231388D01*
X80934709Y-96231386D01*
X81059648Y-96059420D01*
X81059647Y-96059420D01*
X81059651Y-96059416D01*
X81064114Y-96050654D01*
X81112088Y-95999859D01*
X81179908Y-95983063D01*
X81246044Y-96005599D01*
X81285084Y-96050654D01*
X81289191Y-96058715D01*
X81289551Y-96059420D01*
X81414490Y-96231386D01*
X81564813Y-96381709D01*
X81736779Y-96506648D01*
X81736781Y-96506649D01*
X81736784Y-96506651D01*
X81926188Y-96603157D01*
X82128357Y-96668846D01*
X82338313Y-96702100D01*
X82338314Y-96702100D01*
X82550886Y-96702100D01*
X82550887Y-96702100D01*
X82760843Y-96668846D01*
X82963012Y-96603157D01*
X83152416Y-96506651D01*
X83238738Y-96443935D01*
X83324386Y-96381709D01*
X83324388Y-96381706D01*
X83324392Y-96381704D01*
X83474704Y-96231392D01*
X83474706Y-96231388D01*
X83474709Y-96231386D01*
X83599648Y-96059420D01*
X83599647Y-96059420D01*
X83599651Y-96059416D01*
X83604114Y-96050654D01*
X83652088Y-95999859D01*
X83719908Y-95983063D01*
X83786044Y-96005599D01*
X83825084Y-96050654D01*
X83829191Y-96058715D01*
X83829551Y-96059420D01*
X83954490Y-96231386D01*
X84104813Y-96381709D01*
X84276779Y-96506648D01*
X84276781Y-96506649D01*
X84276784Y-96506651D01*
X84466188Y-96603157D01*
X84668357Y-96668846D01*
X84878313Y-96702100D01*
X84878314Y-96702100D01*
X85090886Y-96702100D01*
X85090887Y-96702100D01*
X85300843Y-96668846D01*
X85503012Y-96603157D01*
X85692416Y-96506651D01*
X85864392Y-96381704D01*
X85977929Y-96268166D01*
X86039248Y-96234684D01*
X86108940Y-96239668D01*
X86164874Y-96281539D01*
X86181789Y-96312517D01*
X86230802Y-96443928D01*
X86230806Y-96443935D01*
X86317052Y-96559144D01*
X86317055Y-96559147D01*
X86432264Y-96645393D01*
X86432271Y-96645397D01*
X86567117Y-96695691D01*
X86567116Y-96695691D01*
X86574044Y-96696435D01*
X86626727Y-96702100D01*
X88422472Y-96702099D01*
X88482083Y-96695691D01*
X88616931Y-96645396D01*
X88732146Y-96559146D01*
X88818396Y-96443931D01*
X88868691Y-96309083D01*
X88875100Y-96249473D01*
X88875099Y-94453728D01*
X88868691Y-94394117D01*
X88867410Y-94390683D01*
X88818397Y-94259271D01*
X88818393Y-94259264D01*
X88732147Y-94144055D01*
X88732144Y-94144052D01*
X88616935Y-94057806D01*
X88616928Y-94057802D01*
X88482082Y-94007508D01*
X88482083Y-94007508D01*
X88422483Y-94001101D01*
X88422481Y-94001100D01*
X88422473Y-94001100D01*
X88422464Y-94001100D01*
X86626729Y-94001100D01*
X86626723Y-94001101D01*
X86567116Y-94007508D01*
X86432271Y-94057802D01*
X86432264Y-94057806D01*
X86317055Y-94144052D01*
X86317052Y-94144055D01*
X86230806Y-94259264D01*
X86230803Y-94259269D01*
X86181789Y-94390683D01*
X86139917Y-94446616D01*
X86074453Y-94471033D01*
X86006180Y-94456181D01*
X85977926Y-94435030D01*
X85864386Y-94321490D01*
X85692420Y-94196551D01*
X85691715Y-94196191D01*
X85683654Y-94192085D01*
X85632859Y-94144112D01*
X85616063Y-94076292D01*
X85638599Y-94010156D01*
X85683654Y-93971115D01*
X85692416Y-93966651D01*
X85827680Y-93868377D01*
X85864386Y-93841709D01*
X85864388Y-93841706D01*
X85864392Y-93841704D01*
X86014704Y-93691392D01*
X86014706Y-93691388D01*
X86014709Y-93691386D01*
X86136490Y-93523767D01*
X86139651Y-93519416D01*
X86236157Y-93330012D01*
X86301846Y-93127843D01*
X86335100Y-92917887D01*
X86335100Y-92705313D01*
X86301846Y-92495357D01*
X86236157Y-92293188D01*
X86139651Y-92103784D01*
X86139649Y-92103781D01*
X86139648Y-92103779D01*
X86014709Y-91931813D01*
X85864386Y-91781490D01*
X85692419Y-91656551D01*
X85692418Y-91656550D01*
X85692416Y-91656549D01*
X85579048Y-91598785D01*
X85528252Y-91550810D01*
X85511457Y-91482989D01*
X85533994Y-91416854D01*
X85588710Y-91373403D01*
X85635343Y-91364300D01*
X89742319Y-91364300D01*
X89809358Y-91383985D01*
X89855113Y-91436789D01*
X89865057Y-91505947D01*
X89836032Y-91569503D01*
X89821232Y-91583446D01*
X89821371Y-91583605D01*
X89818314Y-91586285D01*
X89605085Y-91799514D01*
X89605079Y-91799521D01*
X89421499Y-92038768D01*
X89270718Y-92299928D01*
X89270714Y-92299938D01*
X89155313Y-92578539D01*
X89077261Y-92869833D01*
X89037901Y-93168806D01*
X89037900Y-93168823D01*
X89037900Y-93470376D01*
X89037901Y-93470393D01*
X89077261Y-93769366D01*
X89155313Y-94060660D01*
X89270714Y-94339261D01*
X89270718Y-94339271D01*
X89421499Y-94600431D01*
X89605079Y-94839678D01*
X89605085Y-94839685D01*
X89818314Y-95052914D01*
X89818321Y-95052920D01*
X90057568Y-95236500D01*
X90318728Y-95387281D01*
X90318729Y-95387281D01*
X90318732Y-95387283D01*
X90481525Y-95454714D01*
X90597339Y-95502686D01*
X90597340Y-95502686D01*
X90597342Y-95502687D01*
X90888632Y-95580738D01*
X91187617Y-95620100D01*
X91187624Y-95620100D01*
X91489176Y-95620100D01*
X91489183Y-95620100D01*
X91788168Y-95580738D01*
X92079458Y-95502687D01*
X92358068Y-95387283D01*
X92619232Y-95236500D01*
X92858480Y-95052919D01*
X92935621Y-94975778D01*
X92964129Y-94947270D01*
X99974500Y-94947270D01*
X99974500Y-95203130D01*
X99979976Y-95237702D01*
X100014526Y-95455840D01*
X100093588Y-95699172D01*
X100093589Y-95699175D01*
X100150415Y-95810700D01*
X100204532Y-95916911D01*
X100209750Y-95927150D01*
X100360132Y-96134135D01*
X100360136Y-96134140D01*
X100541059Y-96315063D01*
X100541064Y-96315067D01*
X100654822Y-96397716D01*
X100748053Y-96465452D01*
X100897080Y-96541385D01*
X100976024Y-96581610D01*
X100976027Y-96581611D01*
X101042334Y-96603155D01*
X101219361Y-96660674D01*
X101472070Y-96700700D01*
X101472071Y-96700700D01*
X101727929Y-96700700D01*
X101727930Y-96700700D01*
X101980639Y-96660674D01*
X102223975Y-96581610D01*
X102451947Y-96465452D01*
X102658942Y-96315062D01*
X102839862Y-96134142D01*
X102990252Y-95927147D01*
X103106410Y-95699175D01*
X103185474Y-95455839D01*
X103225500Y-95203130D01*
X103225500Y-95042817D01*
X103245185Y-94975778D01*
X103297989Y-94930023D01*
X103367147Y-94920079D01*
X103430703Y-94949104D01*
X103459985Y-94986522D01*
X103460631Y-94987791D01*
X103460632Y-94987792D01*
X103567857Y-95198233D01*
X103706683Y-95389310D01*
X103873690Y-95556317D01*
X104064767Y-95695143D01*
X104164191Y-95745802D01*
X104275203Y-95802366D01*
X104275205Y-95802366D01*
X104275208Y-95802368D01*
X104395612Y-95841489D01*
X104499831Y-95875353D01*
X104733103Y-95912300D01*
X104733108Y-95912300D01*
X104969297Y-95912300D01*
X105202568Y-95875353D01*
X105219006Y-95870012D01*
X105427192Y-95802368D01*
X105637633Y-95695143D01*
X105828710Y-95556317D01*
X105995717Y-95389310D01*
X106134543Y-95198233D01*
X106241768Y-94987792D01*
X106314753Y-94763168D01*
X106322953Y-94711394D01*
X106351700Y-94529897D01*
X106351700Y-94293702D01*
X106314753Y-94060431D01*
X106264253Y-93905011D01*
X106241768Y-93835808D01*
X106241766Y-93835805D01*
X106241766Y-93835803D01*
X106163954Y-93683089D01*
X106134543Y-93625367D01*
X105995717Y-93434290D01*
X105828710Y-93267283D01*
X105637633Y-93128457D01*
X105636420Y-93127839D01*
X105427196Y-93021233D01*
X105202568Y-92948246D01*
X104969297Y-92911300D01*
X104969292Y-92911300D01*
X104733108Y-92911300D01*
X104733103Y-92911300D01*
X104499831Y-92948246D01*
X104275203Y-93021233D01*
X104064766Y-93128457D01*
X104009216Y-93168817D01*
X103873690Y-93267283D01*
X103873688Y-93267285D01*
X103873687Y-93267285D01*
X103706685Y-93434287D01*
X103706685Y-93434288D01*
X103706683Y-93434290D01*
X103658041Y-93501240D01*
X103567857Y-93625366D01*
X103460633Y-93835803D01*
X103387646Y-94060431D01*
X103350700Y-94293702D01*
X103350700Y-94420166D01*
X103331015Y-94487205D01*
X103278211Y-94532960D01*
X103209053Y-94542904D01*
X103145497Y-94513879D01*
X103108769Y-94458485D01*
X103108020Y-94456181D01*
X103106410Y-94451225D01*
X103106409Y-94451224D01*
X103106410Y-94451224D01*
X103049361Y-94339261D01*
X102990252Y-94223253D01*
X102967608Y-94192086D01*
X102839867Y-94016264D01*
X102839863Y-94016259D01*
X102658940Y-93835336D01*
X102658935Y-93835332D01*
X102451950Y-93684950D01*
X102451949Y-93684949D01*
X102451947Y-93684948D01*
X102368419Y-93642388D01*
X102223975Y-93568789D01*
X102223972Y-93568788D01*
X101980640Y-93489726D01*
X101792070Y-93459859D01*
X101727930Y-93449700D01*
X101472070Y-93449700D01*
X101407930Y-93459859D01*
X101219359Y-93489726D01*
X100976027Y-93568788D01*
X100976024Y-93568789D01*
X100748049Y-93684950D01*
X100541064Y-93835332D01*
X100541059Y-93835336D01*
X100360136Y-94016259D01*
X100360132Y-94016264D01*
X100209750Y-94223249D01*
X100093589Y-94451224D01*
X100093588Y-94451227D01*
X100014526Y-94694559D01*
X100014526Y-94694561D01*
X99974500Y-94947270D01*
X92964129Y-94947270D01*
X93056683Y-94854717D01*
X93071714Y-94839685D01*
X93071719Y-94839680D01*
X93255300Y-94600432D01*
X93406083Y-94339268D01*
X93521487Y-94060658D01*
X93599538Y-93769368D01*
X93638900Y-93470383D01*
X93638900Y-93168817D01*
X93599538Y-92869832D01*
X93521487Y-92578542D01*
X93406083Y-92299932D01*
X93402189Y-92293188D01*
X93255300Y-92038768D01*
X93071720Y-91799521D01*
X93071714Y-91799514D01*
X92858485Y-91586285D01*
X92855429Y-91583605D01*
X92856152Y-91582779D01*
X92817796Y-91530258D01*
X92813635Y-91460513D01*
X92847841Y-91399589D01*
X92909556Y-91366831D01*
X92934481Y-91364300D01*
X110011524Y-91364300D01*
X110017607Y-91364449D01*
X110323027Y-91379451D01*
X110329789Y-91379972D01*
X110395382Y-91386865D01*
X110400499Y-91387514D01*
X110669469Y-91427409D01*
X110676999Y-91428766D01*
X110735864Y-91441278D01*
X110740111Y-91442261D01*
X111010290Y-91509936D01*
X111018449Y-91512280D01*
X111036382Y-91518107D01*
X111064949Y-91527389D01*
X111068401Y-91528566D01*
X111130568Y-91550810D01*
X111341762Y-91626375D01*
X111350422Y-91629847D01*
X111376533Y-91641472D01*
X111379115Y-91642657D01*
X111658727Y-91774902D01*
X111669459Y-91780638D01*
X111953582Y-91950933D01*
X111963700Y-91957694D01*
X112086506Y-92048772D01*
X112229758Y-92155014D01*
X112239157Y-92162728D01*
X112444317Y-92348672D01*
X112484592Y-92385175D01*
X112493197Y-92393779D01*
X112715652Y-92639219D01*
X112723372Y-92648626D01*
X112920696Y-92914685D01*
X112927456Y-92924803D01*
X113097745Y-93208910D01*
X113103482Y-93219642D01*
X113235447Y-93498657D01*
X113236632Y-93501240D01*
X113248619Y-93528164D01*
X113252084Y-93536808D01*
X113342360Y-93789110D01*
X113349591Y-93809319D01*
X113350771Y-93812777D01*
X113366176Y-93860191D01*
X113368528Y-93868377D01*
X113435973Y-94137628D01*
X113436980Y-94141979D01*
X113449673Y-94201701D01*
X113451040Y-94209285D01*
X113490783Y-94477201D01*
X113491446Y-94482438D01*
X113498442Y-94549019D01*
X113498972Y-94555892D01*
X113513925Y-94860238D01*
X113514074Y-94866323D01*
X113514074Y-136496947D01*
X113513925Y-136503032D01*
X113498905Y-136808757D01*
X113498375Y-136815634D01*
X113491580Y-136880282D01*
X113490917Y-136885515D01*
X113450915Y-137155184D01*
X113449548Y-137162768D01*
X113437239Y-137220681D01*
X113436232Y-137225032D01*
X113368364Y-137495969D01*
X113366011Y-137504157D01*
X113351189Y-137549774D01*
X113350010Y-137553230D01*
X113251913Y-137827395D01*
X113248441Y-137836056D01*
X113237244Y-137861205D01*
X113236059Y-137863787D01*
X113103459Y-138144145D01*
X113097722Y-138154877D01*
X112927435Y-138438982D01*
X112920674Y-138449100D01*
X112723351Y-138715157D01*
X112715632Y-138724564D01*
X112493179Y-138970002D01*
X112484574Y-138978606D01*
X112239145Y-139201048D01*
X112229738Y-139208768D01*
X111963686Y-139406083D01*
X111953568Y-139412844D01*
X111669447Y-139583138D01*
X111658715Y-139588874D01*
X111378376Y-139721462D01*
X111375796Y-139722646D01*
X111350641Y-139733846D01*
X111341978Y-139737319D01*
X111067813Y-139835414D01*
X111064358Y-139836593D01*
X111018713Y-139851424D01*
X111010524Y-139853777D01*
X110739620Y-139921633D01*
X110735272Y-139922639D01*
X110677339Y-139934953D01*
X110669751Y-139936321D01*
X110400087Y-139976319D01*
X110394857Y-139976982D01*
X110330213Y-139983777D01*
X110323334Y-139984307D01*
X110050366Y-139997715D01*
X110017077Y-139999351D01*
X110010995Y-139999500D01*
X88756915Y-139999500D01*
X88689876Y-139979815D01*
X88644121Y-139927011D01*
X88634177Y-139857853D01*
X88663202Y-139794297D01*
X88682603Y-139776234D01*
X88685867Y-139773790D01*
X88732146Y-139739146D01*
X88818396Y-139623931D01*
X88868691Y-139489083D01*
X88875100Y-139429473D01*
X88875099Y-137676902D01*
X98372300Y-137676902D01*
X98372300Y-137913097D01*
X98409246Y-138146368D01*
X98482233Y-138370996D01*
X98589457Y-138581433D01*
X98728283Y-138772510D01*
X98895290Y-138939517D01*
X99086367Y-139078343D01*
X99122646Y-139096828D01*
X99296803Y-139185566D01*
X99296805Y-139185566D01*
X99296808Y-139185568D01*
X99368210Y-139208768D01*
X99521431Y-139258553D01*
X99754703Y-139295500D01*
X99754708Y-139295500D01*
X99990897Y-139295500D01*
X100224168Y-139258553D01*
X100283065Y-139239416D01*
X100448792Y-139185568D01*
X100659233Y-139078343D01*
X100850310Y-138939517D01*
X101017317Y-138772510D01*
X101156143Y-138581433D01*
X101263368Y-138370992D01*
X101336353Y-138146368D01*
X101344772Y-138093213D01*
X101373300Y-137913097D01*
X101373300Y-137676906D01*
X101371984Y-137668599D01*
X101371984Y-137668596D01*
X101369683Y-137654070D01*
X104698900Y-137654070D01*
X104698900Y-137909929D01*
X104738926Y-138162640D01*
X104817988Y-138405972D01*
X104817989Y-138405975D01*
X104863105Y-138494518D01*
X104927831Y-138621550D01*
X104934150Y-138633950D01*
X105084532Y-138840935D01*
X105084536Y-138840940D01*
X105265459Y-139021863D01*
X105265464Y-139021867D01*
X105368640Y-139096828D01*
X105472453Y-139172252D01*
X105572646Y-139223303D01*
X105700424Y-139288410D01*
X105700427Y-139288411D01*
X105822093Y-139327942D01*
X105943761Y-139367474D01*
X106196470Y-139407500D01*
X106196471Y-139407500D01*
X106452329Y-139407500D01*
X106452330Y-139407500D01*
X106705039Y-139367474D01*
X106948375Y-139288410D01*
X107176347Y-139172252D01*
X107383342Y-139021862D01*
X107564262Y-138840942D01*
X107714652Y-138633947D01*
X107830810Y-138405975D01*
X107909874Y-138162639D01*
X107949900Y-137909930D01*
X107949900Y-137654070D01*
X107909874Y-137401361D01*
X107851168Y-137220681D01*
X107830811Y-137158027D01*
X107830810Y-137158024D01*
X107761353Y-137021709D01*
X107714652Y-136930053D01*
X107672825Y-136872483D01*
X107564267Y-136723064D01*
X107564263Y-136723059D01*
X107383340Y-136542136D01*
X107383335Y-136542132D01*
X107176350Y-136391750D01*
X107176349Y-136391749D01*
X107176347Y-136391748D01*
X107103310Y-136354533D01*
X106948375Y-136275589D01*
X106948372Y-136275588D01*
X106705040Y-136196526D01*
X106578684Y-136176513D01*
X106452330Y-136156500D01*
X106196470Y-136156500D01*
X106112233Y-136169842D01*
X105943759Y-136196526D01*
X105700427Y-136275588D01*
X105700424Y-136275589D01*
X105472449Y-136391750D01*
X105265464Y-136542132D01*
X105265459Y-136542136D01*
X105084536Y-136723059D01*
X105084532Y-136723064D01*
X104934150Y-136930049D01*
X104817989Y-137158024D01*
X104817988Y-137158027D01*
X104738926Y-137401359D01*
X104698900Y-137654070D01*
X101369683Y-137654070D01*
X101336353Y-137443631D01*
X101283200Y-137280044D01*
X101263368Y-137219008D01*
X101263366Y-137219005D01*
X101263366Y-137219003D01*
X101162839Y-137021709D01*
X101156143Y-137008567D01*
X101017317Y-136817490D01*
X100850310Y-136650483D01*
X100659233Y-136511657D01*
X100656005Y-136510012D01*
X100448796Y-136404433D01*
X100224168Y-136331446D01*
X99990897Y-136294500D01*
X99990892Y-136294500D01*
X99754708Y-136294500D01*
X99754703Y-136294500D01*
X99521431Y-136331446D01*
X99296803Y-136404433D01*
X99086366Y-136511657D01*
X98977350Y-136590862D01*
X98895290Y-136650483D01*
X98895288Y-136650485D01*
X98895287Y-136650485D01*
X98728285Y-136817487D01*
X98728285Y-136817488D01*
X98728283Y-136817490D01*
X98682662Y-136880282D01*
X98589457Y-137008566D01*
X98482233Y-137219003D01*
X98409246Y-137443631D01*
X98372300Y-137676902D01*
X88875099Y-137676902D01*
X88875099Y-137633728D01*
X88868691Y-137574117D01*
X88867410Y-137570683D01*
X88818397Y-137439271D01*
X88818393Y-137439264D01*
X88732147Y-137324055D01*
X88732144Y-137324052D01*
X88616935Y-137237806D01*
X88616928Y-137237802D01*
X88485517Y-137188789D01*
X88429583Y-137146918D01*
X88405166Y-137081453D01*
X88420018Y-137013180D01*
X88441163Y-136984932D01*
X88554704Y-136871392D01*
X88576436Y-136841481D01*
X88671479Y-136710664D01*
X88679651Y-136699416D01*
X88776157Y-136510012D01*
X88841846Y-136307843D01*
X88875100Y-136097887D01*
X88875100Y-135885313D01*
X88841846Y-135675357D01*
X88776157Y-135473188D01*
X88679651Y-135283784D01*
X88679649Y-135283781D01*
X88679648Y-135283779D01*
X88554709Y-135111813D01*
X88404386Y-134961490D01*
X88232420Y-134836551D01*
X88043014Y-134740044D01*
X88043013Y-134740043D01*
X88043012Y-134740043D01*
X87840843Y-134674354D01*
X87840841Y-134674353D01*
X87840840Y-134674353D01*
X87679557Y-134648808D01*
X87630887Y-134641100D01*
X87418313Y-134641100D01*
X87369642Y-134648808D01*
X87208360Y-134674353D01*
X87006185Y-134740044D01*
X86816779Y-134836551D01*
X86644813Y-134961490D01*
X86494490Y-135111813D01*
X86369551Y-135283779D01*
X86273044Y-135473185D01*
X86273043Y-135473187D01*
X86273043Y-135473188D01*
X86266277Y-135494011D01*
X86207353Y-135675360D01*
X86192464Y-135769369D01*
X86174100Y-135885313D01*
X86174100Y-136097887D01*
X86183383Y-136156500D01*
X86205240Y-136294500D01*
X86207354Y-136307843D01*
X86269627Y-136499500D01*
X86273044Y-136510014D01*
X86369551Y-136699420D01*
X86494490Y-136871386D01*
X86608030Y-136984926D01*
X86641515Y-137046249D01*
X86636531Y-137115941D01*
X86594659Y-137171874D01*
X86563683Y-137188789D01*
X86432269Y-137237803D01*
X86432264Y-137237806D01*
X86317055Y-137324052D01*
X86317052Y-137324055D01*
X86230806Y-137439264D01*
X86230803Y-137439269D01*
X86181789Y-137570683D01*
X86139917Y-137626616D01*
X86074453Y-137651033D01*
X86006180Y-137636181D01*
X85977926Y-137615030D01*
X85864386Y-137501490D01*
X85692420Y-137376551D01*
X85503014Y-137280044D01*
X85503013Y-137280043D01*
X85503012Y-137280043D01*
X85300843Y-137214354D01*
X85300841Y-137214353D01*
X85300840Y-137214353D01*
X85139433Y-137188789D01*
X85090887Y-137181100D01*
X84878313Y-137181100D01*
X84829767Y-137188789D01*
X84668360Y-137214353D01*
X84466185Y-137280044D01*
X84276779Y-137376551D01*
X84104813Y-137501490D01*
X83954490Y-137651813D01*
X83829549Y-137823782D01*
X83825084Y-137832546D01*
X83777109Y-137883342D01*
X83709288Y-137900136D01*
X83643153Y-137877598D01*
X83604116Y-137832546D01*
X83599650Y-137823782D01*
X83474709Y-137651813D01*
X83324386Y-137501490D01*
X83152420Y-137376551D01*
X83151715Y-137376191D01*
X83143654Y-137372085D01*
X83092859Y-137324112D01*
X83076063Y-137256292D01*
X83098599Y-137190156D01*
X83143654Y-137151115D01*
X83152416Y-137146651D01*
X83194685Y-137115941D01*
X83324386Y-137021709D01*
X83324388Y-137021706D01*
X83324392Y-137021704D01*
X83474704Y-136871392D01*
X83474706Y-136871388D01*
X83474709Y-136871386D01*
X83591479Y-136710664D01*
X83599651Y-136699416D01*
X83696157Y-136510012D01*
X83761846Y-136307843D01*
X83795100Y-136097887D01*
X83795100Y-135885313D01*
X83761846Y-135675357D01*
X83696157Y-135473188D01*
X83599651Y-135283784D01*
X83599649Y-135283781D01*
X83599648Y-135283779D01*
X83474709Y-135111813D01*
X83324386Y-134961490D01*
X83152420Y-134836551D01*
X82963014Y-134740044D01*
X82963013Y-134740043D01*
X82963012Y-134740043D01*
X82760843Y-134674354D01*
X82760841Y-134674353D01*
X82760840Y-134674353D01*
X82599557Y-134648808D01*
X82550887Y-134641100D01*
X82338313Y-134641100D01*
X82289642Y-134648808D01*
X82128360Y-134674353D01*
X81926185Y-134740044D01*
X81736779Y-134836551D01*
X81564813Y-134961490D01*
X81414490Y-135111813D01*
X81289549Y-135283782D01*
X81285084Y-135292546D01*
X81237109Y-135343342D01*
X81169288Y-135360136D01*
X81103153Y-135337598D01*
X81064116Y-135292546D01*
X81059650Y-135283782D01*
X80934709Y-135111813D01*
X80784386Y-134961490D01*
X80612420Y-134836551D01*
X80423014Y-134740044D01*
X80423013Y-134740043D01*
X80423012Y-134740043D01*
X80220843Y-134674354D01*
X80220841Y-134674353D01*
X80220840Y-134674353D01*
X80059557Y-134648808D01*
X80010887Y-134641100D01*
X79798313Y-134641100D01*
X79749642Y-134648808D01*
X79588360Y-134674353D01*
X79386185Y-134740044D01*
X79196779Y-134836551D01*
X79024813Y-134961490D01*
X78874490Y-135111813D01*
X78749549Y-135283782D01*
X78745084Y-135292546D01*
X78697109Y-135343342D01*
X78629288Y-135360136D01*
X78563153Y-135337598D01*
X78524116Y-135292546D01*
X78519650Y-135283782D01*
X78394709Y-135111813D01*
X78244386Y-134961490D01*
X78072420Y-134836551D01*
X77883014Y-134740044D01*
X77883013Y-134740043D01*
X77883012Y-134740043D01*
X77680843Y-134674354D01*
X77680841Y-134674353D01*
X77680840Y-134674353D01*
X77519557Y-134648808D01*
X77470887Y-134641100D01*
X77258313Y-134641100D01*
X77209642Y-134648808D01*
X77048360Y-134674353D01*
X76846185Y-134740044D01*
X76656779Y-134836551D01*
X76484813Y-134961490D01*
X76334490Y-135111813D01*
X76209549Y-135283782D01*
X76205084Y-135292546D01*
X76157109Y-135343342D01*
X76089288Y-135360136D01*
X76023153Y-135337598D01*
X75984116Y-135292546D01*
X75979650Y-135283782D01*
X75854709Y-135111813D01*
X75704386Y-134961490D01*
X75532420Y-134836551D01*
X75343014Y-134740044D01*
X75343013Y-134740043D01*
X75343012Y-134740043D01*
X75140843Y-134674354D01*
X75140841Y-134674353D01*
X75140840Y-134674353D01*
X74979557Y-134648808D01*
X74930887Y-134641100D01*
X74718313Y-134641100D01*
X74669642Y-134648808D01*
X74508360Y-134674353D01*
X74306185Y-134740044D01*
X74116779Y-134836551D01*
X73944813Y-134961490D01*
X73794490Y-135111813D01*
X73669549Y-135283782D01*
X73665084Y-135292546D01*
X73617109Y-135343342D01*
X73549288Y-135360136D01*
X73483153Y-135337598D01*
X73444116Y-135292546D01*
X73439650Y-135283782D01*
X73314709Y-135111813D01*
X73164386Y-134961490D01*
X72992420Y-134836551D01*
X72803014Y-134740044D01*
X72803013Y-134740043D01*
X72803012Y-134740043D01*
X72600843Y-134674354D01*
X72600841Y-134674353D01*
X72600840Y-134674353D01*
X72439557Y-134648808D01*
X72390887Y-134641100D01*
X72178313Y-134641100D01*
X72129642Y-134648808D01*
X71968360Y-134674353D01*
X71766185Y-134740044D01*
X71576779Y-134836551D01*
X71404813Y-134961490D01*
X71254490Y-135111813D01*
X71129549Y-135283782D01*
X71125084Y-135292546D01*
X71077109Y-135343342D01*
X71009288Y-135360136D01*
X70943153Y-135337598D01*
X70904116Y-135292546D01*
X70899650Y-135283782D01*
X70774709Y-135111813D01*
X70624386Y-134961490D01*
X70452420Y-134836551D01*
X70263014Y-134740044D01*
X70263013Y-134740043D01*
X70263012Y-134740043D01*
X70060843Y-134674354D01*
X70060841Y-134674353D01*
X70060840Y-134674353D01*
X69899557Y-134648808D01*
X69850887Y-134641100D01*
X69638313Y-134641100D01*
X69589642Y-134648808D01*
X69428360Y-134674353D01*
X69226185Y-134740044D01*
X69036779Y-134836551D01*
X68864813Y-134961490D01*
X68714490Y-135111813D01*
X68589549Y-135283782D01*
X68585084Y-135292546D01*
X68537109Y-135343342D01*
X68469288Y-135360136D01*
X68403153Y-135337598D01*
X68364116Y-135292546D01*
X68359650Y-135283782D01*
X68234709Y-135111813D01*
X68084386Y-134961490D01*
X67912420Y-134836551D01*
X67723014Y-134740044D01*
X67723013Y-134740043D01*
X67723012Y-134740043D01*
X67520843Y-134674354D01*
X67520841Y-134674353D01*
X67520840Y-134674353D01*
X67359557Y-134648808D01*
X67310887Y-134641100D01*
X67098313Y-134641100D01*
X67049642Y-134648808D01*
X66888360Y-134674353D01*
X66686185Y-134740044D01*
X66496779Y-134836551D01*
X66324813Y-134961490D01*
X66174490Y-135111813D01*
X66049549Y-135283782D01*
X66045084Y-135292546D01*
X65997109Y-135343342D01*
X65929288Y-135360136D01*
X65863153Y-135337598D01*
X65824116Y-135292546D01*
X65819650Y-135283782D01*
X65694709Y-135111813D01*
X65544386Y-134961490D01*
X65372420Y-134836551D01*
X65183014Y-134740044D01*
X65183013Y-134740043D01*
X65183012Y-134740043D01*
X64980843Y-134674354D01*
X64980841Y-134674353D01*
X64980840Y-134674353D01*
X64819557Y-134648808D01*
X64770887Y-134641100D01*
X64558313Y-134641100D01*
X64509642Y-134648808D01*
X64348360Y-134674353D01*
X64146185Y-134740044D01*
X63956779Y-134836551D01*
X63784813Y-134961490D01*
X63634490Y-135111813D01*
X63509551Y-135283779D01*
X63413044Y-135473185D01*
X63413043Y-135473187D01*
X63413043Y-135473188D01*
X63406277Y-135494011D01*
X63347353Y-135675360D01*
X63332464Y-135769369D01*
X63314100Y-135885313D01*
X63314100Y-136097887D01*
X63323383Y-136156500D01*
X63345240Y-136294500D01*
X63347354Y-136307843D01*
X63409627Y-136499500D01*
X63413044Y-136510014D01*
X63509551Y-136699420D01*
X63634490Y-136871386D01*
X63784813Y-137021709D01*
X63956782Y-137146650D01*
X63965546Y-137151116D01*
X64016342Y-137199091D01*
X64033136Y-137266912D01*
X64010598Y-137333047D01*
X63965546Y-137372084D01*
X63956782Y-137376549D01*
X63784813Y-137501490D01*
X63634490Y-137651813D01*
X63509551Y-137823779D01*
X63413044Y-138013185D01*
X63347353Y-138215360D01*
X63314100Y-138425313D01*
X63314100Y-138637886D01*
X63346260Y-138840940D01*
X63347354Y-138847843D01*
X63403896Y-139021862D01*
X63413044Y-139050014D01*
X63509551Y-139239420D01*
X63634490Y-139411386D01*
X63784813Y-139561709D01*
X63956779Y-139686648D01*
X63956781Y-139686649D01*
X63956784Y-139686651D01*
X64075554Y-139747167D01*
X64110582Y-139765015D01*
X64161378Y-139812990D01*
X64178173Y-139880811D01*
X64155636Y-139946946D01*
X64100920Y-139990397D01*
X64054287Y-139999500D01*
X24703052Y-139999500D01*
X24696967Y-139999351D01*
X24393181Y-139984426D01*
X24386305Y-139983896D01*
X24317201Y-139976633D01*
X24311968Y-139975970D01*
X24046535Y-139936597D01*
X24038948Y-139935229D01*
X23976391Y-139921932D01*
X23972042Y-139920926D01*
X23705578Y-139854180D01*
X23697391Y-139851827D01*
X23646725Y-139835365D01*
X23643267Y-139834185D01*
X23373950Y-139737821D01*
X23365288Y-139734349D01*
X23334525Y-139720652D01*
X23331945Y-139719468D01*
X23055840Y-139588880D01*
X23045108Y-139583143D01*
X23009347Y-139561709D01*
X22761011Y-139412862D01*
X22750893Y-139406102D01*
X22484829Y-139208775D01*
X22475423Y-139201055D01*
X22429959Y-139159849D01*
X22229986Y-138978604D01*
X22221395Y-138970013D01*
X21998944Y-138724576D01*
X21991224Y-138715170D01*
X21804585Y-138463517D01*
X21793893Y-138449100D01*
X21787137Y-138438988D01*
X21616847Y-138154876D01*
X21611117Y-138144156D01*
X21519166Y-137949743D01*
X21480530Y-137868053D01*
X21479346Y-137865473D01*
X21465639Y-137834686D01*
X21462184Y-137826065D01*
X21365788Y-137556660D01*
X21364644Y-137553306D01*
X21348170Y-137502604D01*
X21345824Y-137494442D01*
X21285200Y-137252415D01*
X21285200Y-137242785D01*
X34940419Y-137242785D01*
X34951826Y-137386256D01*
X34951826Y-137386258D01*
X34971211Y-137442994D01*
X35685371Y-138974511D01*
X35698683Y-139003058D01*
X35729683Y-139054376D01*
X35832255Y-139155334D01*
X35959116Y-139223303D01*
X35959119Y-139223303D01*
X35959120Y-139223304D01*
X35989961Y-139229757D01*
X36099987Y-139252780D01*
X36243456Y-139241374D01*
X36300190Y-139221990D01*
X37860258Y-138494517D01*
X37911576Y-138463517D01*
X38012534Y-138360945D01*
X38080503Y-138234084D01*
X38098047Y-138150240D01*
X38109980Y-138093214D01*
X38108130Y-138069949D01*
X38098574Y-137949744D01*
X38079190Y-137893010D01*
X38078436Y-137891394D01*
X37984153Y-137689203D01*
X37961988Y-137641670D01*
X50774700Y-137641670D01*
X50774700Y-137897529D01*
X50814726Y-138150240D01*
X50893788Y-138393572D01*
X50893789Y-138393575D01*
X51009950Y-138621550D01*
X51160332Y-138828535D01*
X51160336Y-138828540D01*
X51341259Y-139009463D01*
X51341264Y-139009467D01*
X51521807Y-139140638D01*
X51548253Y-139159852D01*
X51672778Y-139223301D01*
X51776224Y-139276010D01*
X51776227Y-139276011D01*
X51896246Y-139315007D01*
X52019561Y-139355074D01*
X52272270Y-139395100D01*
X52272271Y-139395100D01*
X52528129Y-139395100D01*
X52528130Y-139395100D01*
X52780839Y-139355074D01*
X53024175Y-139276010D01*
X53252147Y-139159852D01*
X53459142Y-139009462D01*
X53640062Y-138828542D01*
X53790452Y-138621547D01*
X53906610Y-138393575D01*
X53985674Y-138150239D01*
X54025700Y-137897530D01*
X54025700Y-137641670D01*
X53985674Y-137388961D01*
X53930997Y-137220681D01*
X53906611Y-137145627D01*
X53906610Y-137145624D01*
X53843469Y-137021704D01*
X53790452Y-136917653D01*
X53771238Y-136891207D01*
X53640067Y-136710664D01*
X53640063Y-136710659D01*
X53459140Y-136529736D01*
X53459135Y-136529732D01*
X53252150Y-136379350D01*
X53252149Y-136379349D01*
X53252147Y-136379348D01*
X53179110Y-136342133D01*
X53024175Y-136263189D01*
X53024172Y-136263188D01*
X52780840Y-136184126D01*
X52606419Y-136156500D01*
X52528130Y-136144100D01*
X52272270Y-136144100D01*
X52193981Y-136156500D01*
X52019559Y-136184126D01*
X51776227Y-136263188D01*
X51776224Y-136263189D01*
X51548249Y-136379350D01*
X51341264Y-136529732D01*
X51341259Y-136529736D01*
X51160336Y-136710659D01*
X51160332Y-136710664D01*
X51009950Y-136917649D01*
X50893789Y-137145624D01*
X50893788Y-137145627D01*
X50814726Y-137388959D01*
X50774700Y-137641670D01*
X37961988Y-137641670D01*
X37954968Y-137626616D01*
X37351717Y-136332942D01*
X37320717Y-136281624D01*
X37218145Y-136180666D01*
X37091284Y-136112697D01*
X37091282Y-136112696D01*
X37091279Y-136112695D01*
X36950413Y-136083219D01*
X36806943Y-136094626D01*
X36806941Y-136094626D01*
X36750205Y-136114011D01*
X35190145Y-136841481D01*
X35138822Y-136872484D01*
X35039407Y-136973489D01*
X35037866Y-136975055D01*
X35012873Y-137021704D01*
X34969898Y-137101914D01*
X34969895Y-137101920D01*
X34940419Y-137242785D01*
X21285200Y-137242785D01*
X21285200Y-135320789D01*
X23004100Y-135320789D01*
X23004100Y-135494011D01*
X23031198Y-135665101D01*
X23084727Y-135829845D01*
X23163368Y-135984188D01*
X23265186Y-136124328D01*
X23387672Y-136246814D01*
X23527812Y-136348632D01*
X23682155Y-136427273D01*
X23846899Y-136480802D01*
X24017989Y-136507900D01*
X24017990Y-136507900D01*
X24191210Y-136507900D01*
X24191211Y-136507900D01*
X24362301Y-136480802D01*
X24527045Y-136427273D01*
X24681388Y-136348632D01*
X24821528Y-136246814D01*
X24944014Y-136124328D01*
X25045832Y-135984188D01*
X25124473Y-135829845D01*
X25178002Y-135665101D01*
X25205100Y-135494011D01*
X25205100Y-135320789D01*
X25178002Y-135149699D01*
X25124473Y-134984955D01*
X25045832Y-134830612D01*
X24944014Y-134690472D01*
X24821528Y-134567986D01*
X24681388Y-134466168D01*
X24615830Y-134432765D01*
X24527047Y-134387528D01*
X24527046Y-134387527D01*
X24527045Y-134387527D01*
X24362301Y-134333998D01*
X24362299Y-134333997D01*
X24362298Y-134333997D01*
X24230871Y-134313181D01*
X24191211Y-134306900D01*
X24017989Y-134306900D01*
X23978328Y-134313181D01*
X23846902Y-134333997D01*
X23682152Y-134387528D01*
X23527811Y-134466168D01*
X23447856Y-134524259D01*
X23387672Y-134567986D01*
X23387670Y-134567988D01*
X23387669Y-134567988D01*
X23265188Y-134690469D01*
X23265188Y-134690470D01*
X23265186Y-134690472D01*
X23229170Y-134740044D01*
X23163368Y-134830611D01*
X23084728Y-134984952D01*
X23031197Y-135149702D01*
X23009962Y-135283779D01*
X23004100Y-135320789D01*
X21285200Y-135320789D01*
X21285200Y-133936641D01*
X58932500Y-133936641D01*
X58932500Y-134185758D01*
X58932501Y-134185775D01*
X58965017Y-134432761D01*
X59029498Y-134673407D01*
X59124830Y-134903561D01*
X59124837Y-134903576D01*
X59249400Y-135119326D01*
X59401060Y-135316974D01*
X59401066Y-135316981D01*
X59577218Y-135493133D01*
X59577225Y-135493139D01*
X59774873Y-135644799D01*
X59990623Y-135769362D01*
X59990638Y-135769369D01*
X60089825Y-135810453D01*
X60220793Y-135864702D01*
X60461435Y-135929182D01*
X60708435Y-135961700D01*
X60708442Y-135961700D01*
X60957558Y-135961700D01*
X60957565Y-135961700D01*
X61204565Y-135929182D01*
X61445207Y-135864702D01*
X61675373Y-135769364D01*
X61891127Y-135644799D01*
X62088776Y-135493138D01*
X62264938Y-135316976D01*
X62416599Y-135119327D01*
X62541164Y-134903573D01*
X62636502Y-134673407D01*
X62700982Y-134432765D01*
X62733500Y-134185765D01*
X62733500Y-133936635D01*
X62700982Y-133689635D01*
X62636502Y-133448993D01*
X62571015Y-133290893D01*
X62541169Y-133218838D01*
X62541162Y-133218823D01*
X62416599Y-133003073D01*
X62264939Y-132805425D01*
X62264933Y-132805418D01*
X62111219Y-132651704D01*
X65749100Y-132651704D01*
X65749100Y-132829095D01*
X65783703Y-133003058D01*
X65783706Y-133003067D01*
X65851583Y-133166940D01*
X65851590Y-133166953D01*
X65950135Y-133314434D01*
X65950138Y-133314438D01*
X66075561Y-133439861D01*
X66075565Y-133439864D01*
X66223046Y-133538409D01*
X66223059Y-133538416D01*
X66345963Y-133589323D01*
X66386934Y-133606294D01*
X66386936Y-133606294D01*
X66386941Y-133606296D01*
X66560904Y-133640899D01*
X66560907Y-133640900D01*
X66560909Y-133640900D01*
X66738293Y-133640900D01*
X66738294Y-133640899D01*
X66796282Y-133629364D01*
X66912258Y-133606296D01*
X66912261Y-133606294D01*
X66912266Y-133606294D01*
X67076147Y-133538413D01*
X67223635Y-133439864D01*
X67349064Y-133314435D01*
X67447613Y-133166947D01*
X67515494Y-133003066D01*
X67544965Y-132854904D01*
X69305100Y-132854904D01*
X69305100Y-133032295D01*
X69339703Y-133206258D01*
X69339706Y-133206267D01*
X69407583Y-133370140D01*
X69407590Y-133370153D01*
X69506135Y-133517634D01*
X69506138Y-133517638D01*
X69631561Y-133643061D01*
X69631565Y-133643064D01*
X69779046Y-133741609D01*
X69779059Y-133741616D01*
X69901963Y-133792523D01*
X69942934Y-133809494D01*
X69942936Y-133809494D01*
X69942941Y-133809496D01*
X70116904Y-133844099D01*
X70116907Y-133844100D01*
X70116909Y-133844100D01*
X70294293Y-133844100D01*
X70294294Y-133844099D01*
X70352282Y-133832564D01*
X70468258Y-133809496D01*
X70468261Y-133809494D01*
X70468266Y-133809494D01*
X70632147Y-133741613D01*
X70779635Y-133643064D01*
X70905064Y-133517635D01*
X71003613Y-133370147D01*
X71071494Y-133206266D01*
X71079317Y-133166940D01*
X71106099Y-133032295D01*
X71106100Y-133032293D01*
X71106100Y-132854906D01*
X71083215Y-132739859D01*
X71083215Y-132739858D01*
X71079614Y-132721754D01*
X72442114Y-132721754D01*
X72442114Y-132899145D01*
X72476717Y-133073108D01*
X72476720Y-133073117D01*
X72544597Y-133236990D01*
X72544604Y-133237003D01*
X72643149Y-133384484D01*
X72643152Y-133384488D01*
X72768575Y-133509911D01*
X72768579Y-133509914D01*
X72916060Y-133608459D01*
X72916073Y-133608466D01*
X72999602Y-133643064D01*
X73079948Y-133676344D01*
X73079950Y-133676344D01*
X73079955Y-133676346D01*
X73253918Y-133710949D01*
X73253921Y-133710950D01*
X73253923Y-133710950D01*
X73431307Y-133710950D01*
X73431308Y-133710949D01*
X73489296Y-133699414D01*
X73605272Y-133676346D01*
X73605275Y-133676344D01*
X73605280Y-133676344D01*
X73769161Y-133608463D01*
X73916649Y-133509914D01*
X74042078Y-133384485D01*
X74140627Y-133236997D01*
X74147370Y-133220719D01*
X74181017Y-133139485D01*
X74208508Y-133073116D01*
X74216629Y-133032293D01*
X74243113Y-132899145D01*
X74243114Y-132899143D01*
X74243114Y-132721756D01*
X74243113Y-132721754D01*
X74208510Y-132547791D01*
X74208507Y-132547782D01*
X74140630Y-132383909D01*
X74140623Y-132383896D01*
X74042078Y-132236415D01*
X74042075Y-132236411D01*
X73916652Y-132110988D01*
X73916648Y-132110985D01*
X73769167Y-132012440D01*
X73769154Y-132012433D01*
X73605281Y-131944556D01*
X73605272Y-131944553D01*
X73431308Y-131909950D01*
X73431305Y-131909950D01*
X73253923Y-131909950D01*
X73253920Y-131909950D01*
X73079955Y-131944553D01*
X73079946Y-131944556D01*
X72916073Y-132012433D01*
X72916060Y-132012440D01*
X72768579Y-132110985D01*
X72768575Y-132110988D01*
X72643152Y-132236411D01*
X72643149Y-132236415D01*
X72544604Y-132383896D01*
X72544597Y-132383909D01*
X72476720Y-132547782D01*
X72476717Y-132547791D01*
X72442114Y-132721754D01*
X71079614Y-132721754D01*
X71071496Y-132680941D01*
X71071493Y-132680932D01*
X71003616Y-132517059D01*
X71003609Y-132517046D01*
X70905064Y-132369565D01*
X70905061Y-132369561D01*
X70779638Y-132244138D01*
X70779634Y-132244135D01*
X70632153Y-132145590D01*
X70632140Y-132145583D01*
X70468267Y-132077706D01*
X70468258Y-132077703D01*
X70294294Y-132043100D01*
X70294291Y-132043100D01*
X70116909Y-132043100D01*
X70116906Y-132043100D01*
X69942941Y-132077703D01*
X69942932Y-132077706D01*
X69779059Y-132145583D01*
X69779046Y-132145590D01*
X69631565Y-132244135D01*
X69631561Y-132244138D01*
X69506138Y-132369561D01*
X69506135Y-132369565D01*
X69407590Y-132517046D01*
X69407583Y-132517059D01*
X69339706Y-132680932D01*
X69339703Y-132680941D01*
X69305100Y-132854904D01*
X67544965Y-132854904D01*
X67550100Y-132829091D01*
X67550100Y-132651709D01*
X67550100Y-132651706D01*
X67550099Y-132651704D01*
X67515496Y-132477741D01*
X67515493Y-132477732D01*
X67515087Y-132476753D01*
X67476631Y-132383909D01*
X67447616Y-132313859D01*
X67447609Y-132313846D01*
X67349064Y-132166365D01*
X67349061Y-132166361D01*
X67223638Y-132040938D01*
X67223634Y-132040935D01*
X67076153Y-131942390D01*
X67076140Y-131942383D01*
X66912267Y-131874506D01*
X66912258Y-131874503D01*
X66738294Y-131839900D01*
X66738291Y-131839900D01*
X66560909Y-131839900D01*
X66560906Y-131839900D01*
X66386941Y-131874503D01*
X66386932Y-131874506D01*
X66223059Y-131942383D01*
X66223046Y-131942390D01*
X66075565Y-132040935D01*
X66075561Y-132040938D01*
X65950138Y-132166361D01*
X65950135Y-132166365D01*
X65851590Y-132313846D01*
X65851583Y-132313859D01*
X65783706Y-132477732D01*
X65783703Y-132477741D01*
X65749100Y-132651704D01*
X62111219Y-132651704D01*
X62088781Y-132629266D01*
X62088774Y-132629260D01*
X61891126Y-132477600D01*
X61675376Y-132353037D01*
X61675361Y-132353030D01*
X61445207Y-132257698D01*
X61204565Y-132193218D01*
X61204564Y-132193217D01*
X61204561Y-132193217D01*
X60957575Y-132160701D01*
X60957570Y-132160700D01*
X60957565Y-132160700D01*
X60708435Y-132160700D01*
X60708429Y-132160700D01*
X60708424Y-132160701D01*
X60461438Y-132193217D01*
X60220792Y-132257698D01*
X59990638Y-132353030D01*
X59990623Y-132353037D01*
X59774873Y-132477600D01*
X59577225Y-132629260D01*
X59577218Y-132629266D01*
X59401066Y-132805418D01*
X59401060Y-132805425D01*
X59249400Y-133003073D01*
X59124837Y-133218823D01*
X59124830Y-133218838D01*
X59029498Y-133448992D01*
X58965017Y-133689638D01*
X58932501Y-133936624D01*
X58932500Y-133936641D01*
X21285200Y-133936641D01*
X21285200Y-131267687D01*
X21342147Y-131259499D01*
X21405703Y-131288524D01*
X21443477Y-131347302D01*
X21446973Y-131362839D01*
X21447246Y-131364568D01*
X21520233Y-131589196D01*
X21627457Y-131799633D01*
X21766283Y-131990710D01*
X21933290Y-132157717D01*
X22124367Y-132296543D01*
X22168944Y-132319256D01*
X22334803Y-132403766D01*
X22334805Y-132403766D01*
X22334808Y-132403768D01*
X22442136Y-132438641D01*
X22559431Y-132476753D01*
X22792703Y-132513700D01*
X22792708Y-132513700D01*
X23028897Y-132513700D01*
X23262168Y-132476753D01*
X23486792Y-132403768D01*
X23697233Y-132296543D01*
X23888310Y-132157717D01*
X24055317Y-131990710D01*
X24194143Y-131799633D01*
X24301368Y-131589192D01*
X24361802Y-131403195D01*
X86972500Y-131403195D01*
X86972500Y-131639204D01*
X86972501Y-131639220D01*
X87003306Y-131873210D01*
X87064394Y-132101193D01*
X87154714Y-132319245D01*
X87154719Y-132319256D01*
X87192044Y-132383903D01*
X87272727Y-132523650D01*
X87272729Y-132523653D01*
X87272730Y-132523654D01*
X87416406Y-132710897D01*
X87416412Y-132710904D01*
X87583295Y-132877787D01*
X87583302Y-132877793D01*
X87611126Y-132899143D01*
X87770550Y-133021473D01*
X87901918Y-133097318D01*
X87974943Y-133139480D01*
X87974948Y-133139482D01*
X87974951Y-133139484D01*
X88193007Y-133229806D01*
X88420986Y-133290893D01*
X88654989Y-133321700D01*
X88654996Y-133321700D01*
X88891004Y-133321700D01*
X88891011Y-133321700D01*
X89125014Y-133290893D01*
X89352993Y-133229806D01*
X89374931Y-133220718D01*
X89444399Y-133213250D01*
X89506879Y-133244525D01*
X89542531Y-133304614D01*
X89540038Y-133374439D01*
X89536944Y-133382732D01*
X89509498Y-133448992D01*
X89445017Y-133689638D01*
X89412501Y-133936624D01*
X89412500Y-133936641D01*
X89412500Y-134185758D01*
X89412501Y-134185775D01*
X89445017Y-134432761D01*
X89509498Y-134673407D01*
X89604830Y-134903561D01*
X89604837Y-134903576D01*
X89729400Y-135119326D01*
X89881060Y-135316974D01*
X89881066Y-135316981D01*
X90057218Y-135493133D01*
X90057225Y-135493139D01*
X90254873Y-135644799D01*
X90470623Y-135769362D01*
X90470638Y-135769369D01*
X90569825Y-135810453D01*
X90700793Y-135864702D01*
X90941435Y-135929182D01*
X91188435Y-135961700D01*
X91188442Y-135961700D01*
X91437558Y-135961700D01*
X91437565Y-135961700D01*
X91684565Y-135929182D01*
X91925207Y-135864702D01*
X92155373Y-135769364D01*
X92371127Y-135644799D01*
X92568776Y-135493138D01*
X92744938Y-135316976D01*
X92896599Y-135119327D01*
X93021164Y-134903573D01*
X93116502Y-134673407D01*
X93180982Y-134432765D01*
X93213500Y-134185765D01*
X93213500Y-133936635D01*
X93180982Y-133689635D01*
X93116502Y-133448993D01*
X93051015Y-133290893D01*
X93021169Y-133218838D01*
X93021162Y-133218823D01*
X92896599Y-133003073D01*
X92744939Y-132805425D01*
X92744933Y-132805418D01*
X92568781Y-132629266D01*
X92568774Y-132629260D01*
X92371126Y-132477600D01*
X92155376Y-132353037D01*
X92155361Y-132353030D01*
X91925207Y-132257698D01*
X91684565Y-132193218D01*
X91684564Y-132193217D01*
X91684561Y-132193217D01*
X91437575Y-132160701D01*
X91437570Y-132160700D01*
X91437565Y-132160700D01*
X91188435Y-132160700D01*
X91188429Y-132160700D01*
X91188424Y-132160701D01*
X90941438Y-132193217D01*
X90700792Y-132257698D01*
X90634532Y-132285144D01*
X90565063Y-132292613D01*
X90502584Y-132261337D01*
X90466932Y-132201248D01*
X90469426Y-132131423D01*
X90472519Y-132123130D01*
X90481606Y-132101193D01*
X90542693Y-131873214D01*
X90573500Y-131639211D01*
X90573500Y-131403189D01*
X90542693Y-131169186D01*
X90481606Y-130941207D01*
X90391284Y-130723151D01*
X90391282Y-130723148D01*
X90391280Y-130723143D01*
X90299859Y-130564799D01*
X90273273Y-130518750D01*
X90129592Y-130331501D01*
X90129587Y-130331495D01*
X89962704Y-130164612D01*
X89962697Y-130164606D01*
X89775454Y-130020930D01*
X89775453Y-130020929D01*
X89775450Y-130020927D01*
X89693957Y-129973877D01*
X89571056Y-129902919D01*
X89571045Y-129902914D01*
X89352993Y-129812594D01*
X89125010Y-129751506D01*
X88891020Y-129720701D01*
X88891017Y-129720700D01*
X88891011Y-129720700D01*
X88654989Y-129720700D01*
X88654983Y-129720700D01*
X88654979Y-129720701D01*
X88420989Y-129751506D01*
X88193006Y-129812594D01*
X87974954Y-129902914D01*
X87974943Y-129902919D01*
X87770545Y-130020930D01*
X87583302Y-130164606D01*
X87583295Y-130164612D01*
X87416412Y-130331495D01*
X87416406Y-130331502D01*
X87272730Y-130518745D01*
X87154719Y-130723143D01*
X87154714Y-130723154D01*
X87064394Y-130941206D01*
X87003306Y-131169189D01*
X86972501Y-131403179D01*
X86972500Y-131403195D01*
X24361802Y-131403195D01*
X24374353Y-131364568D01*
X24386397Y-131288524D01*
X24411300Y-131131297D01*
X24411300Y-130895102D01*
X24374353Y-130661831D01*
X24301366Y-130437203D01*
X24199347Y-130236981D01*
X24194143Y-130226767D01*
X24055317Y-130035690D01*
X23981016Y-129961389D01*
X32605300Y-129961389D01*
X32605300Y-130134611D01*
X32632398Y-130305701D01*
X32685927Y-130470445D01*
X32764568Y-130624788D01*
X32866386Y-130764928D01*
X32988872Y-130887414D01*
X33129012Y-130989232D01*
X33283355Y-131067873D01*
X33448099Y-131121402D01*
X33619189Y-131148500D01*
X33619190Y-131148500D01*
X33792410Y-131148500D01*
X33792411Y-131148500D01*
X33963501Y-131121402D01*
X34128245Y-131067873D01*
X34282588Y-130989232D01*
X34422728Y-130887414D01*
X34545214Y-130764928D01*
X34647032Y-130624788D01*
X34725673Y-130470445D01*
X34779202Y-130305701D01*
X34806300Y-130134611D01*
X34806300Y-129961389D01*
X34779202Y-129790299D01*
X34725673Y-129625555D01*
X34647032Y-129471212D01*
X34545214Y-129331072D01*
X34422728Y-129208586D01*
X34282588Y-129106768D01*
X34128245Y-129028127D01*
X33963501Y-128974598D01*
X33963499Y-128974597D01*
X33963498Y-128974597D01*
X33832071Y-128953781D01*
X33792411Y-128947500D01*
X33619189Y-128947500D01*
X33579528Y-128953781D01*
X33448102Y-128974597D01*
X33283352Y-129028128D01*
X33129011Y-129106768D01*
X33049056Y-129164859D01*
X32988872Y-129208586D01*
X32988870Y-129208588D01*
X32988869Y-129208588D01*
X32866388Y-129331069D01*
X32866388Y-129331070D01*
X32866386Y-129331072D01*
X32850628Y-129352761D01*
X32764568Y-129471211D01*
X32685928Y-129625552D01*
X32632397Y-129790302D01*
X32614561Y-129902916D01*
X32605300Y-129961389D01*
X23981016Y-129961389D01*
X23888310Y-129868683D01*
X23697233Y-129729857D01*
X23486796Y-129622633D01*
X23262168Y-129549646D01*
X23028897Y-129512700D01*
X23028892Y-129512700D01*
X22792708Y-129512700D01*
X22792703Y-129512700D01*
X22559431Y-129549646D01*
X22334803Y-129622633D01*
X22124366Y-129729857D01*
X22094568Y-129751507D01*
X21933290Y-129868683D01*
X21933288Y-129868685D01*
X21933287Y-129868685D01*
X21766285Y-130035687D01*
X21766285Y-130035688D01*
X21766283Y-130035690D01*
X21763641Y-130039327D01*
X21627457Y-130226766D01*
X21520233Y-130437203D01*
X21447247Y-130661828D01*
X21446973Y-130663563D01*
X21446685Y-130664168D01*
X21446112Y-130666560D01*
X21445609Y-130666439D01*
X21417042Y-130726697D01*
X21357729Y-130763627D01*
X21287867Y-130762627D01*
X21285200Y-130760858D01*
X21285200Y-128856641D01*
X58932500Y-128856641D01*
X58932500Y-129105758D01*
X58932501Y-129105775D01*
X58965017Y-129352761D01*
X59029498Y-129593407D01*
X59124830Y-129823561D01*
X59124837Y-129823576D01*
X59249400Y-130039326D01*
X59401060Y-130236974D01*
X59401066Y-130236981D01*
X59577218Y-130413133D01*
X59577225Y-130413139D01*
X59774873Y-130564799D01*
X59990623Y-130689362D01*
X59990638Y-130689369D01*
X60072196Y-130723151D01*
X60220793Y-130784702D01*
X60461435Y-130849182D01*
X60708435Y-130881700D01*
X60708442Y-130881700D01*
X60957558Y-130881700D01*
X60957565Y-130881700D01*
X61204565Y-130849182D01*
X61445207Y-130784702D01*
X61675373Y-130689364D01*
X61891127Y-130564799D01*
X62088776Y-130413138D01*
X62264938Y-130236976D01*
X62416599Y-130039327D01*
X62541164Y-129823573D01*
X62636502Y-129593407D01*
X62700982Y-129352765D01*
X62733500Y-129105765D01*
X62733500Y-128856635D01*
X62700982Y-128609635D01*
X62636502Y-128368993D01*
X62567927Y-128203439D01*
X62541169Y-128138838D01*
X62541162Y-128138823D01*
X62416599Y-127923073D01*
X62264939Y-127725425D01*
X62264933Y-127725418D01*
X62088781Y-127549266D01*
X62088774Y-127549260D01*
X61891126Y-127397600D01*
X61675376Y-127273037D01*
X61675361Y-127273030D01*
X61445207Y-127177698D01*
X61204561Y-127113217D01*
X60957575Y-127080701D01*
X60957570Y-127080700D01*
X60957565Y-127080700D01*
X60708435Y-127080700D01*
X60708429Y-127080700D01*
X60708424Y-127080701D01*
X60461438Y-127113217D01*
X60220792Y-127177698D01*
X59990638Y-127273030D01*
X59990623Y-127273037D01*
X59774873Y-127397600D01*
X59577225Y-127549260D01*
X59577218Y-127549266D01*
X59401066Y-127725418D01*
X59401060Y-127725425D01*
X59249400Y-127923073D01*
X59124837Y-128138823D01*
X59124830Y-128138838D01*
X59029498Y-128368992D01*
X58965017Y-128609638D01*
X58932501Y-128856624D01*
X58932500Y-128856641D01*
X21285200Y-128856641D01*
X21285200Y-126887989D01*
X32605300Y-126887989D01*
X32605300Y-127061211D01*
X32632398Y-127232301D01*
X32685927Y-127397045D01*
X32764568Y-127551388D01*
X32866386Y-127691528D01*
X32988872Y-127814014D01*
X33129012Y-127915832D01*
X33283355Y-127994473D01*
X33448099Y-128048002D01*
X33619189Y-128075100D01*
X33619190Y-128075100D01*
X33792410Y-128075100D01*
X33792411Y-128075100D01*
X33963501Y-128048002D01*
X34128245Y-127994473D01*
X34282588Y-127915832D01*
X34422728Y-127814014D01*
X34545214Y-127691528D01*
X34647032Y-127551388D01*
X34725673Y-127397045D01*
X34779202Y-127232301D01*
X34806300Y-127061211D01*
X34806300Y-126952986D01*
X41688900Y-126952986D01*
X41688900Y-127139713D01*
X41710016Y-127273037D01*
X41718111Y-127324143D01*
X41775813Y-127501731D01*
X41860585Y-127668107D01*
X41970341Y-127819172D01*
X42102378Y-127951209D01*
X42253443Y-128060965D01*
X42419819Y-128145737D01*
X42597407Y-128203439D01*
X42781836Y-128232650D01*
X42781837Y-128232650D01*
X42968563Y-128232650D01*
X42968564Y-128232650D01*
X43152993Y-128203439D01*
X43330581Y-128145737D01*
X43496957Y-128060965D01*
X43648022Y-127951209D01*
X43780059Y-127819172D01*
X43889815Y-127668107D01*
X43974587Y-127501731D01*
X44032289Y-127324143D01*
X44061500Y-127139714D01*
X44061500Y-126952986D01*
X44032289Y-126768557D01*
X43974587Y-126590969D01*
X43889815Y-126424593D01*
X43780059Y-126273528D01*
X43648022Y-126141491D01*
X43496957Y-126031735D01*
X43330581Y-125946963D01*
X43152993Y-125889261D01*
X43152991Y-125889260D01*
X43152989Y-125889260D01*
X43024218Y-125868864D01*
X42968564Y-125860050D01*
X42781836Y-125860050D01*
X42739083Y-125866821D01*
X42597410Y-125889260D01*
X42419816Y-125946964D01*
X42253442Y-126031735D01*
X42102376Y-126141492D01*
X41970342Y-126273526D01*
X41860585Y-126424592D01*
X41775814Y-126590966D01*
X41718110Y-126768560D01*
X41688900Y-126952986D01*
X34806300Y-126952986D01*
X34806300Y-126887989D01*
X34779202Y-126716899D01*
X34725673Y-126552155D01*
X34647032Y-126397812D01*
X34545214Y-126257672D01*
X34422728Y-126135186D01*
X34282588Y-126033368D01*
X34128245Y-125954727D01*
X33963501Y-125901198D01*
X33963499Y-125901197D01*
X33963498Y-125901197D01*
X33832071Y-125880381D01*
X33792411Y-125874100D01*
X33619189Y-125874100D01*
X33579528Y-125880381D01*
X33448102Y-125901197D01*
X33283352Y-125954728D01*
X33129011Y-126033368D01*
X33049056Y-126091459D01*
X32988872Y-126135186D01*
X32988870Y-126135188D01*
X32988869Y-126135188D01*
X32866388Y-126257669D01*
X32866388Y-126257670D01*
X32866386Y-126257672D01*
X32854866Y-126273528D01*
X32764568Y-126397811D01*
X32685928Y-126552152D01*
X32632397Y-126716902D01*
X32605300Y-126887989D01*
X21285200Y-126887989D01*
X21285200Y-125271024D01*
X21342147Y-125262836D01*
X21397382Y-125285254D01*
X21565567Y-125407448D01*
X21664991Y-125458107D01*
X21776003Y-125514671D01*
X21776005Y-125514671D01*
X21776008Y-125514673D01*
X21896412Y-125553794D01*
X22000631Y-125587658D01*
X22233903Y-125624605D01*
X22233908Y-125624605D01*
X22470097Y-125624605D01*
X22703368Y-125587658D01*
X22927992Y-125514673D01*
X23138433Y-125407448D01*
X23329510Y-125268622D01*
X23496517Y-125101615D01*
X23635343Y-124910538D01*
X23742568Y-124700097D01*
X23815553Y-124475473D01*
X23847646Y-124272847D01*
X23852500Y-124242202D01*
X23852500Y-124006007D01*
X23816438Y-123778323D01*
X23816437Y-123778319D01*
X23815552Y-123772733D01*
X23812646Y-123763789D01*
X32605301Y-123763789D01*
X32605301Y-123937011D01*
X32632399Y-124108101D01*
X32685928Y-124272845D01*
X32764569Y-124427188D01*
X32866387Y-124567328D01*
X32988873Y-124689814D01*
X33129013Y-124791632D01*
X33283356Y-124870273D01*
X33448100Y-124923802D01*
X33619190Y-124950900D01*
X33619191Y-124950900D01*
X33792411Y-124950900D01*
X33792412Y-124950900D01*
X33963502Y-124923802D01*
X34128246Y-124870273D01*
X34282589Y-124791632D01*
X34422729Y-124689814D01*
X34545215Y-124567328D01*
X34647033Y-124427188D01*
X34725674Y-124272845D01*
X34779203Y-124108101D01*
X34806301Y-123937011D01*
X34806301Y-123763789D01*
X34779203Y-123592699D01*
X34725674Y-123427955D01*
X34647033Y-123273612D01*
X34545215Y-123133472D01*
X34422729Y-123010986D01*
X34282589Y-122909168D01*
X34148337Y-122840764D01*
X34128248Y-122830528D01*
X34128247Y-122830527D01*
X34128246Y-122830527D01*
X33963502Y-122776998D01*
X33963500Y-122776997D01*
X33963499Y-122776997D01*
X33832072Y-122756181D01*
X33792412Y-122749900D01*
X33619190Y-122749900D01*
X33579529Y-122756181D01*
X33448103Y-122776997D01*
X33283353Y-122830528D01*
X33129012Y-122909168D01*
X33049057Y-122967259D01*
X32988873Y-123010986D01*
X32988871Y-123010988D01*
X32988870Y-123010988D01*
X32866389Y-123133469D01*
X32866389Y-123133470D01*
X32866387Y-123133472D01*
X32856855Y-123146592D01*
X32764569Y-123273611D01*
X32685929Y-123427952D01*
X32632398Y-123592702D01*
X32605301Y-123763789D01*
X23812646Y-123763789D01*
X23742566Y-123548108D01*
X23635342Y-123337671D01*
X23496517Y-123146595D01*
X23329510Y-122979588D01*
X23138433Y-122840762D01*
X23118346Y-122830527D01*
X22927996Y-122733538D01*
X22703368Y-122660551D01*
X22470097Y-122623605D01*
X22470092Y-122623605D01*
X22233908Y-122623605D01*
X22233903Y-122623605D01*
X22000631Y-122660551D01*
X21776003Y-122733538D01*
X21565563Y-122840764D01*
X21397385Y-122962953D01*
X21331579Y-122986433D01*
X21285200Y-122975648D01*
X21285200Y-110723753D01*
X21484500Y-110723753D01*
X21484500Y-110928456D01*
X21516522Y-111130639D01*
X21579781Y-111325328D01*
X21672715Y-111507718D01*
X21793028Y-111673318D01*
X21937786Y-111818076D01*
X22092749Y-111930661D01*
X22103390Y-111938392D01*
X22194840Y-111984988D01*
X22196080Y-111985620D01*
X22246876Y-112033595D01*
X22263671Y-112101416D01*
X22241134Y-112167551D01*
X22196080Y-112206590D01*
X22103386Y-112253820D01*
X21937786Y-112374133D01*
X21793028Y-112518891D01*
X21672715Y-112684491D01*
X21579781Y-112866881D01*
X21516522Y-113061570D01*
X21484500Y-113263753D01*
X21484500Y-113468456D01*
X21516522Y-113670639D01*
X21579781Y-113865328D01*
X21672715Y-114047718D01*
X21793028Y-114213318D01*
X21937786Y-114358076D01*
X22092749Y-114470661D01*
X22103390Y-114478392D01*
X22194840Y-114524988D01*
X22196080Y-114525620D01*
X22246876Y-114573595D01*
X22263671Y-114641416D01*
X22241134Y-114707551D01*
X22196080Y-114746590D01*
X22103386Y-114793820D01*
X21937786Y-114914133D01*
X21793028Y-115058891D01*
X21672715Y-115224491D01*
X21579781Y-115406881D01*
X21516522Y-115601570D01*
X21484500Y-115803753D01*
X21484500Y-116008456D01*
X21516522Y-116210639D01*
X21579781Y-116405328D01*
X21672715Y-116587718D01*
X21793028Y-116753318D01*
X21937786Y-116898076D01*
X22092749Y-117010661D01*
X22103390Y-117018392D01*
X22194840Y-117064988D01*
X22196080Y-117065620D01*
X22246876Y-117113595D01*
X22263671Y-117181416D01*
X22241134Y-117247551D01*
X22196080Y-117286590D01*
X22103386Y-117333820D01*
X21937786Y-117454133D01*
X21793028Y-117598891D01*
X21672715Y-117764491D01*
X21579781Y-117946881D01*
X21516522Y-118141570D01*
X21484500Y-118343753D01*
X21484500Y-118548456D01*
X21516522Y-118750639D01*
X21579781Y-118945328D01*
X21632869Y-119049517D01*
X21672113Y-119126538D01*
X21672715Y-119127718D01*
X21793028Y-119293318D01*
X21937786Y-119438076D01*
X22092749Y-119550661D01*
X22103390Y-119558392D01*
X22194840Y-119604988D01*
X22196080Y-119605620D01*
X22246876Y-119653595D01*
X22263671Y-119721416D01*
X22241134Y-119787551D01*
X22196080Y-119826590D01*
X22103386Y-119873820D01*
X21937786Y-119994133D01*
X21793028Y-120138891D01*
X21672715Y-120304491D01*
X21579781Y-120486881D01*
X21516522Y-120681570D01*
X21484500Y-120883753D01*
X21484500Y-121088456D01*
X21516522Y-121290639D01*
X21579781Y-121485328D01*
X21621063Y-121566347D01*
X21665009Y-121652596D01*
X21672715Y-121667718D01*
X21793028Y-121833318D01*
X21937786Y-121978076D01*
X22092749Y-122090661D01*
X22103390Y-122098392D01*
X22219607Y-122157608D01*
X22285776Y-122191323D01*
X22285778Y-122191323D01*
X22285781Y-122191325D01*
X22390137Y-122225232D01*
X22480465Y-122254582D01*
X22581557Y-122270593D01*
X22682648Y-122286605D01*
X22682649Y-122286605D01*
X22887351Y-122286605D01*
X22887352Y-122286605D01*
X23089534Y-122254582D01*
X23284219Y-122191325D01*
X23466610Y-122098392D01*
X23559590Y-122030837D01*
X23632213Y-121978076D01*
X23632215Y-121978073D01*
X23632219Y-121978071D01*
X23776966Y-121833324D01*
X23776968Y-121833320D01*
X23776971Y-121833318D01*
X23867074Y-121709300D01*
X23897287Y-121667715D01*
X23990220Y-121485324D01*
X24053477Y-121290639D01*
X24085500Y-121088457D01*
X24085500Y-120883753D01*
X24053477Y-120681571D01*
X23990220Y-120486886D01*
X23990218Y-120486883D01*
X23990218Y-120486881D01*
X23956503Y-120420712D01*
X23897287Y-120304495D01*
X23889556Y-120293854D01*
X23776971Y-120138891D01*
X23632213Y-119994133D01*
X23466614Y-119873820D01*
X23460006Y-119870453D01*
X23373917Y-119826588D01*
X23323123Y-119778616D01*
X23306328Y-119710795D01*
X23328865Y-119644660D01*
X23373917Y-119605621D01*
X23466610Y-119558392D01*
X23487770Y-119543018D01*
X23632213Y-119438076D01*
X23632215Y-119438073D01*
X23632219Y-119438071D01*
X23776966Y-119293324D01*
X23776968Y-119293320D01*
X23776971Y-119293318D01*
X23829732Y-119220695D01*
X23897287Y-119127715D01*
X23990220Y-118945324D01*
X24053477Y-118750639D01*
X24085500Y-118548457D01*
X24085500Y-118343753D01*
X24053477Y-118141571D01*
X23990220Y-117946886D01*
X23990218Y-117946883D01*
X23990218Y-117946881D01*
X23924027Y-117816976D01*
X23897287Y-117764495D01*
X23889556Y-117753854D01*
X23776971Y-117598891D01*
X23632213Y-117454133D01*
X23466614Y-117333820D01*
X23430003Y-117315166D01*
X23373917Y-117286588D01*
X23323123Y-117238616D01*
X23306328Y-117170795D01*
X23328865Y-117104660D01*
X23373917Y-117065621D01*
X23466610Y-117018392D01*
X23487770Y-117003018D01*
X23632213Y-116898076D01*
X23632215Y-116898073D01*
X23632219Y-116898071D01*
X23776966Y-116753324D01*
X23776968Y-116753320D01*
X23776971Y-116753318D01*
X23876545Y-116616264D01*
X23897287Y-116587715D01*
X23990220Y-116405324D01*
X24053477Y-116210639D01*
X24085500Y-116008457D01*
X24085500Y-115803753D01*
X24074594Y-115734895D01*
X24053477Y-115601570D01*
X24018168Y-115492902D01*
X23990220Y-115406886D01*
X23990218Y-115406883D01*
X23990218Y-115406881D01*
X23956503Y-115340712D01*
X23897287Y-115224495D01*
X23859975Y-115173139D01*
X23776971Y-115058891D01*
X23632213Y-114914133D01*
X23466614Y-114793820D01*
X23428955Y-114774632D01*
X23373917Y-114746588D01*
X23323123Y-114698616D01*
X23306328Y-114630795D01*
X23328865Y-114564660D01*
X23373917Y-114525621D01*
X23466610Y-114478392D01*
X23487770Y-114463018D01*
X23632213Y-114358076D01*
X23632215Y-114358073D01*
X23632219Y-114358071D01*
X23776966Y-114213324D01*
X23776968Y-114213320D01*
X23776971Y-114213318D01*
X23850026Y-114112765D01*
X23897287Y-114047715D01*
X23990220Y-113865324D01*
X24053477Y-113670639D01*
X24085500Y-113468457D01*
X24085500Y-113263753D01*
X24058501Y-113093291D01*
X24053477Y-113061570D01*
X24019587Y-112957269D01*
X23990220Y-112866886D01*
X23990218Y-112866883D01*
X23990218Y-112866881D01*
X23926557Y-112741941D01*
X23897287Y-112684495D01*
X23860048Y-112633239D01*
X23776971Y-112518891D01*
X23632213Y-112374133D01*
X23466614Y-112253820D01*
X23457099Y-112248972D01*
X23373917Y-112206588D01*
X23323123Y-112158616D01*
X23306328Y-112090795D01*
X23328865Y-112024660D01*
X23373917Y-111985621D01*
X23466610Y-111938392D01*
X23556315Y-111873218D01*
X23632213Y-111818076D01*
X23632215Y-111818073D01*
X23632219Y-111818071D01*
X23776966Y-111673324D01*
X23776968Y-111673320D01*
X23776971Y-111673318D01*
X23829732Y-111600695D01*
X23897287Y-111507715D01*
X23990220Y-111325324D01*
X24053477Y-111130639D01*
X24085500Y-110928457D01*
X24085500Y-110723753D01*
X29104500Y-110723753D01*
X29104500Y-110928456D01*
X29136522Y-111130639D01*
X29199781Y-111325328D01*
X29292715Y-111507718D01*
X29413028Y-111673318D01*
X29557786Y-111818076D01*
X29712749Y-111930661D01*
X29723390Y-111938392D01*
X29814840Y-111984988D01*
X29816080Y-111985620D01*
X29866876Y-112033595D01*
X29883671Y-112101416D01*
X29861134Y-112167551D01*
X29816080Y-112206590D01*
X29723386Y-112253820D01*
X29557786Y-112374133D01*
X29413028Y-112518891D01*
X29292715Y-112684491D01*
X29199781Y-112866881D01*
X29136522Y-113061570D01*
X29104500Y-113263753D01*
X29104500Y-113468456D01*
X29136522Y-113670639D01*
X29199781Y-113865328D01*
X29292715Y-114047718D01*
X29413028Y-114213318D01*
X29557786Y-114358076D01*
X29712749Y-114470661D01*
X29723390Y-114478392D01*
X29814840Y-114524988D01*
X29816080Y-114525620D01*
X29866876Y-114573595D01*
X29883671Y-114641416D01*
X29861134Y-114707551D01*
X29816080Y-114746590D01*
X29723386Y-114793820D01*
X29557786Y-114914133D01*
X29413028Y-115058891D01*
X29292715Y-115224491D01*
X29199781Y-115406881D01*
X29136522Y-115601570D01*
X29104500Y-115803753D01*
X29104500Y-116008456D01*
X29136522Y-116210639D01*
X29199781Y-116405328D01*
X29292715Y-116587718D01*
X29413028Y-116753318D01*
X29413681Y-116753971D01*
X29413848Y-116754277D01*
X29416191Y-116757020D01*
X29415614Y-116757512D01*
X29447166Y-116815294D01*
X29450000Y-116841652D01*
X29450000Y-117510558D01*
X29430315Y-117577597D01*
X29416159Y-117595163D01*
X29416191Y-117595190D01*
X29415255Y-117596285D01*
X29413681Y-117598239D01*
X29413032Y-117598887D01*
X29413028Y-117598891D01*
X29292715Y-117764491D01*
X29199781Y-117946881D01*
X29136522Y-118141570D01*
X29104500Y-118343753D01*
X29104500Y-118548456D01*
X29136522Y-118750639D01*
X29199781Y-118945328D01*
X29252869Y-119049517D01*
X29292113Y-119126538D01*
X29292715Y-119127718D01*
X29413028Y-119293318D01*
X29413681Y-119293971D01*
X29413848Y-119294277D01*
X29416191Y-119297020D01*
X29415614Y-119297512D01*
X29447166Y-119355294D01*
X29450000Y-119381652D01*
X29450000Y-120050558D01*
X29430315Y-120117597D01*
X29416159Y-120135163D01*
X29416191Y-120135190D01*
X29415255Y-120136285D01*
X29413681Y-120138239D01*
X29413032Y-120138887D01*
X29413028Y-120138891D01*
X29292715Y-120304491D01*
X29199781Y-120486881D01*
X29136522Y-120681570D01*
X29104500Y-120883753D01*
X29104500Y-121088456D01*
X29136522Y-121290639D01*
X29199781Y-121485328D01*
X29241063Y-121566347D01*
X29285009Y-121652596D01*
X29292715Y-121667718D01*
X29413028Y-121833318D01*
X29557786Y-121978076D01*
X29712749Y-122090661D01*
X29723390Y-122098392D01*
X29839607Y-122157608D01*
X29905776Y-122191323D01*
X29905778Y-122191323D01*
X29905781Y-122191325D01*
X30010137Y-122225232D01*
X30100465Y-122254582D01*
X30201557Y-122270593D01*
X30302648Y-122286605D01*
X30302649Y-122286605D01*
X30507351Y-122286605D01*
X30507352Y-122286605D01*
X30709534Y-122254582D01*
X30904219Y-122191325D01*
X31086610Y-122098392D01*
X31179590Y-122030837D01*
X31252213Y-121978076D01*
X31252215Y-121978073D01*
X31252219Y-121978071D01*
X31396966Y-121833324D01*
X31396968Y-121833320D01*
X31396971Y-121833318D01*
X31487074Y-121709300D01*
X31517287Y-121667715D01*
X31610220Y-121485324D01*
X31673477Y-121290639D01*
X31705500Y-121088457D01*
X31705500Y-120986330D01*
X31725185Y-120919291D01*
X31740823Y-120899656D01*
X33273075Y-119332135D01*
X45752900Y-119332135D01*
X45752900Y-121256670D01*
X45752901Y-121256676D01*
X45759308Y-121316283D01*
X45809602Y-121451128D01*
X45809606Y-121451135D01*
X45895852Y-121566344D01*
X45895855Y-121566347D01*
X46011064Y-121652593D01*
X46011071Y-121652597D01*
X46145917Y-121702891D01*
X46145916Y-121702891D01*
X46152844Y-121703635D01*
X46205527Y-121709300D01*
X48130072Y-121709299D01*
X48189683Y-121702891D01*
X48324531Y-121652596D01*
X48439746Y-121566346D01*
X48525996Y-121451131D01*
X48576291Y-121316283D01*
X48582700Y-121256673D01*
X48582699Y-119332128D01*
X48576291Y-119272517D01*
X48571873Y-119260673D01*
X48525998Y-119137674D01*
X48525997Y-119137672D01*
X48525996Y-119137669D01*
X48525994Y-119137666D01*
X48525993Y-119137664D01*
X48495353Y-119096735D01*
X50774700Y-119096735D01*
X50774700Y-121442470D01*
X50774701Y-121442476D01*
X50781108Y-121502083D01*
X50831402Y-121636928D01*
X50831406Y-121636935D01*
X50917652Y-121752144D01*
X50917655Y-121752147D01*
X51032864Y-121838393D01*
X51032871Y-121838397D01*
X51167717Y-121888691D01*
X51167716Y-121888691D01*
X51174644Y-121889435D01*
X51227327Y-121895100D01*
X53573072Y-121895099D01*
X53632683Y-121888691D01*
X53767531Y-121838396D01*
X53882746Y-121752146D01*
X53968996Y-121636931D01*
X54019291Y-121502083D01*
X54025700Y-121442473D01*
X54025699Y-119096728D01*
X54019291Y-119037117D01*
X54013822Y-119022455D01*
X53968997Y-118902271D01*
X53968993Y-118902264D01*
X53882747Y-118787055D01*
X53882744Y-118787052D01*
X53767535Y-118700806D01*
X53767528Y-118700802D01*
X53632682Y-118650508D01*
X53632683Y-118650508D01*
X53573083Y-118644101D01*
X53573081Y-118644100D01*
X53573073Y-118644100D01*
X53573064Y-118644100D01*
X51227329Y-118644100D01*
X51227323Y-118644101D01*
X51167716Y-118650508D01*
X51032871Y-118700802D01*
X51032864Y-118700806D01*
X50917655Y-118787052D01*
X50917652Y-118787055D01*
X50831406Y-118902264D01*
X50831402Y-118902271D01*
X50781108Y-119037117D01*
X50774701Y-119096716D01*
X50774701Y-119096723D01*
X50774700Y-119096735D01*
X48495353Y-119096735D01*
X48439747Y-119022455D01*
X48439744Y-119022452D01*
X48324535Y-118936206D01*
X48324528Y-118936202D01*
X48189682Y-118885908D01*
X48189683Y-118885908D01*
X48130083Y-118879501D01*
X48130081Y-118879500D01*
X48130073Y-118879500D01*
X48130064Y-118879500D01*
X46205529Y-118879500D01*
X46205523Y-118879501D01*
X46145916Y-118885908D01*
X46011071Y-118936202D01*
X46011064Y-118936206D01*
X45895855Y-119022452D01*
X45895852Y-119022455D01*
X45809606Y-119137664D01*
X45809602Y-119137671D01*
X45759308Y-119272517D01*
X45752901Y-119332116D01*
X45752901Y-119332123D01*
X45752900Y-119332135D01*
X33273075Y-119332135D01*
X34754144Y-117816976D01*
X34715846Y-115586182D01*
X34734377Y-115518817D01*
X34755760Y-115492905D01*
X35128181Y-115149450D01*
X35190808Y-115118471D01*
X35212246Y-115116604D01*
X35960371Y-115116604D01*
X35960372Y-115116604D01*
X36019983Y-115110196D01*
X36154831Y-115059901D01*
X36270046Y-114973651D01*
X36356296Y-114858436D01*
X36366690Y-114830565D01*
X36408560Y-114774632D01*
X36474023Y-114750213D01*
X36542297Y-114765063D01*
X36555746Y-114773570D01*
X36738462Y-114906322D01*
X36942242Y-115010153D01*
X36942244Y-115010154D01*
X37159751Y-115080826D01*
X37159752Y-115080826D01*
X37159755Y-115080827D01*
X37385646Y-115116605D01*
X37385647Y-115116605D01*
X37614353Y-115116605D01*
X37614354Y-115116605D01*
X37840245Y-115080827D01*
X37840248Y-115080826D01*
X37840249Y-115080826D01*
X38057755Y-115010154D01*
X38057755Y-115010153D01*
X38057758Y-115010153D01*
X38261538Y-114906322D01*
X38342615Y-114847415D01*
X38408420Y-114823936D01*
X38476474Y-114839761D01*
X38525169Y-114889867D01*
X38539500Y-114947734D01*
X38539500Y-115229338D01*
X38519815Y-115296377D01*
X38503181Y-115317019D01*
X38474885Y-115345314D01*
X38474879Y-115345321D01*
X38291299Y-115584568D01*
X38140518Y-115845728D01*
X38140514Y-115845738D01*
X38025113Y-116124339D01*
X37947061Y-116415633D01*
X37907701Y-116714606D01*
X37907700Y-116714623D01*
X37907700Y-117016176D01*
X37907701Y-117016193D01*
X37947061Y-117315166D01*
X38025113Y-117606460D01*
X38140514Y-117885061D01*
X38140518Y-117885071D01*
X38291299Y-118146231D01*
X38474879Y-118385478D01*
X38474885Y-118385485D01*
X38688114Y-118598714D01*
X38688121Y-118598720D01*
X38927368Y-118782300D01*
X39188528Y-118933081D01*
X39188529Y-118933081D01*
X39188532Y-118933083D01*
X39363333Y-119005488D01*
X39467139Y-119048486D01*
X39467140Y-119048486D01*
X39467142Y-119048487D01*
X39758432Y-119126538D01*
X40057417Y-119165900D01*
X40057424Y-119165900D01*
X40358976Y-119165900D01*
X40358983Y-119165900D01*
X40657968Y-119126538D01*
X40949258Y-119048487D01*
X41227868Y-118933083D01*
X41489032Y-118782300D01*
X41728280Y-118598719D01*
X41941519Y-118385480D01*
X42125100Y-118146232D01*
X42275883Y-117885068D01*
X42391287Y-117606458D01*
X42395830Y-117589504D01*
X67019100Y-117589504D01*
X67019100Y-117766895D01*
X67053703Y-117940858D01*
X67053706Y-117940867D01*
X67121583Y-118104740D01*
X67121590Y-118104753D01*
X67220135Y-118252234D01*
X67220138Y-118252238D01*
X67345561Y-118377661D01*
X67345565Y-118377664D01*
X67493046Y-118476209D01*
X67493059Y-118476216D01*
X67615963Y-118527123D01*
X67656934Y-118544094D01*
X67656936Y-118544094D01*
X67656941Y-118544096D01*
X67830904Y-118578699D01*
X67830907Y-118578700D01*
X67830909Y-118578700D01*
X68008293Y-118578700D01*
X68008294Y-118578699D01*
X68066282Y-118567164D01*
X68182258Y-118544096D01*
X68182261Y-118544094D01*
X68182266Y-118544094D01*
X68346147Y-118476213D01*
X68493635Y-118377664D01*
X68619064Y-118252235D01*
X68717613Y-118104747D01*
X68785494Y-117940866D01*
X68796593Y-117885071D01*
X68810137Y-117816976D01*
X68820100Y-117766891D01*
X68820100Y-117589509D01*
X68815541Y-117566588D01*
X68815541Y-117566585D01*
X68811699Y-117547270D01*
X99974500Y-117547270D01*
X99974500Y-117803130D01*
X99994513Y-117929484D01*
X100014526Y-118055840D01*
X100093588Y-118299172D01*
X100093589Y-118299175D01*
X100209750Y-118527150D01*
X100360132Y-118734135D01*
X100360136Y-118734140D01*
X100541059Y-118915063D01*
X100541064Y-118915067D01*
X100665519Y-119005488D01*
X100748053Y-119065452D01*
X100889786Y-119137669D01*
X100976024Y-119181610D01*
X100976027Y-119181611D01*
X101097693Y-119221142D01*
X101219361Y-119260674D01*
X101472070Y-119300700D01*
X101472071Y-119300700D01*
X101727929Y-119300700D01*
X101727930Y-119300700D01*
X101980639Y-119260674D01*
X102223975Y-119181610D01*
X102366215Y-119109135D01*
X104698900Y-119109135D01*
X104698900Y-121454870D01*
X104698901Y-121454876D01*
X104705308Y-121514483D01*
X104755602Y-121649328D01*
X104755606Y-121649335D01*
X104841852Y-121764544D01*
X104841855Y-121764547D01*
X104957064Y-121850793D01*
X104957071Y-121850797D01*
X105091917Y-121901091D01*
X105091916Y-121901091D01*
X105098844Y-121901835D01*
X105151527Y-121907500D01*
X107497272Y-121907499D01*
X107556883Y-121901091D01*
X107691731Y-121850796D01*
X107806946Y-121764546D01*
X107893196Y-121649331D01*
X107943491Y-121514483D01*
X107949900Y-121454873D01*
X107949899Y-119109128D01*
X107943491Y-119049517D01*
X107943106Y-119048486D01*
X107893197Y-118914671D01*
X107893193Y-118914664D01*
X107806947Y-118799455D01*
X107806944Y-118799452D01*
X107691735Y-118713206D01*
X107691728Y-118713202D01*
X107556882Y-118662908D01*
X107556883Y-118662908D01*
X107497283Y-118656501D01*
X107497281Y-118656500D01*
X107497273Y-118656500D01*
X107497264Y-118656500D01*
X105151529Y-118656500D01*
X105151523Y-118656501D01*
X105091916Y-118662908D01*
X104957071Y-118713202D01*
X104957064Y-118713206D01*
X104841855Y-118799452D01*
X104841852Y-118799455D01*
X104755606Y-118914664D01*
X104755602Y-118914671D01*
X104705308Y-119049517D01*
X104700233Y-119096727D01*
X104698901Y-119109123D01*
X104698900Y-119109135D01*
X102366215Y-119109135D01*
X102451947Y-119065452D01*
X102511128Y-119022455D01*
X102534482Y-119005488D01*
X102658935Y-118915067D01*
X102658933Y-118915067D01*
X102658942Y-118915062D01*
X102839862Y-118734142D01*
X102990252Y-118527147D01*
X103106410Y-118299175D01*
X103185474Y-118055839D01*
X103225500Y-117803130D01*
X103225500Y-117547270D01*
X103185474Y-117294561D01*
X103106410Y-117051225D01*
X103106410Y-117051224D01*
X103028376Y-116898076D01*
X102990252Y-116823253D01*
X102939446Y-116753324D01*
X102839867Y-116616264D01*
X102839863Y-116616259D01*
X102658940Y-116435336D01*
X102658935Y-116435332D01*
X102451950Y-116284950D01*
X102451949Y-116284949D01*
X102451947Y-116284948D01*
X102378910Y-116247733D01*
X102223975Y-116168789D01*
X102223972Y-116168788D01*
X101980640Y-116089726D01*
X101823960Y-116064910D01*
X101727930Y-116049700D01*
X101472070Y-116049700D01*
X101387833Y-116063042D01*
X101219359Y-116089726D01*
X100976027Y-116168788D01*
X100976024Y-116168789D01*
X100748049Y-116284950D01*
X100541064Y-116435332D01*
X100541059Y-116435336D01*
X100360136Y-116616259D01*
X100360132Y-116616264D01*
X100209750Y-116823249D01*
X100093589Y-117051224D01*
X100093588Y-117051227D01*
X100014526Y-117294559D01*
X100014526Y-117294561D01*
X99974500Y-117547270D01*
X68811699Y-117547270D01*
X68785495Y-117415540D01*
X68785494Y-117415534D01*
X68751647Y-117333820D01*
X68717616Y-117251659D01*
X68717609Y-117251646D01*
X68619064Y-117104165D01*
X68619061Y-117104161D01*
X68493638Y-116978738D01*
X68493634Y-116978735D01*
X68346153Y-116880190D01*
X68346140Y-116880183D01*
X68182267Y-116812306D01*
X68182258Y-116812303D01*
X68008294Y-116777700D01*
X68008291Y-116777700D01*
X67830909Y-116777700D01*
X67830906Y-116777700D01*
X67656941Y-116812303D01*
X67656932Y-116812306D01*
X67493059Y-116880183D01*
X67493046Y-116880190D01*
X67345565Y-116978735D01*
X67345561Y-116978738D01*
X67220138Y-117104161D01*
X67220135Y-117104165D01*
X67121590Y-117251646D01*
X67121583Y-117251659D01*
X67053706Y-117415532D01*
X67053703Y-117415541D01*
X67019100Y-117589504D01*
X42395830Y-117589504D01*
X42469338Y-117315168D01*
X42508700Y-117016183D01*
X42508700Y-116714617D01*
X42475659Y-116463646D01*
X42486425Y-116394612D01*
X42525711Y-116347146D01*
X42684310Y-116231917D01*
X42851317Y-116064910D01*
X42990143Y-115873833D01*
X43097368Y-115663392D01*
X43170353Y-115438768D01*
X43179101Y-115383534D01*
X43207300Y-115205497D01*
X43207300Y-114969302D01*
X43170353Y-114736031D01*
X43116836Y-114571325D01*
X43097368Y-114511408D01*
X43097366Y-114511405D01*
X43097366Y-114511403D01*
X43019239Y-114358071D01*
X42990143Y-114300967D01*
X42851317Y-114109890D01*
X42684310Y-113942883D01*
X42493233Y-113804057D01*
X42327045Y-113719380D01*
X42282796Y-113696833D01*
X42058168Y-113623846D01*
X42012677Y-113616641D01*
X58932500Y-113616641D01*
X58932500Y-113865758D01*
X58932501Y-113865775D01*
X58965017Y-114112761D01*
X59029498Y-114353407D01*
X59124830Y-114583561D01*
X59124837Y-114583576D01*
X59249400Y-114799326D01*
X59401060Y-114996974D01*
X59401066Y-114996981D01*
X59577218Y-115173133D01*
X59577225Y-115173139D01*
X59774873Y-115324799D01*
X59990623Y-115449362D01*
X59990638Y-115449369D01*
X60089825Y-115490453D01*
X60220793Y-115544702D01*
X60461435Y-115609182D01*
X60708435Y-115641700D01*
X60708442Y-115641700D01*
X60957558Y-115641700D01*
X60957565Y-115641700D01*
X61204565Y-115609182D01*
X61397429Y-115557504D01*
X70016300Y-115557504D01*
X70016300Y-115734895D01*
X70050903Y-115908858D01*
X70050906Y-115908867D01*
X70118783Y-116072740D01*
X70118790Y-116072753D01*
X70217335Y-116220234D01*
X70217338Y-116220238D01*
X70342761Y-116345661D01*
X70342765Y-116345664D01*
X70490246Y-116444209D01*
X70490259Y-116444216D01*
X70537171Y-116463647D01*
X70654134Y-116512094D01*
X70654136Y-116512094D01*
X70654141Y-116512096D01*
X70828104Y-116546699D01*
X70828107Y-116546700D01*
X70828109Y-116546700D01*
X71005493Y-116546700D01*
X71005494Y-116546699D01*
X71063482Y-116535164D01*
X71179458Y-116512096D01*
X71179461Y-116512094D01*
X71179466Y-116512094D01*
X71343347Y-116444213D01*
X71490835Y-116345664D01*
X71616264Y-116220235D01*
X71714813Y-116072747D01*
X71782694Y-115908866D01*
X71817300Y-115734891D01*
X71817300Y-115557509D01*
X71817300Y-115557506D01*
X71817299Y-115557504D01*
X71782696Y-115383541D01*
X71782693Y-115383532D01*
X71714816Y-115219659D01*
X71714809Y-115219646D01*
X71616264Y-115072165D01*
X71616261Y-115072161D01*
X71490838Y-114946738D01*
X71490834Y-114946735D01*
X71343353Y-114848190D01*
X71343340Y-114848183D01*
X71179467Y-114780306D01*
X71179458Y-114780303D01*
X71005494Y-114745700D01*
X71005491Y-114745700D01*
X70828109Y-114745700D01*
X70828106Y-114745700D01*
X70654141Y-114780303D01*
X70654132Y-114780306D01*
X70490259Y-114848183D01*
X70490246Y-114848190D01*
X70342765Y-114946735D01*
X70342761Y-114946738D01*
X70217338Y-115072161D01*
X70217335Y-115072165D01*
X70118790Y-115219646D01*
X70118783Y-115219659D01*
X70050906Y-115383532D01*
X70050903Y-115383541D01*
X70016300Y-115557504D01*
X61397429Y-115557504D01*
X61445207Y-115544702D01*
X61675373Y-115449364D01*
X61891127Y-115324799D01*
X62088776Y-115173138D01*
X62264938Y-114996976D01*
X62416599Y-114799327D01*
X62541164Y-114583573D01*
X62636502Y-114353407D01*
X62700982Y-114112765D01*
X62733500Y-113865765D01*
X62733500Y-113616635D01*
X62700982Y-113369635D01*
X62636502Y-113128993D01*
X62598134Y-113036364D01*
X62565372Y-112957269D01*
X62548238Y-112915904D01*
X74461300Y-112915904D01*
X74461300Y-113093295D01*
X74495903Y-113267258D01*
X74495906Y-113267267D01*
X74563783Y-113431140D01*
X74563790Y-113431153D01*
X74662335Y-113578634D01*
X74662338Y-113578638D01*
X74787761Y-113704061D01*
X74787765Y-113704064D01*
X74935246Y-113802609D01*
X74935259Y-113802616D01*
X75058163Y-113853523D01*
X75099134Y-113870494D01*
X75099136Y-113870494D01*
X75099141Y-113870496D01*
X75273104Y-113905099D01*
X75273107Y-113905100D01*
X75273109Y-113905100D01*
X75450493Y-113905100D01*
X75450494Y-113905099D01*
X75508482Y-113893564D01*
X75624458Y-113870496D01*
X75624461Y-113870494D01*
X75624466Y-113870494D01*
X75788347Y-113802613D01*
X75935835Y-113704064D01*
X76023258Y-113616641D01*
X89412500Y-113616641D01*
X89412500Y-113865758D01*
X89412501Y-113865775D01*
X89445017Y-114112761D01*
X89509498Y-114353407D01*
X89604830Y-114583561D01*
X89604837Y-114583576D01*
X89729400Y-114799326D01*
X89881060Y-114996974D01*
X89881066Y-114996981D01*
X90057218Y-115173133D01*
X90057225Y-115173139D01*
X90254873Y-115324799D01*
X90470623Y-115449362D01*
X90470638Y-115449369D01*
X90569825Y-115490453D01*
X90700793Y-115544702D01*
X90941435Y-115609182D01*
X91188435Y-115641700D01*
X91188442Y-115641700D01*
X91437558Y-115641700D01*
X91437565Y-115641700D01*
X91684565Y-115609182D01*
X91925207Y-115544702D01*
X92155373Y-115449364D01*
X92371127Y-115324799D01*
X92568776Y-115173138D01*
X92744938Y-114996976D01*
X92896599Y-114799327D01*
X93021164Y-114583573D01*
X93116502Y-114353407D01*
X93180982Y-114112765D01*
X93213500Y-113865765D01*
X93213500Y-113616635D01*
X93180982Y-113369635D01*
X93116502Y-113128993D01*
X93062253Y-112998025D01*
X93021169Y-112898838D01*
X93021162Y-112898823D01*
X92896599Y-112683073D01*
X92744939Y-112485425D01*
X92744933Y-112485418D01*
X92568781Y-112309266D01*
X92568774Y-112309260D01*
X92371126Y-112157600D01*
X92155376Y-112033037D01*
X92155361Y-112033030D01*
X91925207Y-111937698D01*
X91902199Y-111931533D01*
X91684565Y-111873218D01*
X91684564Y-111873217D01*
X91684561Y-111873217D01*
X91437575Y-111840701D01*
X91437570Y-111840700D01*
X91437565Y-111840700D01*
X91188435Y-111840700D01*
X91188429Y-111840700D01*
X91188424Y-111840701D01*
X90941438Y-111873217D01*
X90700792Y-111937698D01*
X90470638Y-112033030D01*
X90470623Y-112033037D01*
X90254873Y-112157600D01*
X90057225Y-112309260D01*
X90057218Y-112309266D01*
X89881066Y-112485418D01*
X89881060Y-112485425D01*
X89729400Y-112683073D01*
X89604837Y-112898823D01*
X89604830Y-112898838D01*
X89509498Y-113128992D01*
X89445017Y-113369638D01*
X89412501Y-113616624D01*
X89412500Y-113616641D01*
X76023258Y-113616641D01*
X76061264Y-113578635D01*
X76069170Y-113566801D01*
X76084617Y-113543686D01*
X76084617Y-113543685D01*
X76134883Y-113468457D01*
X76159813Y-113431147D01*
X76227694Y-113267266D01*
X76262300Y-113093291D01*
X76262300Y-112915909D01*
X76262300Y-112915906D01*
X76262299Y-112915904D01*
X76227696Y-112741941D01*
X76227693Y-112741932D01*
X76159816Y-112578059D01*
X76159809Y-112578046D01*
X76061264Y-112430565D01*
X76061261Y-112430561D01*
X75935838Y-112305138D01*
X75935834Y-112305135D01*
X75788353Y-112206590D01*
X75788340Y-112206583D01*
X75624467Y-112138706D01*
X75624458Y-112138703D01*
X75450494Y-112104100D01*
X75450491Y-112104100D01*
X75273109Y-112104100D01*
X75273106Y-112104100D01*
X75099141Y-112138703D01*
X75099132Y-112138706D01*
X74935259Y-112206583D01*
X74935246Y-112206590D01*
X74787765Y-112305135D01*
X74787761Y-112305138D01*
X74662338Y-112430561D01*
X74662335Y-112430565D01*
X74563790Y-112578046D01*
X74563783Y-112578059D01*
X74495906Y-112741932D01*
X74495903Y-112741941D01*
X74461300Y-112915904D01*
X62548238Y-112915904D01*
X62541169Y-112898838D01*
X62541162Y-112898823D01*
X62416599Y-112683073D01*
X62264939Y-112485425D01*
X62264933Y-112485418D01*
X62088781Y-112309266D01*
X62088774Y-112309260D01*
X61891126Y-112157600D01*
X61675376Y-112033037D01*
X61675361Y-112033030D01*
X61445207Y-111937698D01*
X61422199Y-111931533D01*
X61204565Y-111873218D01*
X61204564Y-111873217D01*
X61204561Y-111873217D01*
X60957575Y-111840701D01*
X60957570Y-111840700D01*
X60957565Y-111840700D01*
X60708435Y-111840700D01*
X60708429Y-111840700D01*
X60708424Y-111840701D01*
X60461438Y-111873217D01*
X60220792Y-111937698D01*
X59990638Y-112033030D01*
X59990623Y-112033037D01*
X59774873Y-112157600D01*
X59577225Y-112309260D01*
X59577218Y-112309266D01*
X59401066Y-112485418D01*
X59401060Y-112485425D01*
X59249400Y-112683073D01*
X59124837Y-112898823D01*
X59124830Y-112898838D01*
X59029498Y-113128992D01*
X58965017Y-113369638D01*
X58932501Y-113616624D01*
X58932500Y-113616641D01*
X42012677Y-113616641D01*
X41824897Y-113586900D01*
X41824892Y-113586900D01*
X41664500Y-113586900D01*
X41597461Y-113567215D01*
X41551706Y-113514411D01*
X41540500Y-113462900D01*
X41540500Y-112845302D01*
X41503553Y-112612031D01*
X41464151Y-112490765D01*
X41432072Y-112392039D01*
X41431012Y-112388280D01*
X41430568Y-112387408D01*
X41430568Y-112387407D01*
X41323343Y-112176966D01*
X41184517Y-111985890D01*
X40581413Y-111382786D01*
X106255700Y-111382786D01*
X106255700Y-111569514D01*
X106284911Y-111753943D01*
X106342613Y-111931531D01*
X106427385Y-112097907D01*
X106537141Y-112248972D01*
X106669178Y-112381009D01*
X106820243Y-112490765D01*
X106986619Y-112575537D01*
X107164207Y-112633239D01*
X107348636Y-112662450D01*
X107348637Y-112662450D01*
X107535363Y-112662450D01*
X107535364Y-112662450D01*
X107719793Y-112633239D01*
X107897381Y-112575537D01*
X108063757Y-112490765D01*
X108214822Y-112381009D01*
X108346859Y-112248972D01*
X108456615Y-112097907D01*
X108541387Y-111931531D01*
X108599089Y-111753943D01*
X108628300Y-111569514D01*
X108628300Y-111382786D01*
X108599089Y-111198357D01*
X108541387Y-111020769D01*
X108456615Y-110854393D01*
X108346859Y-110703328D01*
X108214822Y-110571291D01*
X108063757Y-110461535D01*
X107897381Y-110376763D01*
X107719793Y-110319061D01*
X107719791Y-110319060D01*
X107719789Y-110319060D01*
X107591018Y-110298664D01*
X107535364Y-110289850D01*
X107348636Y-110289850D01*
X107305883Y-110296621D01*
X107164210Y-110319060D01*
X106986616Y-110376764D01*
X106820242Y-110461535D01*
X106669176Y-110571292D01*
X106537142Y-110703326D01*
X106427385Y-110854392D01*
X106342614Y-111020766D01*
X106284910Y-111198360D01*
X106257078Y-111374087D01*
X106255700Y-111382786D01*
X40581413Y-111382786D01*
X39036819Y-109838192D01*
X39003334Y-109776869D01*
X39000500Y-109750511D01*
X39000500Y-107498007D01*
X38983712Y-107392015D01*
X38981604Y-107378704D01*
X79947700Y-107378704D01*
X79947700Y-107556095D01*
X79982303Y-107730058D01*
X79982306Y-107730067D01*
X80050183Y-107893940D01*
X80050190Y-107893953D01*
X80148735Y-108041434D01*
X80148738Y-108041438D01*
X80274161Y-108166861D01*
X80274165Y-108166864D01*
X80421646Y-108265409D01*
X80421659Y-108265416D01*
X80544563Y-108316323D01*
X80585534Y-108333294D01*
X80585536Y-108333294D01*
X80585541Y-108333296D01*
X80759504Y-108367899D01*
X80759507Y-108367900D01*
X80759509Y-108367900D01*
X80936893Y-108367900D01*
X80936894Y-108367899D01*
X80994882Y-108356364D01*
X81110858Y-108333296D01*
X81110861Y-108333294D01*
X81110866Y-108333294D01*
X81274747Y-108265413D01*
X81422235Y-108166864D01*
X81547664Y-108041435D01*
X81646213Y-107893947D01*
X81714094Y-107730066D01*
X81748700Y-107556091D01*
X81748700Y-107378709D01*
X81748700Y-107378706D01*
X81748699Y-107378704D01*
X81714096Y-107204741D01*
X81714093Y-107204732D01*
X81646216Y-107040859D01*
X81646209Y-107040846D01*
X81547664Y-106893365D01*
X81547661Y-106893361D01*
X81422238Y-106767938D01*
X81422234Y-106767935D01*
X81274753Y-106669390D01*
X81274740Y-106669383D01*
X81110867Y-106601506D01*
X81110858Y-106601503D01*
X80936894Y-106566900D01*
X80936891Y-106566900D01*
X80759509Y-106566900D01*
X80759506Y-106566900D01*
X80585541Y-106601503D01*
X80585532Y-106601506D01*
X80421659Y-106669383D01*
X80421646Y-106669390D01*
X80274165Y-106767935D01*
X80274161Y-106767938D01*
X80148738Y-106893361D01*
X80148735Y-106893365D01*
X80050190Y-107040846D01*
X80050183Y-107040859D01*
X79982306Y-107204732D01*
X79982303Y-107204741D01*
X79947700Y-107378704D01*
X38981604Y-107378704D01*
X38963553Y-107264736D01*
X38917711Y-107123650D01*
X38890568Y-107040113D01*
X38890566Y-107040110D01*
X38890566Y-107040108D01*
X38813478Y-106888815D01*
X38783343Y-106829672D01*
X38644517Y-106638595D01*
X38477510Y-106471588D01*
X38286433Y-106332762D01*
X38075996Y-106225538D01*
X37851368Y-106152551D01*
X37655967Y-106121603D01*
X37618097Y-106115605D01*
X37618092Y-106115605D01*
X37381908Y-106115605D01*
X37381903Y-106115605D01*
X37148631Y-106152551D01*
X36924003Y-106225538D01*
X36713566Y-106332762D01*
X36552469Y-106449807D01*
X36486662Y-106473287D01*
X36418608Y-106457462D01*
X36369913Y-106407356D01*
X36363401Y-106392823D01*
X36356296Y-106373774D01*
X36356293Y-106373769D01*
X36270047Y-106258560D01*
X36270044Y-106258557D01*
X36154835Y-106172311D01*
X36154828Y-106172307D01*
X36019982Y-106122013D01*
X36019983Y-106122013D01*
X35960383Y-106115606D01*
X35960381Y-106115605D01*
X35960373Y-106115605D01*
X35960364Y-106115605D01*
X33959629Y-106115605D01*
X33959623Y-106115606D01*
X33900016Y-106122013D01*
X33765171Y-106172307D01*
X33765164Y-106172311D01*
X33649955Y-106258557D01*
X33649952Y-106258560D01*
X33563706Y-106373769D01*
X33563702Y-106373776D01*
X33513408Y-106508622D01*
X33507001Y-106568221D01*
X33507000Y-106568240D01*
X33507000Y-108663975D01*
X33507001Y-108663981D01*
X33513408Y-108723588D01*
X33563702Y-108858433D01*
X33563706Y-108858440D01*
X33649952Y-108973649D01*
X33649955Y-108973652D01*
X33765164Y-109059898D01*
X33765171Y-109059902D01*
X33900017Y-109110196D01*
X33900016Y-109110196D01*
X33906944Y-109110940D01*
X33959627Y-109116605D01*
X35537321Y-109116604D01*
X35604360Y-109136289D01*
X35650115Y-109189092D01*
X35660059Y-109258251D01*
X35631034Y-109321807D01*
X35625093Y-109328194D01*
X33583438Y-111374087D01*
X33550727Y-111395839D01*
X32714524Y-112234320D01*
X32697166Y-112262198D01*
X31872081Y-113088994D01*
X31810793Y-113122543D01*
X31741096Y-113117631D01*
X31685119Y-113075817D01*
X31666378Y-113039722D01*
X31639587Y-112957269D01*
X31610220Y-112866886D01*
X31517287Y-112684495D01*
X31480048Y-112633239D01*
X31396971Y-112518891D01*
X31252213Y-112374133D01*
X31086614Y-112253820D01*
X31077099Y-112248972D01*
X30993917Y-112206588D01*
X30943123Y-112158616D01*
X30926328Y-112090795D01*
X30948865Y-112024660D01*
X30993917Y-111985621D01*
X31086610Y-111938392D01*
X31176315Y-111873218D01*
X31252213Y-111818076D01*
X31252215Y-111818073D01*
X31252219Y-111818071D01*
X31396966Y-111673324D01*
X31396968Y-111673320D01*
X31396971Y-111673318D01*
X31449732Y-111600695D01*
X31517287Y-111507715D01*
X31610220Y-111325324D01*
X31673477Y-111130639D01*
X31705500Y-110928457D01*
X31705500Y-110723753D01*
X31679833Y-110561698D01*
X31673477Y-110521570D01*
X31626426Y-110376763D01*
X31610220Y-110326886D01*
X31610218Y-110326883D01*
X31610218Y-110326881D01*
X31576503Y-110260712D01*
X31517287Y-110144495D01*
X31479975Y-110093139D01*
X31396971Y-109978891D01*
X31252213Y-109834133D01*
X31086613Y-109713820D01*
X31086612Y-109713819D01*
X31086610Y-109713818D01*
X31029653Y-109684796D01*
X30904223Y-109620886D01*
X30709534Y-109557627D01*
X30534995Y-109529983D01*
X30507352Y-109525605D01*
X30302648Y-109525605D01*
X30278329Y-109529456D01*
X30100465Y-109557627D01*
X29905776Y-109620886D01*
X29723386Y-109713820D01*
X29557786Y-109834133D01*
X29413028Y-109978891D01*
X29292715Y-110144491D01*
X29199781Y-110326881D01*
X29136522Y-110521570D01*
X29104500Y-110723753D01*
X24085500Y-110723753D01*
X24059833Y-110561698D01*
X24053477Y-110521570D01*
X24006426Y-110376763D01*
X23990220Y-110326886D01*
X23990218Y-110326883D01*
X23990218Y-110326881D01*
X23956503Y-110260712D01*
X23897287Y-110144495D01*
X23859975Y-110093139D01*
X23776971Y-109978891D01*
X23632213Y-109834133D01*
X23466613Y-109713820D01*
X23466612Y-109713819D01*
X23466610Y-109713818D01*
X23409653Y-109684796D01*
X23284223Y-109620886D01*
X23089534Y-109557627D01*
X22914995Y-109529983D01*
X22887352Y-109525605D01*
X22682648Y-109525605D01*
X22658329Y-109529456D01*
X22480465Y-109557627D01*
X22285776Y-109620886D01*
X22103386Y-109713820D01*
X21937786Y-109834133D01*
X21793028Y-109978891D01*
X21672715Y-110144491D01*
X21579781Y-110326881D01*
X21516522Y-110521570D01*
X21484500Y-110723753D01*
X21285200Y-110723753D01*
X21285200Y-107677809D01*
X24079500Y-107677809D01*
X24079500Y-107855200D01*
X24114103Y-108029163D01*
X24114106Y-108029172D01*
X24181983Y-108193045D01*
X24181990Y-108193058D01*
X24280535Y-108340539D01*
X24280538Y-108340543D01*
X24405961Y-108465966D01*
X24405965Y-108465969D01*
X24553446Y-108564514D01*
X24553459Y-108564521D01*
X24676363Y-108615428D01*
X24717334Y-108632399D01*
X24717336Y-108632399D01*
X24717341Y-108632401D01*
X24891304Y-108667004D01*
X24891307Y-108667005D01*
X24891309Y-108667005D01*
X25068693Y-108667005D01*
X25068694Y-108667004D01*
X25126682Y-108655469D01*
X25242658Y-108632401D01*
X25242661Y-108632399D01*
X25242666Y-108632399D01*
X25406547Y-108564518D01*
X25554035Y-108465969D01*
X25679464Y-108340540D01*
X25778013Y-108193052D01*
X25845894Y-108029171D01*
X25851890Y-107999030D01*
X25873399Y-107890893D01*
X25880500Y-107855196D01*
X25880500Y-107677814D01*
X25880500Y-107677811D01*
X25880499Y-107677809D01*
X25845896Y-107503846D01*
X25845893Y-107503837D01*
X25835105Y-107477793D01*
X25805127Y-107405418D01*
X25778016Y-107339964D01*
X25778009Y-107339951D01*
X25679464Y-107192470D01*
X25679461Y-107192466D01*
X25554038Y-107067043D01*
X25554034Y-107067040D01*
X25406553Y-106968495D01*
X25406540Y-106968488D01*
X25242667Y-106900611D01*
X25242658Y-106900608D01*
X25068694Y-106866005D01*
X25068691Y-106866005D01*
X24891309Y-106866005D01*
X24891306Y-106866005D01*
X24717341Y-106900608D01*
X24717332Y-106900611D01*
X24553459Y-106968488D01*
X24553446Y-106968495D01*
X24405965Y-107067040D01*
X24405961Y-107067043D01*
X24280538Y-107192466D01*
X24280535Y-107192470D01*
X24181990Y-107339951D01*
X24181983Y-107339964D01*
X24114106Y-107503837D01*
X24114103Y-107503846D01*
X24079500Y-107677809D01*
X21285200Y-107677809D01*
X21285200Y-105643753D01*
X21484500Y-105643753D01*
X21484500Y-105848456D01*
X21516522Y-106050639D01*
X21579781Y-106245328D01*
X21672715Y-106427718D01*
X21793028Y-106593318D01*
X21937786Y-106738076D01*
X22063860Y-106829672D01*
X22103390Y-106858392D01*
X22219607Y-106917608D01*
X22285776Y-106951323D01*
X22285778Y-106951323D01*
X22285781Y-106951325D01*
X22338616Y-106968492D01*
X22480465Y-107014582D01*
X22581557Y-107030593D01*
X22682648Y-107046605D01*
X22682649Y-107046605D01*
X22887351Y-107046605D01*
X22887352Y-107046605D01*
X23089534Y-107014582D01*
X23284219Y-106951325D01*
X23466610Y-106858392D01*
X23571418Y-106782245D01*
X23632213Y-106738076D01*
X23632215Y-106738073D01*
X23632219Y-106738071D01*
X23776966Y-106593324D01*
X23776968Y-106593320D01*
X23776971Y-106593318D01*
X23865410Y-106471590D01*
X23897287Y-106427715D01*
X23990220Y-106245324D01*
X24053477Y-106050639D01*
X24085500Y-105848457D01*
X24085500Y-105643753D01*
X24069135Y-105540428D01*
X24053477Y-105441570D01*
X24014997Y-105323143D01*
X23990220Y-105246886D01*
X23990218Y-105246883D01*
X23990218Y-105246881D01*
X23965940Y-105199234D01*
X23938861Y-105146088D01*
X29104500Y-105146088D01*
X29104500Y-106346106D01*
X29104501Y-106346123D01*
X29115000Y-106448901D01*
X29115001Y-106448904D01*
X29123057Y-106473214D01*
X29170186Y-106615439D01*
X29262288Y-106764761D01*
X29386344Y-106888817D01*
X29535666Y-106980919D01*
X29702203Y-107036104D01*
X29804991Y-107046605D01*
X31005008Y-107046604D01*
X31107797Y-107036104D01*
X31274334Y-106980919D01*
X31423656Y-106888817D01*
X31547712Y-106764761D01*
X31639814Y-106615439D01*
X31694999Y-106448902D01*
X31705500Y-106346114D01*
X31705500Y-106003195D01*
X85410500Y-106003195D01*
X85410500Y-106239204D01*
X85410501Y-106239220D01*
X85441092Y-106471588D01*
X85441307Y-106473214D01*
X85475682Y-106601503D01*
X85502394Y-106701193D01*
X85592714Y-106919245D01*
X85592719Y-106919256D01*
X85660182Y-107036103D01*
X85710727Y-107123650D01*
X85710729Y-107123653D01*
X85710730Y-107123654D01*
X85854406Y-107310897D01*
X85854412Y-107310904D01*
X86021295Y-107477787D01*
X86021302Y-107477793D01*
X86055246Y-107503839D01*
X86208550Y-107621473D01*
X86339918Y-107697318D01*
X86412943Y-107739480D01*
X86412948Y-107739482D01*
X86412951Y-107739484D01*
X86631007Y-107829806D01*
X86858986Y-107890893D01*
X87092989Y-107921700D01*
X87092996Y-107921700D01*
X88929004Y-107921700D01*
X88929011Y-107921700D01*
X89163014Y-107890893D01*
X89383539Y-107831803D01*
X89453388Y-107833466D01*
X89511251Y-107872628D01*
X89538755Y-107936857D01*
X89530194Y-107999027D01*
X89509498Y-108048993D01*
X89509496Y-108048999D01*
X89445017Y-108289638D01*
X89412501Y-108536624D01*
X89412500Y-108536641D01*
X89412500Y-108785758D01*
X89412501Y-108785775D01*
X89445017Y-109032761D01*
X89509498Y-109273407D01*
X89604830Y-109503561D01*
X89604837Y-109503576D01*
X89729400Y-109719326D01*
X89881060Y-109916974D01*
X89881066Y-109916981D01*
X90057218Y-110093133D01*
X90057225Y-110093139D01*
X90254873Y-110244799D01*
X90470623Y-110369362D01*
X90470638Y-110369369D01*
X90569825Y-110410453D01*
X90700793Y-110464702D01*
X90941435Y-110529182D01*
X91188435Y-110561700D01*
X91188442Y-110561700D01*
X91437558Y-110561700D01*
X91437565Y-110561700D01*
X91684565Y-110529182D01*
X91925207Y-110464702D01*
X92155373Y-110369364D01*
X92371127Y-110244799D01*
X92568776Y-110093138D01*
X92744938Y-109916976D01*
X92896599Y-109719327D01*
X93021164Y-109503573D01*
X93116502Y-109273407D01*
X93180982Y-109032765D01*
X93213500Y-108785765D01*
X93213500Y-108536635D01*
X93180982Y-108289635D01*
X93116502Y-108048993D01*
X93036230Y-107855200D01*
X93021169Y-107818838D01*
X93021162Y-107818823D01*
X92896599Y-107603073D01*
X92744939Y-107405425D01*
X92744933Y-107405418D01*
X92568781Y-107229266D01*
X92568774Y-107229260D01*
X92371126Y-107077600D01*
X92155376Y-106953037D01*
X92155361Y-106953030D01*
X91925207Y-106857698D01*
X91684561Y-106793217D01*
X91437575Y-106760701D01*
X91437570Y-106760700D01*
X91437565Y-106760700D01*
X91188435Y-106760700D01*
X91188429Y-106760700D01*
X91188424Y-106760701D01*
X90941438Y-106793217D01*
X90700796Y-106857697D01*
X90700794Y-106857697D01*
X90700793Y-106857698D01*
X90699125Y-106858389D01*
X90680398Y-106866146D01*
X90610928Y-106873612D01*
X90548450Y-106842335D01*
X90512800Y-106782245D01*
X90515296Y-106712420D01*
X90518381Y-106704149D01*
X90519606Y-106701193D01*
X90580693Y-106473214D01*
X90611500Y-106239211D01*
X90611500Y-106003189D01*
X90580693Y-105769186D01*
X90519606Y-105541207D01*
X90518391Y-105538274D01*
X90510917Y-105468811D01*
X90542186Y-105406329D01*
X90602272Y-105370671D01*
X90672097Y-105373158D01*
X90680383Y-105376248D01*
X90700793Y-105384702D01*
X90941435Y-105449182D01*
X91188435Y-105481700D01*
X91188442Y-105481700D01*
X91437558Y-105481700D01*
X91437565Y-105481700D01*
X91684565Y-105449182D01*
X91925207Y-105384702D01*
X92155373Y-105289364D01*
X92371127Y-105164799D01*
X92568776Y-105013138D01*
X92744938Y-104836976D01*
X92896599Y-104639327D01*
X93021164Y-104423573D01*
X93116502Y-104193407D01*
X93180982Y-103952765D01*
X93213500Y-103705765D01*
X93213500Y-103645235D01*
X106542400Y-103645235D01*
X106542400Y-105345970D01*
X106542401Y-105345976D01*
X106548808Y-105405583D01*
X106599102Y-105540428D01*
X106599106Y-105540435D01*
X106685352Y-105655644D01*
X106685355Y-105655647D01*
X106800564Y-105741893D01*
X106800571Y-105741897D01*
X106935417Y-105792191D01*
X106935416Y-105792191D01*
X106942344Y-105792935D01*
X106995027Y-105798600D01*
X108695772Y-105798599D01*
X108755383Y-105792191D01*
X108890231Y-105741896D01*
X109005446Y-105655646D01*
X109091696Y-105540431D01*
X109141991Y-105405583D01*
X109148400Y-105345973D01*
X109148399Y-103645228D01*
X109141991Y-103585617D01*
X109115155Y-103513667D01*
X109091697Y-103450771D01*
X109091693Y-103450764D01*
X109005447Y-103335555D01*
X109005444Y-103335552D01*
X108890235Y-103249306D01*
X108890228Y-103249302D01*
X108755382Y-103199008D01*
X108755383Y-103199008D01*
X108695783Y-103192601D01*
X108695781Y-103192600D01*
X108695773Y-103192600D01*
X108695764Y-103192600D01*
X106995029Y-103192600D01*
X106995023Y-103192601D01*
X106935416Y-103199008D01*
X106800571Y-103249302D01*
X106800564Y-103249306D01*
X106685355Y-103335552D01*
X106685352Y-103335555D01*
X106599106Y-103450764D01*
X106599102Y-103450771D01*
X106548808Y-103585617D01*
X106542401Y-103645216D01*
X106542401Y-103645223D01*
X106542400Y-103645235D01*
X93213500Y-103645235D01*
X93213500Y-103456635D01*
X93180982Y-103209635D01*
X93116502Y-102968993D01*
X93056634Y-102824459D01*
X93021169Y-102738838D01*
X93021162Y-102738823D01*
X92896599Y-102523073D01*
X92744939Y-102325425D01*
X92744933Y-102325418D01*
X92568781Y-102149266D01*
X92568774Y-102149260D01*
X92371126Y-101997600D01*
X92155376Y-101873037D01*
X92155361Y-101873030D01*
X91925207Y-101777698D01*
X91684561Y-101713217D01*
X91437575Y-101680701D01*
X91437570Y-101680700D01*
X91437565Y-101680700D01*
X91188435Y-101680700D01*
X91188429Y-101680700D01*
X91188424Y-101680701D01*
X90941438Y-101713217D01*
X90700792Y-101777698D01*
X90634532Y-101805144D01*
X90565063Y-101812613D01*
X90502584Y-101781337D01*
X90466932Y-101721248D01*
X90469426Y-101651423D01*
X90472519Y-101643130D01*
X90481606Y-101621193D01*
X90542693Y-101393214D01*
X90573500Y-101159211D01*
X90573500Y-100923189D01*
X90542693Y-100689186D01*
X90481606Y-100461207D01*
X90472517Y-100439266D01*
X90465050Y-100369798D01*
X90496326Y-100307319D01*
X90556415Y-100271667D01*
X90626240Y-100274162D01*
X90634504Y-100277244D01*
X90700793Y-100304702D01*
X90941435Y-100369182D01*
X91188435Y-100401700D01*
X91188442Y-100401700D01*
X91437558Y-100401700D01*
X91437565Y-100401700D01*
X91684565Y-100369182D01*
X91925207Y-100304702D01*
X92155373Y-100209364D01*
X92371127Y-100084799D01*
X92568776Y-99933138D01*
X92744938Y-99756976D01*
X92896599Y-99559327D01*
X93021164Y-99343573D01*
X93033809Y-99313046D01*
X106542400Y-99313046D01*
X106542400Y-99518153D01*
X106562697Y-99646301D01*
X106574484Y-99720720D01*
X106616976Y-99851495D01*
X106637864Y-99915782D01*
X106700518Y-100038745D01*
X106723983Y-100084799D01*
X106730977Y-100098524D01*
X106851521Y-100264440D01*
X106851525Y-100264445D01*
X106996554Y-100409474D01*
X106996559Y-100409478D01*
X107067763Y-100461210D01*
X107162479Y-100530025D01*
X107278922Y-100589355D01*
X107345217Y-100623135D01*
X107345219Y-100623135D01*
X107345222Y-100623137D01*
X107540280Y-100686516D01*
X107641566Y-100702558D01*
X107742847Y-100718600D01*
X107742852Y-100718600D01*
X107947953Y-100718600D01*
X108040026Y-100704016D01*
X108150520Y-100686516D01*
X108345578Y-100623137D01*
X108528321Y-100530025D01*
X108694247Y-100409473D01*
X108839273Y-100264447D01*
X108959825Y-100098521D01*
X109052937Y-99915778D01*
X109116316Y-99720720D01*
X109133816Y-99610226D01*
X109148400Y-99518153D01*
X109148400Y-99313046D01*
X109127274Y-99179665D01*
X109116316Y-99110480D01*
X109052937Y-98915422D01*
X109052935Y-98915419D01*
X109052935Y-98915417D01*
X108999966Y-98811460D01*
X108959825Y-98732679D01*
X108944423Y-98711480D01*
X108839278Y-98566759D01*
X108839274Y-98566754D01*
X108694245Y-98421725D01*
X108694240Y-98421721D01*
X108528324Y-98301177D01*
X108528323Y-98301176D01*
X108528321Y-98301175D01*
X108455110Y-98263872D01*
X108345582Y-98208064D01*
X108298784Y-98192858D01*
X108150520Y-98144684D01*
X108150514Y-98144683D01*
X107947953Y-98112600D01*
X107947948Y-98112600D01*
X107742852Y-98112600D01*
X107742847Y-98112600D01*
X107540285Y-98144683D01*
X107540283Y-98144683D01*
X107540280Y-98144684D01*
X107442751Y-98176373D01*
X107345217Y-98208064D01*
X107162475Y-98301177D01*
X106996559Y-98421721D01*
X106996554Y-98421725D01*
X106851525Y-98566754D01*
X106851521Y-98566759D01*
X106730977Y-98732675D01*
X106637864Y-98915417D01*
X106617528Y-98978005D01*
X106574484Y-99110480D01*
X106574483Y-99110483D01*
X106574483Y-99110485D01*
X106542400Y-99313046D01*
X93033809Y-99313046D01*
X93055480Y-99260728D01*
X93085623Y-99187955D01*
X93116502Y-99113407D01*
X93180982Y-98872765D01*
X93213500Y-98625765D01*
X93213500Y-98376635D01*
X93180982Y-98129635D01*
X93116502Y-97888993D01*
X93051947Y-97733144D01*
X93021169Y-97658838D01*
X93021162Y-97658823D01*
X92896599Y-97443073D01*
X92744939Y-97245425D01*
X92744933Y-97245418D01*
X92568781Y-97069266D01*
X92568774Y-97069260D01*
X92371126Y-96917600D01*
X92155376Y-96793037D01*
X92155361Y-96793030D01*
X91925207Y-96697698D01*
X91787028Y-96660673D01*
X91684565Y-96633218D01*
X91684564Y-96633217D01*
X91684561Y-96633217D01*
X91437575Y-96600701D01*
X91437570Y-96600700D01*
X91437565Y-96600700D01*
X91188435Y-96600700D01*
X91188429Y-96600700D01*
X91188424Y-96600701D01*
X90941438Y-96633217D01*
X90700792Y-96697698D01*
X90470638Y-96793030D01*
X90470623Y-96793037D01*
X90254873Y-96917600D01*
X90057225Y-97069260D01*
X90057218Y-97069266D01*
X89881066Y-97245418D01*
X89881060Y-97245425D01*
X89729400Y-97443073D01*
X89604837Y-97658823D01*
X89604830Y-97658838D01*
X89509498Y-97888992D01*
X89445017Y-98129638D01*
X89412501Y-98376624D01*
X89412500Y-98376641D01*
X89412500Y-98625758D01*
X89412501Y-98625775D01*
X89444239Y-98866855D01*
X89445018Y-98872765D01*
X89509498Y-99113407D01*
X89536944Y-99179667D01*
X89544413Y-99249136D01*
X89513138Y-99311615D01*
X89453049Y-99347267D01*
X89383224Y-99344773D01*
X89374934Y-99341681D01*
X89352999Y-99332596D01*
X89352997Y-99332595D01*
X89125010Y-99271506D01*
X88891020Y-99240701D01*
X88891017Y-99240700D01*
X88891011Y-99240700D01*
X88654989Y-99240700D01*
X88654983Y-99240700D01*
X88654979Y-99240701D01*
X88420989Y-99271506D01*
X88193006Y-99332594D01*
X87974954Y-99422914D01*
X87974943Y-99422919D01*
X87770545Y-99540930D01*
X87583302Y-99684606D01*
X87583295Y-99684612D01*
X87416412Y-99851495D01*
X87416406Y-99851502D01*
X87272730Y-100038745D01*
X87154719Y-100243143D01*
X87154714Y-100243154D01*
X87064394Y-100461206D01*
X87003306Y-100689189D01*
X86972501Y-100923179D01*
X86972500Y-100923195D01*
X86972500Y-101159204D01*
X86972501Y-101159220D01*
X87003306Y-101393210D01*
X87064394Y-101621193D01*
X87154714Y-101839245D01*
X87154719Y-101839256D01*
X87210541Y-101935941D01*
X87272727Y-102043650D01*
X87272729Y-102043653D01*
X87272730Y-102043654D01*
X87416406Y-102230897D01*
X87416412Y-102230904D01*
X87583295Y-102397787D01*
X87583302Y-102397793D01*
X87693306Y-102482201D01*
X87770550Y-102541473D01*
X87901918Y-102617318D01*
X87974943Y-102659480D01*
X87974948Y-102659482D01*
X87974951Y-102659484D01*
X88193007Y-102749806D01*
X88420986Y-102810893D01*
X88654989Y-102841700D01*
X88654996Y-102841700D01*
X88891004Y-102841700D01*
X88891011Y-102841700D01*
X89125014Y-102810893D01*
X89352993Y-102749806D01*
X89374931Y-102740718D01*
X89444399Y-102733250D01*
X89506879Y-102764525D01*
X89542531Y-102824614D01*
X89540038Y-102894439D01*
X89536944Y-102902732D01*
X89509498Y-102968992D01*
X89445017Y-103209638D01*
X89412501Y-103456624D01*
X89412500Y-103456641D01*
X89412500Y-103705758D01*
X89412501Y-103705775D01*
X89445017Y-103952761D01*
X89509498Y-104193407D01*
X89530193Y-104243369D01*
X89537662Y-104312838D01*
X89506387Y-104375317D01*
X89446298Y-104410969D01*
X89383539Y-104410596D01*
X89163012Y-104351506D01*
X88929020Y-104320701D01*
X88929017Y-104320700D01*
X88929011Y-104320700D01*
X87092989Y-104320700D01*
X87092983Y-104320700D01*
X87092979Y-104320701D01*
X86858989Y-104351506D01*
X86631006Y-104412594D01*
X86412954Y-104502914D01*
X86412943Y-104502919D01*
X86208545Y-104620930D01*
X86021302Y-104764606D01*
X86021295Y-104764612D01*
X85854412Y-104931495D01*
X85854406Y-104931502D01*
X85710730Y-105118745D01*
X85592719Y-105323143D01*
X85592714Y-105323154D01*
X85502394Y-105541206D01*
X85441306Y-105769189D01*
X85410501Y-106003179D01*
X85410500Y-106003195D01*
X31705500Y-106003195D01*
X31705499Y-105146097D01*
X31702705Y-105118750D01*
X31694999Y-105043308D01*
X31694998Y-105043305D01*
X31657950Y-104931502D01*
X31639814Y-104876771D01*
X31547712Y-104727449D01*
X31423656Y-104603393D01*
X31274334Y-104511291D01*
X31107797Y-104456106D01*
X31107795Y-104456105D01*
X31005010Y-104445605D01*
X29804998Y-104445605D01*
X29804981Y-104445606D01*
X29702203Y-104456105D01*
X29702200Y-104456106D01*
X29535668Y-104511290D01*
X29535663Y-104511292D01*
X29386342Y-104603394D01*
X29262289Y-104727447D01*
X29170187Y-104876768D01*
X29170186Y-104876771D01*
X29115001Y-105043308D01*
X29115001Y-105043309D01*
X29115000Y-105043309D01*
X29104500Y-105146088D01*
X23938861Y-105146088D01*
X23897287Y-105064495D01*
X23897285Y-105064492D01*
X23897284Y-105064490D01*
X23776971Y-104898891D01*
X23632213Y-104754133D01*
X23466613Y-104633820D01*
X23466612Y-104633819D01*
X23466610Y-104633818D01*
X23406898Y-104603393D01*
X23284223Y-104540886D01*
X23089534Y-104477627D01*
X22914995Y-104449983D01*
X22887352Y-104445605D01*
X22682648Y-104445605D01*
X22658329Y-104449456D01*
X22480465Y-104477627D01*
X22285776Y-104540886D01*
X22103386Y-104633820D01*
X21937786Y-104754133D01*
X21793028Y-104898891D01*
X21672715Y-105064491D01*
X21579781Y-105246881D01*
X21516522Y-105441570D01*
X21484500Y-105643753D01*
X21285200Y-105643753D01*
X21285200Y-102320494D01*
X21886500Y-102320494D01*
X21886500Y-102493715D01*
X21913417Y-102663667D01*
X21913598Y-102664806D01*
X21967127Y-102829550D01*
X22045768Y-102983893D01*
X22147586Y-103124033D01*
X22270072Y-103246519D01*
X22410212Y-103348337D01*
X22564555Y-103426978D01*
X22729299Y-103480507D01*
X22900389Y-103507605D01*
X22900390Y-103507605D01*
X23073610Y-103507605D01*
X23073611Y-103507605D01*
X23244701Y-103480507D01*
X23409445Y-103426978D01*
X23563788Y-103348337D01*
X23703928Y-103246519D01*
X23788143Y-103162304D01*
X31586100Y-103162304D01*
X31586100Y-103339695D01*
X31620703Y-103513658D01*
X31620706Y-103513667D01*
X31688583Y-103677540D01*
X31688590Y-103677553D01*
X31787135Y-103825034D01*
X31787138Y-103825038D01*
X31912561Y-103950461D01*
X31912565Y-103950464D01*
X32060046Y-104049009D01*
X32060059Y-104049016D01*
X32158665Y-104089859D01*
X32223934Y-104116894D01*
X32223936Y-104116894D01*
X32223941Y-104116896D01*
X32397904Y-104151499D01*
X32397907Y-104151500D01*
X32397909Y-104151500D01*
X32575293Y-104151500D01*
X32575294Y-104151499D01*
X32633282Y-104139964D01*
X32749258Y-104116896D01*
X32749261Y-104116894D01*
X32749266Y-104116894D01*
X32913147Y-104049013D01*
X33060635Y-103950464D01*
X33186064Y-103825035D01*
X33284613Y-103677547D01*
X33352494Y-103513666D01*
X33363839Y-103456635D01*
X33378004Y-103385421D01*
X33410389Y-103323510D01*
X33471104Y-103288936D01*
X33523812Y-103287995D01*
X33591704Y-103301499D01*
X33591707Y-103301500D01*
X33591709Y-103301500D01*
X33769093Y-103301500D01*
X33769094Y-103301499D01*
X33836985Y-103287995D01*
X33943058Y-103266896D01*
X33943061Y-103266894D01*
X33943066Y-103266894D01*
X34106947Y-103199013D01*
X34254435Y-103100464D01*
X34379864Y-102975035D01*
X34478413Y-102827547D01*
X34479698Y-102824446D01*
X34490242Y-102798988D01*
X34546294Y-102663666D01*
X34560838Y-102590552D01*
X34580099Y-102493716D01*
X34580900Y-102489691D01*
X34580900Y-102312309D01*
X34580900Y-102312306D01*
X34580899Y-102312304D01*
X34546296Y-102138341D01*
X34546293Y-102138332D01*
X34478416Y-101974459D01*
X34478409Y-101974446D01*
X34379864Y-101826965D01*
X34379861Y-101826961D01*
X34254438Y-101701538D01*
X34254434Y-101701535D01*
X34106953Y-101602990D01*
X34106940Y-101602983D01*
X33943067Y-101535106D01*
X33943058Y-101535103D01*
X33769094Y-101500500D01*
X33769091Y-101500500D01*
X33591709Y-101500500D01*
X33591706Y-101500500D01*
X33417741Y-101535103D01*
X33417732Y-101535106D01*
X33253859Y-101602983D01*
X33253846Y-101602990D01*
X33106365Y-101701535D01*
X33106361Y-101701538D01*
X32980938Y-101826961D01*
X32980935Y-101826965D01*
X32882390Y-101974446D01*
X32882383Y-101974459D01*
X32814506Y-102138332D01*
X32814504Y-102138340D01*
X32788995Y-102266580D01*
X32756610Y-102328491D01*
X32695894Y-102363065D01*
X32643186Y-102364005D01*
X32575293Y-102350500D01*
X32575291Y-102350500D01*
X32397909Y-102350500D01*
X32397906Y-102350500D01*
X32223941Y-102385103D01*
X32223932Y-102385106D01*
X32060059Y-102452983D01*
X32060046Y-102452990D01*
X31912565Y-102551535D01*
X31912561Y-102551538D01*
X31787138Y-102676961D01*
X31787135Y-102676965D01*
X31688590Y-102824446D01*
X31688583Y-102824459D01*
X31620706Y-102988332D01*
X31620703Y-102988341D01*
X31586100Y-103162304D01*
X23788143Y-103162304D01*
X23826414Y-103124033D01*
X23928232Y-102983893D01*
X24006873Y-102829550D01*
X24060402Y-102664806D01*
X24087500Y-102493716D01*
X24087500Y-102320494D01*
X24060402Y-102149404D01*
X24006873Y-101984660D01*
X23928232Y-101830317D01*
X23826414Y-101690177D01*
X23703928Y-101567691D01*
X23563788Y-101465873D01*
X23409445Y-101387232D01*
X23244701Y-101333703D01*
X23244699Y-101333702D01*
X23244698Y-101333702D01*
X23113271Y-101312886D01*
X23073611Y-101306605D01*
X22900389Y-101306605D01*
X22860728Y-101312886D01*
X22729302Y-101333702D01*
X22564552Y-101387233D01*
X22410211Y-101465873D01*
X22362552Y-101500500D01*
X22270072Y-101567691D01*
X22270070Y-101567693D01*
X22270069Y-101567693D01*
X22147588Y-101690174D01*
X22147588Y-101690175D01*
X22147586Y-101690177D01*
X22130846Y-101713218D01*
X22045768Y-101830316D01*
X21967128Y-101984657D01*
X21913597Y-102149407D01*
X21886500Y-102320494D01*
X21285200Y-102320494D01*
X21285200Y-96224494D01*
X22013500Y-96224494D01*
X22013500Y-96397715D01*
X22039067Y-96559144D01*
X22040598Y-96568806D01*
X22094127Y-96733550D01*
X22172768Y-96887893D01*
X22274586Y-97028033D01*
X22397072Y-97150519D01*
X22537212Y-97252337D01*
X22691555Y-97330978D01*
X22856299Y-97384507D01*
X23027389Y-97411605D01*
X23027390Y-97411605D01*
X23200610Y-97411605D01*
X23200611Y-97411605D01*
X23371701Y-97384507D01*
X23536445Y-97330978D01*
X23690788Y-97252337D01*
X23728999Y-97224575D01*
X30524500Y-97224575D01*
X30524500Y-97480435D01*
X30534720Y-97544959D01*
X30564526Y-97733145D01*
X30643588Y-97976477D01*
X30643589Y-97976480D01*
X30759750Y-98204455D01*
X30910132Y-98411440D01*
X30910136Y-98411445D01*
X31091059Y-98592368D01*
X31091064Y-98592372D01*
X31271607Y-98723543D01*
X31298053Y-98742757D01*
X31432890Y-98811460D01*
X31526024Y-98858915D01*
X31526027Y-98858916D01*
X31568651Y-98872765D01*
X31769361Y-98937979D01*
X32022070Y-98978005D01*
X32022071Y-98978005D01*
X32277929Y-98978005D01*
X32277930Y-98978005D01*
X32530639Y-98937979D01*
X32773975Y-98858915D01*
X33001947Y-98742757D01*
X33208942Y-98592367D01*
X33389862Y-98411447D01*
X33540252Y-98204452D01*
X33615016Y-98057719D01*
X33662990Y-98006925D01*
X33730811Y-97990130D01*
X33796945Y-98012667D01*
X33840397Y-98067382D01*
X33849500Y-98114016D01*
X33849500Y-99250375D01*
X33849501Y-99250381D01*
X33855908Y-99309988D01*
X33906202Y-99444833D01*
X33906206Y-99444840D01*
X33992452Y-99560049D01*
X33992455Y-99560052D01*
X34107664Y-99646298D01*
X34107671Y-99646302D01*
X34242517Y-99696596D01*
X34242516Y-99696596D01*
X34249444Y-99697340D01*
X34302127Y-99703005D01*
X35697872Y-99703004D01*
X35757483Y-99696596D01*
X35892331Y-99646301D01*
X36007546Y-99560051D01*
X36093796Y-99444836D01*
X36144091Y-99309988D01*
X36150500Y-99250378D01*
X36150499Y-98905170D01*
X36170183Y-98838134D01*
X36222987Y-98792379D01*
X36292146Y-98782435D01*
X36355701Y-98811460D01*
X36392430Y-98866855D01*
X36433787Y-98994141D01*
X36433788Y-98994144D01*
X36516006Y-99155502D01*
X36622441Y-99301999D01*
X36622445Y-99302004D01*
X36750500Y-99430059D01*
X36750505Y-99430063D01*
X36871745Y-99518148D01*
X36897006Y-99536501D01*
X37002484Y-99590245D01*
X37058360Y-99618716D01*
X37058363Y-99618717D01*
X37143251Y-99646298D01*
X37230591Y-99674676D01*
X37313429Y-99687796D01*
X37409449Y-99703005D01*
X37409454Y-99703005D01*
X37590551Y-99703005D01*
X37677259Y-99689270D01*
X37769409Y-99674676D01*
X37941639Y-99618716D01*
X38102994Y-99536501D01*
X38249501Y-99430058D01*
X38377553Y-99302006D01*
X38483996Y-99155499D01*
X38566211Y-98994144D01*
X38622171Y-98821914D01*
X38636765Y-98729764D01*
X38650500Y-98643056D01*
X38650500Y-98461953D01*
X38628496Y-98323030D01*
X38622171Y-98283096D01*
X38577199Y-98144683D01*
X38566212Y-98110868D01*
X38566211Y-98110865D01*
X38537740Y-98054989D01*
X38483996Y-97949511D01*
X38470396Y-97930792D01*
X38377558Y-97803010D01*
X38377554Y-97803005D01*
X38249499Y-97674950D01*
X38249494Y-97674946D01*
X38102997Y-97568511D01*
X38102996Y-97568510D01*
X38102994Y-97568509D01*
X38040882Y-97536861D01*
X37941639Y-97486293D01*
X37941633Y-97486291D01*
X37892834Y-97470436D01*
X37835158Y-97430999D01*
X37807959Y-97366641D01*
X37819873Y-97297794D01*
X37867117Y-97246318D01*
X37892834Y-97234574D01*
X37941633Y-97218718D01*
X37941639Y-97218716D01*
X37984647Y-97196802D01*
X38102994Y-97136501D01*
X38249501Y-97030058D01*
X38377553Y-96902006D01*
X38483996Y-96755499D01*
X38566211Y-96594144D01*
X38622171Y-96421914D01*
X38627527Y-96388099D01*
X38657456Y-96324964D01*
X38716768Y-96288033D01*
X38786630Y-96289031D01*
X38844863Y-96327641D01*
X38872473Y-96388099D01*
X38877829Y-96421915D01*
X38933787Y-96594141D01*
X38933788Y-96594144D01*
X38985530Y-96695691D01*
X39004821Y-96733552D01*
X39016006Y-96755502D01*
X39122441Y-96901999D01*
X39122445Y-96902004D01*
X39250500Y-97030059D01*
X39250505Y-97030063D01*
X39304464Y-97069266D01*
X39397006Y-97136501D01*
X39502484Y-97190245D01*
X39558360Y-97218716D01*
X39558363Y-97218717D01*
X39640543Y-97245418D01*
X39730591Y-97274676D01*
X39813429Y-97287796D01*
X39909449Y-97303005D01*
X39909454Y-97303005D01*
X40090551Y-97303005D01*
X40177259Y-97289270D01*
X40269409Y-97274676D01*
X40423607Y-97224575D01*
X41224500Y-97224575D01*
X41224500Y-97480435D01*
X41234720Y-97544959D01*
X41264526Y-97733145D01*
X41343588Y-97976477D01*
X41343589Y-97976480D01*
X41459750Y-98204455D01*
X41610132Y-98411440D01*
X41610136Y-98411445D01*
X41791059Y-98592368D01*
X41791064Y-98592372D01*
X41971607Y-98723543D01*
X41998053Y-98742757D01*
X42132890Y-98811460D01*
X42226024Y-98858915D01*
X42226027Y-98858916D01*
X42268651Y-98872765D01*
X42469361Y-98937979D01*
X42722070Y-98978005D01*
X42722071Y-98978005D01*
X42977929Y-98978005D01*
X42977930Y-98978005D01*
X43230639Y-98937979D01*
X43473975Y-98858915D01*
X43701947Y-98742757D01*
X43908942Y-98592367D01*
X44089862Y-98411447D01*
X44115150Y-98376641D01*
X58932500Y-98376641D01*
X58932500Y-98625758D01*
X58932501Y-98625775D01*
X58964239Y-98866855D01*
X58965018Y-98872765D01*
X59028714Y-99110480D01*
X59029498Y-99113407D01*
X59124830Y-99343561D01*
X59124837Y-99343576D01*
X59249400Y-99559326D01*
X59401060Y-99756974D01*
X59401066Y-99756981D01*
X59577218Y-99933133D01*
X59577225Y-99933139D01*
X59774873Y-100084799D01*
X59990623Y-100209362D01*
X59990638Y-100209369D01*
X60072196Y-100243151D01*
X60220793Y-100304702D01*
X60461435Y-100369182D01*
X60708435Y-100401700D01*
X60708442Y-100401700D01*
X60957558Y-100401700D01*
X60957565Y-100401700D01*
X61204565Y-100369182D01*
X61445207Y-100304702D01*
X61511471Y-100277254D01*
X61580934Y-100269786D01*
X61643414Y-100301060D01*
X61679067Y-100361149D01*
X61676574Y-100430974D01*
X61673482Y-100439264D01*
X61664394Y-100461204D01*
X61603306Y-100689189D01*
X61572501Y-100923179D01*
X61572500Y-100923195D01*
X61572500Y-101159204D01*
X61572501Y-101159220D01*
X61603306Y-101393210D01*
X61664395Y-101621197D01*
X61664396Y-101621199D01*
X61673481Y-101643134D01*
X61680948Y-101712603D01*
X61649671Y-101775082D01*
X61589581Y-101810732D01*
X61519756Y-101808236D01*
X61511480Y-101805149D01*
X61445207Y-101777698D01*
X61445205Y-101777697D01*
X61445204Y-101777697D01*
X61204561Y-101713217D01*
X60957575Y-101680701D01*
X60957570Y-101680700D01*
X60957565Y-101680700D01*
X60708435Y-101680700D01*
X60708429Y-101680700D01*
X60708424Y-101680701D01*
X60461438Y-101713217D01*
X60220792Y-101777698D01*
X59990638Y-101873030D01*
X59990623Y-101873037D01*
X59774873Y-101997600D01*
X59577225Y-102149260D01*
X59577218Y-102149266D01*
X59401066Y-102325418D01*
X59401060Y-102325425D01*
X59249400Y-102523073D01*
X59124837Y-102738823D01*
X59124830Y-102738838D01*
X59029498Y-102968992D01*
X58965017Y-103209638D01*
X58932501Y-103456624D01*
X58932500Y-103456641D01*
X58932500Y-103705758D01*
X58932501Y-103705775D01*
X58965017Y-103952761D01*
X59029498Y-104193407D01*
X59124830Y-104423561D01*
X59124837Y-104423576D01*
X59249400Y-104639326D01*
X59401060Y-104836974D01*
X59401066Y-104836981D01*
X59577218Y-105013133D01*
X59577225Y-105013139D01*
X59774873Y-105164799D01*
X59990623Y-105289362D01*
X59990638Y-105289369D01*
X60072196Y-105323151D01*
X60220793Y-105384702D01*
X60461435Y-105449182D01*
X60708435Y-105481700D01*
X60708442Y-105481700D01*
X60957558Y-105481700D01*
X60957565Y-105481700D01*
X61204565Y-105449182D01*
X61445207Y-105384702D01*
X61675373Y-105289364D01*
X61891127Y-105164799D01*
X62088776Y-105013138D01*
X62264938Y-104836976D01*
X62416599Y-104639327D01*
X62541164Y-104423573D01*
X62636502Y-104193407D01*
X62700982Y-103952765D01*
X62733500Y-103705765D01*
X62733500Y-103456635D01*
X62700982Y-103209635D01*
X62643050Y-102993432D01*
X67463900Y-102993432D01*
X67463900Y-103198539D01*
X67487626Y-103348336D01*
X67495984Y-103401106D01*
X67532558Y-103513667D01*
X67559364Y-103596168D01*
X67652477Y-103778910D01*
X67773021Y-103944826D01*
X67773025Y-103944831D01*
X67918054Y-104089860D01*
X67918059Y-104089864D01*
X68060575Y-104193407D01*
X68083979Y-104210411D01*
X68200422Y-104269741D01*
X68266717Y-104303521D01*
X68266719Y-104303521D01*
X68266722Y-104303523D01*
X68461780Y-104366902D01*
X68563066Y-104382944D01*
X68664347Y-104398986D01*
X68664352Y-104398986D01*
X68869453Y-104398986D01*
X68961526Y-104384402D01*
X69072020Y-104366902D01*
X69267078Y-104303523D01*
X69449821Y-104210411D01*
X69615747Y-104089859D01*
X69760773Y-103944833D01*
X69881325Y-103778907D01*
X69974437Y-103596164D01*
X70037816Y-103401106D01*
X70061859Y-103249304D01*
X70069900Y-103198539D01*
X70069900Y-102993432D01*
X70044531Y-102833264D01*
X70037816Y-102790866D01*
X69974437Y-102595808D01*
X69974435Y-102595805D01*
X69974435Y-102595803D01*
X69937377Y-102523073D01*
X69881325Y-102413065D01*
X69861012Y-102385106D01*
X69810206Y-102315177D01*
X69760778Y-102247144D01*
X69759255Y-102245621D01*
X72543900Y-102245621D01*
X72543900Y-103946356D01*
X72543901Y-103946362D01*
X72550308Y-104005969D01*
X72600602Y-104140814D01*
X72600606Y-104140821D01*
X72686852Y-104256030D01*
X72686855Y-104256033D01*
X72802064Y-104342279D01*
X72802071Y-104342283D01*
X72936917Y-104392577D01*
X72936916Y-104392577D01*
X72943844Y-104393321D01*
X72996527Y-104398986D01*
X74697272Y-104398985D01*
X74756883Y-104392577D01*
X74891731Y-104342282D01*
X75006946Y-104256032D01*
X75093196Y-104140817D01*
X75143491Y-104005969D01*
X75149900Y-103946359D01*
X75149899Y-102245614D01*
X75143491Y-102186003D01*
X75129840Y-102149404D01*
X75093197Y-102051157D01*
X75093193Y-102051150D01*
X75006947Y-101935941D01*
X75006944Y-101935938D01*
X74891735Y-101849692D01*
X74891728Y-101849688D01*
X74756882Y-101799394D01*
X74756883Y-101799394D01*
X74697283Y-101792987D01*
X74697281Y-101792986D01*
X74697273Y-101792986D01*
X74697264Y-101792986D01*
X72996529Y-101792986D01*
X72996523Y-101792987D01*
X72936916Y-101799394D01*
X72802071Y-101849688D01*
X72802064Y-101849692D01*
X72686855Y-101935938D01*
X72686852Y-101935941D01*
X72600606Y-102051150D01*
X72600602Y-102051157D01*
X72550308Y-102186003D01*
X72545482Y-102230897D01*
X72543901Y-102245609D01*
X72543900Y-102245621D01*
X69759255Y-102245621D01*
X69615745Y-102102111D01*
X69615740Y-102102107D01*
X69449824Y-101981563D01*
X69449823Y-101981562D01*
X69449821Y-101981561D01*
X69360281Y-101935938D01*
X69267082Y-101888450D01*
X69219624Y-101873030D01*
X69072020Y-101825070D01*
X69072014Y-101825069D01*
X68869453Y-101792986D01*
X68869448Y-101792986D01*
X68664352Y-101792986D01*
X68664347Y-101792986D01*
X68461785Y-101825069D01*
X68461783Y-101825069D01*
X68461780Y-101825070D01*
X68364251Y-101856759D01*
X68266717Y-101888450D01*
X68083975Y-101981563D01*
X67918059Y-102102107D01*
X67918054Y-102102111D01*
X67773025Y-102247140D01*
X67773021Y-102247145D01*
X67652477Y-102413061D01*
X67559364Y-102595803D01*
X67538674Y-102659480D01*
X67495984Y-102790866D01*
X67495983Y-102790869D01*
X67495983Y-102790871D01*
X67463900Y-102993432D01*
X62643050Y-102993432D01*
X62636502Y-102968993D01*
X62607696Y-102899451D01*
X62606538Y-102896130D01*
X62604957Y-102864625D01*
X62601586Y-102833264D01*
X62603221Y-102829997D01*
X62603038Y-102826348D01*
X62618743Y-102798988D01*
X62632861Y-102770785D01*
X62636003Y-102768920D01*
X62637822Y-102765752D01*
X62665819Y-102751228D01*
X62692949Y-102735132D01*
X62696600Y-102735262D01*
X62699844Y-102733580D01*
X62731251Y-102736499D01*
X62762774Y-102737625D01*
X62769220Y-102740029D01*
X62769414Y-102740047D01*
X62769546Y-102740150D01*
X62771054Y-102740713D01*
X62793007Y-102749806D01*
X63020986Y-102810893D01*
X63254989Y-102841700D01*
X63254996Y-102841700D01*
X63491004Y-102841700D01*
X63491011Y-102841700D01*
X63725014Y-102810893D01*
X63952993Y-102749806D01*
X64171049Y-102659484D01*
X64375450Y-102541473D01*
X64562699Y-102397792D01*
X64729592Y-102230899D01*
X64873273Y-102043650D01*
X64991284Y-101839249D01*
X65081606Y-101621193D01*
X65142693Y-101393214D01*
X65173500Y-101159211D01*
X65173500Y-100923189D01*
X65142693Y-100689186D01*
X65081606Y-100461207D01*
X64991284Y-100243151D01*
X64991282Y-100243148D01*
X64991280Y-100243143D01*
X64922352Y-100123758D01*
X64873273Y-100038750D01*
X64792230Y-99933133D01*
X64729593Y-99851502D01*
X64729587Y-99851495D01*
X64562704Y-99684612D01*
X64562697Y-99684606D01*
X64375454Y-99540930D01*
X64375453Y-99540929D01*
X64375450Y-99540927D01*
X64290441Y-99491847D01*
X64171056Y-99422919D01*
X64171045Y-99422914D01*
X63952993Y-99332594D01*
X63898042Y-99317870D01*
X63725014Y-99271507D01*
X63725013Y-99271506D01*
X63725010Y-99271506D01*
X63491020Y-99240701D01*
X63491017Y-99240700D01*
X63491011Y-99240700D01*
X63254989Y-99240700D01*
X63254983Y-99240700D01*
X63254979Y-99240701D01*
X63020989Y-99271506D01*
X62793004Y-99332594D01*
X62771064Y-99341682D01*
X62701594Y-99349148D01*
X62639116Y-99317870D01*
X62603466Y-99257780D01*
X62605963Y-99187955D01*
X62609036Y-99179713D01*
X62636502Y-99113407D01*
X62700982Y-98872765D01*
X62733500Y-98625765D01*
X62733500Y-98376635D01*
X62700982Y-98129635D01*
X62636502Y-97888993D01*
X62571947Y-97733144D01*
X62541169Y-97658838D01*
X62541162Y-97658823D01*
X62416599Y-97443073D01*
X62264939Y-97245425D01*
X62264933Y-97245418D01*
X62088781Y-97069266D01*
X62088774Y-97069260D01*
X61891126Y-96917600D01*
X61675376Y-96793037D01*
X61675361Y-96793030D01*
X61445207Y-96697698D01*
X61307028Y-96660673D01*
X61204565Y-96633218D01*
X61204564Y-96633217D01*
X61204561Y-96633217D01*
X60957575Y-96600701D01*
X60957570Y-96600700D01*
X60957565Y-96600700D01*
X60708435Y-96600700D01*
X60708429Y-96600700D01*
X60708424Y-96600701D01*
X60461438Y-96633217D01*
X60220792Y-96697698D01*
X59990638Y-96793030D01*
X59990623Y-96793037D01*
X59774873Y-96917600D01*
X59577225Y-97069260D01*
X59577218Y-97069266D01*
X59401066Y-97245418D01*
X59401060Y-97245425D01*
X59249400Y-97443073D01*
X59124837Y-97658823D01*
X59124830Y-97658838D01*
X59029498Y-97888992D01*
X58965017Y-98129638D01*
X58932501Y-98376624D01*
X58932500Y-98376641D01*
X44115150Y-98376641D01*
X44115162Y-98376624D01*
X44171058Y-98299691D01*
X44206773Y-98250531D01*
X44240252Y-98204452D01*
X44356410Y-97976480D01*
X44435474Y-97733144D01*
X44475500Y-97480435D01*
X44475500Y-97224575D01*
X44435474Y-96971866D01*
X44395942Y-96850198D01*
X44356411Y-96728532D01*
X44356410Y-96728529D01*
X44292528Y-96603155D01*
X44240252Y-96500558D01*
X44183114Y-96421914D01*
X44089867Y-96293569D01*
X44089863Y-96293564D01*
X43908940Y-96112641D01*
X43908935Y-96112637D01*
X43701950Y-95962255D01*
X43701949Y-95962254D01*
X43701947Y-95962253D01*
X43603909Y-95912300D01*
X43473975Y-95846094D01*
X43473972Y-95846093D01*
X43230640Y-95767031D01*
X43024095Y-95734317D01*
X42977930Y-95727005D01*
X42722070Y-95727005D01*
X42675905Y-95734317D01*
X42469359Y-95767031D01*
X42226027Y-95846093D01*
X42226024Y-95846094D01*
X41998049Y-95962255D01*
X41791064Y-96112637D01*
X41791059Y-96112641D01*
X41610136Y-96293564D01*
X41610132Y-96293569D01*
X41459750Y-96500554D01*
X41343589Y-96728529D01*
X41343588Y-96728532D01*
X41264526Y-96971864D01*
X41233537Y-97167520D01*
X41224500Y-97224575D01*
X40423607Y-97224575D01*
X40441639Y-97218716D01*
X40602994Y-97136501D01*
X40695544Y-97069260D01*
X40749495Y-97030063D01*
X40749497Y-97030060D01*
X40749501Y-97030058D01*
X40877553Y-96902006D01*
X40983996Y-96755499D01*
X41066211Y-96594144D01*
X41122171Y-96421914D01*
X41139094Y-96315067D01*
X41150500Y-96243056D01*
X41150500Y-96061953D01*
X41129148Y-95927147D01*
X41122171Y-95883096D01*
X41066211Y-95710866D01*
X41066211Y-95710865D01*
X41019962Y-95620098D01*
X40983996Y-95549511D01*
X40949976Y-95502686D01*
X40877558Y-95403010D01*
X40877554Y-95403005D01*
X40749499Y-95274950D01*
X40749494Y-95274946D01*
X40602997Y-95168511D01*
X40602996Y-95168510D01*
X40602994Y-95168509D01*
X40551300Y-95142169D01*
X40441639Y-95086293D01*
X40441636Y-95086292D01*
X40269410Y-95030334D01*
X40090551Y-95002005D01*
X40090546Y-95002005D01*
X39909454Y-95002005D01*
X39909449Y-95002005D01*
X39730589Y-95030334D01*
X39558363Y-95086292D01*
X39558360Y-95086293D01*
X39397002Y-95168511D01*
X39250505Y-95274946D01*
X39250500Y-95274950D01*
X39122445Y-95403005D01*
X39122441Y-95403010D01*
X39016006Y-95549507D01*
X38933788Y-95710865D01*
X38933787Y-95710868D01*
X38877829Y-95883094D01*
X38872473Y-95916911D01*
X38842543Y-95980045D01*
X38783232Y-96016976D01*
X38713369Y-96015978D01*
X38655137Y-95977368D01*
X38627527Y-95916911D01*
X38623052Y-95888660D01*
X38622171Y-95883096D01*
X38566211Y-95710866D01*
X38566211Y-95710865D01*
X38519962Y-95620098D01*
X38483996Y-95549511D01*
X38449976Y-95502686D01*
X38377558Y-95403010D01*
X38377554Y-95403005D01*
X38249499Y-95274950D01*
X38249494Y-95274946D01*
X38102997Y-95168511D01*
X38102996Y-95168510D01*
X38102994Y-95168509D01*
X38051300Y-95142169D01*
X37941639Y-95086293D01*
X37941636Y-95086292D01*
X37769410Y-95030334D01*
X37590551Y-95002005D01*
X37590546Y-95002005D01*
X37409454Y-95002005D01*
X37409449Y-95002005D01*
X37230589Y-95030334D01*
X37058363Y-95086292D01*
X37058360Y-95086293D01*
X36897002Y-95168511D01*
X36750505Y-95274946D01*
X36750500Y-95274950D01*
X36622445Y-95403005D01*
X36622441Y-95403010D01*
X36516006Y-95549507D01*
X36433788Y-95710865D01*
X36433787Y-95710868D01*
X36377829Y-95883094D01*
X36372473Y-95916911D01*
X36342543Y-95980045D01*
X36283232Y-96016976D01*
X36213369Y-96015978D01*
X36155137Y-95977368D01*
X36127527Y-95916911D01*
X36123052Y-95888660D01*
X36122171Y-95883096D01*
X36066211Y-95710866D01*
X36066211Y-95710865D01*
X36019962Y-95620098D01*
X35983996Y-95549511D01*
X35949976Y-95502686D01*
X35877558Y-95403010D01*
X35877554Y-95403005D01*
X35749499Y-95274950D01*
X35749494Y-95274946D01*
X35602997Y-95168511D01*
X35602996Y-95168510D01*
X35602994Y-95168509D01*
X35551300Y-95142169D01*
X35441639Y-95086293D01*
X35441636Y-95086292D01*
X35269410Y-95030334D01*
X35090551Y-95002005D01*
X35090546Y-95002005D01*
X34909454Y-95002005D01*
X34909449Y-95002005D01*
X34730589Y-95030334D01*
X34558363Y-95086292D01*
X34558360Y-95086293D01*
X34397002Y-95168511D01*
X34250505Y-95274946D01*
X34250500Y-95274950D01*
X34122445Y-95403005D01*
X34122441Y-95403010D01*
X34016006Y-95549507D01*
X33933788Y-95710865D01*
X33933787Y-95710868D01*
X33877829Y-95883094D01*
X33849500Y-96061953D01*
X33849500Y-96243056D01*
X33877829Y-96421915D01*
X33933787Y-96594141D01*
X33933788Y-96594144D01*
X33985530Y-96695691D01*
X34004821Y-96733552D01*
X34016006Y-96755502D01*
X34122441Y-96901999D01*
X34122445Y-96902004D01*
X34250500Y-97030059D01*
X34250505Y-97030063D01*
X34397004Y-97136500D01*
X34457884Y-97167520D01*
X34508681Y-97215494D01*
X34525476Y-97283315D01*
X34502939Y-97349450D01*
X34448224Y-97392902D01*
X34401591Y-97402005D01*
X34302130Y-97402005D01*
X34302123Y-97402006D01*
X34242516Y-97408413D01*
X34107671Y-97458707D01*
X34107664Y-97458711D01*
X33992455Y-97544957D01*
X33987181Y-97550232D01*
X33925858Y-97583717D01*
X33856166Y-97578733D01*
X33800233Y-97536861D01*
X33775816Y-97471397D01*
X33775500Y-97462551D01*
X33775500Y-97224575D01*
X33761550Y-97136500D01*
X33735474Y-96971866D01*
X33695942Y-96850198D01*
X33656411Y-96728532D01*
X33656410Y-96728529D01*
X33592528Y-96603155D01*
X33540252Y-96500558D01*
X33483114Y-96421914D01*
X33389867Y-96293569D01*
X33389863Y-96293564D01*
X33208940Y-96112641D01*
X33208935Y-96112637D01*
X33001950Y-95962255D01*
X33001949Y-95962254D01*
X33001947Y-95962253D01*
X32903909Y-95912300D01*
X32773975Y-95846094D01*
X32773972Y-95846093D01*
X32530640Y-95767031D01*
X32324095Y-95734317D01*
X32277930Y-95727005D01*
X32022070Y-95727005D01*
X31975905Y-95734317D01*
X31769359Y-95767031D01*
X31526027Y-95846093D01*
X31526024Y-95846094D01*
X31298049Y-95962255D01*
X31091064Y-96112637D01*
X31091059Y-96112641D01*
X30910136Y-96293564D01*
X30910132Y-96293569D01*
X30759750Y-96500554D01*
X30643589Y-96728529D01*
X30643588Y-96728532D01*
X30564526Y-96971864D01*
X30533537Y-97167520D01*
X30524500Y-97224575D01*
X23728999Y-97224575D01*
X23830928Y-97150519D01*
X23953414Y-97028033D01*
X24055232Y-96887893D01*
X24133873Y-96733550D01*
X24187402Y-96568806D01*
X24214500Y-96397716D01*
X24214500Y-96224494D01*
X24187402Y-96053404D01*
X24133873Y-95888660D01*
X24055232Y-95734317D01*
X23953414Y-95594177D01*
X23830928Y-95471691D01*
X23690788Y-95369873D01*
X23536445Y-95291232D01*
X23371701Y-95237703D01*
X23371699Y-95237702D01*
X23371698Y-95237702D01*
X23240271Y-95216886D01*
X23200611Y-95210605D01*
X23027389Y-95210605D01*
X22987728Y-95216886D01*
X22856302Y-95237702D01*
X22856299Y-95237703D01*
X22702392Y-95287711D01*
X22691552Y-95291233D01*
X22537211Y-95369873D01*
X22491603Y-95403010D01*
X22397072Y-95471691D01*
X22397070Y-95471693D01*
X22397069Y-95471693D01*
X22274588Y-95594174D01*
X22274588Y-95594175D01*
X22274586Y-95594177D01*
X22255752Y-95620100D01*
X22172768Y-95734316D01*
X22094128Y-95888657D01*
X22040597Y-96053407D01*
X22013500Y-96224494D01*
X21285200Y-96224494D01*
X21285200Y-94111384D01*
X21345828Y-93869341D01*
X21348165Y-93861210D01*
X21364658Y-93810451D01*
X21365774Y-93807180D01*
X21462190Y-93537715D01*
X21465631Y-93529131D01*
X21479392Y-93498223D01*
X21480498Y-93495813D01*
X21611126Y-93219624D01*
X21616838Y-93208939D01*
X21754664Y-92978989D01*
X32833900Y-92978989D01*
X32833900Y-93152210D01*
X32853070Y-93273250D01*
X32860998Y-93323301D01*
X32910801Y-93476579D01*
X32914528Y-93488047D01*
X32918450Y-93495745D01*
X32993168Y-93642388D01*
X33094986Y-93782528D01*
X33217472Y-93905014D01*
X33357612Y-94006832D01*
X33511955Y-94085473D01*
X33676699Y-94139002D01*
X33847789Y-94166100D01*
X33847790Y-94166100D01*
X34021010Y-94166100D01*
X34021011Y-94166100D01*
X34192101Y-94139002D01*
X34356845Y-94085473D01*
X34511188Y-94006832D01*
X34651328Y-93905014D01*
X34773814Y-93782528D01*
X34875632Y-93642388D01*
X34954273Y-93488045D01*
X35007802Y-93323301D01*
X35034900Y-93152211D01*
X35034900Y-92978989D01*
X38294900Y-92978989D01*
X38294900Y-93152210D01*
X38314070Y-93273250D01*
X38321998Y-93323301D01*
X38371801Y-93476579D01*
X38375528Y-93488047D01*
X38379450Y-93495745D01*
X38454168Y-93642388D01*
X38555986Y-93782528D01*
X38678472Y-93905014D01*
X38818612Y-94006832D01*
X38972955Y-94085473D01*
X39137699Y-94139002D01*
X39308789Y-94166100D01*
X39308790Y-94166100D01*
X39482010Y-94166100D01*
X39482011Y-94166100D01*
X39653101Y-94139002D01*
X39817845Y-94085473D01*
X39972188Y-94006832D01*
X40112328Y-93905014D01*
X40234814Y-93782528D01*
X40336632Y-93642388D01*
X40415273Y-93488045D01*
X40468802Y-93323301D01*
X40495900Y-93152211D01*
X40495900Y-92978989D01*
X40468802Y-92807899D01*
X40415273Y-92643155D01*
X40336632Y-92488812D01*
X40234814Y-92348672D01*
X40112328Y-92226186D01*
X39972188Y-92124368D01*
X39817845Y-92045727D01*
X39653101Y-91992198D01*
X39653099Y-91992197D01*
X39653098Y-91992197D01*
X39521671Y-91971381D01*
X39482011Y-91965100D01*
X39308789Y-91965100D01*
X39269128Y-91971381D01*
X39137702Y-91992197D01*
X38972952Y-92045728D01*
X38818611Y-92124368D01*
X38772875Y-92157598D01*
X38678472Y-92226186D01*
X38678470Y-92226188D01*
X38678469Y-92226188D01*
X38555988Y-92348669D01*
X38555988Y-92348670D01*
X38555986Y-92348672D01*
X38523214Y-92393779D01*
X38454168Y-92488811D01*
X38375528Y-92643152D01*
X38321997Y-92807902D01*
X38294900Y-92978989D01*
X35034900Y-92978989D01*
X35007802Y-92807899D01*
X34954273Y-92643155D01*
X34875632Y-92488812D01*
X34773814Y-92348672D01*
X34651328Y-92226186D01*
X34511188Y-92124368D01*
X34356845Y-92045727D01*
X34192101Y-91992198D01*
X34192099Y-91992197D01*
X34192098Y-91992197D01*
X34060671Y-91971381D01*
X34021011Y-91965100D01*
X33847789Y-91965100D01*
X33808128Y-91971381D01*
X33676702Y-91992197D01*
X33511952Y-92045728D01*
X33357611Y-92124368D01*
X33311875Y-92157598D01*
X33217472Y-92226186D01*
X33217470Y-92226188D01*
X33217469Y-92226188D01*
X33094988Y-92348669D01*
X33094988Y-92348670D01*
X33094986Y-92348672D01*
X33062214Y-92393779D01*
X32993168Y-92488811D01*
X32914528Y-92643152D01*
X32860997Y-92807902D01*
X32833900Y-92978989D01*
X21754664Y-92978989D01*
X21787145Y-92924798D01*
X21793891Y-92914701D01*
X21991232Y-92648618D01*
X21998935Y-92639233D01*
X22221405Y-92393775D01*
X22229975Y-92385205D01*
X22475433Y-92162735D01*
X22484818Y-92155032D01*
X22750905Y-91957688D01*
X22760998Y-91950945D01*
X23045139Y-91780638D01*
X23055824Y-91774926D01*
X23332013Y-91644298D01*
X23334423Y-91643192D01*
X23365331Y-91629431D01*
X23373915Y-91625990D01*
X23643380Y-91529574D01*
X23646651Y-91528458D01*
X23697410Y-91511965D01*
X23705541Y-91509628D01*
X23972133Y-91442850D01*
X23976289Y-91441889D01*
X24039010Y-91428557D01*
X24046485Y-91427209D01*
X24312025Y-91387820D01*
X24317139Y-91387172D01*
X24386343Y-91379899D01*
X24393147Y-91379374D01*
X24696967Y-91364448D01*
X24703051Y-91364300D01*
X42773491Y-91364300D01*
X42840530Y-91383985D01*
G37*
%TD.AperFunction*%
%TD*%
%TA.AperFunction,Conductor*%
%TO.N,GND*%
G36*
X21285200Y-137252418D02*
G01*
X21279059Y-137227902D01*
X21278084Y-137223685D01*
X21264760Y-137161000D01*
X21263408Y-137153502D01*
X21224022Y-136887986D01*
X21223371Y-136882848D01*
X21216099Y-136813661D01*
X21215574Y-136806846D01*
X21200649Y-136503032D01*
X21200500Y-136496948D01*
X21200500Y-131382237D01*
X21220185Y-131315198D01*
X21272989Y-131269443D01*
X21285200Y-131267687D01*
X21285200Y-137252418D01*
G37*
%TD.AperFunction*%
%TA.AperFunction,Conductor*%
G36*
X21285200Y-130760858D02*
G01*
X21229635Y-130724016D01*
X21201522Y-130660052D01*
X21200500Y-130644162D01*
X21200500Y-125385574D01*
X21220185Y-125318535D01*
X21272989Y-125272780D01*
X21285200Y-125271024D01*
X21285200Y-130760858D01*
G37*
%TD.AperFunction*%
%TA.AperFunction,Conductor*%
G36*
X21285200Y-122975648D02*
G01*
X21263525Y-122970608D01*
X21214830Y-122920502D01*
X21200500Y-122862635D01*
X21200500Y-94866851D01*
X21200649Y-94860767D01*
X21202004Y-94833185D01*
X21215574Y-94556947D01*
X21216099Y-94550143D01*
X21223372Y-94480939D01*
X21224020Y-94475825D01*
X21263409Y-94210285D01*
X21264757Y-94202810D01*
X21278089Y-94140089D01*
X21279050Y-94135933D01*
X21285200Y-94111380D01*
X21285200Y-122975648D01*
G37*
%TD.AperFunction*%
%TD*%
M02*
